<svg width="54" height="118" viewBox="0 0 54 118" fill="none" xmlns="http://www.w3.org/2000/svg">
<path d="M31.415 82.1158V81.735C31.4842 81.6658 31.8821 81.7004 31.8821 81.7004V81.8216L31.415 82.1158Z" fill="#5E63BF"/>
<path d="M33.0066 72.4572C32.5568 72.6995 32.5396 72.6822 32.3493 72.2322C32.0724 72.1283 31.7956 72.0071 31.7956 71.661C32.0724 71.7648 32.3319 71.886 32.3493 72.2322L33.0066 72.4572Z" fill="#5E63BF"/>
<path d="M28.3782 71.7723C28.2444 71.5779 28.1861 71.3414 28.2143 71.1071C28.9582 71.384 28.9582 71.384 28.9409 72.1629H29.2696C29.5464 72.1629 29.581 72.2322 29.5464 72.4572C29.5118 72.6822 29.408 72.8899 29.1312 72.8899V72.8726C28.9063 72.8553 28.8544 72.7514 28.9409 72.4918C28.9229 72.3829 28.9229 72.2718 28.9409 72.1629C28.7121 72.1056 28.512 71.9667 28.3782 71.7723Z" fill="#5E63BF"/>
<path d="M32.1762 83.8987C32.126 83.9173 32.0708 83.9173 32.0205 83.8987H32.0032C31.8821 83.7602 31.934 83.691 32.0551 83.691C32.1762 83.691 32.1762 83.6564 32.1762 83.7775V83.8987Z" fill="#5E63BF"/>
<path d="M33.4046 72.0937C33.4104 72.0937 33.4161 72.0937 33.4219 72.0937H33.4046C33.4046 72.1802 33.3354 72.3533 33.3354 72.3533C33.2534 72.4141 33.1588 72.4556 33.0585 72.4745C33.0832 72.3729 33.1305 72.2782 33.197 72.1975C33.2454 72.1006 33.324 72.0941 33.4046 72.0937Z" fill="#5E63BF"/>
<path d="M31.6918 71.4359L31.7043 71.4635C31.735 71.4835 31.7783 71.5052 31.7783 71.5052V71.6263L31.7043 71.4635C31.6875 71.4525 31.6745 71.4421 31.6745 71.4359H31.6918Z" fill="#5E63BF"/>
<path d="M32.3665 89.2127C32.2304 89.3259 32.079 89.4191 31.9167 89.4897V89.4724C31.6745 89.5243 31.4496 89.1608 31.588 89.005C31.6399 88.9401 31.7057 88.8878 31.7806 88.8518C31.8555 88.8159 31.9375 88.7972 32.0205 88.7973C32.1416 88.8146 32.2281 89.0223 32.3665 89.2127Z" fill="#5E63BF"/>
<path d="M32.6088 77.425V77.7366C32.6088 77.7712 32.505 77.8577 32.505 77.8577C32.4305 77.7755 32.3612 77.6888 32.2973 77.5981C32.2888 77.5407 32.2888 77.4824 32.2973 77.425C32.4184 77.425 32.6088 77.3558 32.6088 77.425Z" fill="#5E63BF"/>
<path d="M29.7021 50.2665C29.5464 50.128 29.3561 50.0761 29.3561 49.9896V49.9723C29.1485 49.4184 28.9236 48.8471 28.7506 48.3105C28.7125 48.1306 28.7177 47.9441 28.7658 47.7665C28.8139 47.5889 28.9036 47.4253 29.0274 47.2893C29.0698 47.2529 29.1197 47.2263 29.1735 47.2113C29.2273 47.1963 29.2837 47.1934 29.3388 47.2027C29.4253 47.2027 29.4254 47.4278 29.4254 47.4278C29.3003 47.561 29.2237 47.7326 29.208 47.9147C29.1923 48.0969 29.2384 48.279 29.3388 48.4317C29.4432 48.6432 29.5647 48.8458 29.7021 49.0375C29.8578 49.2279 30.0482 49.4184 30.1866 49.5741C30.325 49.7299 30.6364 49.903 30.325 50.128C30.1286 50.2149 29.9168 50.2619 29.7021 50.2665Z" fill="#5E63BF"/>
<path d="M28.9063 58.575C28.9412 58.7289 28.9412 58.8886 28.9063 59.0424V59.077C28.889 59.1289 28.6814 59.354 28.6295 59.1462C28.5776 58.9385 28.4046 58.627 28.4911 58.5231C28.5776 58.4192 28.5776 58.3846 28.6641 58.4192C28.7506 58.4539 28.9063 58.575 28.9063 58.575Z" fill="#5E63BF"/>
<path d="M28.7506 79.6752C28.7003 79.6938 28.6451 79.6938 28.5949 79.6752L28.5084 79.5367H28.7506V79.6752Z" fill="#5E63BF"/>
<path d="M27.5049 71.6956C27.5049 71.6781 27.5049 71.6621 27.5047 71.6476C27.5014 71.6898 27.453 71.8514 27.453 71.8514H27.3319C27.3134 71.8011 27.3134 71.7458 27.3319 71.6956C27.4875 71.5088 27.5032 71.518 27.5047 71.6476C27.5049 71.6461 27.5049 71.6448 27.5049 71.6436V71.6956Z" fill="#5E63BF"/>
<path d="M40.7921 40.8329C40.7855 40.8322 40.7789 40.8315 40.7723 40.831C40.6536 41.1234 40.493 41.3896 40.1001 41.4387C40.0791 41.4509 40.0552 41.4573 40.0309 41.4573C40.0066 41.4573 39.9828 41.4509 39.9617 41.4387C39.9432 41.3884 39.9432 41.3332 39.9617 41.2829C40.0381 41.1324 40.1584 41.0087 40.3068 40.9283C40.4493 40.8511 40.6111 40.8173 40.7723 40.831C40.7773 40.8186 40.7822 40.8063 40.7871 40.7939C40.7712 40.783 40.7556 40.7729 40.7402 40.7636C40.8162 40.6149 40.9091 40.4755 41.0171 40.3482C41.1728 40.2097 41.3458 40.3136 41.4323 40.4694H41.5015C41.5296 40.5218 41.5456 40.58 41.5483 40.6394C41.551 40.6989 41.5404 40.7582 41.5172 40.813C41.4939 40.8678 41.4587 40.9167 41.4141 40.9561C41.3694 40.9955 41.3166 41.0244 41.2593 41.0406C41.1345 41.0874 40.9534 40.909 40.7921 40.7974V40.8329Z" fill="#5E63BF"/>
<path d="M31.0863 49.0202V49.0722C31.0623 49.1029 31.0276 49.1235 30.9892 49.1299C30.9507 49.1363 30.9113 49.128 30.8786 49.1068C30.7402 48.9164 30.844 48.9164 30.9651 48.9164C31.0862 48.9164 31.0863 48.9164 31.0863 49.0202Z" fill="#5E63BF"/>
<path d="M31.3284 52.9841L30.8959 53.261V53.2091C30.8613 53.0879 30.844 53.036 30.844 53.036C30.8488 52.9921 30.8648 52.9501 30.8903 52.9141C30.9159 52.878 30.9502 52.8491 30.9901 52.83C31.0299 52.811 31.074 52.8024 31.118 52.8051C31.1621 52.8078 31.2048 52.8218 31.242 52.8456C31.2756 52.8886 31.3045 52.935 31.3284 52.9841Z" fill="#5E63BF"/>
<path d="M28.4373 44.2509C28.5116 44.233 28.5887 44.2303 28.6641 44.2428V44.1909C28.745 44.227 28.8174 44.2795 28.877 44.345C28.9366 44.4105 28.9819 44.4877 29.0101 44.5717C29.0793 44.7448 28.7506 44.9352 28.4911 44.8487C28.2316 44.7621 28.0586 44.4679 28.2316 44.3467C28.2931 44.3013 28.363 44.2687 28.4373 44.2509Z" fill="#5E63BF"/>
<path d="M32.2973 79.2944C32.2973 79.2944 32.2973 79.2944 32.2812 79.2806C32.2643 79.3242 32.2454 79.381 32.2454 79.381C32.2217 79.3946 32.1949 79.4018 32.1676 79.4018C32.1402 79.4018 32.1134 79.3946 32.0897 79.381C31.9686 79.1906 32.0551 79.0867 32.1762 79.1906C32.2355 79.2414 32.2657 79.2673 32.2812 79.2806C32.2871 79.2652 32.2928 79.2515 32.2973 79.2425V79.2944Z" fill="#5E63BF"/>
<path d="M28.024 57.6576L28.2143 57.5538C28.2143 57.5711 28.145 57.6576 28.145 57.6576H28.024Z" fill="#5E63BF"/>
<path d="M26.9167 65.3949V65.2911H26.8648C26.9513 65.1526 27.0551 65.2218 27.0551 65.2565C27.0551 65.2911 27.0897 65.3949 27.0551 65.3949H26.9167Z" fill="#5E63BF"/>
<path d="M27.7355 47.7226C27.7568 47.7409 27.7728 47.7646 27.7817 47.7913H27.7298L27.7991 47.9297L27.0724 48.3452L26.9167 48.1721C26.9042 48.1449 26.8978 48.1154 26.8978 48.0855C26.8978 48.0557 26.9042 48.0261 26.9167 47.999C26.9862 47.8696 27.098 47.768 27.2334 47.7112C27.3689 47.6545 27.5197 47.6461 27.6606 47.6874C27.6883 47.6922 27.7142 47.7044 27.7355 47.7226Z" fill="#5E63BF"/>
<path d="M31.3458 54.3515C30.9917 54.6684 30.6095 54.9523 30.2039 55.1997H30.152C29.9444 55.3209 29.7368 55.1131 29.7887 54.8362L31.3458 53.9707V54.3515Z" fill="#5E63BF"/>
<path d="M27.7472 56.394H27.9029C27.8856 56.446 27.9201 56.5498 27.8855 56.5498H27.7472C27.7443 56.4979 27.7443 56.4459 27.7472 56.394Z" fill="#5E63BF"/>
<path d="M27.107 68.8568C27.2108 68.6837 27.3319 68.701 27.3319 68.8568H27.3492C27.3337 68.9192 27.297 68.9743 27.2454 69.0126C27.2108 69.0126 27.107 69.0645 27.107 69.0126C27.107 68.9607 27.0032 69.0299 27.107 68.8568Z" fill="#5E63BF"/>
<path d="M27.5915 57.8134C27.5222 57.8307 27.4184 57.7096 27.3319 57.7096H27.4011C27.4876 57.6576 27.5568 57.6576 27.5568 57.6576C27.66 57.6414 27.765 57.6414 27.8682 57.6576C27.7861 57.7259 27.6924 57.7787 27.5915 57.8134Z" fill="#5E63BF"/>
<path d="M45.3251 49.0548C45.3755 49.0377 45.4303 49.0377 45.4808 49.0548L45.5154 49.0375C45.6884 49.1241 45.4981 49.1068 45.4634 49.1933C45.4288 49.2799 45.3251 49.1933 45.3251 49.1933C45.3141 49.1478 45.3141 49.1003 45.3251 49.0548Z" fill="#5E63BF"/>
<path d="M45.4461 50.6819C45.3596 50.5954 45.2385 50.5088 45.2385 50.405L45.3077 50.3877C45.2904 50.3357 45.5154 50.2492 45.5154 50.2492L45.5846 50.3184C45.6034 50.4389 45.6034 50.5615 45.5846 50.6819H45.4461Z" fill="#5E63BF"/>
<path d="M44.5465 48.674C44.633 48.5009 44.7541 48.5183 44.7541 48.674L44.8233 48.6394C44.8119 48.6742 44.7914 48.7053 44.7641 48.7296C44.7367 48.7539 44.7035 48.7706 44.6676 48.7779C44.6503 48.8644 44.5465 48.7779 44.5465 48.7779C44.5369 48.7439 44.5369 48.708 44.5465 48.674Z" fill="#5E63BF"/>
<path d="M43.5603 52.0667C43.8544 51.8763 44.3043 52.0494 44.46 51.6166L44.5292 51.582C43.9755 51.1147 43.9755 51.1147 44.633 50.8204C45.1347 51.0627 45.1866 51.6513 45.6884 51.9801C45.3664 52.274 44.9765 52.4832 44.5537 52.589C44.1309 52.6947 43.6885 52.6937 43.2662 52.586C43.1451 52.2744 43.2662 52.2571 43.5603 52.0667Z" fill="#5E63BF"/>
<path d="M42.7818 65.8104H42.9375L43.0067 65.8277C43.0686 65.8576 43.1161 65.9108 43.1388 65.9757C43.1615 66.0406 43.1575 66.1119 43.1278 66.1739C43.1105 66.295 43.0413 66.295 42.9375 66.295L42.7818 65.8104Z" fill="#5E63BF"/>
<path d="M33.7852 80.5926L33.6987 80.3676L33.7679 80.333C33.8198 80.3157 33.889 80.2984 33.889 80.333V80.4888L33.7852 80.5926Z" fill="#5E63BF"/>
<path d="M42.6953 69.203C42.7845 69.1017 42.8829 69.009 42.9894 68.9261L43.0586 68.8914C43.0759 68.8741 43.1797 69.0992 43.1797 69.0992C43.13 69.2252 43.0599 69.3422 42.9721 69.4454L42.6953 69.203Z" fill="#5E63BF"/>
<path d="M45.0655 73.5996C45.0742 73.6512 45.0742 73.7038 45.0655 73.7554L45.1347 73.7208C45.0482 73.8593 44.9617 73.8419 44.9444 73.7035C44.9386 73.6691 44.9386 73.634 44.9444 73.5996H45.0655Z" fill="#5E63BF"/>
<path d="M44.114 44.8021C44.065 44.8021 44.017 44.7882 43.9755 44.7621L44.0447 44.7275C43.7852 44.4679 43.7852 44.139 43.8717 43.862C44.3735 44.2255 44.4773 44.4159 44.2523 44.7621C44.2109 44.7882 44.163 44.8021 44.114 44.8021Z" fill="#5E63BF"/>
<path d="M41.6053 41.7849H41.7437L41.8129 41.7503C41.8105 41.783 41.7997 41.8145 41.7815 41.8418C41.7633 41.8691 41.7383 41.8912 41.7091 41.9061L41.6053 42.0272V41.7849Z" fill="#5E63BF"/>
<path d="M45.0042 42.5549C45.2161 42.7252 45.3555 42.9697 45.3942 43.2389L45.5154 43.2043C45.5177 43.303 45.4951 43.4007 45.4498 43.4885C45.4044 43.5762 45.3377 43.6511 45.2558 43.7062C45.152 43.7582 44.9444 43.6024 44.7887 43.6024C44.61 43.502 44.4367 43.3922 44.2697 43.2735L43.8717 43.8274L42.6434 43.0139C42.678 42.7196 42.7645 42.4253 42.7645 42.1311C43.2316 41.9407 43.941 42.2696 44.1313 41.4733C44.2523 41.7502 44.2523 42.027 44.2523 42.3212V42.3215C44.5234 42.3012 44.7922 42.3846 45.0042 42.5549Z" fill="#5E63BF"/>
<path d="M42.4012 43.1177L42.476 43.0769C42.5029 43.0444 42.4877 43.0139 42.4877 43.0139H42.5915L42.476 43.0769C42.4743 43.0789 42.4724 43.081 42.4703 43.0831L42.4012 43.1177Z" fill="#5E63BF"/>
<path d="M44.8406 45.3333L44.633 45.4372L44.7195 45.3333H44.8406Z" fill="#5E63BF"/>
<path d="M44.0447 69.0819C44.3389 68.8741 44.633 68.701 44.9617 68.4933L45.0309 68.4587C45.5154 69.0819 45.1174 69.6184 44.7368 70.4839C44.5984 69.8088 43.8371 69.93 43.8371 69.3415C43.9063 69.2549 43.7506 69.2896 44.0447 69.0819Z" fill="#5E63BF"/>
<path d="M35.4461 65.1526V64.7718H35.8441V65.0488C35.7169 65.1016 35.5829 65.1366 35.4461 65.1526Z" fill="#5E63BF"/>
<path d="M42.3665 63.1793C42.7126 62.7812 43.024 62.5908 43.1105 62.7812V62.8158C43.2835 63.2313 43.0413 63.4909 42.7818 63.6294C42.6158 63.7814 42.4295 63.9096 42.2282 64.0102C42.1936 64.0967 42.1763 64.0967 42.0724 64.0102C41.9686 63.9236 41.9686 63.7332 41.9686 63.7332C42.0898 63.5406 42.2226 63.3556 42.3665 63.1793Z" fill="#5E63BF"/>
<path d="M35.4288 67.6625H35.2731V67.6971C35.2558 67.6452 35.2385 67.5586 35.2385 67.5586L35.325 67.4375L35.4288 67.6625Z" fill="#5E63BF"/>
<path d="M36.5015 59.6309C36.6558 59.6882 36.7846 59.7987 36.8648 59.9425C36.9686 59.9944 36.8648 60.1848 36.7783 60.2367C36.4323 60.5137 36.0517 60.756 35.6883 60.9983L35.2558 60.6522C35.393 60.2658 35.6627 59.9407 36.0171 59.7348C36.0859 59.6843 36.1647 59.6489 36.2482 59.631C36.3317 59.6131 36.418 59.6131 36.5015 59.6309Z" fill="#5E63BF"/>
<path d="M33.6122 65.6546H33.8717H33.9236C33.9604 65.7899 33.9778 65.9298 33.9755 66.07H33.6122C33.5955 65.932 33.5955 65.7926 33.6122 65.6546Z" fill="#5E63BF"/>
<path d="M38.8025 67.4548C38.7836 67.2938 38.7836 67.1311 38.8025 66.9701H38.8544C38.9236 66.7624 39.0447 66.8316 39.1831 66.9874C39.3216 67.1432 39.3908 67.3336 39.1831 67.4548C39.0569 67.4723 38.9288 67.4723 38.8025 67.4548Z" fill="#5E63BF"/>
<path d="M36.0517 63.6467C35.3077 63.3524 35.2039 62.8158 35.7229 62.1408H35.7748C36.1728 62.5908 36.069 63.1274 36.0517 63.6467Z" fill="#5E63BF"/>
<path d="M40.6364 72.7688C40.7254 72.734 40.8243 72.734 40.9133 72.7688L41.0171 72.7514C41.0307 72.8901 41.025 73.0299 40.9998 73.1669H40.6364C40.6184 73.0348 40.6184 72.9008 40.6364 72.7688Z" fill="#5E63BF"/>
<path d="M40.7057 77.2865C40.8011 77.3404 40.8746 77.4262 40.9133 77.5288H41.0863C41.098 77.6066 41.0913 77.6859 41.0667 77.7606C41.0422 77.8352 41.0005 77.9031 40.9449 77.9586C40.8894 78.0142 40.8216 78.056 40.7469 78.0805C40.6723 78.1051 40.593 78.1118 40.5153 78.1001C40.4966 77.8639 40.4966 77.6266 40.5153 77.3904L40.7057 77.2865Z" fill="#5E63BF"/>
<path d="M40.4807 66.8489C40.606 66.7457 40.7544 66.6745 40.9133 66.6412H41.0344C41.1555 66.6585 41.3804 66.8143 41.2593 66.9009C41.1382 66.9874 40.9305 67.1778 40.8959 67.1778H40.6711L40.4807 66.8489Z" fill="#5E63BF"/>
<path d="M39.235 65.4988L39.4254 65.4123L39.3562 65.4988H39.235Z" fill="#5E63BF"/>
<path d="M38.6641 65.5161V65.2219H38.7852C38.7852 65.2045 38.8372 65.1872 38.8372 65.1872L39.2177 65.5161C39.0447 65.6892 38.6641 65.568 38.6641 65.5161Z" fill="#5E63BF"/>
<path d="M28.4565 61.1195C28.0932 61.2926 27.8337 61.4484 27.5741 61.5522H27.6953C27.6508 61.6017 27.591 61.6347 27.5255 61.6457C27.4599 61.6568 27.3926 61.6453 27.3344 61.6132C27.2762 61.5811 27.2306 61.5302 27.205 61.4689C27.1794 61.4075 27.1754 61.3393 27.1935 61.2753C27.1973 61.1979 27.2179 61.1222 27.2537 61.0535C27.2895 60.9847 27.3398 60.9246 27.4011 60.8772C27.7471 60.6695 28.0586 60.8079 28.4565 61.1195Z" fill="#5E63BF"/>
<path d="M33.3008 61.4484L33.1104 61.5522L33.2316 61.6388C33.2662 61.6042 33.4046 61.4484 33.4046 61.4484H33.3008Z" fill="#5E63BF"/>
<path d="M33.1278 77.4596C33.2143 77.2865 33.3354 77.3038 33.3354 77.4596L33.4046 77.5462C33.3825 77.5626 33.3564 77.5728 33.3291 77.5758C33.3017 77.5789 33.2741 77.5746 33.2489 77.5635H33.1278C33.1181 77.5295 33.1181 77.4936 33.1278 77.4596Z" fill="#5E63BF"/>
<path d="M33.197 83.241C33.2835 83.0679 33.4046 83.0852 33.4046 83.241C33.3989 83.2637 33.3882 83.2848 33.3732 83.3028C33.3582 83.3207 33.3394 83.3351 33.3181 83.3448H33.197C33.1874 83.3109 33.1874 83.2749 33.197 83.241Z" fill="#5E63BF"/>
<path d="M33.7333 61.4138L33.6707 61.4479C33.6641 61.4812 33.6641 61.5176 33.6641 61.5176H33.543L33.6707 61.4479C33.6732 61.4354 33.6767 61.4233 33.6814 61.4138H33.7333Z" fill="#5E63BF"/>
<path d="M33.7333 76.2306V76.3864L33.6295 76.421L33.5084 76.3172L33.7333 76.2306Z" fill="#5E63BF"/>
<path d="M32.9028 60.4618C32.8952 60.3523 32.8952 60.2424 32.9028 60.1329H33.2143C33.2341 60.2416 33.2341 60.353 33.2143 60.4618H32.9028Z" fill="#5E63BF"/>
<path d="M33.889 64.3564C33.8025 64.5122 33.6987 64.5122 33.6987 64.3564C33.6994 64.3363 33.7043 64.3167 33.7133 64.2987C33.7222 64.2808 33.735 64.265 33.7506 64.2525H33.889C33.889 64.2525 33.9755 64.2006 33.889 64.3564Z" fill="#5E63BF"/>
<path d="M35.6883 52.6552C35.7069 52.7055 35.7069 52.7607 35.6883 52.811C35.671 52.8456 35.4807 52.811 35.4807 52.811V52.6552H35.6883Z" fill="#5E63BF"/>
<path d="M34.0742 52.5573C34.0834 52.5164 34.1031 52.4785 34.1313 52.4475C34.1904 52.4088 34.2595 52.3881 34.3302 52.3881C34.4009 52.3881 34.47 52.4088 34.5292 52.4475C34.5292 52.4821 34.633 52.6379 34.5292 52.7418C34.4253 52.8456 34.3388 52.8456 34.2523 52.8456C34.2116 52.8355 34.1743 52.8151 34.1439 52.7862C34.1135 52.7573 34.091 52.7211 34.0788 52.6809C34.0666 52.6408 34.0651 52.5982 34.0742 52.5573Z" fill="#5E63BF"/>
<path d="M34.0447 54.3688L33.9409 54.1784L34.0447 54.2477C34.0518 54.2878 34.0518 54.3288 34.0447 54.3688Z" fill="#5E63BF"/>
<path d="M33.5084 51.2705H33.4046C33.3965 51.2476 33.3939 51.2232 33.3969 51.1992C33.3999 51.1751 33.4085 51.1521 33.4219 51.132C33.5949 51.0108 33.5949 51.0454 33.5949 51.2703V51.2705H33.5084Z" fill="#5E63BF"/>
<path d="M34.1485 39.7597L34.1485 39.7597C34.1425 39.766 34.1366 39.7723 34.1307 39.7785C34.111 40.3752 33.9689 40.8348 33.3354 41.0233C33.4897 40.4573 33.4911 40.4521 34.1307 39.7785C34.1309 39.7722 34.1311 39.766 34.1313 39.7597H34.1485Z" fill="#5E63BF"/>
<path d="M33.3008 47.774C33.2505 47.7925 33.1953 47.7925 33.1451 47.774H33.1278C33.1191 47.7195 33.1016 47.6669 33.0759 47.6182H33.3008V47.774Z" fill="#5E63BF"/>
<path d="M33.6468 41.9061H33.9409C34.0805 41.9521 34.2007 42.0436 34.2823 42.1659C34.3638 42.2883 34.402 42.4345 34.3908 42.5811L34.1485 42.7369C33.9755 42.5119 33.7333 42.0792 33.6468 42.0618C33.5603 42.0445 33.543 41.9061 33.6468 41.9061Z" fill="#5E63BF"/>
<path d="M34.6503 57.3288H34.8406C34.8441 57.3569 34.8412 57.3856 34.8323 57.4125C34.8233 57.4395 34.8084 57.4641 34.7887 57.4845H34.6503V57.3288Z" fill="#5E63BF"/>
<path d="M38.197 59.9079C38.2835 59.9252 38.4219 60.1156 38.4219 60.1156H38.4046C38.3008 60.6349 38.1451 61.1022 38.0413 61.6042C37.8856 61.5176 37.6434 61.4138 37.6434 61.3272C37.7023 60.888 37.7948 60.454 37.9201 60.029C37.9375 59.9079 38.1105 59.8905 38.197 59.9079Z" fill="#5E63BF"/>
<path d="M37.0824 54.7049C37.1123 54.5286 37.1797 54.3609 37.28 54.2131V54.1265C37.3773 53.9854 37.5102 53.8726 37.6652 53.7996C37.8202 53.7267 37.9917 53.6961 38.1624 53.7111C37.9375 54.1958 38.2835 54.6285 38.2835 55.1131C38.1624 55.2343 38.0413 55.3901 37.9201 55.4939C37.8601 55.5614 37.7818 55.61 37.6946 55.6339C37.6075 55.6577 37.5154 55.6558 37.4293 55.6283C37.3433 55.6009 37.267 55.549 37.2098 55.4791C37.1526 55.4092 37.1169 55.3241 37.107 55.2343C37.061 55.0616 37.0526 54.8811 37.0824 54.7049Z" fill="#5E63BF"/>
<path d="M37.6261 68.701C37.5342 68.6817 37.4464 68.6465 37.3666 68.5972V68.5106C37.4358 68.4587 37.505 68.3895 37.5915 68.5453C37.689 68.5311 37.788 68.5311 37.8856 68.5453C37.8071 68.6096 37.7197 68.6621 37.6261 68.701Z" fill="#5E63BF"/>
<path d="M38.0413 68.4414H38.1278V68.3549C38.0932 68.3722 38.1451 68.4414 38.0413 68.4414Z" fill="#5E63BF"/>
<path d="M40.9306 53.036V52.9668V52.8802C40.9479 52.8975 40.9306 53.036 40.9306 53.036C40.9395 53.0759 40.9395 53.1173 40.9306 53.1572V53.036Z" fill="#5E63BF"/>
<path d="M34.1696 62.8087C34.0825 62.5659 34.0751 62.3016 34.1485 62.0542V61.9677C34.8925 62.5735 34.8925 62.5735 34.633 63.4044C34.419 63.2602 34.2567 63.0516 34.1696 62.8087Z" fill="#5E63BF"/>
<path d="M33.9928 54.5592C34.0632 54.6332 34.1164 54.7219 34.1485 54.8189L34.2004 54.7323C34.2177 54.8189 34.1139 55.0785 34.1139 55.0785L33.9928 54.8535C33.9867 54.7555 33.9867 54.6572 33.9928 54.5592Z" fill="#5E63BF"/>
<path d="M35.2212 50.0415C35.3423 50.0069 35.5153 50.1627 35.6537 50.2492C35.5672 50.2492 35.498 50.4915 35.3942 50.6473C34.997 50.6817 34.5976 50.6817 34.2004 50.6473C34.1831 50.6473 34.0794 50.5608 34.0794 50.4223C34.4528 50.2747 34.8339 50.1475 35.2212 50.0415Z" fill="#5E63BF"/>
<path d="M37.3319 52.8629C37.1758 52.7926 37.0436 52.6783 36.9513 52.534V52.4648C36.8648 52.2744 37.0032 52.1705 37.1416 52.2571C37.275 52.2005 37.4025 52.1309 37.5223 52.0494C37.4011 51.7551 37.2627 51.4436 37.1416 51.132C37.0796 51.09 37.0307 51.0314 37.0004 50.9629C36.9702 50.8943 36.9599 50.8186 36.9708 50.7445C36.9816 50.6704 37.0132 50.6008 37.0617 50.5438C37.1103 50.4868 37.174 50.4447 37.2454 50.4223C37.4573 50.3865 37.6737 50.3865 37.8856 50.4223C37.8969 50.5201 37.8969 50.6188 37.8856 50.7166C37.8186 50.815 37.737 50.9026 37.6434 50.9762L38.543 51.2185L39.8406 49.9896C39.9058 49.7302 39.91 49.4593 39.853 49.198C39.796 48.9367 39.6792 48.6922 39.5119 48.4836C39.3642 48.2952 39.2795 48.0651 39.2697 47.8259C39.2524 47.7047 39.4254 47.5316 39.5638 47.4278C39.7022 47.3239 39.9444 47.4105 39.979 47.5316C40.0136 47.6528 40.0309 47.8605 40.1174 47.8605C40.896 48.2413 41.242 49.1414 42.0032 49.5914L42.2108 49.7126L41.9167 50.5435C41.4842 50.7858 41.2593 50.0934 40.8268 50.2492C40.1496 50.9599 39.7032 51.859 39.5465 52.8283C39.1312 52.8456 39.1658 52.5167 39.0101 52.2571C38.8544 51.9975 38.7506 51.6859 38.2835 51.6859C38.0759 52.0494 37.8683 52.4648 37.6261 52.8629H37.3319Z" fill="#5E63BF"/>
<path d="M41.0344 53.2091L41.1382 53.3995L41.0344 53.3303C41.0289 53.2901 41.0289 53.2493 41.0344 53.2091Z" fill="#5E63BF"/>
<path d="M41.0344 47.3066C41.0344 47.3066 41.0276 47.2985 41.0167 47.2857C40.9673 47.4127 40.8973 47.5309 40.8095 47.6355L40.5326 47.3931C40.6236 47.2873 40.7283 47.1941 40.844 47.1162C40.8579 47.1023 40.9722 47.2334 41.0167 47.2857C41.0229 47.2697 41.0288 47.2536 41.0344 47.2374V47.3066Z" fill="#5E63BF"/>
<path d="M31.0343 65.8796V66.0354L30.7229 66.3123C30.6766 66.2407 30.6361 66.1655 30.6018 66.0873L31.0343 65.8796Z" fill="#5E63BF"/>
<path d="M30.6191 73.8419C30.6018 73.9285 30.4634 74.0497 30.3769 74.0497V73.9804C30.3596 73.8766 30.3596 73.7554 30.4115 73.7208L30.6191 73.4784C30.634 73.5992 30.634 73.7212 30.6191 73.8419Z" fill="#5E63BF"/>
<path d="M30.7229 76.4903V76.6461L30.4115 76.923L30.2904 76.698L30.7229 76.4903Z" fill="#5E63BF"/>
<path d="M31.0863 86.322V86.4778H30.8786C30.8705 86.4262 30.8705 86.3736 30.8786 86.322H31.0863Z" fill="#5E63BF"/>
<path d="M30.0136 61.8119H30.152V61.7427C30.1866 61.7773 30.1174 61.9331 30.1174 61.9331L30.0136 62.0542V61.8119Z" fill="#5E63BF"/>
<path d="M30.8959 96.7769H30.7575L30.6883 96.6211H30.8959C30.8959 96.6731 30.9305 96.7769 30.8959 96.7769Z" fill="#5E63BF"/>
<path d="M30.8786 67.4201V67.5586L30.7402 67.6625C30.7402 67.5759 30.6018 67.4201 30.7402 67.4201C30.8786 67.4201 30.8786 67.4028 30.8786 67.4201Z" fill="#5E63BF"/>
<path d="M30.2904 58.3327C30.4634 58.1769 30.7056 57.9865 30.8786 58.1769L30.9478 58.1077C31.0516 58.2288 30.9825 58.5231 30.9305 58.8174C30.8224 58.8275 30.717 58.8568 30.6191 58.9039C30.3942 59.0078 30.1174 59.3193 29.9271 59.0078C29.7367 58.6962 30.1174 58.4885 30.2904 58.3327Z" fill="#5E63BF"/>
<path d="M29.3909 59.8734C29.5812 60.0811 29.7714 60.2887 29.9444 60.5137C29.9444 60.6349 29.9617 60.7041 29.9617 60.7041C29.8874 60.7186 29.811 60.7186 29.7368 60.7041L29.235 60.0463C29.2226 60.0192 29.2162 59.9897 29.2162 59.9598C29.2162 59.9299 29.2226 59.9004 29.235 59.8732C29.2696 59.8732 29.2004 59.6655 29.3907 59.8732L29.3909 59.8734Z" fill="#5E63BF"/>
<path d="M29.7021 69.8954H29.3735H29.2869C29.2696 69.8954 29.2523 69.7915 29.2523 69.7915L29.7021 69.5146C29.7021 69.705 29.7713 69.8954 29.7021 69.8954Z" fill="#5E63BF"/>
<path d="M29.1139 75.2959C29.7194 74.3093 29.7368 74.3093 30.4288 75.0882L30.3423 75.1402C29.9444 75.8498 29.581 74.9324 29.1139 75.2959Z" fill="#5E63BF"/>
<path d="M29.7368 68.1645C29.8233 67.9914 29.9444 67.9914 29.9444 68.1645V68.2337C29.9444 68.2683 29.9098 68.2683 29.8752 68.2683H29.7368C29.7271 68.2344 29.7271 68.1984 29.7368 68.1645Z" fill="#5E63BF"/>
<path d="M29.7887 54.7843H29.4599L29.3735 54.8535C29.1658 54.8535 29.0793 54.7323 29.1139 54.5073C29.1485 54.2823 29.3042 54.0919 29.5464 54.0919C29.7886 54.0919 29.7887 54.265 29.7887 54.4554C29.7957 54.5649 29.7957 54.6748 29.7887 54.7843Z" fill="#5E63BF"/>
<path d="M29.633 56.896C29.6499 57.0224 29.6499 57.1505 29.633 57.2768L29.5464 57.3288C29.5291 57.398 29.4254 57.5711 29.4254 57.4672V57.1383L29.633 56.896Z" fill="#5E63BF"/>
<path d="M32.107 48.6221L32.0568 48.6925C32.0982 48.7574 32.1325 48.8266 32.1589 48.8991H32.0205V48.7433L32.0568 48.6925C32.0452 48.6745 32.0331 48.6568 32.0205 48.6394L32.107 48.6221Z" fill="#5E63BF"/>
<path d="M32.0378 66.5201H31.6745C31.6605 66.3935 31.6605 66.2658 31.6745 66.1393H31.934C31.9846 66.2613 32.0195 66.3892 32.0378 66.5201Z" fill="#5E63BF"/>
<path d="M31.8994 62.5389H31.761L31.6745 62.5735C31.6745 62.5666 31.6742 62.5627 31.6739 62.5608C31.6734 62.5578 31.6731 62.5592 31.6739 62.5608C31.6765 62.5659 31.6921 62.5728 31.761 62.435C31.8648 62.2273 31.9859 62.2273 31.9859 62.435L31.8994 62.5389Z" fill="#5E63BF"/>
<path d="M35.2303 40.6752C35.2421 40.7449 35.2389 40.8164 35.2212 40.8848L35.1347 40.9194C35.1347 41.0406 34.9444 41.0925 34.8579 41.1271C34.7861 41.1049 34.7199 41.0673 34.6641 41.017C34.6082 40.9666 34.5639 40.9048 34.5343 40.8356C34.5047 40.7665 34.4904 40.6917 34.4925 40.6165C34.4946 40.5413 34.513 40.4675 34.5465 40.4001C34.5784 40.361 34.6178 40.3286 34.6623 40.3048C34.7069 40.281 34.7557 40.2664 34.806 40.2617C34.8759 40.2716 34.9431 40.2962 35.0029 40.3339C35.0627 40.3715 35.1138 40.4214 35.153 40.4802C35.1922 40.5391 35.2186 40.6055 35.2303 40.6752Z" fill="#5E63BF"/>
<path d="M32.6433 67.5586H32.4876L32.4011 67.4028H32.6433V67.5586Z" fill="#5E63BF"/>
<path d="M33.4219 46.4238C33.6468 46.5104 33.889 46.5277 33.889 46.6142V46.6661C34.5871 47.524 35.4525 48.2307 36.4323 48.7433C35.9998 49.401 35.9998 49.401 35.2558 49.176C35.1419 49.15 35.0237 49.15 34.9098 49.176C34.7687 49.2277 34.6349 49.2975 34.5119 49.3837C34.4786 49.0724 34.4149 48.7652 34.3215 48.4663C34.2004 48.1375 33.9755 47.8259 33.8371 47.5143C33.6987 47.2027 33.5949 46.8739 33.4219 46.4238Z" fill="#5E63BF"/>
<path d="M30.4115 56.4633H30.2558V56.4806C30.1174 56.394 30.1174 56.3075 30.2731 56.3248C30.2941 56.3126 30.318 56.3063 30.3423 56.3063C30.3666 56.3063 30.3904 56.3126 30.4115 56.3248V56.4633Z" fill="#5E63BF"/>
<path d="M30.9997 58.7308C31.536 59.0251 31.536 59.0424 31.4322 59.6309V59.6482L31.4105 59.6359C30.9127 59.3538 30.8974 59.3451 30.9997 58.7308Z" fill="#5E63BF"/>
<path d="M36.242 51.0801H36.1209V51.0974C36.1037 51.0617 36.0962 51.022 36.0993 50.9825C36.1023 50.943 36.1157 50.905 36.1381 50.8723C36.3284 50.7512 36.3285 50.8377 36.3285 50.9589C36.3285 51.0801 36.242 51.0801 36.242 51.0801Z" fill="#5E63BF"/>
<path d="M31.4496 59.6655L31.5534 59.8732L31.4496 59.804C31.4411 59.7582 31.4411 59.7113 31.4496 59.6655Z" fill="#5E63BF"/>
<path d="M31.8302 50.9762C31.8378 50.9958 31.8456 51.0152 31.8536 51.0347C31.9361 50.8906 32.0325 50.7551 32.1416 50.63H32.4531C32.574 50.7539 32.6512 50.9139 32.6731 51.0857C32.6949 51.2575 32.6602 51.4318 32.5741 51.582H32.1416C32.0288 51.4089 31.9324 51.2256 31.8536 51.0347C31.8516 51.0382 31.8495 51.0418 31.8475 51.0454L31.8302 50.9762Z" fill="#5E63BF"/>
<path d="M31.6053 51.0801L31.6639 51.0481C31.6623 51.0238 31.6658 50.9993 31.6745 50.9762H31.7956L31.6639 51.0481C31.665 51.0648 31.6685 51.0814 31.6745 51.0974L31.6053 51.0801Z" fill="#5E63BF"/>
<path d="M34.806 61.3272H34.8061C34.8078 61.226 34.8233 61.1022 34.8233 61.1022C34.968 60.9675 35.1243 60.8459 35.2904 60.7387C35.2039 60.9291 35.0828 61.3272 35.0482 61.3272H34.8061C34.806 61.3331 34.806 61.3389 34.806 61.3445V61.3272Z" fill="#5E63BF"/>
<path d="M10.7575 108.08C10.7403 108.029 10.7403 107.975 10.7575 107.924V107.942C10.8293 107.845 10.9315 107.776 11.0476 107.744C11.1637 107.713 11.287 107.721 11.3976 107.768C11.5014 107.786 11.5014 107.872 11.5014 107.959C11.3627 108.044 11.2182 108.119 11.0689 108.184C10.9651 108.201 10.8613 108.08 10.7575 108.08Z" fill="#5E63BF"/>
<path d="M10.5152 86.3047C10.9651 85.8201 11.4841 85.8374 12.2453 85.9412V85.9585C12.0208 86.1767 11.7382 86.3254 11.4313 86.3868C11.1244 86.4482 10.8063 86.4197 10.5152 86.3047Z" fill="#5E63BF"/>
<path d="M11.2246 91.5322V91.3764C11.3284 91.3937 11.588 91.3245 11.588 91.3937C11.588 91.4629 11.6053 91.636 11.588 91.7226C11.5707 91.8091 11.4322 91.8091 11.4322 91.8091C11.3539 91.724 11.2844 91.6312 11.2246 91.5322Z" fill="#5E63BF"/>
<path d="M12.5914 94.2498C12.5873 94.2037 12.5873 94.1573 12.5914 94.1113L12.7471 94.042C12.7471 94.1113 12.799 94.2498 12.7471 94.2498H12.5914Z" fill="#5E63BF"/>
<path d="M11.7437 104.739C11.7437 104.739 11.7437 104.745 11.744 104.754C11.7961 104.306 11.918 104.22 12.5914 104.116C12.5147 104.391 12.4103 104.658 12.28 104.912C12.2281 105.016 11.9858 105.016 11.8647 105.016C11.7604 105.016 11.746 104.811 11.744 104.754C11.7439 104.755 11.7438 104.756 11.7437 104.757V104.739Z" fill="#5E63BF"/>
<path d="M12.4703 87.9318H12.7125L12.6433 87.9491C12.6433 88.0011 12.7644 88.0357 12.7298 88.0357H12.5741L12.4703 87.9318Z" fill="#5E63BF"/>
<path d="M9.92701 106.262C10.1519 106.262 10.273 106.314 10.1519 106.539V106.557C10.1173 106.626 9.87511 106.626 9.87511 106.626C9.77334 106.512 9.68076 106.391 9.59828 106.262H9.92701Z" fill="#5E63BF"/>
<path d="M9.49448 106.055L9.50679 106.082C9.53281 106.1 9.58102 106.124 9.58102 106.124V106.245L9.50679 106.082C9.50163 106.078 9.49734 106.075 9.49448 106.072V106.055Z" fill="#5E63BF"/>
<path d="M9.28688 95.6345C9.2772 95.5772 9.2772 95.5187 9.28688 95.4614L9.33878 95.3922C9.37788 95.4689 9.40699 95.5504 9.42531 95.6345H9.28688Z" fill="#5E63BF"/>
<path d="M12.8509 84.868C12.7644 85.0411 12.6433 85.0238 12.6433 84.868C12.6597 84.8247 12.6902 84.7882 12.7298 84.7642C12.7471 84.6776 12.8509 84.7642 12.8509 84.7642C12.8605 84.7981 12.8605 84.8341 12.8509 84.868Z" fill="#5E63BF"/>
<path d="M10.1 108.911C9.98137 108.792 9.8715 108.665 9.77131 108.53L9.78862 108.513C10.0308 108.305 10.2211 108.443 10.3595 108.599C10.3982 108.64 10.4263 108.69 10.4414 108.744C10.4564 108.799 10.4581 108.856 10.4461 108.911C10.3596 109.101 10.2038 109.015 10.1 108.911Z" fill="#5E63BF"/>
<path d="M9.59828 86.7029C9.52458 86.629 9.48139 86.5302 9.47722 86.4259L9.49448 86.4086C9.51178 86.322 9.68482 86.2009 9.68482 86.2009C9.96008 86.2277 10.2323 86.2798 10.498 86.3567C10.1174 86.8759 9.9097 86.9625 9.59828 86.7029Z" fill="#5E63BF"/>
<path d="M10.2212 92.3284L9.85784 92.5881L9.77131 92.3803L10.2212 92.1553V92.3284Z" fill="#5E63BF"/>
<path d="M15.4461 91.4629C15.4534 91.5146 15.4534 91.5671 15.4461 91.6187L15.2385 91.6014V91.4629H15.4461Z" fill="#5E63BF"/>
<path d="M12.5741 80.0041L12.9547 79.3463L12.972 79.329C13.1623 79.6752 13.0412 79.8829 12.8336 80.0041C12.7478 80.0201 12.6598 80.0201 12.5741 80.0041Z" fill="#5E63BF"/>
<path d="M15.2385 75.1055C15.2893 74.9924 15.3471 74.8826 15.4115 74.7766L15.4287 74.7593C15.4633 74.7766 15.4807 74.8632 15.5153 74.9671L15.2385 75.1055Z" fill="#5E63BF"/>
<path d="M15.4115 106.695V106.609H15.5499C15.7229 106.695 15.6018 106.799 15.5499 106.816C15.498 106.834 15.4115 106.695 15.4115 106.695Z" fill="#5E63BF"/>
<path d="M15.9651 94.6306H15.844L16.1208 94.4921C16.114 94.538 16.114 94.5847 16.1208 94.6306H15.9651Z" fill="#5E63BF"/>
<path d="M16.1035 76.8018V76.8019C16.1035 76.8365 16.017 76.8711 16.017 76.8711H15.9132C15.9132 76.8192 15.7229 76.8538 15.9132 76.7153C16.1035 76.5769 16.1035 76.6114 16.1035 76.8018Z" fill="#5E63BF"/>
<path d="M16.2246 87.8626L16.1035 87.7587L16.3803 87.7241V87.8626H16.2246Z" fill="#5E63BF"/>
<path d="M15.0308 115.713V115.333H14.9443C15.0212 115.277 15.1125 115.244 15.2075 115.237C15.3024 115.231 15.3972 115.252 15.4807 115.298V115.437L15.0308 115.713Z" fill="#5E63BF"/>
<path d="M14.7367 116.89C14.737 116.892 14.7373 116.893 14.7376 116.895C14.832 116.904 14.9248 116.926 15.0135 116.96C15.0583 117.03 15.0933 117.105 15.1173 117.185C15.0259 117.202 14.9319 117.202 14.8405 117.185C14.7935 117.093 14.7589 116.996 14.7376 116.895C14.7086 116.892 14.6795 116.891 14.6502 116.89H14.7367Z" fill="#5E63BF"/>
<path d="M14.3561 102.472C14.581 102.437 14.8578 102.368 14.9616 102.628H14.8751C14.9053 102.701 14.9164 102.781 14.9074 102.859C14.8983 102.938 14.8693 103.013 14.8232 103.078C14.581 103.251 14.2869 103.355 14.0274 103.078C13.9322 102.926 13.8566 102.763 13.8025 102.593L14.3561 102.472Z" fill="#5E63BF"/>
<path d="M13.1277 89.3339V89.1608L13.2661 89.1089C13.2759 89.1835 13.2759 89.2592 13.2661 89.3339H13.1277Z" fill="#5E63BF"/>
<path d="M14.5464 116.665V116.735C14.5464 116.735 14.5637 116.683 14.5464 116.665Z" fill="#5E63BF"/>
<path d="M14.6088 107.815C14.6542 107.817 14.6983 107.831 14.7367 107.855H14.8232C14.8331 107.901 14.8331 107.948 14.8232 107.993L14.4253 108.27C14.3388 108.167 14.3388 108.063 14.3388 108.063C14.3409 108.017 14.3548 107.973 14.3792 107.935C14.4036 107.897 14.4377 107.865 14.478 107.844C14.5183 107.823 14.5634 107.813 14.6088 107.815Z" fill="#5E63BF"/>
<path d="M9.94433 89.9397C10.018 89.9199 10.0956 89.9199 10.1692 89.9397H10.2557C10.2211 90.0609 10.1519 90.0089 10.0827 90.1128C10.0135 90.2167 9.90969 90.2167 9.80589 90.2167C9.84501 90.121 9.89131 90.0284 9.94433 89.9397Z" fill="#5E63BF"/>
<path d="M10.9132 82.5659L11.017 82.3928L11.1381 82.462L10.9132 82.5659Z" fill="#5E63BF"/>
<path d="M6.48411 99.2349H6.63981H6.7263C6.69316 99.2782 6.66422 99.3246 6.63981 99.3733C6.58791 99.3733 6.48411 99.408 6.48411 99.3733V99.2349Z" fill="#5E63BF"/>
<path d="M0.0135214 99.356C-0.00450713 99.2239 -0.00450713 99.09 0.0135214 98.9579H0.100006C0.117307 98.9233 0.376829 98.9579 0.376829 98.9579C0.394646 99.09 0.394646 99.2239 0.376829 99.356H0.0135214Z" fill="#5E63BF"/>
<path d="M5.72286 103.095V103.303C5.66389 103.301 5.60797 103.276 5.56715 103.233V103.095H5.72286Z" fill="#5E63BF"/>
<path d="M13.5429 83.4487C13.6294 83.5352 13.6295 83.6737 13.6295 83.6737L13.4391 83.7429V83.5871L13.5429 83.4487Z" fill="#5E63BF"/>
<path d="M5.61811 106.184C5.65709 106.118 5.71069 106.062 5.77476 106.02H5.82666C6.20728 105.795 6.5879 106.003 6.89932 106.124C6.57087 106.335 6.23 106.526 5.87856 106.695C5.80936 106.713 5.54984 106.522 5.54984 106.401C5.55577 106.325 5.57912 106.25 5.61811 106.184Z" fill="#5E63BF"/>
<path d="M6.65713 110.971L6.51869 110.849L6.57059 110.832C6.6398 110.832 6.69173 110.832 6.65713 110.971Z" fill="#5E63BF"/>
<path d="M10.0654 84.0026C10.1347 83.9853 10.2904 84.2103 10.2904 84.2103H10.3423C10.3453 84.2612 10.3377 84.3121 10.3198 84.3598C10.3019 84.4075 10.2742 84.4509 10.2384 84.4872L9.6675 84.5911C9.78861 84.4007 9.94434 84.2103 10.0654 84.0026Z" fill="#5E63BF"/>
<path d="M5.07914 93.2545C5.07914 93.2271 5.08638 93.2002 5.10004 93.1766H5.13463C5.25573 93.0381 5.32495 93.09 5.30765 93.2112C5.29035 93.3324 5.30765 93.3324 5.20385 93.3324H5.10004C5.08638 93.3087 5.07914 93.2818 5.07914 93.2545Z" fill="#5E63BF"/>
<path d="M37.5915 57.7442C37.505 57.5884 37.851 57.4672 38.0932 57.4672H38.1278C38.3873 57.5538 38.5949 57.848 38.37 57.9692C38.3069 58.0179 38.2341 58.0524 38.1564 58.0703C38.0788 58.0882 37.9982 58.0891 37.9201 58.0731C37.8448 58.0454 37.7764 58.0016 37.7196 57.9448C37.6629 57.888 37.6192 57.8196 37.5915 57.7442Z" fill="#5E63BF"/>
<path d="M5.15195 94.7517C5.06544 94.9248 4.94429 94.9248 4.94429 94.7517C4.95243 94.6944 4.97641 94.6404 5.01351 94.5959C5.03081 94.5959 5.15195 94.544 5.15195 94.5959C5.15195 94.6479 5.23845 94.5786 5.15195 94.7517Z" fill="#5E63BF"/>
<path d="M2.69517 94.7171C2.85099 94.5534 3.02513 94.4082 3.21418 94.2844H3.16228C3.232 94.2442 3.31038 94.2215 3.39074 94.218C3.4711 94.2145 3.55112 94.2304 3.62406 94.2644C3.69699 94.2983 3.76069 94.3493 3.8098 94.413C3.85891 94.4767 3.89201 94.5514 3.90627 94.6306C4.01007 94.9075 3.83704 95.0806 3.61212 95.1672C3.39911 95.2545 3.1792 95.324 2.95467 95.3749C2.69516 95.4268 2.55676 95.0979 2.69517 94.7171Z" fill="#5E63BF"/>
<path d="M0.532533 96.3961C0.52443 96.3445 0.52443 96.292 0.532533 96.2403L0.584434 96.1711C0.623621 96.2417 0.652718 96.3174 0.670918 96.3961H0.532533Z" fill="#5E63BF"/>
<path d="M5.44603 109.949L5.30765 109.828H5.37682C5.48062 109.724 5.61905 109.655 5.67096 109.551L5.80934 109.776L5.44603 109.949Z" fill="#5E63BF"/>
<path d="M0.324928 97.2962C0.238423 97.4693 0.117324 97.452 0.117324 97.2962H0.221126C0.209512 97.2628 0.203644 97.2277 0.203808 97.1924H0.324928C0.334039 97.2081 0.338814 97.2261 0.338814 97.2443C0.338814 97.2625 0.334039 97.2804 0.324928 97.2962Z" fill="#5E63BF"/>
<path d="M8.92357 90.3724C9.23499 90.0089 9.49449 90.3724 9.77131 90.3724L9.87511 90.3205C9.83477 90.4103 9.77054 90.4873 9.68941 90.543C9.60828 90.5987 9.51337 90.631 9.41512 90.6363C9.31688 90.6417 9.21904 90.6199 9.13233 90.5734C9.04563 90.5268 8.97343 90.4573 8.92357 90.3724Z" fill="#5E63BF"/>
<path d="M8.1969 102.472C8.26912 102.33 8.3561 102.197 8.45641 102.074L8.56026 101.987C8.62926 101.967 8.70309 101.973 8.76787 102.004C8.80522 102.032 8.83451 102.069 8.85277 102.111C8.87102 102.154 8.87757 102.201 8.87167 102.247C8.85741 102.295 8.83311 102.341 8.80034 102.379C8.76756 102.418 8.727 102.45 8.68133 102.472C8.5203 102.489 8.35793 102.489 8.1969 102.472Z" fill="#5E63BF"/>
<path d="M8.0412 102.576H7.97198L8.07578 102.489C8.07237 102.521 8.06042 102.55 8.0412 102.576Z" fill="#5E63BF"/>
<path d="M17.3492 97.5039C17.4073 97.5745 17.4487 97.6574 17.4703 97.7463L17.5741 97.6597C17.5257 97.774 17.4678 97.884 17.4011 97.9886C17.234 97.9972 17.0665 97.9972 16.8993 97.9886C16.8656 97.9992 16.8293 97.9992 16.7955 97.9886C16.8993 97.8847 16.8993 97.6943 16.8993 97.6943C17.0395 97.6099 17.191 97.5458 17.3492 97.5039Z" fill="#5E63BF"/>
<path d="M10.1173 88.5723H10.325L10.4288 88.4857C10.4115 88.5376 10.2557 88.7281 10.2557 88.7281C10.211 88.7439 10.1621 88.7439 10.1173 88.7281V88.5723Z" fill="#5E63BF"/>
<path d="M8.3007 104.912C8.40451 104.826 8.49104 104.635 8.59484 104.635L8.62943 104.549C8.64673 104.532 8.80245 104.826 8.80245 104.826C8.74979 104.949 8.67336 105.061 8.57753 105.155L8.3007 104.912Z" fill="#5E63BF"/>
<path d="M7.14156 89.4724L7.22804 89.6628L7.14156 89.5935V89.4724Z" fill="#5E63BF"/>
<path d="M14.6329 98.4733C14.5118 98.3867 14.5118 98.2829 14.5118 98.1963L14.5464 98.1098C14.5636 98.0755 14.5891 98.0463 14.6208 98.0247C14.6524 98.0031 14.689 97.99 14.7271 97.9865C14.7652 97.9831 14.8036 97.9894 14.8386 98.0049C14.8735 98.0204 14.904 98.0446 14.927 98.0751C14.949 98.1241 14.9604 98.1772 14.9604 98.2309C14.9604 98.2846 14.949 98.3377 14.927 98.3867C14.8924 98.4733 14.754 98.5598 14.6329 98.4733Z" fill="#5E63BF"/>
<path d="M14.8059 77.2346C14.8099 77.2207 14.8122 77.2065 14.8129 77.1922C14.7365 77.3001 14.6675 77.2847 14.6675 77.2692C14.6554 77.2482 14.649 77.2243 14.649 77.2C14.649 77.1757 14.6554 77.1518 14.6675 77.1307H14.8059C14.8116 77.1508 14.8139 77.1716 14.8129 77.1922C14.822 77.1793 14.8313 77.1647 14.8405 77.148L14.8059 77.2346Z" fill="#5E63BF"/>
<path d="M6.46679 88.9877L7.12424 88.1395L7.15882 88.053C7.44557 88.4749 7.30478 88.8968 7.13721 89.3988L7.12424 89.4377C7.01546 89.3964 6.91114 89.3442 6.81283 89.282L6.46679 88.9877Z" fill="#5E63BF"/>
<path d="M7.08966 106.124V106.211L6.89932 106.228L7.08966 106.124Z" fill="#5E63BF"/>
<path d="M13.5715 96.8244C13.6165 96.8269 13.6601 96.8403 13.6986 96.8635L13.7852 96.7596C13.7793 96.8522 13.7494 96.9417 13.6986 97.0193L13.2834 97.2789C13.275 97.2041 13.275 97.1287 13.2834 97.0539C13.2911 97.0095 13.3094 96.9677 13.3369 96.932C13.3643 96.8964 13.4 96.8679 13.4409 96.8492C13.4818 96.8304 13.5266 96.8219 13.5715 96.8244Z" fill="#5E63BF"/>
<path d="M29.633 40.5213C29.6157 40.4875 29.5979 40.454 29.5796 40.4208C29.3511 40.4182 29.1243 40.3766 28.9091 40.2975C28.6502 40.2022 28.4136 40.0544 28.2143 39.8635C28.292 39.6729 28.4116 39.5023 28.5644 39.3645C28.7172 39.2266 28.8991 39.125 29.0966 39.0673C29.0454 39.2059 29.0312 39.3554 29.0555 39.5011C29.0797 39.6469 29.1416 39.7837 29.235 39.8982C29.3638 40.0629 29.479 40.2377 29.5796 40.4208C29.6262 40.4213 29.6728 40.4202 29.7195 40.4174L29.633 40.5213Z" fill="#5E63BF"/>
<path d="M27.5049 36.6959C27.519 36.6732 27.5301 36.6489 27.5379 36.6236C27.4079 36.6833 27.107 36.7652 27.107 36.6786V36.367C27.1293 36.3349 27.159 36.3087 27.1937 36.2905C27.2283 36.2724 27.2669 36.2629 27.306 36.2629C27.3451 36.2629 27.3836 36.2724 27.4182 36.2905C27.4529 36.3087 27.4826 36.3349 27.5049 36.367C27.5356 36.4164 27.5518 36.4734 27.5518 36.5315C27.5518 36.5628 27.5471 36.5939 27.5379 36.6236C27.5638 36.6117 27.5828 36.6007 27.5915 36.5921L27.5049 36.6959Z" fill="#5E63BF"/>
<path d="M28.9063 36.869L29.3561 36.6786L29.4426 37.0421C29.3248 37.1241 29.2147 37.2168 29.1139 37.3191L28.9063 36.869Z" fill="#5E63BF"/>
<path d="M26.7482 39.8714C26.7241 39.8022 26.7167 39.7284 26.7264 39.6558L26.8129 39.552C26.8861 39.457 26.9873 39.3875 27.1022 39.3534C27.2171 39.3192 27.3398 39.3221 27.453 39.3616C27.5395 39.3962 27.6434 39.5174 27.6434 39.6039C27.6283 39.6882 27.595 39.7683 27.5458 39.8384C27.4966 39.9085 27.4327 39.967 27.3586 40.0099C27.2844 40.0527 27.2018 40.0789 27.1165 40.0865C27.0312 40.0941 26.9453 40.083 26.8648 40.054C26.8122 40.0031 26.7722 39.9405 26.7482 39.8714Z" fill="#5E63BF"/>
<path d="M29.2523 38.9635H29.3388L29.4254 38.8596C29.3908 38.8769 29.2523 38.9635 29.2523 38.9635Z" fill="#5E63BF"/>
<path d="M22.6087 73.4784C22.4751 73.5636 22.3163 73.6002 22.1589 73.5823L22.2454 73.4784C22.1935 73.4784 22.1416 73.288 22.107 73.288C22.0909 73.179 22.0909 73.0682 22.107 72.9592L22.7644 73.2015C22.7125 73.3054 22.6087 73.4784 22.6087 73.4784Z" fill="#5E63BF"/>
<path d="M22.1935 55.0266L22.2973 54.5419L22.3492 54.6285C22.4338 54.5327 22.5331 54.4509 22.6433 54.3862C22.9647 54.2952 23.2958 54.2429 23.6295 54.2304V55.1305H22.5914C22.5215 55.1423 22.4499 55.1391 22.3813 55.1212C22.3127 55.1033 22.2487 55.0711 22.1935 55.0266Z" fill="#5E63BF"/>
<path d="M20.844 73.5823C20.859 73.5823 20.8751 73.5823 20.8915 73.5818C20.879 73.4575 20.844 73.2707 20.844 73.2707C20.9875 73.1295 21.1439 73.002 21.3112 72.8899C21.2485 73.0986 21.1674 73.3014 21.0689 73.4958C21.0546 73.5673 20.9695 73.5797 20.8915 73.5818C20.8942 73.6089 20.8959 73.633 20.8959 73.6515L20.844 73.5823Z" fill="#5E63BF"/>
<path d="M42.1763 44.2948L42.2801 44.4852L42.332 44.5544C42.2974 44.5371 42.1763 44.4159 42.1763 44.4159V44.2948Z" fill="#5E63BF"/>
<path d="M30.5475 38.4882C30.5995 38.3473 30.6903 38.2241 30.8094 38.1326C30.8678 38.0836 30.9359 38.0477 31.0092 38.0271C31.0825 38.0065 31.1594 38.0018 31.2347 38.0133C31.31 38.0248 31.382 38.0521 31.4459 38.0936C31.5098 38.1351 31.5641 38.1897 31.6053 38.2538H31.934C31.9686 37.7345 31.5534 37.1633 31.4669 36.9383C31.3804 36.7132 31.3285 36.4882 31.588 36.3324C31.8475 36.1766 32.0032 36.367 32.1935 36.5228C32.3433 36.6196 32.4994 36.7063 32.6607 36.7825C32.5395 37.1633 32.5741 37.6306 33.0066 37.6306C34.0101 37.7172 34.806 38.5307 35.8614 38.4096C35.9306 38.3922 36.069 38.548 36.069 38.6346C36.0717 38.6937 36.0606 38.7526 36.0366 38.8067C36.0125 38.8608 35.9762 38.9085 35.9305 38.9461C35.831 39.0577 35.6995 39.1358 35.554 39.1699C35.4085 39.204 35.256 39.1923 35.1174 39.1366C34.8646 38.9852 34.6219 38.8175 34.3908 38.6346C34.2561 38.5717 34.1041 38.5562 33.9596 38.5908C33.8151 38.6254 33.6865 38.7079 33.5949 38.825C33.4149 39.1358 33.2588 39.4599 33.1278 39.7943C32.9815 40.1844 32.7372 40.5302 32.4184 40.7983L32.4102 40.8042C32.2221 40.9411 32.0173 41.0903 31.7956 40.9367C31.6602 40.8209 31.5686 40.662 31.5361 40.4867C31.4974 40.3742 31.5048 40.251 31.5567 40.1439C31.6086 40.0369 31.7006 39.9548 31.8129 39.9155C32.15 39.7606 32.4967 39.6277 32.8509 39.5174C31.761 39.1019 31.761 39.1019 31.017 39.8116C30.871 39.7131 30.7498 39.5822 30.6628 39.4291C30.5757 39.2759 30.5252 39.1047 30.5153 38.9288C30.4843 38.7819 30.4954 38.6291 30.5475 38.4882Z" fill="#5E63BF"/>
<path d="M22.9157 71.9093C22.9874 72.0648 23.0243 72.234 23.0239 72.4053C22.8466 72.4133 22.6731 72.4592 22.515 72.5398C22.3568 72.6204 22.2177 72.7339 22.107 72.8726L21.3284 72.9765C21.536 72.3533 21.761 71.7648 21.9513 71.2455C22.3319 71.1244 22.4357 71.3667 22.6087 71.5052C22.7392 71.616 22.8439 71.7539 22.9157 71.9093Z" fill="#5E63BF"/>
<path d="M37.7991 42.2003C37.7991 42.2003 37.8191 42.1688 37.8417 42.1268C37.7928 42.0494 37.7606 41.9624 37.7472 41.8714C37.7538 41.8081 37.7538 41.7443 37.7472 41.681C37.8208 41.7525 37.8745 41.842 37.9029 41.9407C37.9131 41.9818 37.8747 42.0655 37.8417 42.1268C37.8501 42.1401 37.8589 42.153 37.8682 42.1657L37.7991 42.2003Z" fill="#5E63BF"/>
<path d="M38.1451 46.1815C37.9029 46.0603 37.8856 45.4372 38.1451 45.4372L38.2143 45.4026C39.0966 45.1949 38.9755 44.5025 38.9236 44.0005C39.3389 43.6889 39.6676 43.914 39.9963 44.0005L40.7575 43.2908L41.761 43.6543C41.8936 43.7191 42.0021 43.8245 42.0706 43.9553C42.1391 44.0861 42.1639 44.2354 42.1416 44.3813C41.5707 44.6583 41.2593 45.2468 40.7402 45.6276C40.5672 45.7141 40.6538 46.2334 40.5673 46.2334C40.0482 46.3373 39.3388 46.5277 39.062 46.5796C38.7852 46.6315 38.3873 46.3027 38.1451 46.1815Z" fill="#5E63BF"/>
<path d="M39.4093 42.7715C39.4093 42.7178 39.4207 42.6647 39.4426 42.6157L39.5119 42.5811C39.5119 42.5465 39.633 42.5811 39.633 42.5811C39.8056 42.7191 39.9622 42.8758 40.1001 43.0485C39.9948 43.1126 39.8696 43.1357 39.7483 43.1134C39.627 43.091 39.5182 43.0248 39.4426 42.9273C39.4207 42.8783 39.4093 42.8252 39.4093 42.7715Z" fill="#5E63BF"/>
<path d="M37.7299 39.8057C37.814 39.8057 37.897 39.8255 37.9721 39.8635C38.4219 40.1578 38.9928 40.4521 38.7333 41.2137C38.1278 41.1271 38.1278 41.1271 37.8163 41.6464C37.626 41.2483 37.4011 40.8502 37.2454 40.4348C37.223 40.3814 37.2115 40.3242 37.2116 40.2663C37.2117 40.2085 37.2234 40.1512 37.246 40.098C37.2685 40.0447 37.3015 39.9965 37.3431 39.9563C37.3846 39.916 37.4337 39.8845 37.4876 39.8635C37.5627 39.8255 37.6457 39.8057 37.7299 39.8057Z" fill="#5E63BF"/>
<path d="M37.9721 44.2428C37.9721 44.2428 37.9458 44.2428 37.9106 44.249C37.925 44.3388 37.9224 44.4307 37.9029 44.5198C37.81 44.5675 37.711 44.6024 37.6087 44.6236C37.6408 44.5249 37.6875 44.4316 37.7472 44.3467C37.7788 44.2833 37.8556 44.2586 37.9106 44.249C37.9084 44.2353 37.9058 44.2217 37.9029 44.2082L37.9721 44.2428Z" fill="#5E63BF"/>
<path d="M35.1718 36.5401C35.1718 36.5888 35.159 36.6365 35.1347 36.6786C35.0706 36.7292 34.9914 36.7566 34.9098 36.7566C34.8282 36.7566 34.7489 36.7292 34.6849 36.6786C34.3734 36.5055 34.3215 36.2805 34.4772 35.9343C34.5811 35.8651 34.6503 35.7439 34.7541 35.7439C34.8099 35.7426 34.8651 35.7564 34.9138 35.7838C34.9625 35.8112 35.003 35.8513 35.0309 35.8997C35.0999 36.058 35.1352 36.2289 35.1347 36.4017C35.159 36.4438 35.1718 36.4915 35.1718 36.5401Z" fill="#5E63BF"/>
<path d="M38.9582 41.456C38.9755 41.5426 38.8544 41.6291 38.8544 41.7157H38.7852C38.7854 41.6461 38.7912 41.5766 38.8025 41.5079C38.7945 41.4042 38.7945 41.3001 38.8025 41.1964C38.8717 41.2829 38.9409 41.3695 38.9582 41.456Z" fill="#5E63BF"/>
<path d="M36.1036 40.729C36.0991 40.7407 36.0943 40.7522 36.0894 40.7637C36.6512 40.9666 36.7417 41.3565 36.7091 41.7157C36.4234 42.6462 36.4234 43.6411 36.7091 44.5717H37.6087C37.4268 45.1047 37.4268 45.6831 37.6087 46.2161C37.28 46.5796 37.0032 46.2161 36.7091 46.2161C36.6745 46.7873 36.6918 46.7873 37.2281 47.3758C36.6918 47.6355 36.4669 47.6528 36.3285 47.3758C36.0517 46.8046 35.7922 46.1988 35.4807 45.5237C35.6307 45.2814 35.8037 44.9871 35.9998 44.6409C35.8497 44.5647 35.7051 44.4779 35.5672 44.3813C35.5582 44.2719 35.5582 44.1619 35.5672 44.0524C35.6883 43.6543 35.8267 43.3774 35.9305 42.8581C36.0343 42.3388 35.6883 42.1311 35.2731 41.9753C35.391 41.4358 35.903 41.1919 36.0894 40.7637C36.0555 40.7514 36.0198 40.7398 35.9824 40.729H36.1036Z" fill="#5E63BF"/>
<path d="M14.8405 78.0654V78.1866L14.7021 78.2558C14.5291 78.1693 14.6675 78.152 14.7021 78.0654C14.7367 77.9789 14.8405 78.0481 14.8405 78.0654Z" fill="#5E63BF"/>
<path d="M28.8025 35.6227C28.797 35.6214 28.7916 35.6201 28.7861 35.6189C28.8449 35.6703 28.9063 35.7266 28.9063 35.7266L28.4738 36.0035V35.6227C28.5763 35.5977 28.6831 35.5964 28.7861 35.6189C28.766 35.6014 28.7462 35.5844 28.7293 35.5704L28.6814 35.5362C28.6861 35.5362 28.7046 35.5501 28.7293 35.5704L28.8025 35.6227Z" fill="#5E63BF"/>
<path d="M17.3695 72.2747C17.4058 72.2082 17.4583 72.1518 17.5222 72.111L17.4011 72.0245C17.7125 71.9725 18.0585 71.7648 18.5257 72.1283C18.4998 72.3231 18.398 72.4998 18.2424 72.6198C18.0868 72.7398 17.8901 72.7933 17.6952 72.7688C17.6158 72.7523 17.5407 72.7191 17.4751 72.6713C17.4094 72.6236 17.3547 72.5624 17.3146 72.4918C17.3143 72.416 17.3332 72.3413 17.3695 72.2747Z" fill="#5E63BF"/>
<path d="M18.0931 74.3785L17.9883 74.4205C17.9921 74.4933 17.9866 74.5664 17.972 74.6382H17.8336V74.4824L17.9883 74.4205C17.9861 74.3774 17.9807 74.3344 17.972 74.292L18.0931 74.3785Z" fill="#5E63BF"/>
<path d="M18.5603 81.7177C18.5293 81.7111 18.4976 81.7089 18.4661 81.7113C18.5386 81.9426 18.5706 82.1849 18.5603 82.4274C18.4761 82.6971 18.366 82.9579 18.2316 83.2063C18.1105 83.0852 18.0066 83.0852 18.0066 83.0852C17.7471 82.5659 18.1104 82.1505 18.2661 81.7177H18.4218C18.4365 81.7146 18.4512 81.7124 18.4661 81.7113C18.4577 81.6844 18.4487 81.6577 18.4392 81.6312L18.5603 81.7177Z" fill="#5E63BF"/>
<path d="M18.5084 93.6612H18.3526L18.2316 93.5228C18.197 93.5228 18.3526 93.4535 18.3526 93.4535H18.5084V93.6612Z" fill="#5E63BF"/>
<path d="M21.718 64.4367C21.6667 64.462 21.6105 64.4759 21.5533 64.4775L21.4322 64.391C21.2938 64.391 21.3284 64.3737 21.2938 64.1314C21.2592 63.889 21.4149 63.6467 21.7264 63.6467C21.8184 63.7533 21.8889 63.8767 21.934 64.0102C21.9439 64.0665 21.9416 64.1244 21.9273 64.1797C21.9129 64.2351 21.8868 64.2867 21.8506 64.3311C21.8145 64.3754 21.7693 64.4115 21.718 64.4367Z" fill="#5E63BF"/>
<path d="M17.4703 76.2133C17.3838 76.3864 17.28 76.3691 17.28 76.2133C17.2627 76.1095 17.2973 76.0575 17.3319 76.0575C17.3665 76.0575 17.4703 76.0056 17.4703 76.0575C17.4703 76.1095 17.5568 76.0402 17.4703 76.2133Z" fill="#5E63BF"/>
<path d="M17.5395 73.4265C17.576 73.5044 17.605 73.5855 17.626 73.6688L17.4357 73.7208V73.565L17.5395 73.4265Z" fill="#5E63BF"/>
<path d="M19.2004 76.8365C19.1658 77.2865 18.9582 77.2865 18.3526 77.2865V77.2173C18.4737 76.9057 18.6295 76.5941 19.0101 76.6288C19.0793 76.6288 19.2004 76.8365 19.2004 76.8365Z" fill="#5E63BF"/>
<path d="M19.0274 71.0032C19.1942 70.9858 19.3623 70.9858 19.5291 71.0032L19.5637 71.0205C19.6226 71.0872 19.6536 71.1739 19.6502 71.2628C19.5801 71.4055 19.4929 71.5392 19.3907 71.661C19.3042 71.609 19.1485 71.4879 19.1485 71.4879C19.0919 71.3308 19.0513 71.1684 19.0274 71.0032Z" fill="#5E63BF"/>
<path d="M19.0101 70.9686C18.9919 70.9008 18.9627 70.8365 18.9236 70.7782V70.7436C18.9442 70.7542 18.9625 70.7688 18.9774 70.7867C18.9923 70.8045 19.0034 70.8252 19.0101 70.8474V70.9686Z" fill="#5E63BF"/>
<path d="M19.1312 75.3998V75.2786V75.244C19.1435 75.1394 19.1608 75.0354 19.1831 74.9324H19.2869C19.2953 75.0881 19.2953 75.2441 19.2869 75.3998C19.2696 75.3998 19.1312 75.4344 19.1312 75.3998Z" fill="#5E63BF"/>
<path d="M17.6433 98.7156C17.5741 98.7329 17.4011 98.6117 17.4011 98.5252L17.4703 98.4906C17.4443 98.3362 17.4327 98.1797 17.4357 98.0232L18.4392 97.7982C18.1969 98.4559 18.0759 98.6117 17.6433 98.7156Z" fill="#5E63BF"/>
<path d="M18.0066 77.425C17.9115 77.4066 17.8223 77.365 17.7471 77.3038L17.8336 77.2692C17.8336 77.2346 17.9547 77.2692 17.9547 77.2692C18.052 77.2513 18.1516 77.2513 18.2488 77.2692C18.1623 77.3211 18.0931 77.425 18.0066 77.425Z" fill="#5E63BF"/>
<path d="M17.4876 100.498V100.273L17.5568 100.239C17.6087 100.222 17.5914 100.204 17.5914 100.239V100.395L17.4876 100.498Z" fill="#5E63BF"/>
<path d="M20.5672 92.0341C20.5595 91.9536 20.5595 91.8724 20.5672 91.7918C20.6018 91.7918 20.671 91.7399 20.671 91.7745V91.913L20.5672 92.0341Z" fill="#5E63BF"/>
<path d="M20.4115 75.7114L20.3077 75.5036V75.4344C20.3423 75.469 20.4115 75.5902 20.4115 75.5902C20.4204 75.6301 20.4204 75.6715 20.4115 75.7114Z" fill="#5E63BF"/>
<path d="M19.7021 78.0654C19.8924 78.1693 20.1 78.1693 20.3077 78.1693L20.2904 78.1001C20.5153 78.1347 20.7748 78.0828 20.8094 78.4809C20.8216 78.505 20.8279 78.5317 20.8279 78.5588C20.8279 78.5858 20.8216 78.6125 20.8094 78.6367C20.5672 78.879 20.2904 78.6367 20.0308 78.6367C19.9706 78.6228 19.9139 78.5966 19.8642 78.5598C19.8145 78.5229 19.773 78.4763 19.7421 78.4227C19.7113 78.3691 19.6918 78.3097 19.685 78.2482C19.6781 78.1868 19.6839 78.1245 19.7021 78.0654Z" fill="#5E63BF"/>
<path d="M19.927 63.8544L20.0308 63.5775L20.0136 63.5082C20.0648 63.6799 20.1284 63.8477 20.2039 64.0102H20.0482L19.927 63.8544Z" fill="#5E63BF"/>
<path d="M21.0689 60.081L21.3284 59.1289L21.5533 59.1462C21.5976 59.3124 21.5952 59.4876 21.5464 59.6526C21.4975 59.8175 21.4042 59.9657 21.2765 60.081C21.2085 60.0993 21.1369 60.0993 21.0689 60.081Z" fill="#5E63BF"/>
<path d="M18.4218 78.5847C18.4998 78.4689 18.5929 78.3641 18.6987 78.2732L18.9409 78.5328C18.8399 78.6246 18.7298 78.7058 18.6122 78.7751C18.5776 78.7924 18.4218 78.5847 18.4218 78.5847Z" fill="#5E63BF"/>
<path d="M20.4288 75.7633C20.6364 76.1787 20.6364 76.1787 20.4288 76.6115L20.3596 76.5422C20.0827 76.2133 20.3769 75.9537 20.4288 75.7633Z" fill="#5E63BF"/>
<path d="M20.2558 84.2795C19.6156 84.2276 18.9928 84.1584 18.6987 83.3968L18.6122 83.3275C19.4599 83.1371 19.8059 83.6737 20.2558 84.2795Z" fill="#5E63BF"/>
<path d="M19.1312 85.3181C19.1157 85.3091 19.0986 85.3033 19.0809 85.3008C19.1274 85.3784 19.188 85.5085 19.1485 85.5085C19.0966 85.5085 19.1485 85.595 18.9928 85.5085C18.8371 85.4219 18.8371 85.3181 18.9928 85.3181C19.0139 85.3059 19.0377 85.2995 19.062 85.2995C19.0683 85.2995 19.0747 85.3 19.0809 85.3008C19.0663 85.2764 19.053 85.2572 19.0447 85.2489L19.1312 85.3181Z" fill="#5E63BF"/>
<path d="M18.8025 114.311C18.9002 114.216 19.0109 114.134 19.1312 114.069L19.0966 114C19.1312 113.983 19.3215 114.277 19.3215 114.277C19.2436 114.393 19.1505 114.497 19.0447 114.588L18.8025 114.311Z" fill="#5E63BF"/>
<path d="M19.2523 102.818C19.2004 102.922 19.0274 102.922 19.0274 102.922L18.9928 102.853C19.0101 102.766 19.0966 102.662 19.0966 102.662C19.1827 102.6 19.2847 102.564 19.3907 102.558C19.339 102.645 19.3044 102.714 19.2528 102.817L19.2523 102.818Z" fill="#5E63BF"/>
<path d="M19.408 102.541C19.4802 102.399 19.5672 102.266 19.6675 102.143L19.5637 102.074C19.622 102.033 19.6915 102.011 19.7627 102.011C19.8339 102.011 19.9034 102.033 19.9617 102.074C20.0009 102.1 20.0326 102.137 20.0539 102.179C20.0751 102.221 20.085 102.269 20.0827 102.316C20.0481 102.402 19.8751 102.541 19.8751 102.541C19.7199 102.558 19.5633 102.558 19.408 102.541Z" fill="#5E63BF"/>
<path d="M14.5118 91.0821V91.2379L14.3734 91.3245C14.3734 91.2552 14.3388 91.0821 14.3734 91.0821C14.408 91.0821 14.5118 91.0475 14.5118 91.0821Z" fill="#5E63BF"/>
<path d="M32.9547 94.0247L33.4046 93.817C33.4046 93.8863 33.4565 93.9728 33.4565 93.9728L33.0759 94.2498C33.0295 94.1781 32.989 94.1029 32.9547 94.0247Z" fill="#5E63BF"/>
<path d="M32.5222 85.7681C32.5097 85.773 32.4973 85.7779 32.4849 85.7829C32.5569 85.831 32.6616 85.9763 32.799 86.0451C32.7848 86.1056 32.756 86.1617 32.7151 86.2084C32.6742 86.2552 32.6225 86.2913 32.5645 86.3135C32.5065 86.3357 32.4439 86.3433 32.3822 86.3358C32.3206 86.3282 32.2618 86.3057 32.2108 86.2701C32.1243 86.2528 31.9859 86.0624 31.9859 86.0624C32.1401 85.949 32.3077 85.8551 32.4849 85.7829C32.4736 85.7754 32.4631 85.7702 32.4534 85.7681H32.4357C32.4413 85.7667 32.4472 85.7668 32.4534 85.7681H32.5222Z" fill="#5E63BF"/>
<path d="M34.0101 98.5598H33.9236H33.8371C33.8434 98.4914 33.8672 98.4258 33.9063 98.3694L34.0101 98.5598Z" fill="#5E63BF"/>
<path d="M29.3042 100.845H29.1658H29.0793C28.9409 100.723 28.9755 100.654 29.1831 100.637L29.3042 100.741C29.3042 100.845 29.3388 100.845 29.3042 100.845Z" fill="#5E63BF"/>
<path d="M33.889 89.507C33.8723 89.369 33.8723 89.2295 33.889 89.0915H33.8025C33.8198 89.0569 34.1658 89.1262 34.1658 89.1262C34.2127 89.2483 34.2418 89.3765 34.2523 89.507H33.889Z" fill="#5E63BF"/>
<path d="M32.4011 91.1514V90.8225L32.626 90.5802C32.6429 90.7065 32.6429 90.8346 32.626 90.961C32.6087 91.0302 32.4011 91.2725 32.4011 91.1514Z" fill="#5E63BF"/>
<path d="M34.2696 96.9154C34.2758 96.7943 34.2758 96.673 34.2696 96.5519L34.1832 96.5346C34.344 96.5051 34.5093 96.511 34.6676 96.5519V96.8116C34.5404 96.8644 34.4065 96.8994 34.2696 96.9154Z" fill="#5E63BF"/>
<path d="M29.633 104.376C29.6426 104.318 29.6426 104.26 29.633 104.203L29.6849 104.151C29.7241 104.221 29.7532 104.297 29.7714 104.376H29.633Z" fill="#5E63BF"/>
<path d="M30.1347 87.7414C30.2419 87.7092 30.3562 87.7092 30.4634 87.7414L30.3769 87.7241C30.5244 87.7671 30.6527 87.8592 30.7408 87.9851C30.8289 88.111 30.8714 88.2631 30.8613 88.4165C30.7921 88.555 30.8094 88.7627 30.6364 88.555C30.4634 88.3472 30.1347 87.9318 30.1347 87.8972V87.7414Z" fill="#5E63BF"/>
<path d="M28.3873 89.6281V89.4724L28.3007 89.4897C28.4727 89.312 28.7 89.198 28.9452 89.1666C29.1904 89.1351 29.439 89.188 29.6502 89.3166C29.6776 89.3639 29.692 89.4177 29.692 89.4724C29.692 89.527 29.6776 89.5808 29.6502 89.6281C29.6021 89.721 29.535 89.8026 29.4532 89.8678C29.3715 89.9329 29.2769 89.9801 29.1757 90.0062C29.0745 90.0323 28.969 90.0368 28.8659 90.0194C28.7628 90.002 28.6646 89.963 28.5776 89.9051C28.5257 89.8185 28.3873 89.6628 28.3873 89.6281Z" fill="#5E63BF"/>
<path d="M31.7696 94.0617C31.8149 94.0617 31.8594 94.0728 31.8994 94.094L31.8129 94.1113C31.9311 94.2212 32.0141 94.3638 32.051 94.521C32.088 94.6783 32.0774 94.8429 32.0205 94.9941C31.5015 94.6306 31.415 94.4229 31.6399 94.094C31.6799 94.0728 31.7244 94.0617 31.7696 94.0617Z" fill="#5E63BF"/>
<path d="M32.0378 95.1845V95.271L32.0069 95.2092L31.9513 95.2537C31.9302 95.1926 31.9242 95.1272 31.934 95.0633L32.0069 95.2092L32.0378 95.1845Z" fill="#5E63BF"/>
<path d="M30.6397 98.5556C30.6671 98.4825 30.7138 98.4181 30.7748 98.3694L30.6883 98.3867C30.7733 98.3371 30.8679 98.3063 30.9657 98.2961C31.0636 98.286 31.1624 98.2969 31.2557 98.328C31.3491 98.3591 31.4347 98.4098 31.5069 98.4766C31.5791 98.5434 31.6362 98.6249 31.6745 98.7156C31.4578 98.8316 31.2321 98.93 30.9997 99.0098C30.9215 99.012 30.8443 98.992 30.777 98.9522C30.7097 98.9124 30.655 98.8544 30.6191 98.7848C30.6052 98.708 30.6123 98.6288 30.6397 98.5556Z" fill="#5E63BF"/>
<path d="M33.5791 97.7233C33.6215 97.702 33.6686 97.6921 33.716 97.6943L33.6295 97.7116C33.7333 97.7289 33.8717 97.8847 33.8717 97.8847C33.8982 98.0452 33.8982 98.2089 33.8717 98.3694C33.7267 98.3035 33.5926 98.2159 33.4738 98.1098C33.4522 98.0637 33.441 98.0135 33.441 97.9626C33.441 97.9118 33.4522 97.8615 33.4738 97.8155C33.5004 97.7762 33.5367 97.7445 33.5791 97.7233Z" fill="#5E63BF"/>
<path d="M36.6745 88.4684V88.3299C36.7264 88.1222 37.107 87.8626 37.28 87.9145C37.2922 87.9356 37.2986 87.9594 37.2986 87.9837C37.2986 88.008 37.2922 88.0319 37.28 88.053C37.2281 88.3126 36.6745 88.503 36.6745 88.4684Z" fill="#5E63BF"/>
<path d="M34.5775 79.13C34.5775 79.1026 34.5847 79.0758 34.5984 79.0521V79.104C34.7195 78.9828 34.806 79.0175 34.806 79.2079H34.7022H34.5984C34.5847 79.1842 34.5775 79.1573 34.5775 79.13Z" fill="#5E63BF"/>
<path d="M36.9167 85.5777H37.0551V85.6297C37.0551 85.6816 37.2108 85.4739 37.1243 85.6816C37.0378 85.8893 36.9167 85.8893 36.9167 85.6816V85.5777Z" fill="#5E63BF"/>
<path d="M38.3613 83.4003C38.334 83.4003 38.3072 83.3931 38.2835 83.3794V83.4314C38.1624 83.3102 38.2489 83.2756 38.3008 83.2756C38.3527 83.2756 38.4392 83.1717 38.4392 83.2756V83.3794C38.4155 83.3931 38.3887 83.4003 38.3613 83.4003Z" fill="#5E63BF"/>
<path d="M37.1243 83.8295C37.2108 83.6564 37.3319 83.6737 37.3319 83.8295V83.8814C37.3096 83.9078 37.2792 83.9261 37.2454 83.9333C37.2281 84.0199 37.1243 83.9333 37.1243 83.9333C37.1147 83.8994 37.1147 83.8634 37.1243 83.8295Z" fill="#5E63BF"/>
<path d="M35.2558 69.3761C35.3942 68.9953 35.4807 68.5626 35.9305 68.3895L36.0862 68.3722C36.19 68.4414 36.4323 68.3202 36.19 68.6318C35.9478 68.9434 35.7229 69.3761 35.2558 69.3761Z" fill="#5E63BF"/>
<path d="M37.0032 82.462C36.9167 82.3409 36.9167 82.237 36.9167 82.237L36.8648 82.3236C36.8281 82.2639 36.8166 82.1921 36.8328 82.1239C36.849 82.0557 36.8916 81.9968 36.9513 81.9601C37.0109 81.9233 37.0827 81.9118 37.1509 81.9281C37.219 81.9443 37.2779 81.9869 37.3147 82.0466C37.4012 82.0639 37.4011 82.1851 37.4011 82.1851L37.0032 82.462Z" fill="#5E63BF"/>
<path d="M36.4311 78.2126C36.4311 78.1855 36.4374 78.1588 36.4496 78.1347V78.2212C36.5707 78.1001 36.6572 78.0135 36.6572 78.152C36.6572 78.2905 36.5707 78.2905 36.5707 78.2905H36.4496C36.4374 78.2663 36.4311 78.2396 36.4311 78.2126Z" fill="#5E63BF"/>
<path d="M35.0136 93.09C35.004 93.0561 35.004 93.0201 35.0136 92.9862V93.0727C35.1347 92.9169 35.1347 92.9342 35.152 92.9515C35.1642 92.9726 35.1705 92.9965 35.1705 93.0208C35.1705 93.0451 35.1642 93.069 35.152 93.09C35.1174 93.1766 35.0136 93.09 35.0136 93.09Z" fill="#5E63BF"/>
<path d="M34.7887 99.131C34.779 99.0971 34.779 99.0611 34.7887 99.0272V99.1137C34.8752 98.9752 34.9617 98.9752 35.0136 99.0272L34.9271 99.131C34.8925 99.2176 34.7887 99.131 34.7887 99.131Z" fill="#5E63BF"/>
<path d="M34.9963 81.1292H35.1347C35.1347 81.1638 35.1001 81.2504 35.1001 81.2504L34.9963 81.3715C35.004 81.2909 35.004 81.2098 34.9963 81.1292Z" fill="#5E63BF"/>
<path d="M35.2039 73.4092C35.3833 73.309 35.5753 73.2334 35.7748 73.1842H35.7921C35.8441 73.1669 35.9133 73.34 35.9133 73.3746V73.5304C35.8734 73.5875 35.8203 73.6342 35.7586 73.6664C35.6968 73.6986 35.6282 73.7154 35.5586 73.7154C35.4889 73.7154 35.4203 73.6986 35.3586 73.6664C35.2968 73.6342 35.2438 73.5875 35.2039 73.5304C35.2005 73.4901 35.2005 73.4495 35.2039 73.4092Z" fill="#5E63BF"/>
<path d="M34.9617 69.6011C34.8925 69.6011 34.7887 69.48 34.7022 69.48H34.7195C34.7887 69.4454 34.9271 69.428 34.9271 69.428C35.025 69.4197 35.1233 69.4197 35.2212 69.428C35.1475 69.503 35.0592 69.562 34.9617 69.6011Z" fill="#5E63BF"/>
<path d="M35.4509 71.3169C35.4869 71.2719 35.5326 71.2357 35.5845 71.2109L35.6018 71.2628C35.6769 71.2468 35.755 71.2528 35.8267 71.2802C36.2939 71.7302 36.1382 72.1283 35.3769 72.3533V71.4706C35.3897 71.4144 35.4149 71.3618 35.4509 71.3169Z" fill="#5E63BF"/>
<path d="M23.0932 79.9695C23.1278 79.8656 23.2316 79.8656 23.3181 79.8656L23.3353 80.0041C23.3007 80.108 23.3008 80.0387 23.2315 80.1426C23.1623 80.2464 23.0585 80.2464 22.9547 80.2464C22.9831 80.1463 23.0301 80.0523 23.0932 79.9695Z" fill="#5E63BF"/>
<path d="M24.5983 94.4055C24.6059 94.3307 24.6059 94.2553 24.5983 94.1805L24.6157 94.319C24.6849 94.3103 24.7108 94.2584 24.7195 94.213V94.1459C24.7195 94.1286 24.7281 94.1675 24.7195 94.213V94.3017L24.5983 94.4055Z" fill="#5E63BF"/>
<path d="M23.2562 67.8529C23.2562 67.7978 23.2716 67.7438 23.3008 67.6971L23.3181 67.8356C23.3745 67.63 23.4793 67.441 23.6238 67.2844C23.7683 67.1278 23.9482 67.0081 24.1485 66.9355L24.1485 66.9356C23.9755 67.299 23.8025 67.6625 23.6122 68.0087C23.5643 68.0344 23.5108 68.0479 23.4565 68.0479C23.4021 68.0479 23.3486 68.0344 23.3008 68.0087C23.2716 67.9619 23.2562 67.908 23.2562 67.8529Z" fill="#5E63BF"/>
<path d="M24.7627 66.1344C24.8143 66.1344 24.865 66.148 24.9098 66.1739L24.9271 66.3123C24.9816 66.334 25.0294 66.3698 25.0655 66.4162C25.0655 66.9009 24.8579 66.9009 24.2177 66.9009C24.3561 66.6585 24.46 66.3989 24.6157 66.1739C24.6604 66.148 24.7111 66.1344 24.7627 66.1344Z" fill="#5E63BF"/>
<path d="M24.9098 90.0955C24.9491 90.0631 24.988 90.0302 25.0265 89.9969C25.1292 89.0849 25.8132 88.7101 26.0689 87.8626C26.2247 88.1222 26.363 88.3646 26.363 88.3646C26.0139 88.9814 25.5618 89.5335 25.0265 89.9969C25.0181 90.0721 25.0136 90.1509 25.0136 90.234L24.9098 90.0955Z" fill="#5E63BF"/>
<path d="M25.8613 93.7132V93.5574L25.9132 93.4881C25.9524 93.5587 25.9815 93.6345 25.9997 93.7132H25.8613Z" fill="#5E63BF"/>
<path d="M25.1866 111.871V111.698L25.2385 111.646C25.2777 111.716 25.3068 111.792 25.325 111.871H25.1866Z" fill="#5E63BF"/>
<path d="M22.626 80.333L22.7112 80.2904C22.7025 80.2547 22.6952 80.2291 22.6952 80.2291H22.8337L22.7112 80.2904C22.7292 80.3646 22.7532 80.4827 22.7298 80.5061L22.626 80.333Z" fill="#5E63BF"/>
<path d="M22.453 81.1119V80.9907L22.5414 81.138C22.547 81.1343 22.5526 81.1306 22.5579 81.1272C22.5384 81.043 22.4511 80.8513 22.5914 80.9215C22.7644 81.008 22.626 81.1119 22.5914 81.1119C22.5833 81.1119 22.5714 81.1186 22.5579 81.1272C22.5625 81.1468 22.5634 81.1606 22.5568 81.1638L22.5414 81.138C22.5001 81.1652 22.453 81.1935 22.453 81.1119Z" fill="#5E63BF"/>
<path d="M25.8613 82.7563C25.7575 82.6697 25.671 82.462 25.671 82.3582L25.7748 82.5313C25.8613 82.3236 26.0343 82.462 26.0343 82.2889L26.3977 82.7563C26.22 82.7842 26.039 82.7842 25.8613 82.7563Z" fill="#5E63BF"/>
<path d="M22.2108 79.329C22.1923 79.2728 22.1923 79.2122 22.2108 79.1559L22.2627 79.329C22.4011 79.2079 22.4703 79.2425 22.4184 79.329H22.3319H22.2627H22.2108Z" fill="#5E63BF"/>
<path d="M23.0585 107.093L23.2489 106.938L23.3008 107.111C23.3854 107.153 23.483 107.241 23.5263 107.271C23.5263 107.258 23.5261 107.245 23.5257 107.232C23.5593 107.286 23.5537 107.29 23.5263 107.271C23.5256 107.425 23.49 107.578 23.4219 107.716C23.3162 107.911 23.1946 108.096 23.0585 108.27V107.093Z" fill="#5E63BF"/>
<path d="M22.5222 74.4305C22.6952 74.2574 22.8682 74.1016 23.0239 73.9285C23.1277 73.7381 23.3526 73.6688 23.6468 73.8593C23.7705 73.9775 23.8448 74.1384 23.8544 74.3093C23.7855 74.7667 23.6813 75.2181 23.543 75.6594C23.5084 75.8152 23.3527 76.1787 23.2662 76.0575C23.1797 75.9364 23.0932 75.9364 23.0932 75.9364L23.0923 75.9342C22.9023 75.4503 22.7122 74.9663 22.5222 74.4305Z" fill="#5E63BF"/>
<path d="M39.0448 85.145C39.1402 85.0437 39.2444 84.951 39.3562 84.868C39.3735 84.868 39.5465 85.0584 39.5465 85.0584C39.4896 85.1794 39.4137 85.2905 39.3216 85.3873L39.0448 85.145Z" fill="#5E63BF"/>
<path d="M37.0032 64.0967H36.8648C36.8356 64.0539 36.8123 64.0073 36.7956 63.9583C36.8821 63.7852 36.9167 63.9236 37.0032 63.9583C37.0897 63.9929 37.0032 64.0967 37.0032 64.0967Z" fill="#5E63BF"/>
<path d="M27.6087 76.1787V76.0056L27.6606 75.9537C27.6941 76.0268 27.723 76.102 27.7472 76.1787H27.6087Z" fill="#5E63BF"/>
<path d="M29.1312 81.9947V81.9837C29.1174 81.9911 29.1027 81.9968 29.0873 82.0007C29.0503 82.0099 29.0113 82.0079 28.9755 81.9947L28.6049 81.7045C28.5414 81.8441 28.4626 81.9762 28.37 82.0985C28.2755 82.1361 28.1703 82.1361 28.0759 82.0985C27.9029 82.0639 27.9375 81.7523 28.1624 81.7523C28.3131 81.7085 28.4664 81.6742 28.6214 81.6497C28.8186 81.5249 29.1312 81.6189 29.1312 81.6831V81.9837C29.1444 81.9766 29.1567 81.968 29.1679 81.958L29.1831 81.9428C29.1783 81.9481 29.1732 81.9532 29.1679 81.958L29.1312 81.9947Z" fill="#5E63BF"/>
<path d="M29.1312 102.662H28.9928L29.0447 102.61C29.005 102.568 28.9581 102.533 28.9063 102.506H29.1312C29.1312 102.558 29.1485 102.662 29.1312 102.662Z" fill="#5E63BF"/>
<path d="M25.9901 78.6655C25.9722 78.6236 25.9637 78.5783 25.9651 78.5328L26.0862 78.4809C26.1035 78.3943 26.19 78.2558 26.1554 78.377C26.316 78.3523 26.4793 78.3523 26.6399 78.377C26.5676 78.5185 26.4807 78.652 26.3804 78.7751C26.3314 78.7971 26.2783 78.8085 26.2247 78.8085C26.171 78.8085 26.1179 78.7971 26.0689 78.7751C26.035 78.7448 26.0081 78.7074 25.9901 78.6655Z" fill="#5E63BF"/>
<path d="M28.4911 86.4778H28.6468L28.7679 86.4259C28.8198 86.4259 28.8198 86.5471 28.8198 86.5471C29.0109 87.0368 29.0109 87.5805 28.8198 88.0703C28.8025 88.0703 28.7333 88.1568 28.6641 88.0703C28.5949 87.9837 28.4911 87.9837 28.4911 87.9837C28.3182 87.4967 28.3182 86.9649 28.4911 86.4778Z" fill="#5E63BF"/>
<path d="M28.8025 107.561C28.7522 107.579 28.697 107.579 28.6468 107.561L28.5949 107.422H28.8025V107.561Z" fill="#5E63BF"/>
<path d="M27.5049 83.3275C27.5099 83.3793 27.5099 83.4315 27.5049 83.4833C27.4949 83.5209 27.4775 83.5562 27.4538 83.5871C27.4301 83.6179 27.4004 83.6438 27.3666 83.6631C27.3328 83.6824 27.2955 83.6948 27.2569 83.6996C27.2183 83.7044 27.1791 83.7015 27.1416 83.691C27.0998 83.6256 27.065 83.556 27.0378 83.4833L27.5049 83.3275Z" fill="#5E63BF"/>
<path d="M27.4354 77.6645C27.4682 77.7062 27.4918 77.7544 27.5049 77.8058H27.4703C27.5914 78.2385 27.4357 78.3424 26.8129 78.2905C26.8756 78.0818 26.9566 77.879 27.0551 77.6846C27.107 77.5635 27.3146 77.5635 27.3146 77.5635C27.3615 77.5884 27.4026 77.6228 27.4354 77.6645Z" fill="#5E63BF"/>
<path d="M27.3665 105.709L27.1762 105.812C27.1935 105.778 27.2454 105.709 27.2454 105.709H27.3665Z" fill="#5E63BF"/>
<path d="M27.0032 89.1954H26.8648C26.8648 89.1435 26.7956 89.2127 26.8821 89.0396C26.9686 88.8665 27.0897 88.8838 27.0897 89.0396C27.0788 89.0997 27.0484 89.1544 27.0032 89.1954Z" fill="#5E63BF"/>
<path d="M27.5568 105.605V105.691H27.3665L27.5568 105.605Z" fill="#5E63BF"/>
<path d="M27.0465 99.9917C27.0981 99.9917 27.1488 100.005 27.1935 100.031C27.23 100.072 27.2582 100.12 27.2762 100.171C27.2942 100.223 27.3018 100.278 27.2986 100.333C27.2954 100.387 27.2814 100.441 27.2574 100.49C27.2335 100.539 27.2 100.583 27.1589 100.62C27.1243 100.741 26.9859 100.741 26.8994 100.741C26.8482 100.697 26.8071 100.642 26.779 100.581C26.7508 100.52 26.7363 100.453 26.7363 100.386C26.7363 100.319 26.7508 100.252 26.779 100.191C26.8071 100.129 26.8482 100.075 26.8994 100.031C26.9441 100.005 26.9948 99.9917 27.0465 99.9917Z" fill="#5E63BF"/>
<path d="M40.3769 40.1232C40.0655 40.0366 40.0655 39.8289 40.0655 39.5866H40.1001C40.1216 39.3248 40.2399 39.0804 40.4318 38.9011C40.6238 38.7219 40.8756 38.6207 41.1382 38.6173L41.1378 38.6179C40.8784 39.1197 40.619 39.6214 40.3769 40.1232Z" fill="#5E63BF"/>
<path d="M50.2905 53.1745H50.7057C50.9652 53.5207 51.5881 53.5034 51.9168 53.6938C52.2455 53.8842 52.1936 54.2996 51.9168 54.6977C51.4449 54.496 50.9413 54.3788 50.4289 54.3515C50.3769 53.9534 50.2905 53.5553 50.2905 53.1745Z" fill="#5E63BF"/>
<path d="M51.6918 45.3853L51.588 45.1948H51.6745C51.7091 45.2295 51.6918 45.2641 51.6918 45.2641C51.6973 45.3043 51.6973 45.3451 51.6918 45.3853Z" fill="#5E63BF"/>
<path d="M51.4842 49.5049C51.7957 49.3837 51.8821 49.4876 52.4358 50.405L51.8302 50.9589C52.0626 51.1767 52.2821 51.4079 52.4877 51.6513C52.4012 51.8762 52.4012 52.1012 52.4012 52.3089V52.309C52.3224 52.3342 52.2377 52.3342 52.159 52.309C50.5846 51.8244 50.5846 51.8244 50.1348 50.0935L50.1348 50.0934H50.2905L51.1209 50.7858C51.7091 50.4742 51.2939 49.903 51.4842 49.5049Z" fill="#5E63BF"/>
<path d="M37.7472 76.0575L37.6434 75.8671L37.7644 75.8845C37.7615 75.9026 37.7557 75.9201 37.7472 75.9364C37.7567 75.9762 37.7567 76.0177 37.7472 76.0575Z" fill="#5E63BF"/>
<path d="M49.2351 49.6433V49.6434L49.3562 49.6607C49.3908 50.2492 49.0967 50.2492 48.197 50.1627L48.9756 48.674C49.2351 48.951 49.2351 49.3145 49.2351 49.6433Z" fill="#5E63BF"/>
<path d="M53.3701 39.4654H53.1105C53.0067 39.4654 52.9721 39.5866 52.851 39.6905C52.7299 39.7943 52.8337 40.1059 53.024 40.1059L53.3701 40.2097V41.1791C53.1766 41.3536 53.0226 41.5674 52.9182 41.8062C52.8137 42.0449 52.7613 42.3032 52.7645 42.5638C52.7772 42.695 52.7491 42.8269 52.684 42.9415C52.619 43.0561 52.5203 43.1479 52.4012 43.2043L51.5361 41.9407L52.1935 40.9021C52.0205 40.6425 51.8129 40.3482 51.7091 40.1405C51.6053 39.9328 51.5188 39.6905 51.3977 39.4135C51.2904 39.5895 51.1626 39.7522 51.0171 39.8982C50.9777 39.9328 50.9297 39.9563 50.8782 39.9662C50.8266 39.9761 50.7734 39.972 50.7239 39.9543C50.6745 39.9367 50.6307 39.9061 50.5971 39.8658C50.5634 39.8255 50.5412 39.7769 50.5327 39.7251C50.6387 39.5966 50.7158 39.4468 50.7588 39.2858C50.8018 39.1248 50.8096 38.9565 50.7817 38.7922C50.7537 38.628 50.6908 38.4717 50.5971 38.334C50.5033 38.1962 50.3811 38.0803 50.2386 37.9941C50.1002 38.4615 49.9098 38.9115 49.3216 38.9115C49.0275 38.9461 48.6987 39.0673 48.6987 39.4308C48.8025 39.552 48.6814 39.552 48.8025 39.552H49.1659C49.7714 39.6905 49.7714 39.777 49.7714 40.2444C49.7062 40.4396 49.691 40.6481 49.7273 40.8507C49.7635 41.0534 49.8501 41.2436 49.979 41.4041C50.1393 41.6514 50.2235 41.9402 50.2212 42.2349C50.2558 42.7888 49.9963 43.4466 50.7576 43.7235C50.8137 44.0212 50.8541 44.3217 50.8787 44.6236C50.862 45.037 50.8099 45.4482 50.723 45.8526C50.6365 46.2853 50.4807 46.7181 50.3596 47.1162C50.9306 47.8086 51.6918 47.6528 52.3666 47.6528C52.5915 47.6701 52.6953 47.1854 52.5915 47.047C52.482 46.9087 52.3539 46.7864 52.2109 46.6835C51.6054 46.2507 51.6054 46.2507 51.8129 45.4027L51.813 45.4026C52.2364 45.7063 52.6816 45.9782 53.1451 46.2161C53.0932 46.9604 52.9548 47.6874 52.9548 48.4317L51.7264 48.7087C51.3112 48.2759 50.55 48.5183 50.1867 47.9297C50.0621 47.7869 49.9162 47.6643 49.7541 47.5662V45.541C49.806 45.4545 49.7714 45.541 49.9098 45.4545C50.0482 45.3679 50.2558 45.4199 50.2731 45.1429C50.2904 44.866 50.2732 44.7621 49.806 44.7275C49.3389 44.6929 48.8718 44.9698 48.8718 45.3506C48.8718 46.2334 48.595 47.1335 49.1486 47.9644V48.6394C48.4769 48.418 47.8786 48.017 47.4185 47.4797C47.8164 47.3239 48.1624 47.1681 48.024 46.7181C47.8856 46.268 47.7991 45.818 47.6953 45.3853L48.2316 45.091C48.2662 44.7621 48.3873 44.3813 47.9029 44.139C47.2221 44.4432 46.6578 44.9592 46.2939 45.6103C46.0218 46.127 45.6971 46.6142 45.3251 47.0643C45.2732 47.2027 45.1347 47.2027 45.0309 47.2027C45.1753 46.897 45.2429 46.5605 45.2279 46.2227C45.2128 45.8848 45.1155 45.5558 44.9444 45.2641L46.8129 43.6889C46.0171 43.1523 46.4323 42.408 46.4323 41.8195L45.6537 40.7117C45.4634 40.7809 45.1693 40.9021 45.1693 40.9021C44.6676 40.5386 44.1659 40.7809 43.6641 40.9021C43.5449 40.9282 43.4203 40.9065 43.3168 40.8418C43.2134 40.7772 43.1393 40.6745 43.1105 40.5559C43.0542 40.3857 43.008 40.2123 42.9721 40.0366C42.678 39.4654 42.1763 39.777 41.7437 39.777C41.6399 38.9981 41.6399 38.9981 41.1901 38.6346L41.4496 37.7172C40.9603 38.1276 40.3794 38.4143 39.7561 38.5529C39.1328 38.6914 38.4853 38.6779 37.8682 38.5134L37.6261 38.4096C37.5569 37.9076 37.4185 37.3537 37.4185 36.7825L36.2074 38.0287C36.0453 37.535 35.9125 37.0322 35.8095 36.5228C35.7828 36.0097 35.7828 35.4955 35.8095 34.9823C35.5499 35.1208 35.3942 35.19 35.1001 35.1208C34.806 35.0515 34.7195 34.8784 34.3215 35.2246C33.9236 35.5708 33.4046 35.7612 33.2316 36.3497C33.1797 36.5228 32.9028 36.6267 32.7298 36.7652C32.7493 36.6564 32.7493 36.545 32.7298 36.4363C32.5573 36.1534 32.4841 35.8211 32.5217 35.4919C32.5593 35.1627 32.7056 34.8554 32.9375 34.6188C33.3354 34.1514 33.2489 33.3552 33.9755 33.0956C34.062 33.0783 34.062 32.8705 34.062 32.7667C33.9582 32.2647 34.2005 32.0051 34.6157 31.78C34.678 31.7308 34.7277 31.6675 34.7608 31.5953C34.7939 31.523 34.8094 31.444 34.806 31.3646C34.7714 31.2435 34.5811 31.0704 34.4427 31.0704C33.716 30.828 33.716 30.828 34.2696 30.2049L34.3734 30.0664C33.1797 29.9972 33.0413 30.153 33.2835 31.2954C33.3362 31.4526 33.3362 31.6228 33.2835 31.78C33.1278 32.1435 32.9201 32.4724 32.7298 32.8186C32.6433 32.7494 32.4876 32.5936 32.4876 32.5936C32.3093 32.0233 32.3462 31.4075 32.5914 30.8626C32.6858 30.7083 32.7428 30.534 32.7579 30.3536C32.7729 30.1733 32.7455 29.9919 32.6779 29.8241C32.628 29.7599 32.5654 29.7068 32.4939 29.6681C32.4225 29.6293 32.3437 29.6058 32.2627 29.5991C32.1935 29.5817 32.0032 29.7202 32.0032 29.8068C32.0301 30.3398 31.9952 30.8742 31.8994 31.3992C31.684 31.9512 31.4114 32.4791 31.0863 32.9744C30.9305 33.2687 30.9651 33.6668 30.5326 33.8399C30.5326 33.1994 30.8786 32.5417 30.4461 31.9358H29.9271C29.7886 32.3166 29.5983 32.7148 29.9271 33.1129C29.9361 33.1644 29.9361 33.2171 29.9271 33.2687C29.9555 33.3698 29.9633 33.4757 29.9498 33.58C29.9362 33.6842 29.9018 33.7847 29.8484 33.8753C29.7951 33.9658 29.724 34.0446 29.6394 34.107C29.5548 34.1693 29.4584 34.2139 29.3561 34.238C29.0793 34.3245 28.9236 34.2207 28.6468 33.8572C28.37 33.4937 28.5084 33.0956 28.5084 32.6455C28.1105 32.5763 27.5222 32.6628 27.3319 32.4032C27.1416 32.1435 26.8994 32.4032 26.6744 32.4032C26.5403 32.4637 26.4239 32.5575 26.3361 32.6756C26.2483 32.7938 26.1921 32.9323 26.1728 33.0783C26.0689 33.3725 25.5672 33.4591 25.4288 33.2687C25.3461 33.1791 25.3002 33.0617 25.3002 32.9398C25.3002 32.8179 25.3461 32.7004 25.4288 32.6109C25.6968 32.3718 25.8994 32.0683 26.0175 31.7291C26.1355 31.3899 26.1652 31.0261 26.1035 30.6722C26.078 30.4306 26.078 30.1869 26.1035 29.9452C25.9243 29.8761 25.7389 29.8239 25.5499 29.7895C25.3423 29.7548 25.3423 29.5991 25.3423 29.4087V29.4087C25.3792 29.2613 25.4574 29.1277 25.5678 29.0234C25.6781 28.9191 25.816 28.8486 25.9651 28.8201C26.242 28.8201 26.7437 28.8374 26.8302 28.8201C26.9167 28.8028 27.0032 28.647 27.0032 28.5605C26.9664 28.4478 26.8935 28.3504 26.7956 28.2835C26.6947 28.2258 26.5826 28.1904 26.4668 28.1797C26.017 28.1797 25.5672 28.5259 25.1001 28.1797L23.2315 28.9586H23.1104C22.972 28.5433 22.972 28.1452 22.972 27.7298V27.7296C23.3008 27.6431 23.8025 27.2277 23.6814 26.7776C23.6388 26.6466 23.5744 26.5238 23.4911 26.4141C23.8793 25.8762 24.2043 25.2954 24.4599 24.6832C24.5464 24.3543 25.0828 24.4235 25.3077 24.7697C25.3077 24.8043 25.2039 24.5793 25.3077 24.9255C25.4115 25.2717 25.4634 25.3236 25.844 25.2717C26.2247 25.2198 26.2247 24.9428 26.2247 24.5966C26.0516 23.835 25.7575 23.5754 24.9963 23.5754H24.6502C23.948 23.7936 23.2311 23.9614 22.5049 24.0773C22.3665 23.2292 22.2108 22.3464 22.0205 21.4982C22.0551 21.429 22.3838 21.2732 22.3838 21.1867L21.9686 21.2732C21.901 20.9486 21.9919 20.571 21.9935 20.2233C21.5802 19.9316 21.1832 19.5569 21.9686 19.9404C21.9875 20.0312 21.994 20.126 21.9935 20.2233C22.3451 20.4712 22.7084 20.6591 22.3665 20.2693C22.4428 20.3489 22.5237 20.424 22.6087 20.4943C22.6952 20.2173 22.8509 19.9577 22.8509 19.6808C21.8475 19.3519 21.8475 19.3519 21.8475 18.3307V18.3306H21.5707C21.4149 17.7075 21.2766 17.0843 21.1035 16.4612C21.2582 16.4873 21.416 16.4873 21.5707 16.4612C21.5885 16.2886 21.5885 16.1146 21.5707 15.9419C21.5177 15.7903 21.4137 15.6618 21.2765 15.5784C21.1554 15.5265 21.0343 15.6303 20.9478 15.7688C20.4807 14.0552 19.9444 12.4281 19.3561 10.6972C19.5118 10.6279 19.581 10.4548 19.7194 10.0394L20.0482 10.126L20.6018 10.3164C20.4775 9.99862 20.3904 9.66753 20.3423 9.32972C20.3945 9.05433 20.4817 8.78675 20.6018 8.53349C20.2212 8.41232 19.8059 8.16999 19.7194 7.84111C19.6329 7.51223 19.3907 7.56416 19.0793 7.94497C19.0724 8.00246 19.0724 8.06057 19.0793 8.11806C19.1603 8.201 19.215 8.30603 19.2366 8.41998C19.2581 8.53392 19.2455 8.65169 19.2004 8.75851C19.1139 8.94891 18.9755 8.94891 18.8025 8.94891L18.0585 7.06218C18.0822 6.95968 18.0822 6.85312 18.0585 6.75061C18.0585 6.62945 18.2661 6.42174 18.4045 6.42174C18.5828 6.38129 18.7413 6.27933 18.852 6.13375C18.9627 5.98816 19.0187 5.80824 19.0101 5.6255C19.0966 5.15815 19.0966 4.69079 19.0966 4.17151C18.7852 4.30999 18.3008 4.50039 18.1797 4.55232C18.0586 4.60425 18.0585 4.86389 18.0585 5.00236C18.0585 5.14084 18.3873 5.24469 18.0585 5.45241C17.8661 5.35969 17.686 5.2434 17.5222 5.10622C17.3146 4.8812 17.1935 4.60425 16.9686 4.39653L16.8474 4.29268L16.8473 4.29229C16.6743 3.91161 16.5014 3.53093 16.3111 3.15025C16.536 3.11564 16.6572 2.90792 16.761 2.52711C16.7699 2.36254 16.7276 2.19925 16.6398 2.05976H16.3111L15.8959 2.28478C15.5326 1.54048 15.1346 0.796172 14.754 0.0518672H17.7125C17.0217 0.394758 16.2888 0.645017 15.5326 0.796172C15.3942 0.813482 15.3942 1.15967 15.3942 1.22891C15.3942 1.29815 15.5845 1.402 15.671 1.402C15.9008 1.34252 16.1262 1.26733 16.3457 1.17698C17.453 0.778863 17.8163 1.00389 17.8163 2.11169C17.7861 2.40651 17.7223 2.69689 17.626 2.97716L18.6295 2.83868C18.5172 2.5373 18.4417 2.22346 18.4045 1.90398C18.3872 1.36738 18.5084 0.761554 18.5084 0.173033C18.5084 0.121105 18.4045 -6.10352e-05 18.4045 -6.10352e-05H20.3423C20.3582 0.15562 20.4251 0.30167 20.5326 0.415365C20.671 0.57115 21.19 0.484603 20.9997 0.813482C20.8094 1.14236 20.3942 1.402 20.6191 1.90398C20.844 2.40595 20.8959 2.4925 21.4322 2.61366C21.2594 2.26559 21.1982 1.8726 21.257 1.48842C21.3159 1.10424 21.4919 0.747617 21.7609 0.467293C22.3146 0.415365 22.8855 0.57115 23.2489 0.0518672H23.3353V0.224961C23.4392 0.501912 23.5257 0.778863 23.6295 1.0385C23.7114 1.2675 23.8651 1.4638 24.0679 1.59798C24.2706 1.73217 24.5114 1.79701 24.754 1.78281C24.9098 1.78281 25.1001 1.45393 25.1347 1.36738C25.1693 1.28084 25.0482 1.07312 25.0482 1.07312C24.9975 1.05718 24.9431 1.05718 24.8924 1.07312C24.6502 1.07312 24.408 1.14236 24.2869 0.813482C24.1658 0.484603 24.5118 0.519222 24.6502 0.380746C24.7509 0.276665 24.8381 0.160361 24.9098 0.0345578H29.6502C29.5308 0.301684 29.4381 0.579994 29.3735 0.86541C29.3601 0.947459 29.3673 1.03153 29.3945 1.11008C29.4217 1.18863 29.468 1.2592 29.5292 1.31546C29.6042 1.35348 29.6872 1.37329 29.7714 1.37329C29.8555 1.37329 29.9385 1.35348 30.0136 1.31546C30.0733 1.26187 30.1188 1.19427 30.146 1.11874C30.1732 1.04321 30.1812 0.962109 30.1693 0.88272C30.0692 0.591295 29.9357 0.312478 29.7714 0.0518672H31.934C31.9627 0.162307 32.0323 0.257708 32.1287 0.318766C32.225 0.379824 32.341 0.401979 32.4531 0.380746L32.8164 0.0518672H37.3666C37.3887 0.107226 37.4178 0.159567 37.453 0.207652V0.0518672H43.6814L46.8302 0.27689C46.8181 0.30105 46.8117 0.327728 46.8117 0.354782C46.8117 0.381837 46.8181 0.408514 46.8302 0.432675C46.8475 0.484603 46.8994 0.501912 47.0205 0.605769C47.6261 2.38864 48.197 4.18882 48.7506 6.02362C48.6433 6.06359 48.5562 6.14451 48.5085 6.24864C48.468 6.31353 48.4434 6.38709 48.4368 6.4633C48.4301 6.53952 48.4416 6.61621 48.4703 6.68712C48.499 6.75803 48.5441 6.82114 48.6018 6.87128C48.6595 6.92143 48.7283 6.95719 48.8025 6.97564L48.7333 6.716C49.6205 9.80571 50.4068 12.9291 51.0424 16.1028C51.0512 16.0895 51.06 16.0763 51.069 16.0631V16.2362C51.0601 16.1917 51.0513 16.1472 51.0424 16.1028C50.8965 16.3222 50.7666 16.5519 50.6538 16.7901C50.5846 16.9978 50.6019 17.2574 50.7749 17.3786C50.9479 17.4998 51.2593 17.3094 51.2593 17.0151C51.448 18.017 51.6214 19.0219 51.7822 20.0311C51.8072 20.0508 51.8257 20.0775 51.8302 20.1135C51.8365 20.1633 51.8382 20.2064 51.8202 20.2709C52.0274 21.589 52.2134 22.9145 52.3839 24.2504L52.2974 24.0947C52.2455 23.9216 52.1071 23.9216 52.0206 23.9216C51.588 23.8696 51.242 24.9082 50.9133 24.3197C50.5846 23.7312 51.3112 23.0734 50.6884 22.5887C50.0828 22.7099 50.0136 22.6753 48.9582 22.3464C48.8025 22.2945 48.5258 22.3983 48.3528 22.5887C48.1797 22.7791 48.3181 23.3504 48.5604 23.3504C48.9437 23.4024 49.31 23.5418 49.631 23.7579C49.9519 23.974 50.219 24.2609 50.4115 24.5966C50.5053 24.7066 50.6221 24.7946 50.7537 24.8544C50.8852 24.9143 51.0283 24.9444 51.1728 24.9428C51.2593 24.9601 51.415 25.0813 51.415 25.1678C51.5534 25.8948 51.9341 25.3409 52.2974 25.3409L52.6434 25.6179C52.6823 25.9788 52.7197 26.3404 52.7554 26.7028C52.7699 26.7264 52.7845 26.7513 52.7991 26.7776C52.7904 26.8029 52.7807 26.8274 52.77 26.8514C52.9653 28.8571 53.1109 30.8865 53.197 32.9398C52.7698 33.1859 52.2884 33.3227 51.7957 33.3379C51.8082 33.5339 51.8082 33.7304 51.7957 33.9264C51.7541 34.0798 51.7021 34.2302 51.6399 34.3765H50.4115L49.8406 35.19C49.8406 35.2246 49.7887 35.1208 49.8406 35.3458C49.8925 35.5708 50.1866 35.7266 49.979 36.0382C49.2141 36.1944 48.4256 36.1944 47.6607 36.0382C47.2627 36.367 47.159 36.8863 46.6053 36.8863L45.6365 36.1074L44.8925 36.8863C45.1512 37.047 45.3844 37.2453 45.5846 37.4748C45.6173 37.5398 45.6628 37.5974 45.7185 37.6442C45.7741 37.691 45.8387 37.7259 45.9083 37.747C45.9779 37.768 46.051 37.7747 46.1232 37.7666C46.1955 37.7585 46.2653 37.7358 46.3285 37.6999C46.5621 37.6508 46.7994 37.6219 47.0379 37.6133L47.3147 39.05C47.9029 39.05 48.0932 38.6346 48.3354 38.3403C48.2316 37.873 48.1105 37.4229 48.024 36.9729C48.0228 36.917 48.0365 36.8618 48.0639 36.813C48.0913 36.7643 48.1313 36.7239 48.1797 36.6959C48.2171 36.6728 48.2595 36.6589 48.3033 36.6554C48.3471 36.6519 48.3912 36.6589 48.4317 36.6759C48.4723 36.6928 48.5083 36.7191 48.5367 36.7527C48.565 36.7863 48.585 36.8262 48.5949 36.869C48.6987 37.2844 48.9237 37.5095 49.3562 37.4229C49.7887 37.3364 49.9444 37.7518 50.2212 37.9422C50.5846 37.4575 50.5673 37.371 50.9998 37.6133C51.4323 37.8557 51.6745 37.4229 51.6053 37.2844C51.5361 37.146 51.4496 36.9729 51.4496 36.8344C51.5534 36.3843 51.7438 36.0728 51.8649 35.5016C51.986 34.9304 52.7472 34.9996 52.8683 34.4457C52.9721 34.5322 53.1797 34.5322 53.1797 34.5322C53.2555 34.6119 53.3144 34.7061 53.3527 34.8092V35.2419C53.3191 35.3204 53.2786 35.3957 53.2316 35.4669C53.1238 35.6007 53.002 35.7226 52.8683 35.8304C53.0011 35.9892 53.1745 36.1089 53.3701 36.1766V39.4654Z" fill="#5E63BF"/>
</svg>
