<svg width="51" height="97" viewBox="0 0 51 97" fill="none" xmlns="http://www.w3.org/2000/svg">
<path d="M19.9078 92.7619L49.4404 86.0869L30.1306 0.569648L0.597899 7.24459L19.9078 92.7619Z" fill="#1F2144"/>
<path d="M32.9518 79.647C33.3511 79.1227 33.5422 78.4691 33.4881 77.8122C33.2113 77.2929 32.9344 76.8255 32.6749 76.3582C32.3462 76.6351 32.6749 77.0505 32.4846 77.3794C32.4649 77.4188 32.4371 77.4536 32.4031 77.4815C32.369 77.5094 32.3294 77.5297 32.2869 77.5412C32.2444 77.5526 32.2 77.5549 32.1565 77.5479C32.113 77.5409 32.0715 77.5248 32.0347 77.5006C31.8444 77.3275 31.706 77.1371 31.5157 76.9813C31.3254 76.8255 31.2908 76.9813 31.187 76.9813C31.0832 76.9813 31.187 77.0852 31.187 77.0852C31.1559 77.2219 31.1559 77.3639 31.187 77.5006C31.6195 78.2276 32.0521 78.9546 32.5192 79.6643C32.5886 79.6916 32.6628 79.7042 32.7373 79.7012C32.8118 79.6982 32.8848 79.6798 32.9518 79.647ZM34.6819 68.8978C34.5954 68.8112 34.5261 68.6728 34.4396 68.6555C34.3824 68.6655 34.3287 68.6898 34.2833 68.7261C34.238 68.7624 34.2025 68.8096 34.1802 68.8632C34.1802 69.019 34.3186 69.2267 34.4916 69.1575C34.6646 69.0882 34.5607 69.0709 34.6299 68.8978H34.6819ZM29.3358 69.7806L29.5434 69.8671C29.5494 69.8386 29.5494 69.8091 29.5434 69.7806H29.3358ZM34.232 74.3157C34.2301 74.217 34.2001 74.1209 34.1455 74.0387C34.0526 73.991 33.9537 73.956 33.8515 73.9348C33.8928 74.0382 33.945 74.1368 34.0071 74.2291C34.0623 74.2508 34.1209 74.2625 34.1802 74.2637L34.232 74.3157ZM32.7268 76.3409C32.7268 76.1851 32.8826 76.012 32.9518 75.8562C32.8664 76.0127 32.7913 76.1746 32.7268 76.3409V76.3409ZM32.9691 75.8389V75.735C32.9491 75.7683 32.9317 75.803 32.9171 75.8389H32.9691ZM41.3774 57.1793C41.3774 57.1793 41.6369 57.2659 41.6888 57.1793C41.8763 57.024 42.0345 56.8364 42.156 56.6254C42.2771 56.4004 41.8792 56.0023 41.6023 56.0542C41.3255 56.1061 41.4812 56.0542 41.4466 56.0542C41.366 56.1221 41.3001 56.2057 41.2528 56.2998C41.2055 56.394 41.1778 56.4968 41.1713 56.6019C41.1648 56.7071 41.1798 56.8125 41.2152 56.9118C41.2507 57.011 41.3058 57.1021 41.3774 57.1793V57.1793ZM39.4397 64.3454C39.4397 64.2589 39.284 64.1204 39.1975 64.1031C39.1109 64.0858 39.0071 64.2243 38.8514 64.3281L39.3705 64.5012C39.3705 64.5012 39.4224 64.3627 39.4051 64.3454H39.4397ZM41.8791 55.2926C41.8791 55.2926 41.8792 55.1887 41.9657 55.1368L41.5159 54.9291C41.5098 55.0098 41.5098 55.0908 41.5159 55.1714C41.6239 55.1972 41.7338 55.2145 41.8446 55.2234L41.8791 55.2926ZM37.5711 67.8592C37.7442 67.9631 37.9344 67.8592 37.8652 67.5823C37.7917 67.4307 37.7049 67.2859 37.6058 67.1496C37.4847 67.2707 37.3289 67.3746 37.3462 67.4438C37.358 67.6006 37.4256 67.748 37.5366 67.8592H37.5711ZM35.7372 66.9072C35.7551 66.993 35.7925 67.0736 35.8465 67.1426C35.9005 67.2117 35.9697 67.2673 36.0486 67.3053C36.1351 67.3053 36.3947 67.1669 36.4293 67.0457C36.6034 66.5158 36.5662 65.9391 36.3255 65.4359C36.1112 65.613 35.9427 65.8393 35.8343 66.0954C35.7258 66.3515 35.6806 66.63 35.7026 66.9072H35.7372ZM38.5573 65.9379C38.6487 66.0433 38.7534 66.1364 38.8687 66.2149V65.886L38.6265 65.6436C38.6265 65.6436 38.4881 65.8687 38.5227 65.9379H38.5573ZM39.3705 54.4444C39.3744 54.3995 39.3664 54.3544 39.3475 54.3135C39.3286 54.2725 39.2994 54.2373 39.2627 54.2111C39.2261 54.1849 39.1832 54.1687 39.1384 54.1641C39.0936 54.1595 39.0484 54.1666 39.0072 54.1848C38.9379 54.2662 38.885 54.3603 38.8514 54.4617C38.9379 54.4617 39.0418 54.6521 39.111 54.6521C39.1603 54.6341 39.2056 54.6065 39.2442 54.5708C39.2828 54.5351 39.314 54.4922 39.3359 54.4444H39.3705ZM34.3358 51.6749L34.803 51.5538C34.803 51.5538 34.803 51.4499 34.803 51.398C34.803 51.346 34.6818 51.3114 34.6472 51.398C34.4975 51.4683 34.3529 51.5493 34.2147 51.6403C34.2147 51.6403 34.3531 51.5884 34.457 51.5884L34.3358 51.6749ZM36.0659 60.1566C36.0446 60.2287 36.0156 60.2983 35.9795 60.3643C36.008 60.3703 36.0374 60.3703 36.0659 60.3643C36.0659 60.3643 36.1871 60.1219 36.1871 60.07L36.0659 60.1566ZM29.9587 75.1811C29.8203 75.8389 29.2666 75.9774 28.8514 76.3236C29.0763 76.6351 29.6299 76.687 29.4915 77.2582C29.4751 77.3161 29.4725 77.377 29.4841 77.436C29.4957 77.495 29.5212 77.5504 29.5584 77.5977C29.5955 77.6449 29.6432 77.6827 29.6978 77.708C29.7523 77.7332 29.812 77.7452 29.8721 77.7429C29.9496 77.7466 30.027 77.7329 30.0985 77.7027C30.17 77.6725 30.2338 77.6267 30.2853 77.5685C30.3368 77.5104 30.3746 77.4415 30.3959 77.3668C30.4172 77.2921 30.4215 77.2136 30.4084 77.1371C30.386 76.8958 30.4145 76.6525 30.492 76.4229C30.5694 76.1933 30.6942 75.9825 30.8583 75.8043C31.3048 75.3294 31.5843 74.7216 31.6542 74.0733C31.3081 73.9175 30.9794 73.6752 30.668 74.0733C30.3872 74.3665 30.1694 74.714 30.0279 75.0946L29.9587 75.1811ZM36.8792 60.7797L36.758 60.6758L36.6542 60.797C36.6542 60.797 36.6542 60.9008 36.7407 60.9528L36.8792 60.7797ZM28.8168 78.7642C28.7738 78.804 28.7394 78.8522 28.7156 78.9058C28.6918 78.9593 28.6791 79.0171 28.6783 79.0757C28.7475 79.1482 28.8297 79.2069 28.9206 79.2488C29.0355 79.2626 29.1517 79.2626 29.2666 79.2488C29.2303 79.1345 29.1715 79.0285 29.0936 78.9373C29.0723 78.8895 29.0385 78.8482 28.996 78.8178C28.9534 78.7874 28.9035 78.7689 28.8514 78.7642H28.8168ZM35.7372 64.2589H35.6161L35.8237 64.3627L35.7372 64.2589ZM30.6853 79.9412C31.0659 80.4259 30.7891 81.0317 30.9794 81.551C31.0659 81.8106 31.2735 81.9318 31.6022 81.7414C31.5852 81.4532 31.5852 81.1642 31.6022 80.8759C31.67 80.5123 31.7626 80.1538 31.8791 79.8027L30.7718 78.868L29.2493 79.1623C29.3877 79.8201 29.5434 80.4778 29.6991 81.1183C29.6991 81.1183 29.803 81.1183 29.8549 81.1183C29.8823 81.1297 29.9117 81.1356 29.9414 81.1356C29.9711 81.1356 30.0004 81.1297 30.0279 81.1183C30.0279 80.9452 30.1317 80.7721 30.1663 80.599C30.2009 80.4259 30.1663 80.1316 30.2528 79.8893C30.266 79.8605 30.2852 79.8348 30.3091 79.8139C30.3329 79.793 30.3609 79.7774 30.3912 79.7681C30.4577 79.7716 30.5227 79.7888 30.5822 79.8186C30.6418 79.8484 30.6945 79.8901 30.7372 79.9412H30.6853ZM35.6507 61.4548C35.6909 61.5236 35.7459 61.5826 35.8118 61.6276C35.8776 61.6725 35.9526 61.7021 36.0313 61.7144C36.2735 61.7144 36.3255 61.5067 36.2736 61.3336C36.1938 60.9938 36.0957 60.6587 35.9795 60.3296C35.4604 60.7451 35.4085 60.9009 35.7026 61.4548H35.6507ZM32.0002 66.111C31.9546 66.1012 31.9074 66.1012 31.8618 66.111L31.5677 66.5437C31.6423 66.5546 31.718 66.5546 31.7926 66.5437C31.8434 66.5437 31.8933 66.5306 31.9375 66.5055C31.9817 66.4805 32.0186 66.4444 32.0448 66.4009C32.0709 66.3573 32.0853 66.3077 32.0866 66.2569C32.0879 66.2061 32.076 66.1558 32.0521 66.111H32.0002ZM29.5953 70.0056C29.5953 70.0056 29.5953 70.0056 29.7164 70.0056L29.4915 69.9017L29.5953 70.0056ZM38.3497 50.671C38.3176 50.8484 38.3176 51.0301 38.3497 51.2076C38.4708 51.4499 38.8514 51.5191 38.886 51.346C38.9466 51.1962 38.9466 51.0286 38.886 50.8787C38.8168 50.7749 38.6266 50.7575 38.4017 50.671H38.3497ZM36.1871 55.483C36.1871 55.483 36.1871 55.3965 36.1871 55.3445C36.1871 55.2926 36.0832 55.3445 36.0659 55.4311C36.0486 55.5176 36.0659 55.5696 36.0659 55.5869C36.0659 55.6042 36.1871 55.6561 36.1871 55.483ZM37.6749 44.1799C37.6717 44.1519 37.6622 44.1249 37.6473 44.101C37.6323 44.077 37.6122 44.0567 37.5885 44.0415C37.5885 44.0415 37.5884 44.0415 37.45 44.0415C37.4346 44.0981 37.4346 44.1579 37.45 44.2146C37.5538 44.3877 37.6403 44.353 37.6576 44.1799H37.6749ZM25.0797 78.1064C25.6161 77.6737 26.1524 78.3314 26.8099 77.916C26.931 77.6044 27.1385 77.1025 27.3116 76.5659C27.3659 76.4206 27.3641 76.2602 27.3065 76.1161C27.2489 75.9721 27.1397 75.8547 27.0001 75.787L25.9275 77.0332L24.6472 76.8255C24.5959 77.1118 24.5613 77.4007 24.5434 77.691C24.5953 77.9679 24.8894 78.2449 25.0624 78.1064H25.0797ZM26.1005 75.8562C26.1269 75.8487 26.1516 75.8355 26.1725 75.8176C26.1934 75.7996 26.2101 75.7774 26.2216 75.7523C26.2171 75.7121 26.2171 75.6714 26.2216 75.6312H26.0486C25.8064 75.8043 25.9101 75.8735 26.0831 75.8562H26.1005ZM23.315 80.8932C23.315 80.8932 23.315 80.8067 23.315 80.7721L23.2112 80.9798L23.315 80.8932ZM28.5053 72.6886L28.2977 72.5501L28.0555 72.9828L28.2113 73.0694L28.5053 72.6886ZM36.983 53.302C36.989 53.4796 37.024 53.655 37.0868 53.8213C37.1733 53.9252 37.3809 53.9598 37.6231 54.0463C37.7615 53.6655 37.9345 53.3366 38.021 52.9905C38.1075 52.6443 38.021 52.5923 37.7442 52.6962C37.2079 52.9904 37.2424 52.2808 36.8445 52.2461C36.8445 52.4192 36.8445 52.5923 36.8445 52.7654C36.8445 52.9385 36.9657 53.1289 36.983 53.302ZM32.9864 62.3895C32.9864 62.3895 33.1247 62.476 33.142 62.3895C33.1593 62.3029 33.367 62.2337 33.3843 62.1471C33.4016 62.0606 33.2805 61.9567 33.2113 61.8702C33.1421 61.7836 33.0902 61.8702 33.0729 61.974C33.0239 62.1075 32.9948 62.2475 32.9864 62.3895V62.3895ZM22.3461 81.7587C22.3461 81.7587 22.4326 81.8626 22.4672 81.7587C22.5019 81.6549 22.8306 81.7587 22.8998 81.5856C23.0029 81.377 23.0786 81.1559 23.1247 80.9279C22.8994 80.9975 22.6842 81.0965 22.4846 81.2221C22.4327 81.3952 22.4326 81.6029 22.3461 81.7587ZM30.4431 72.0308C30.3674 71.9131 30.2805 71.8029 30.1836 71.7019L29.9067 71.9789C30.009 72.0816 30.1255 72.1691 30.2528 72.2385C30.2528 72.2385 30.5642 72.0654 30.5469 72.0308H30.4431ZM38.938 52.5923H39.0763C39.1268 52.5295 39.1676 52.4595 39.1975 52.3846H39.0245C39.0494 52.4509 39.0555 52.5228 39.0418 52.5923H38.938ZM32.0175 68.0497C32.1213 67.9285 32.0175 67.8419 31.8964 67.8765C31.7753 67.9112 31.8099 67.8766 31.7753 67.9631C31.7685 68.0032 31.7685 68.0441 31.7753 68.0843C31.7753 68.0843 32.0867 68.0843 32.1213 68.0497H32.0175ZM36.9137 65.4186C36.8297 65.1098 36.7198 64.8087 36.585 64.5185C36.3946 64.2069 36.0833 64.2935 35.8065 64.3627C35.9449 64.7089 36.066 65.0551 36.1871 65.4186H36.9137ZM31.8271 70.6114C31.7607 70.5434 31.685 70.4851 31.6022 70.4383C31.6022 70.4383 31.4812 70.4383 31.4639 70.4383C31.4639 70.7326 31.36 71.0095 31.2735 71.5461C31.5676 71.2692 31.7234 71.1999 31.7753 71.0615C31.8635 70.9139 31.9167 70.7481 31.9309 70.5768L31.8271 70.6114ZM40.4777 49.2516H40.5815C40.594 49.2245 40.6004 49.1949 40.6004 49.1651C40.6004 49.1352 40.594 49.1057 40.5815 49.0785C40.4604 48.9747 40.3913 49.0785 40.4086 49.1997C40.4259 49.3209 40.4951 49.1824 40.5297 49.217L40.4777 49.2516ZM30.6853 69.0709C30.5988 69.2959 30.6852 69.3998 30.9448 69.469C31.2043 69.5382 31.2908 69.3825 31.2216 69.1575C31.1395 69.0084 31.0409 68.869 30.9275 68.742C30.8237 68.8978 30.7199 68.967 30.6853 69.0709ZM27.3289 78.7988L27.45 78.6603C27.4744 78.5287 27.4744 78.3938 27.45 78.2622C27.3757 78.34 27.3221 78.4352 27.2942 78.5392C27.2077 78.643 27.2943 78.7296 27.3289 78.8161V78.7988ZM27.4154 78.0199L27.3289 78.2276C27.3289 78.2276 27.3289 78.2276 27.4154 78.141C27.5019 78.0545 27.5365 78.0718 27.5365 78.0372L27.4154 78.0199ZM34.5781 72.3943C34.7602 72.3537 34.9277 72.2639 35.0624 72.1347C35.1166 71.9836 35.1166 71.8184 35.0624 71.6673C35.0624 71.6673 34.8548 71.5635 34.751 71.6673C33.9206 71.7712 33.5227 72.3943 33.142 73.0174C32.969 73.3117 33.142 73.6579 33.6611 73.9868C33.7649 73.7791 33.9898 73.5367 33.9379 73.3636C33.9552 72.7578 34.1801 72.5328 34.6472 72.4116L34.5781 72.3943ZM20.0797 71.5461C20.0367 71.6575 20.0077 71.7738 19.9932 71.8923C19.9932 71.8923 20.1315 71.9789 20.1488 71.8923C20.1661 71.8058 20.3738 71.7366 20.3911 71.65C20.4084 71.5635 20.2873 71.4596 20.2181 71.3731C20.1489 71.2865 20.1661 71.5288 20.1488 71.5635L20.0797 71.5461ZM17.3807 76.6351C17.2428 76.6184 17.1034 76.6184 16.9655 76.6351C16.9655 76.739 16.9655 76.8428 16.9655 77.0159C17.1033 77.0339 17.2429 77.0339 17.3807 77.0159C17.3807 77.0159 17.4672 76.6524 17.4499 76.6524L17.3807 76.6351ZM23.4015 64.7262C23.5572 64.8647 23.5053 65.1936 23.6091 65.4013C23.7129 65.609 23.9033 65.5744 24.0936 65.6956C24.0936 65.0724 24.0936 64.5012 24.8375 64.3108C24.9759 64.3108 25.1662 63.9992 25.1316 63.9127C24.9413 63.48 24.7856 63.9127 24.5953 63.9127C23.7648 64.0685 22.8652 64.1897 21.9309 64.3454C22.1731 64.8647 22.4153 65.0205 22.7613 64.8647C23.1074 64.7089 23.2458 64.5358 23.4707 64.7435L23.4015 64.7262ZM17.7094 73.0867C17.7094 73.0867 17.7094 73.0867 17.7094 73.2079H17.8651C18.015 73.0925 18.015 73.0232 17.8651 73.0001C17.8255 73.0241 17.795 73.0607 17.7786 73.104L17.7094 73.0867ZM18.7994 81.0663C18.7536 81.0715 18.7098 81.0881 18.672 81.1145C18.6341 81.1409 18.6036 81.1764 18.5829 81.2177C18.5623 81.2589 18.5522 81.3047 18.5538 81.3509C18.5553 81.397 18.5684 81.442 18.5918 81.4818C18.5918 81.4818 18.6956 81.4818 18.7821 81.6202C18.8686 81.7587 18.9032 81.2914 18.9551 81.1183C19.007 80.9452 18.8859 81.0663 18.8859 81.0836L18.7994 81.0663ZM22.1039 73.3983C22.1111 73.3378 22.1059 73.2764 22.0887 73.218C22.0715 73.1596 22.0426 73.1052 22.0038 73.0583C21.965 73.0113 21.917 72.9728 21.8628 72.9449C21.8086 72.9171 21.7494 72.9006 21.6887 72.8963C21.5454 72.8522 21.3921 72.8535 21.2496 72.8999C21.1071 72.9464 20.9825 73.0358 20.8928 73.1559C20.8305 73.2951 20.8172 73.4512 20.8549 73.5989C20.8926 73.7466 20.9791 73.8772 21.1005 73.9695C21.2246 74.0722 21.3805 74.1284 21.5416 74.1284C21.7026 74.1284 21.8587 74.0722 21.9828 73.9695C22.0866 73.8829 22.1386 73.6579 22.1732 73.4156L22.1039 73.3983ZM19.007 72.3424C18.9384 72.2992 18.862 72.2698 18.7821 72.2558C18.7378 72.2635 18.696 72.2818 18.6603 72.3093C18.6247 72.3367 18.5962 72.3724 18.5774 72.4133C18.5587 72.4543 18.5502 72.4992 18.5527 72.5441C18.5552 72.589 18.5687 72.6327 18.5918 72.6713C18.5918 72.6713 18.5917 72.6713 18.7301 72.7751L19.007 72.3424ZM34.1109 36.183C34.1016 36.2287 34.1016 36.2758 34.1109 36.3215L34.2493 36.1657L34.1282 36.0618L34.1109 36.183ZM35.495 33.9847C35.495 33.9847 35.72 33.9847 35.7892 33.8808C36.1525 33.4827 36.1352 33.2923 35.6681 32.5653C35.5091 32.897 35.3704 33.2381 35.2528 33.5866C35.2182 33.6558 35.3739 33.8462 35.495 33.9501V33.9847ZM16.8097 78.3661L16.7059 78.5738L16.8097 78.4872C16.8097 78.4872 16.8097 78.3834 16.8097 78.3315V78.3661ZM16.2734 78.8853C16.2734 78.8853 16.2734 79.1623 16.2734 79.3008C16.3675 79.2557 16.4459 79.1833 16.4983 79.093C16.5589 78.9372 16.5996 78.7744 16.6194 78.6084C16.4912 78.6689 16.3741 78.7508 16.2734 78.8507V78.8853ZM18.6956 79.37C18.6956 79.37 18.6956 79.5085 18.6956 79.5258C18.6956 79.5431 18.9032 79.5258 18.8859 79.4219C18.8686 79.3181 18.8859 79.3354 18.7821 79.2834C18.6783 79.2315 18.6956 79.3008 18.6956 79.3354V79.37ZM24.2492 81.3087L24.353 81.1009L24.2492 81.1875V81.1875V81.3087ZM20.9274 78.5219C20.4776 78.5219 20.097 78.5219 19.751 78.5219C19.4049 78.5219 19.3704 78.8161 19.4742 79.1969L20.4949 79.4219C20.6748 79.4705 20.8392 79.5645 20.9725 79.6948C21.1058 79.8251 21.2034 79.9874 21.2561 80.1662C21.6887 79.4566 21.1869 78.9546 20.9274 78.418V78.5219ZM44.3532 81.274C44.2494 81.274 44.0764 81.4471 43.9899 81.5683C43.9034 81.6895 43.9899 81.8453 43.9899 81.8626C44.3532 82.0357 44.7511 82.1741 45.1144 82.3126C45.1663 81.4298 45.0279 81.1875 44.3532 81.1875V81.274ZM45.201 82.3299C45.3221 82.6069 45.4432 82.8665 45.7892 82.9011C45.6854 82.4684 45.5643 82.1915 45.201 82.1741V82.3299ZM43.3843 85.5841C43.38 85.659 43.38 85.7342 43.3843 85.8091C43.3843 85.8091 43.3843 85.8091 43.3843 85.7226C43.3843 85.636 43.3843 85.4802 43.3843 85.4283V85.5841ZM32.848 53.7175H32.9518C32.9518 53.6309 32.9518 53.5617 32.9518 53.527C32.9518 53.4924 32.7442 53.527 32.7788 53.6309C32.8134 53.7348 32.8825 53.4924 32.9171 53.5963L32.848 53.7175ZM50.8931 88.0593L50.7201 87.3496C50.5772 87.3772 50.4304 87.3772 50.2876 87.3496C50.0627 87.2631 50.028 86.8477 50.201 86.5707C50.2618 86.4627 50.3443 86.3684 50.4432 86.2938L49.0938 80.8932C48.4368 81.1423 47.7219 81.1964 47.0349 81.049C46.6197 81.3433 46.7581 81.7587 46.6889 82.0876C46.6327 82.3911 46.5922 82.6973 46.5678 83.005H45.7547C45.9793 83.5106 46.1251 84.0476 46.1872 84.5975C46.1007 84.5975 46.0141 84.5975 45.9795 84.5975C45.9303 84.4836 45.8564 84.3822 45.7629 84.3006C45.6694 84.2191 45.5589 84.1596 45.4395 84.1264C45.32 84.0932 45.1946 84.0872 45.0725 84.1088C44.9504 84.1304 44.8347 84.1791 44.7339 84.2513L44.0591 84.6667L43.4536 83.7493C43.3441 83.8048 43.2277 83.8456 43.1075 83.8705C42.942 83.9045 42.7714 83.9045 42.6058 83.8705C42.6058 83.8705 42.3982 83.6974 42.3982 83.6974C42.3982 82.2953 42.2425 80.9452 43.5747 80.0797C43.5747 80.0797 43.5747 79.8547 43.5747 79.7335H43.2633C43.0903 79.7335 42.8826 79.7335 42.7442 79.7335C42.6058 79.7335 42.156 79.2661 41.8446 79.0757C41.6938 78.966 41.512 78.9069 41.3255 78.9069C41.139 78.9069 40.9573 78.966 40.8065 79.0757C40.6161 79.1796 40.2528 79.0757 39.9587 78.9892C39.9261 79.0636 39.9103 79.1443 39.9124 79.2256C39.9144 79.3068 39.9343 79.3866 39.9706 79.4593C40.007 79.532 40.0588 79.5958 40.1225 79.6461C40.1862 79.6965 40.2603 79.7323 40.3394 79.7508C40.7392 79.8409 41.1434 79.9102 41.5504 79.9585C41.6455 80.0556 41.6988 80.1861 41.6988 80.322C41.6988 80.4579 41.6455 80.5885 41.5504 80.6855C41.4196 80.821 41.3243 80.9867 41.273 81.1679C41.2217 81.3491 41.216 81.5401 41.2563 81.7241C41.3601 82.2434 40.9968 82.4857 40.5643 82.8665C40.5643 82.4165 40.5643 82.0011 40.3394 81.7414C39.8385 81.0334 39.3014 80.3516 38.7303 79.6989C38.4537 79.3876 38.1592 79.0928 37.848 78.8161C37.848 78.4007 37.9517 78.0545 37.9864 77.7083C37.794 77.6634 37.5919 77.6917 37.4192 77.7877C37.2465 77.8837 37.1157 78.0405 37.0521 78.2276C37.3808 79.0065 36.7234 79.4392 36.4293 79.9585C36.3436 80.1108 36.2451 80.2555 36.1351 80.3913C36.1351 80.7374 36.4465 80.7721 36.6888 80.8586C36.931 80.9452 37.3116 81.3952 37.4673 80.7201H38.7131C38.7131 81.4125 39.4397 81.6722 39.3532 82.2953C39.3289 82.3663 39.3 82.4357 39.2667 82.503L38.021 82.6588C37.7686 82.4784 37.4661 82.3813 37.1559 82.3813C36.8457 82.3813 36.5433 82.4784 36.2909 82.6588C35.9621 82.8838 35.5469 82.5203 35.5296 82.1222C35.5123 81.7241 35.8756 80.8932 35.3912 80.3913C35.3912 80.3913 35.5123 80.097 35.5296 79.9239C35.5296 79.4046 36.0141 79.1104 36.3082 78.7123C35.9913 78.7305 35.6736 78.7305 35.3566 78.7123C35.2007 78.6801 35.058 78.6019 34.9469 78.4877C34.8359 78.3735 34.7616 78.2286 34.7337 78.0718C34.7337 77.7775 34.7337 77.4487 34.7337 77.1544C34.6498 76.9483 34.5455 76.7512 34.4223 76.5659C34.2294 76.8224 34.1045 77.1235 34.0592 77.4413C34.0138 77.759 34.0495 78.0831 34.1629 78.3834C34.4952 78.9903 34.6112 79.6923 34.4916 80.374L33.713 80.7548C34.6528 81.476 35.3083 82.5057 35.5643 83.6627C35.322 83.6627 35.0279 83.7493 34.8548 83.6627C34.5199 83.4256 34.202 83.1653 33.9033 82.8838C33.0901 82.8838 32.796 83.5243 32.1732 83.8185C32.0485 83.8867 31.9087 83.9224 31.7666 83.9224C31.6245 83.9224 31.4848 83.8867 31.3601 83.8185C31.1006 83.8185 30.8064 83.9224 30.4604 84.0089C30.2355 83.0223 29.0244 82.9357 28.7303 81.9318C28.5227 82.4165 28.7303 82.728 28.886 83.0915C29.0417 83.455 29.0763 83.7839 29.1628 84.0782C28.9579 84.4332 28.6626 84.7276 28.307 84.9313C27.9514 85.135 27.5483 85.2408 27.1386 85.2379C27.0114 85.7004 26.992 86.186 27.082 86.6571C27.172 87.1283 27.3689 87.5725 27.6576 87.9555C27.7137 88.0623 27.7429 88.1811 27.7429 88.3017C27.7429 88.4223 27.7137 88.5411 27.6576 88.6479C27.0175 88.9594 27.2424 89.4268 27.3635 89.8768C27.3737 89.9457 27.3737 90.0157 27.3635 90.0845C26.5158 90.0845 26.1005 89.4268 25.6334 88.9594C25.9275 88.4575 26.4984 88.6132 26.9137 88.4401C26.9879 88.3919 27.0509 88.3283 27.0987 88.2537C27.1464 88.179 27.1777 88.0951 27.1904 88.0074C27.1834 87.8308 27.1091 87.6636 26.9828 87.5401C26.5849 87.2804 26.014 87.3843 25.7026 86.9515L24.8893 87.4016C24.5606 87.2804 24.5088 86.9688 24.4396 86.6919C24.3704 86.4149 24.7164 86.363 24.8721 86.2072C25.0278 86.0514 25.0624 85.7226 25.2354 85.5841C25.6616 85.2315 26.1192 84.9187 26.6023 84.6494C26.9912 84.4875 27.3975 84.3714 27.8133 84.3032C27.8133 83.732 28.3496 83.9397 28.6956 83.732C28.6157 83.5854 28.5575 83.4279 28.5227 83.2646C28.5227 82.8838 28.5226 82.5203 28.0555 82.3645C27.5884 82.2087 27.5019 82.3645 27.2251 82.5723C27.165 82.6245 27.0902 82.6567 27.0109 82.6642C26.9317 82.6717 26.8521 82.6541 26.7834 82.614C26.7146 82.5739 26.6602 82.5132 26.6277 82.4405C26.5952 82.3678 26.5863 82.2868 26.6023 82.2087C26.6023 81.6722 26.36 81.049 27.0693 80.7375C27.1558 80.7375 27.1904 80.374 27.0693 80.2528C26.9482 80.1316 26.7233 79.9585 26.6195 80.0105C26.4316 80.1104 26.2173 80.1491 26.0064 80.1212C25.7954 80.0933 25.5984 80.0001 25.443 79.8547C25.0624 79.5777 25.0278 79.6469 23.7129 79.8547C23.4188 80.6509 24.3703 80.8413 24.4568 81.4298C24.9759 81.5856 25.443 81.9318 25.4776 82.3818C25.4776 83.1435 26.014 83.1088 26.4985 83.2473C26.4985 84.1647 25.9621 84.5455 25.1835 84.7532C25.0105 84.7532 24.7683 84.7532 24.6645 84.7532C24.5607 84.7532 24.5434 84.3205 24.6645 84.1301C24.7848 83.9831 24.8838 83.82 24.9586 83.6454C25.0797 83.3512 24.9586 83.1608 24.3703 82.8146C23.5918 83.3858 23.7476 84.6667 22.8306 85.134C22.6922 85.0475 22.623 85.0129 22.6057 84.9609C22.3635 84.2166 22.6056 83.4031 22.1212 82.6588C21.7604 82.0091 21.4815 81.3173 21.2908 80.599L20.097 81.2913C20.097 81.8799 20.097 82.5376 20.097 83.2819L18.7301 82.8665C18.1938 83.5762 18.7301 84.1301 18.7301 84.7013C18.6263 84.7013 18.4706 84.8052 18.4187 84.8917C18.3668 84.9783 18.2803 85.2552 18.4187 85.3417C18.5571 85.4283 18.7475 85.4975 18.9032 85.6014C19.0537 85.6988 19.1737 85.8368 19.2493 85.9995C19.4223 86.5188 19.1281 87.0208 18.4187 87.5054C18.4187 87.1073 18.5226 86.7611 18.5918 86.363L17.8824 85.8264L18.7821 89.3922L19.1973 89.5652C19.1601 89.7437 19.0697 89.9067 18.9378 90.0326L20.4603 96.0736L41.6715 90.7769C41.6715 90.5346 41.6715 90.3096 41.6715 90.0326C41.9006 90.2051 42.1201 90.39 42.329 90.5865L50.8931 88.0593ZM44.7857 87.0727C44.7857 87.0727 44.6128 86.9515 44.5262 86.8823C44.5599 86.7808 44.6127 86.6868 44.6819 86.6054C44.8376 86.5015 45.0972 86.6054 45.0453 86.8477C44.9873 86.9013 44.9153 86.9374 44.8377 86.9515L44.7857 87.0727ZM49.6993 85.3417C49.6993 85.3417 49.6993 85.4283 49.6993 85.4802C49.6993 85.5322 49.5955 85.6879 49.4917 85.4802C49.3879 85.2725 49.4917 85.3764 49.4917 85.3244C49.4917 85.2725 49.7511 85.1687 49.7684 85.186L49.6993 85.3417ZM48.9034 87.4189C48.9034 87.4189 48.9034 87.5401 48.7996 87.5401C48.6958 87.5401 48.7131 87.5401 48.6785 87.4362V87.2804L48.9034 87.4189ZM48.9034 84.182C48.9878 84.2015 49.0655 84.2434 49.1283 84.3032C49.1283 84.3032 48.9381 84.4244 48.8689 84.407C48.7997 84.3897 48.6785 84.3032 48.592 84.2513C48.7155 84.1418 48.864 84.0645 49.0245 84.0262L48.9034 84.182ZM47.9865 83.9224H48.073H47.8654C47.8654 83.9224 48.073 83.7493 48.1076 83.7666L47.9865 83.9224ZM47.0868 84.8571C47.2417 84.8722 47.3904 84.9257 47.5193 85.0129C47.5365 85.0634 47.5365 85.1182 47.5193 85.1687C47.3982 85.1687 47.2598 85.3937 47.1214 85.3937C46.9386 85.3502 46.7675 85.2675 46.6197 85.1513C46.9484 84.8744 47.0695 84.6494 47.2079 84.6494L47.0868 84.8571ZM44.9415 88.5094C44.8377 88.5094 44.7512 88.3709 44.6647 88.3017L44.9241 88.1113L45.1664 88.3363C45.1664 88.3363 45.1145 88.3709 45.0626 88.3536L44.9415 88.5094ZM47.4675 81.9837L47.7616 82.2434C47.6607 82.3456 47.5507 82.4383 47.4328 82.5203C47.4328 82.5203 47.2079 82.3472 47.2252 82.3299C47.3022 82.1347 47.4272 81.962 47.5886 81.8279L47.4675 81.9837ZM46.6369 83.1088L46.5331 83.0223L46.7581 83.1088H46.6369ZM45.3567 85.1687C45.6162 85.2898 45.8584 85.4456 46.1006 85.5668C46.1006 85.7226 45.9969 85.8784 45.945 85.8957C45.8585 85.9245 45.7668 85.9339 45.6763 85.9234C45.5858 85.9129 45.4986 85.8826 45.4211 85.8347C45.3435 85.7869 45.2775 85.7226 45.2275 85.6464C45.1775 85.5702 45.1448 85.4839 45.1317 85.3937C45.1317 85.3937 45.4432 85.0129 45.4778 85.0129L45.3567 85.1687ZM25.1835 80.9625C25.1835 80.9625 25.0451 80.9625 25.0451 80.8759C25.0451 80.7894 25.0451 80.599 25.0451 80.4432L25.3392 80.599L25.1835 80.9625ZM19.0416 84.684C18.9032 84.5975 18.7821 84.4763 18.6437 84.3724C18.8105 84.3554 18.9786 84.3554 19.1455 84.3724C19.1455 84.3724 19.3185 84.4936 19.3704 84.5802C19.4223 84.6667 19.3703 84.6494 19.1627 84.5282L19.0416 84.684ZM20.1143 83.7839C20.1143 83.7839 20.1143 83.6801 20.1143 83.6281L20.2526 83.732V83.8878L20.1143 83.7839ZM20.9966 87.2458C20.9966 87.3323 20.9966 87.4535 20.9966 87.4881L20.3738 87.7478C20.4866 87.5702 20.614 87.4024 20.7544 87.2458C20.7544 87.2458 20.9966 87.1073 21.1177 87.1073L20.9966 87.2458ZM21.3426 84.459C21.3458 84.4877 21.3458 84.5168 21.3426 84.5455C21.3426 84.7706 21.2388 84.8052 21.135 84.5455C21.0312 84.2859 21.135 84.4417 21.135 84.4417C21.135 84.4417 21.4291 84.3032 21.4638 84.3205L21.3426 84.459ZM20.9794 82.8492C20.9794 82.8492 20.9794 82.7453 20.9794 82.6934C20.9794 82.6415 20.9794 82.5896 20.9794 82.5376C20.9794 82.4857 21.1004 82.5376 21.1177 82.5376L21.6195 82.9357C21.6195 82.9357 21.6195 83.0396 21.6195 83.0915C21.6195 83.1435 21.2908 82.7973 21.1005 82.7107L20.9794 82.8492ZM20.3219 85.1513C20.3411 85.1432 20.3616 85.1391 20.3824 85.1391C20.4032 85.1391 20.4239 85.1432 20.443 85.1513V85.1513H20.3219ZM20.6333 85.9649C20.6333 85.7226 20.6333 85.4975 20.6333 85.2725C21.3773 85.7745 21.3946 85.9649 20.6333 86.7438C20.3738 86.3803 20.7718 86.086 20.7544 85.8264L20.6333 85.9649ZM20.2526 87.6958C20.2165 87.7618 20.1875 87.8314 20.1662 87.9036C20.1572 87.8637 20.1572 87.8223 20.1662 87.7824L20.2526 87.6958ZM19.7163 88.8729H19.8374C19.8444 88.9071 19.8444 88.9425 19.8374 88.9767L19.7163 88.8729ZM21.4464 89.5306C21.2388 89.6172 20.962 89.7383 20.8063 89.6518C20.5068 89.4629 20.2284 89.2424 19.9759 88.994C20.3738 88.8556 20.7544 88.6305 21.1697 88.8556C21.3144 88.9449 21.4336 89.0701 21.5157 89.2191C21.54 89.2572 21.5556 89.3002 21.5615 89.3451C21.5675 89.3899 21.5637 89.4355 21.5502 89.4787L21.4464 89.5306ZM22.9516 87.0381V86.8996H23.0901V87.0727L22.9516 87.0381ZM21.4464 93.4253C21.3201 93.3338 21.2092 93.2228 21.1177 93.0964C21.1177 93.0964 21.1177 92.8714 21.1177 92.7675L21.6714 92.9233C21.706 93.0791 21.6367 93.3041 21.5502 93.3041L21.4464 93.4253ZM23.1766 91.954C23.1766 91.8674 23.0554 91.7635 23.0727 91.677C23.09 91.5905 23.0728 91.5039 23.2285 91.4V91.6078C23.2793 91.6972 23.3033 91.7993 23.2977 91.902L23.1766 91.954ZM23.1766 91.3827C23.0366 90.9849 22.8569 90.6021 22.6402 90.2403C22.5591 90.1202 22.5158 89.9785 22.5158 89.8335C22.5158 89.6886 22.5591 89.5469 22.6402 89.4268C22.6402 89.1671 22.6402 88.8383 22.6402 88.544C22.6444 88.3803 22.7128 88.2249 22.8306 88.1113C22.9863 87.9728 23.2631 88.1113 23.3496 88.4748C23.4226 88.6447 23.4636 88.8266 23.4707 89.0114C23.3162 89.66 23.4022 90.3428 23.7129 90.9327C23.7129 90.9327 23.5226 91.175 23.3496 91.3308L23.1766 91.3827ZM25.0451 88.4921C25.0255 88.395 25.0255 88.2949 25.0451 88.1978C25.1245 88.2219 25.2002 88.2568 25.27 88.3017C25.3333 88.3907 25.3802 88.4904 25.4085 88.5959C25.3408 88.5494 25.2771 88.4973 25.2181 88.4401L25.0451 88.4921ZM24.8721 93.3041C24.845 93.3165 24.8154 93.323 24.7855 93.323C24.7557 93.323 24.7262 93.3165 24.6991 93.3041C24.5368 93.2169 24.3977 93.0922 24.2932 92.9405C24.1888 92.7888 24.1219 92.6143 24.0982 92.4316C24.0745 92.2489 24.0948 92.0631 24.1571 91.8898C24.2195 91.7164 24.3222 91.5604 24.4568 91.4347C24.4568 91.3481 24.6818 91.3481 25.0451 91.2616C24.7988 91.8789 24.7624 92.5601 24.9413 93.2002C24.9413 93.2002 25.0797 93.3041 25.0451 93.3041H24.8721ZM28.1074 86.7611C27.8652 86.7611 27.5884 86.7611 27.5192 86.5361C27.4799 86.4052 27.4921 86.2643 27.5532 86.142C27.6143 86.0198 27.7197 85.9255 27.8479 85.8784L28.6091 86.6054C28.501 86.6444 28.3913 86.679 28.2804 86.7092L28.1074 86.7611ZM28.7476 86.7611H28.9552H28.7476ZM29.9587 85.636C29.8798 85.6588 29.7962 85.6596 29.7169 85.6382C29.6376 85.6169 29.5656 85.5742 29.5088 85.5149C29.404 85.3688 29.3493 85.1927 29.3531 85.0129C29.3531 84.7706 29.4396 84.4763 29.7338 84.4936C30.0279 84.5109 30.1317 84.684 30.2528 84.7359C30.3156 84.8653 30.3377 85.0107 30.316 85.1529C30.2944 85.2951 30.2301 85.4273 30.1317 85.5322L29.9587 85.636ZM36.239 83.5589C36.3136 83.691 36.3388 83.8452 36.3103 83.9942C36.2818 84.1432 36.2013 84.2772 36.0833 84.3724L35.9621 84.5109L35.5988 84.909C35.5988 84.3897 35.4777 83.8878 35.4258 83.3858C35.9102 83.1954 36.1871 83.1088 36.412 83.455L36.239 83.5589ZM35.6507 85.4283C35.6121 85.5309 35.5386 85.6167 35.4431 85.6706C35.2701 85.7572 35.1663 85.5495 35.2874 85.3244C35.3741 85.1837 35.4725 85.0505 35.5816 84.9263C35.6799 85.0475 35.7613 85.1814 35.8237 85.3244L35.6507 85.4283ZM33.713 83.4377C34.803 84.4936 34.803 84.4936 34.4743 85.9476C33.8514 85.2379 32.9518 84.8398 32.8653 83.7493L33.713 83.4377ZM33.9206 87.2631L33.6957 87.1419V87.0035L33.8341 87.1073L33.9206 87.2631ZM32.0175 84.8744C32.0859 84.8349 32.1634 84.8141 32.2423 84.8141C32.3213 84.8141 32.3989 84.8349 32.4673 84.8744C32.6779 84.994 32.8451 85.1776 32.9446 85.3985C33.0441 85.6194 33.0708 85.8662 33.0209 86.1034C32.6609 85.8816 32.3144 85.6389 31.9829 85.3764C31.9829 85.3764 32.104 84.8744 32.1905 84.7706L32.0175 84.8744ZM30.5988 88.6479C30.2528 88.994 29.8894 89.3056 29.5434 89.6691C29.401 89.873 29.2849 90.094 29.1974 90.3269C28.988 89.912 28.9375 89.4348 29.0554 88.9852C29.1733 88.5357 29.4515 88.1448 29.8376 87.8862C29.8948 87.8364 29.9619 87.7994 30.0345 87.7775C30.1071 87.7556 30.1836 87.7493 30.2588 87.7591C30.334 87.7689 30.4063 87.7946 30.4708 87.8344C30.5354 87.8742 30.5908 87.9273 30.6334 87.9901C30.7099 88.0574 30.7643 88.1465 30.789 88.2454C30.8137 88.3444 30.8077 88.4485 30.7718 88.544L30.5988 88.6479ZM32.5019 86.7092C32.5019 86.7958 32.623 86.8996 32.6057 86.9862C32.5668 87.0799 32.5144 87.1673 32.4501 87.2458V87.0381C32.451 86.9473 32.4775 86.8585 32.5264 86.782C32.5754 86.7055 32.6448 86.6443 32.7268 86.6054L32.5019 86.7092ZM31.533 90.0153C31.5234 89.9814 31.5234 89.9454 31.533 89.9114C31.533 89.9114 31.6369 89.9114 31.6542 89.9114C31.6648 89.933 31.6704 89.9567 31.6704 89.9807C31.6704 90.0047 31.6648 90.0284 31.6542 90.0499C31.8964 90.0499 31.8098 90.0845 31.706 89.8422L31.533 90.0153ZM32.5192 88.2844C32.4504 88.2275 32.3949 88.1561 32.3568 88.0753C32.3187 87.9945 32.2989 87.9063 32.2989 87.817C32.2989 87.7277 32.3187 87.6395 32.3568 87.5587C32.3949 87.4779 32.4504 87.4065 32.5192 87.3496L33.367 88.5959C33.1355 88.4598 32.9207 88.2971 32.7268 88.1113L32.5192 88.2844ZM32.2251 90.7769C32.3462 90.8808 32.5019 90.9673 32.4846 91.0192C32.3808 91.5039 32.2597 91.9713 32.104 92.5771C31.7234 91.5732 32.0694 91.1404 32.3981 90.6038L32.2251 90.7769ZM33.3151 88.6132L34.7165 88.1459H34.8375C34.6818 89.0287 34.5089 89.8768 34.284 91.0192C33.9698 90.1754 33.704 89.3143 33.4881 88.4401L33.3151 88.6132ZM37.8999 82.5549L38.1421 83.23C37.9172 82.9184 37.9172 82.9184 38.0729 82.3818L37.8999 82.5549ZM38.2459 86.6919C38.021 86.6919 37.9691 86.588 37.9864 86.4322C38.0141 86.1525 38.0604 85.875 38.1248 85.6014C38.2465 85.8634 38.3448 86.1357 38.4189 86.4149C38.4239 86.4494 38.4239 86.4844 38.4189 86.5188L38.2459 86.6919ZM39.457 87.09C39.3734 87.0099 39.2804 86.9401 39.1801 86.8823C39.0457 85.6275 38.7007 84.4045 38.1594 83.2646C38.278 83.2295 38.4041 83.2295 38.5227 83.2646C39.3704 83.7666 40.2528 84.2859 41.0314 84.8052C41.0314 84.8052 41.0314 84.909 41.1179 84.9609L40.0279 85.861L40.3739 86.588C40.3393 86.8477 39.9587 86.8477 39.6473 86.9169L39.457 87.09ZM38.6438 90.7769C38.6271 90.6389 38.6271 90.4995 38.6438 90.3615H39.0072C38.9995 90.5053 38.9642 90.6464 38.9034 90.7769C38.9034 90.7769 38.8169 90.6384 38.8169 90.6038L38.6438 90.7769ZM41.7061 84.909C41.7061 84.909 41.6023 84.8225 41.6023 84.7706C41.6023 84.7186 41.6023 84.5455 41.7753 84.6667C41.9483 84.7878 41.7753 84.7706 41.7753 84.8225L41.7061 84.909ZM42.5712 86.7611H42.4501C42.4315 86.7109 42.4315 86.6556 42.4501 86.6054H42.6231L42.5712 86.7611ZM43.2633 86.1553C43.1983 86.0557 43.1404 85.9516 43.0902 85.8437C42.8307 85.8437 42.6058 85.6533 42.7442 85.3937C42.8074 85.301 42.8928 85.2256 42.9924 85.1742C43.0921 85.1229 43.203 85.0971 43.3151 85.0994C43.4172 85.1471 43.5073 85.2169 43.5791 85.3037C43.6509 85.3905 43.7026 85.4922 43.7304 85.6014C43.7167 85.8299 43.658 86.0535 43.5574 86.2591C43.6266 86.0514 43.5055 86.0515 43.4363 85.9822L43.2633 86.1553ZM35.4604 44.0761C35.547 44.0761 35.5988 43.9203 35.6507 43.8338C35.7026 43.7472 35.495 43.5914 35.4085 43.5914C35.3513 43.6015 35.2976 43.6258 35.2522 43.6621C35.2069 43.6984 35.1714 43.7455 35.149 43.7991C35.2528 43.7818 35.4777 43.9896 35.6334 43.903L35.4604 44.0761ZM37.4847 38.364C37.6058 38.4678 37.6749 38.364 37.6576 38.2428L37.5538 38.1216H37.45C37.4747 38.1514 37.5073 38.1736 37.544 38.1859C37.5807 38.1981 37.62 38.1998 37.6576 38.1909L37.4847 38.364ZM31.4812 53.4751C31.4812 53.3713 31.4812 53.2155 31.4812 53.1635C31.4812 53.1116 31.2563 53.1635 31.1525 53.1635V53.302C31.2319 53.3964 31.3252 53.4781 31.4292 53.5443C31.4292 53.5443 31.6023 53.302 31.6542 53.302L31.4812 53.4751ZM29.3531 57.387C29.3531 57.387 29.4396 57.2832 29.3531 57.2486C29.2666 57.2139 29.18 56.9543 29.1108 56.8158H29.007C29.007 56.9197 29.007 57.0236 29.007 57.1274C29.007 57.2313 29.007 57.2486 29.1108 57.2659C29.2146 57.2832 29.4916 57.2312 29.5262 57.2139L29.3531 57.387ZM26.6887 60.4162C26.8499 60.3901 27.0001 60.3179 27.1213 60.2085C27.1213 60.1046 27.1213 59.9142 27.1213 59.7757C27.1213 59.6373 26.8617 59.7757 26.7925 59.7757C26.6669 59.8747 26.571 60.0065 26.5157 60.1566C26.5157 60.1566 26.6541 60.4162 26.6887 60.4162ZM33.4881 47.7976C33.4384 47.8105 33.3953 47.8413 33.367 47.8842C33.367 47.8842 33.367 47.9707 33.367 48.0053C33.367 48.04 33.4881 48.0053 33.5227 48.0053C33.5573 48.0053 33.6784 47.7457 33.4881 47.7284V47.7976ZM20.616 74.4714C20.616 74.4714 20.616 74.3503 20.616 74.3157C20.616 74.281 20.4603 74.0387 20.3738 73.9002H20.27C20.2615 74.0097 20.2615 74.1196 20.27 74.2291C20.2615 74.2749 20.2615 74.3218 20.27 74.3676C20.27 74.3676 20.616 74.4887 20.616 74.4714ZM32.5365 56.9543C32.6577 56.3658 32.7788 55.7773 32.8653 55.2234C32.8653 55.2234 32.7442 55.0503 32.6577 54.9464L31.6888 55.6388C32.0002 56.9543 32.0002 56.9543 32.5365 56.9543ZM25.6161 56.4696C25.6161 56.4696 25.6161 56.3485 25.6161 56.2792C25.6161 56.21 25.3566 56.2792 25.3047 56.2792C25.2528 56.2792 25.3047 56.487 25.3047 56.6081H25.4603C25.5078 56.5815 25.554 56.5526 25.5988 56.5216L25.6161 56.4696ZM20.616 75.8735C20.6212 75.9193 20.6377 75.9632 20.6642 76.001C20.6906 76.0388 20.7261 76.0695 20.7673 76.0901C20.8086 76.1107 20.8543 76.1207 20.9004 76.1192C20.9465 76.1176 20.9914 76.1046 21.0312 76.0812C21.0312 76.0812 21.0313 75.9947 21.1697 75.8908L20.668 75.7177C20.668 75.7177 20.616 75.8216 20.616 75.8735ZM32.3289 49.9094C32.4177 49.7645 32.4486 49.5914 32.4154 49.4247C32.4154 49.1651 32.0002 49.0093 31.8791 49.1824C31.8172 49.3136 31.7763 49.4538 31.758 49.5978C31.8791 49.9267 32.2251 50.0305 32.3289 49.9094ZM19.0243 76.9813L19.1627 77.0678L19.3876 76.6178L19.1455 76.514C19.0889 76.6651 19.0483 76.8217 19.0243 76.9813V76.9813ZM18.0035 79.2834C18.0035 79.2834 17.8306 79.1623 17.7441 79.1104C17.5455 79.1712 17.3675 79.2859 17.2301 79.4417C17.0927 79.5976 17.0011 79.7884 16.9655 79.9931C16.9655 79.9931 17.1039 80.2355 17.1558 80.2355C17.3854 80.1996 17.5955 80.085 17.7501 79.9114C17.9047 79.7378 17.9943 79.5158 18.0035 79.2834V79.2834ZM29.8029 50.0305H29.6818L29.9067 50.1171L29.8029 50.0305ZM28.9379 51.6057C28.9844 51.6667 29.0447 51.7157 29.1139 51.7488C29.1831 51.7819 29.2591 51.7981 29.3358 51.7961C29.6299 51.6749 29.5607 51.4153 29.4396 51.2076C29.3458 51.1117 29.2341 51.0352 29.1108 50.9826C29.0454 50.9961 28.985 51.0274 28.9362 51.073C28.8874 51.1186 28.8521 51.1769 28.8342 51.2413C28.8163 51.3057 28.8165 51.3738 28.8348 51.4381C28.8531 51.5024 28.8888 51.5604 28.9379 51.6057V51.6057ZM32.9171 43.6607C32.9171 43.6607 32.8306 43.6607 32.796 43.6607C32.7614 43.6607 32.7961 43.6607 32.6577 43.6607L32.8133 43.8165L32.9171 43.6607ZM30.5122 50.5845C30.5578 50.555 30.5936 50.5127 30.6154 50.463C30.6372 50.4133 30.6438 50.3583 30.6346 50.3049C30.6254 50.2514 30.6008 50.2018 30.5637 50.1623C30.5265 50.1227 30.4785 50.095 30.4257 50.0825C30.2589 50.0663 30.0909 50.0663 29.9241 50.0825C30.0021 50.2353 30.0948 50.3803 30.2008 50.5152C30.2446 50.5486 30.2952 50.5721 30.349 50.584C30.4027 50.596 30.4584 50.5961 30.5122 50.5845V50.5845ZM28.1766 57.1274C28.1766 57.1274 28.3324 57.3351 28.4189 57.3524C28.5054 57.3697 28.5918 57.2486 28.6956 57.1793L28.4189 56.9543L28.1766 57.1274ZM28.1766 59.7065C28.3323 59.5161 28.4361 59.2911 28.1766 59.0834C27.9171 58.8756 27.8998 59.0834 27.7441 59.0834C27.5884 59.0834 27.7441 59.4988 27.8306 59.7065L27.969 59.8103C27.969 59.8103 28.1593 59.7584 28.1766 59.7065V59.7065ZM27.3807 54.8945L27.1386 55.3965L27.6922 55.5522C27.6922 55.4311 27.6922 55.2753 27.6922 55.2061C27.6041 55.0877 27.4991 54.9827 27.3807 54.8945V54.8945ZM27.3807 60.8316C27.3807 60.8316 27.5192 60.8316 27.5538 60.8316C27.5884 60.8316 27.6922 60.6585 27.5538 60.6412C27.4154 60.6239 27.3289 60.7797 27.3116 60.8316H27.3807ZM36.0313 41.7913C35.7718 41.1854 35.4258 41.2893 35.1317 41.272C34.8376 41.2547 34.976 41.3931 34.9068 41.4624C34.8376 41.5316 35.0624 41.6701 35.1663 41.6874C35.4398 41.7513 35.7173 41.7975 35.9968 41.8259L36.0313 41.7913ZM36.8618 39.4891C36.8618 39.4891 36.9656 39.4891 37.0002 39.3853L36.9137 39.2814C36.9137 39.2814 36.7753 39.2814 36.758 39.2814C36.7407 39.2814 36.6542 39.6449 36.8272 39.5237L36.8618 39.4891ZM19.007 48.1438C19.1091 48.1311 19.2084 48.1018 19.3011 48.0573C19.3939 47.9964 19.4758 47.9203 19.5433 47.8322L19.0935 47.7111C19.0378 47.9038 18.9973 48.1005 18.9724 48.2996L19.007 48.1438ZM18.5918 52.8347C18.5758 52.9553 18.5758 53.0775 18.5918 53.1982C18.5918 53.1982 18.7302 53.1982 18.7648 53.1982C18.7994 53.1982 18.9724 53.0424 18.9897 52.9558C19.007 52.8693 18.8859 52.7654 18.8167 52.6789C18.7475 52.5923 18.5745 52.8866 18.5572 52.9385L18.5918 52.8347ZM14.9585 60.9355L14.872 61.074L15.0969 61.1951V61.0913C15.0419 61.0661 14.9837 61.0486 14.924 61.0393L14.9585 60.9355ZM16.5156 56.6427L16.2216 56.9024C16.3254 56.9889 16.4118 57.1101 16.5156 57.1966C16.6194 57.2832 16.7406 57.0409 16.7406 57.0062C16.6604 56.9136 16.5736 56.8268 16.481 56.7466L16.5156 56.6427ZM23.4361 42.224L23.7302 42.449L23.9724 41.999L23.5053 41.7739C23.5399 42.0336 23.5053 42.1894 23.488 42.3279L23.4361 42.224ZM21.8271 45.4782C21.8644 45.3967 21.8837 45.3081 21.8837 45.2185C21.8837 45.1289 21.8644 45.0404 21.8271 44.9589C21.8271 44.7858 21.533 44.6473 21.187 44.3184C21.1217 44.6729 21.0812 45.0315 21.0659 45.3916C21.0659 45.5301 21.2561 45.6686 21.3426 45.807C21.5337 45.7656 21.7155 45.6893 21.879 45.582L21.8271 45.4782ZM22.6229 40.2853L22.4846 40.1815V40.32C22.5496 40.372 22.6191 40.4184 22.6922 40.4584L22.6229 40.2853ZM13.9723 51.9346C13.7633 51.8525 13.5495 51.7831 13.3322 51.7269C13.4187 51.9346 13.5052 52.1596 13.6091 52.3673C13.7129 52.575 13.7993 52.5231 13.8685 52.4885C13.9154 52.4636 13.9565 52.4292 13.9893 52.3874C14.0221 52.3457 14.0458 52.2976 14.0589 52.2461C14.0762 52.2115 14.0415 52.0384 13.9723 52.0038V51.9346ZM23.0209 43.4357C23.0313 43.3901 23.0313 43.3427 23.0209 43.2972C23.0209 43.2972 22.9344 43.2972 22.8825 43.2972C22.8306 43.2972 22.8825 43.4183 22.8825 43.453C22.8825 43.4876 23.0036 43.6953 23.0209 43.5049V43.4357ZM13.782 57.0928C13.7754 57.1387 13.7754 57.1853 13.782 57.2313L13.9205 57.0755L13.7993 56.9716C13.7993 56.9716 13.782 57.1274 13.782 57.162V57.0928ZM29.5434 18.8736H29.6818L29.8029 18.6485H29.63L29.5434 18.8736ZM13.09 51.7615L13.315 51.8653L13.2111 51.7615H13.09ZM17.8997 48.1092C17.9862 48.1092 18.1073 47.9707 18.1246 47.8669C18.1419 47.763 18.0208 47.6938 17.917 47.538L17.7441 48.04C17.7441 48.04 17.8824 48.0399 17.8997 48.0226V48.1092ZM17.3115 53.0597C17.1731 52.9558 17.1039 53.0597 17.1385 53.1635V53.302C17.1385 53.302 17.2423 53.302 17.2423 53.2155C17.2649 53.2004 17.2831 53.1797 17.2953 53.1554C17.3074 53.1311 17.3131 53.1041 17.3115 53.077V53.0597ZM18.8513 42.5702C18.8513 42.5702 18.8513 42.6567 18.9897 42.6567C19.1281 42.6567 18.9897 42.6567 19.0762 42.5529L18.8686 42.3971C18.8857 42.459 18.8916 42.5235 18.8859 42.5875L18.8513 42.5702ZM31.9656 13.7846C31.9656 13.7846 31.9656 13.8712 32.0867 13.8712C32.2078 13.8712 32.0867 13.8712 32.1905 13.7673L31.9656 13.6288V13.7846ZM15.5468 53.7001C15.4084 53.5963 15.3391 53.7001 15.3737 53.8213C15.4083 53.9425 15.3737 53.9078 15.3737 53.9425H15.4776C15.5088 53.915 15.5317 53.8795 15.5439 53.8397C15.5561 53.8 15.5571 53.7577 15.5468 53.7175V53.7001ZM19.699 44.0069C19.5992 44.1009 19.5274 44.2207 19.4914 44.353C19.5952 44.7512 19.8029 44.9243 19.9932 44.7858C20.0508 44.7299 20.096 44.6624 20.1258 44.5879C20.1556 44.5133 20.1694 44.4333 20.1662 44.353C20.1316 44.0588 19.872 43.903 19.699 44.0242V44.0069ZM13.0727 61.8009C13.0727 61.8009 13.0727 61.9048 13.0727 61.9567L13.2284 61.7836L13.09 61.6798C13.09 61.6798 13.0727 61.7663 13.0727 61.8182V61.8009ZM18.6437 70.0229L18.7475 70.1268L18.8859 69.9017H18.7301C18.7301 69.9017 18.6437 69.9883 18.6437 70.0402V70.0229ZM18.6437 60.1046H18.5398C18.5256 60.1374 18.5182 60.1727 18.5182 60.2085C18.5182 60.2442 18.5256 60.2796 18.5398 60.3123C18.6783 60.4162 18.7475 60.3123 18.7129 60.1912C18.6783 60.07 18.6609 60.1566 18.6263 60.1219L18.6437 60.1046ZM14.4048 69.2786C14.4048 69.2786 14.4049 69.2786 14.2838 69.2786C14.1627 69.2786 14.2838 69.4171 14.2838 69.4517C14.2838 69.4863 14.4741 69.5729 14.4914 69.4517C14.4632 69.3958 14.4284 69.3435 14.3876 69.2959L14.4048 69.2786ZM22.7267 60.6239C22.7267 60.6239 22.5364 60.6239 22.4326 60.5374C22.3288 60.4508 22.1731 60.6239 22.1385 60.6931C22.1214 60.8427 22.1214 60.9937 22.1385 61.1432C22.2941 61.1517 22.4501 61.1517 22.6057 61.1432C22.6057 61.1432 22.6057 61.1432 22.7095 61.0047C22.7572 60.8763 22.7572 60.735 22.7095 60.6066L22.7267 60.6239ZM24.8548 55.4311C24.8616 55.362 24.8616 55.2924 24.8548 55.2234V55.3272C24.8548 55.3272 24.8375 55.3445 24.8375 55.3791L24.8548 55.4311ZM15.962 75.285C15.962 75.285 16.0485 75.3888 16.1004 75.3888C16.1523 75.3888 16.1004 75.3888 16.1869 75.2677L15.9793 75.1292C15.9773 75.1643 15.9715 75.1992 15.962 75.2331V75.285ZM17.571 71.3038C17.4947 71.1569 17.3645 71.0452 17.2077 70.9922C17.0001 70.9922 16.8444 71.2692 16.9655 71.5981C17.0759 71.6939 17.1979 71.7753 17.3287 71.8404C17.5191 71.8404 17.7094 71.4942 17.571 71.2519V71.3038ZM19.6298 48.0919C19.6298 48.0919 19.7163 48.0919 19.751 48.0919H19.5433H19.6298ZM20.4257 54.2713V54.4098L20.6506 54.531V54.3752L20.4257 54.2713ZM19.6645 53.579H19.7856C19.8875 53.515 19.9709 53.4255 20.0277 53.3193C20.0277 53.3193 19.9239 53.1635 19.8201 52.9731C19.7509 53.2328 19.6991 53.3713 19.6645 53.4924V53.579ZM14.5779 66.7341C14.5302 66.8271 14.4953 66.9261 14.4741 67.0284C14.5774 66.987 14.6759 66.9348 14.7682 66.8726C14.7852 66.7986 14.7852 66.7216 14.7682 66.6476C14.7032 66.6471 14.6386 66.6588 14.5779 66.6822V66.7341ZM14.18 67.1842C14.18 67.1842 14.1799 67.34 14.0761 67.4265C13.9723 67.5131 14.3011 67.4265 14.353 67.34C14.4049 67.2534 14.353 67.1496 14.4568 67.0457C14.3594 67.0547 14.2652 67.0842 14.18 67.1323V67.1842ZM31.7407 28.463C31.7407 28.463 31.8445 28.463 31.8618 28.463C31.8791 28.463 31.8618 28.3245 31.8618 28.3072C31.8618 28.2899 31.6542 28.3072 31.6888 28.4111L31.7407 28.463ZM15.7197 64.3974V64.5358L15.9447 64.657V64.5531C15.9282 64.5021 15.8989 64.4561 15.8595 64.4197C15.8201 64.3833 15.7719 64.3578 15.7197 64.3454V64.3974ZM21.879 48.9574C21.9404 48.9083 21.9885 48.8445 22.0188 48.7718C22.049 48.6992 22.0605 48.6201 22.052 48.5419C22.052 48.2304 21.7752 48.0573 21.5849 48.1957C21.3946 48.3342 21.4292 48.4554 21.3773 48.5419C21.4811 48.8708 21.706 49.0612 21.879 48.9054V48.9574ZM17.4672 20.0852C17.4672 20.0852 17.2423 20.1891 17.1904 20.2756C17.1385 20.3622 17.3461 20.6391 17.5018 20.5699C17.6575 20.5007 17.6402 20.3968 17.7094 20.3103C17.7786 20.2237 17.5537 20.0333 17.4672 20.0333V20.0852ZM14.2838 28.1514C14.274 28.2666 14.274 28.3824 14.2838 28.4976C14.2838 28.4976 14.4222 28.5842 14.4395 28.4976C14.4568 28.4111 14.6644 28.3591 14.6817 28.2553C14.699 28.1514 14.5778 28.0822 14.5086 27.9783C14.4394 27.8745 14.3011 28.0476 14.2838 28.0995V28.1514ZM18.0382 17.333C18.0382 17.333 18.0382 17.333 18.1593 17.333C18.2804 17.333 18.1593 17.333 18.2631 17.2292L18.0382 17.0907V17.333ZM19.4049 14.0616C19.4049 13.975 19.2492 13.9231 19.1627 13.8539C19.0762 13.7846 18.9378 13.9923 18.9205 14.0789C18.9032 14.1654 19.007 14.3039 19.0935 14.3558C19.18 14.4077 19.4741 14.1654 19.4049 14.0096V14.0616ZM12.0519 38.6929H11.9308H11.827C11.8343 38.7641 11.8647 38.8309 11.9135 38.8833L12.0519 38.6929ZM16.6713 22.7855C16.6259 22.8195 16.5896 22.8641 16.5655 22.9154C16.5413 22.9667 16.5302 23.0231 16.533 23.0798C16.533 23.6683 17 23.8587 17.5364 23.8933C17.346 23.5298 17.1731 23.149 16.9828 22.8028C16.941 22.7658 16.8905 22.74 16.836 22.7279C16.7815 22.7158 16.7248 22.7177 16.6713 22.7336V22.7855ZM17.6575 24.0145H17.7786L17.571 23.9279C17.571 23.9279 17.6229 23.9452 17.6575 23.9626V24.0145ZM26.4811 17.9216L26.2562 17.7831V17.9389C26.2562 17.9389 26.2562 17.9389 26.3773 17.9389C26.4984 17.9389 26.4465 17.9042 26.4811 17.8696V17.9216ZM13.8685 30.6959C13.8343 30.6889 13.799 30.6889 13.7647 30.6959C13.7525 30.7201 13.7462 30.7468 13.7462 30.7738C13.7462 30.8009 13.7525 30.8275 13.7647 30.8517C13.8858 30.9556 13.9551 30.8517 13.9378 30.7305L13.8685 30.6959ZM15.4776 18.3716C15.4776 18.3716 15.4776 18.3716 15.3392 18.562L15.8236 18.7178C15.8326 18.6663 15.8326 18.6136 15.8236 18.562C15.8224 18.5156 15.8097 18.4703 15.7865 18.4301C15.7633 18.3899 15.7304 18.3562 15.6908 18.3321C15.6512 18.308 15.6061 18.2942 15.5598 18.292C15.5134 18.2899 15.4674 18.2994 15.4257 18.3197L15.4776 18.3716ZM3.52244 25.2954C3.52244 25.2954 3.52243 25.2954 3.40132 25.2954C3.39227 25.3469 3.39227 25.3996 3.40132 25.4512C3.5282 25.6127 3.59739 25.6127 3.60893 25.4512C3.60893 25.4512 3.57434 25.2781 3.52244 25.2434V25.2954ZM11.0484 19.4621C10.9813 19.3051 10.9003 19.1545 10.8063 19.0121L10.4083 19.3929C10.5986 19.514 10.737 19.6179 10.8754 19.6871C11.0138 19.7564 11.0657 19.4621 11.0484 19.4102V19.4621ZM17.1558 81.4298C17.0107 81.3296 16.8772 81.2135 16.7579 81.0836L17.571 84.3205C17.8464 83.5144 17.941 82.6574 17.8479 81.8106C17.6072 81.7027 17.3758 81.5753 17.1558 81.4298V81.4298ZM8.78196 24.4645C8.77578 24.5047 8.77578 24.5455 8.78196 24.5857C8.83587 24.6683 8.89987 24.7438 8.97235 24.8107C8.97235 24.8107 8.97235 24.7069 8.97235 24.6895C8.91332 24.6109 8.84969 24.5358 8.78196 24.4645V24.4645ZM10.9792 21.6777C10.9569 21.7296 10.9453 21.7856 10.9453 21.8421C10.9453 21.8987 10.9569 21.9546 10.9792 22.0066C11.0831 22.3528 11.3252 22.4912 11.4983 22.3355C11.5593 22.2409 11.6005 22.1349 11.6194 22.0239C11.4637 21.7643 11.1177 21.5565 10.9792 21.6777V21.6777ZM13.6091 22.9586C13.459 23.0349 13.3144 23.1216 13.1765 23.2182L13.2803 23.3048L13.7475 23.1317C13.7475 23.1317 13.7475 23.0451 13.7475 23.0105C13.7475 22.9759 13.6955 22.9413 13.6955 22.9586H13.6091ZM14.3184 15.1347C14.3184 15.1347 14.2146 15.2559 14.2319 15.2732C14.3014 15.3659 14.3899 15.4426 14.4914 15.4982C14.4914 15.4982 14.6125 15.4982 14.6817 15.4982C14.7509 15.4982 14.6817 15.2386 14.6817 15.1867C14.6817 15.1347 14.4222 15.1347 14.3184 15.1347V15.1347ZM9.75082 42.726C9.75082 42.726 9.99308 42.899 10.1142 42.8817C10.2353 42.8644 10.391 42.726 10.5294 42.6394C10.6678 42.5529 10.3391 42.3798 10.2007 42.3279C10.1429 42.3083 10.0811 42.3043 10.0214 42.3164C9.96161 42.3284 9.90609 42.356 9.86043 42.3964C9.81478 42.4368 9.78062 42.4886 9.76138 42.5465C9.74214 42.6043 9.73846 42.6662 9.75082 42.726V42.726ZM11.4809 40.0603C11.4809 40.0603 11.481 40.0603 11.6194 40.0603C11.7578 40.0603 11.6194 40.0603 11.6194 39.9564L11.4118 39.8007C11.4118 39.8007 11.5329 39.9911 11.5329 40.0603H11.4809ZM24.5607 23.8068C24.5607 23.8068 24.5607 23.8933 24.5607 23.9279C24.5607 23.9625 24.6818 23.9279 24.7164 23.9279C24.751 23.9279 24.8548 23.7375 24.7164 23.7202C24.6937 23.7259 24.6726 23.7366 24.6546 23.7516C24.6366 23.7666 24.6223 23.7855 24.6126 23.8068H24.5607ZM27.6749 12.4345C27.7216 12.4314 27.7667 12.4158 27.8052 12.3892C27.8438 12.3627 27.8744 12.3261 27.8939 12.2836C27.9134 12.241 27.9211 12.1939 27.916 12.1473C27.9109 12.1008 27.8934 12.0564 27.8652 12.019C27.8652 12.019 27.7614 12.0191 27.6576 11.8979C27.5538 11.7767 27.5538 12.2268 27.5192 12.3825L27.6749 12.4345ZM19.0243 36.2522C19.0243 36.2522 19.0243 36.2522 19.1281 36.1484L18.9032 35.9926V36.1657C18.9032 36.1657 19.007 36.183 19.0416 36.183L19.0243 36.2522ZM14.18 47.2091C14.18 47.2091 14.007 47.3303 13.8513 47.4341L14.353 47.5899C14.353 47.5899 14.4395 47.4687 14.353 47.4514C14.2665 47.4341 14.301 47.2264 14.1972 47.2091H14.18ZM14.18 45.0281C14.1833 45.0742 14.1833 45.1205 14.18 45.1666L14.3357 45.0108L14.2146 44.9069C14.2146 44.9069 14.1454 44.9762 14.1454 45.0281H14.18ZM10.7198 53.6828C10.7198 53.6828 10.7198 53.9771 10.7198 54.1329C10.7198 54.2886 10.9793 54.1329 11.0312 54.1329C11.2607 53.9549 11.4748 53.7581 11.6713 53.5443C11.6318 53.46 11.5855 53.3789 11.5329 53.302C11.271 53.3918 11.0165 53.5018 10.7716 53.6309L10.7198 53.6828ZM11.9654 48.2996H11.7925C11.8097 48.468 11.8565 48.6321 11.9308 48.7843C11.9308 48.94 12.173 48.9054 12.1557 48.7843C12.1171 48.614 12.0529 48.4506 11.9654 48.2996V48.2996ZM14.7855 41.8951C14.7855 41.722 14.5952 41.5489 14.4395 41.6355C14.2838 41.722 14.3357 41.8259 14.2838 41.9124C14.2319 41.999 14.4568 42.1201 14.5433 42.1028C14.5995 42.0767 14.6472 42.0352 14.6809 41.9832C14.7145 41.9311 14.7328 41.8706 14.7336 41.8086L14.7855 41.8951ZM10.2353 50.3075C10.2353 50.3075 10.3737 50.394 10.3737 50.3075C10.4242 50.2446 10.465 50.1746 10.4949 50.0998H10.3391L10.2353 50.3075ZM10.8408 47.4341C10.799 47.3917 10.7492 47.3581 10.6942 47.3351C10.6393 47.3121 10.5803 47.3003 10.5207 47.3003C10.4612 47.3003 10.4023 47.3121 10.3473 47.3351C10.2924 47.3581 10.2425 47.3917 10.2007 47.4341C10.0796 47.538 10.045 47.7111 9.94122 47.9534C10.1505 48.0761 10.3784 48.1638 10.6159 48.213C10.8408 48.1957 10.9966 47.6245 10.8236 47.4341H10.8408ZM29.4915 9.14569L29.6472 9.24954C29.6472 9.09376 29.7856 8.93797 29.8721 8.78218H29.6126C29.5607 8.85142 29.5088 8.98991 29.4742 9.14569H29.4915ZM26.7579 5.57996C26.7579 5.57996 26.7579 5.57996 26.6368 5.57996C26.628 5.63732 26.628 5.69567 26.6368 5.75303C26.7521 5.89151 26.8213 5.89151 26.8444 5.75303C26.8474 5.71694 26.8389 5.68084 26.8203 5.64979C26.8017 5.61874 26.7738 5.59432 26.7406 5.57996H26.7579ZM10.6332 49.1478C10.6332 49.1478 10.4602 49.0612 10.3564 49.0266C10.2526 48.992 10.1661 49.1997 10.1834 49.2862C10.2002 49.341 10.2292 49.3911 10.2681 49.4331C10.3071 49.4751 10.355 49.5077 10.4083 49.5286C10.564 49.5805 10.737 49.3036 10.6159 49.1478H10.6332ZM12.173 43.6953C12.2174 43.595 12.2522 43.4906 12.2768 43.3837C12.1736 43.4251 12.075 43.4773 11.9827 43.5395C11.9379 43.6094 11.903 43.6851 11.8789 43.7645C11.9748 43.7595 12.0688 43.736 12.1557 43.6953H12.173ZM13.1938 43.1933C13.1665 43.1422 13.1315 43.0955 13.09 43.0548C12.6748 42.8471 12.6056 42.8644 12.2941 43.3837C12.5303 43.4009 12.7673 43.4009 13.0035 43.3837C13.0035 43.3837 13.1246 43.2799 13.1765 43.1933H13.1938ZM43.6092 71.7712C43.524 71.9158 43.4488 72.0662 43.3843 72.2212L43.6266 72.3078C43.6808 72.1618 43.7213 72.0112 43.7477 71.8577C43.7477 71.8577 43.6439 71.7885 43.592 71.7712H43.6092ZM41.3774 76.0812C41.3774 75.9774 41.1525 75.8389 41.1179 75.8562C41.0833 75.8735 40.7719 76.0466 40.7546 76.1851C40.6436 76.8092 40.5685 77.4391 40.5297 78.0718L41.3428 77.2409C41.422 77.1676 41.4859 77.0791 41.5305 76.9808C41.5752 76.8825 41.5999 76.7763 41.6031 76.6683C41.6063 76.5604 41.588 76.4529 41.5492 76.3521C41.5105 76.2513 41.4521 76.1592 41.3774 76.0812V76.0812ZM43.2978 74.0733C43.5393 74.0998 43.7831 74.0998 44.0246 74.0733C44.1457 74.0733 44.2494 73.831 44.3186 73.6752C44.2654 73.5856 44.1873 73.5134 44.0937 73.4675C43.7304 73.3636 43.3843 73.3117 42.8826 73.1906C42.7961 73.5021 42.6924 73.6752 42.727 73.831C42.7616 73.9868 42.9691 74.1079 43.2287 74.0733H43.2978ZM33.4189 60.3989C33.4358 60.2551 33.4358 60.1099 33.4189 59.9662C33.4189 59.9662 33.1593 59.9662 33.142 59.9662C33.0812 60.0967 33.0459 60.2377 33.0382 60.3816L33.4189 60.3989ZM37.8652 70.7845L37.9691 70.5595H37.8134L37.7096 70.7153L37.8652 70.7845ZM43.5054 70.1268L44.6301 70.9749C44.9242 70.3518 44.9242 70.3518 44.4051 68.6035C43.7304 68.7939 43.7131 68.794 43.4363 70.1268H43.5054ZM26.4119 85.6014C26.3671 85.4975 26.3025 85.4034 26.2216 85.3244C26.1676 85.2984 26.1085 85.2849 26.0486 85.2849C25.9887 85.2849 25.9295 85.2984 25.8755 85.3244C25.7158 85.4664 25.6085 85.658 25.5709 85.8683C25.5332 86.0787 25.5674 86.2956 25.6679 86.4842C25.8573 86.424 26.0237 86.307 26.1444 86.1491C26.2651 85.9912 26.3343 85.8 26.3427 85.6014H26.4119ZM33.6957 80.2874H33.5746L33.7822 80.3913C33.7822 80.3913 33.6611 80.2528 33.6265 80.2355L33.6957 80.2874ZM38.1767 76.7044C38.419 76.514 38.6265 76.2024 38.4362 75.9081C38.2459 75.6139 38.0037 75.5619 37.7961 75.4062L36.6716 76.1678C36.8965 76.3582 37.104 76.5832 37.3462 76.7736C37.4674 76.845 37.6097 76.8719 37.7487 76.8498C37.8876 76.8277 38.0144 76.7579 38.1075 76.6524L38.1767 76.7044ZM44.7857 67.1496C44.8575 67.1087 44.9186 67.0512 44.9637 66.9819C45.0089 66.9127 45.0368 66.8337 45.0453 66.7514C45.0453 66.5091 44.8377 66.4572 44.6647 66.5091C44.3233 66.5892 43.9879 66.6933 43.6612 66.8207C44.0245 67.34 44.1629 67.34 44.7165 67.0976L44.7857 67.1496ZM41.1352 71.7539C41.1825 71.7812 41.2363 71.7956 41.2909 71.7956C41.3456 71.7956 41.3992 71.7812 41.4466 71.7539C41.5294 71.7218 41.6056 71.6749 41.6715 71.6154C41.7063 71.2952 41.6159 70.9739 41.4191 70.719C41.2224 70.4641 40.9346 70.2952 40.6162 70.2479C40.7719 70.9403 40.9103 71.3211 41.066 71.7019L41.1352 71.7539ZM39.6993 74.0733H39.5435C39.4372 74.1937 39.339 74.3209 39.2494 74.4541L39.4743 74.5926L39.6993 74.0733ZM35.5816 77.2063C35.5915 77.2905 35.6241 77.3704 35.6759 77.4375C35.7277 77.5046 35.7967 77.5563 35.8757 77.5871C35.9642 77.5969 36.0538 77.5863 36.1378 77.5564C36.2217 77.5264 36.2977 77.4777 36.36 77.4141C36.4638 77.3102 36.4466 77.0852 36.4985 76.9121L36.6542 76.237C36.4466 76.0293 36.2563 75.7696 35.893 75.96C35.72 76.2543 35.5815 76.6697 35.5123 77.0852L35.5816 77.2063ZM39.7338 77.8468C39.7338 77.8468 39.7338 77.9333 39.7338 77.9852L39.8895 77.8295L39.7511 77.7256H39.6473L39.7338 77.8468ZM24.1627 73.8656C24.2017 73.82 24.231 73.767 24.2492 73.7098L23.8167 73.4329C23.7764 73.5029 23.7472 73.5788 23.7302 73.6579C23.7508 73.6967 23.7799 73.7304 23.8152 73.7566C23.8505 73.7827 23.8913 73.8006 23.9344 73.8089C23.9776 73.8172 24.022 73.8157 24.0645 73.8045C24.107 73.7934 24.1465 73.7728 24.18 73.7444L24.1627 73.8656ZM41.7235 73.0521C41.5051 72.8848 41.2668 72.7452 41.0141 72.6366C41.0141 73.1559 41.0141 73.5194 41.0141 73.8656L41.1698 73.9695L41.4812 73.7964C41.9311 73.4848 42.0349 73.2252 41.7408 72.9309L41.7235 73.0521ZM37.0521 49.2516L36.9137 49.1478C36.9137 49.1478 36.9137 49.1478 36.9137 49.2689C36.917 49.315 36.917 49.3613 36.9137 49.4074L37.0521 49.2516ZM42.9691 66.336C42.9691 66.4745 42.8307 66.7341 42.9691 66.8207C43.1075 66.9072 43.2806 66.9072 43.4536 66.9245H43.6266C43.6266 66.6303 43.9207 66.2322 43.4189 65.9898C43.2664 66.0474 43.1212 66.123 42.9864 66.2149L42.9691 66.336ZM27.398 69.9537L27.2597 69.8498C27.263 69.8959 27.263 69.9422 27.2597 69.9883L27.4845 70.1095L27.398 69.9537ZM25.9102 73.3117C26.4465 72.9309 26.533 72.7059 26.3081 72.377C26.3081 72.377 26.0659 72.2905 26.014 72.377C25.9621 72.4636 25.8064 72.8444 25.9275 73.1906L25.9102 73.3117ZM38.4882 45.0627V45.2012L38.6438 45.0454L38.5227 44.9416C38.5227 44.9416 38.5055 44.8377 38.5055 44.9416L38.4882 45.0627ZM28.8514 72.0827C29.2493 71.3211 29.2147 71.2173 28.5227 71.0961C28.4189 71.0961 28.2804 71.0961 28.0555 71.0961C28.1074 71.6327 28.367 71.9096 28.8687 71.9616L28.8514 72.0827ZM25.8064 74.5753C25.9448 74.6964 26.2735 74.5753 26.4811 74.5753C26.6887 74.5753 27.1213 74.2464 27.0348 73.7964C26.6196 73.6579 25.9967 73.9349 25.8583 73.2425C25.5815 73.3636 25.27 73.5194 25.3738 73.8829C25.4431 74.1528 25.5942 74.3947 25.8064 74.5753V74.5753ZM26.4985 71.425C26.6369 71.5461 26.706 71.425 26.6887 71.3211C26.6714 71.2173 26.6887 71.2346 26.5849 71.1827C26.5507 71.1896 26.5154 71.1896 26.4811 71.1827C26.533 71.3211 26.533 71.4077 26.5676 71.425H26.4985ZM27.8998 65.5744L28.1766 65.6782C28.1766 65.4532 28.1766 65.2282 28.2631 65.0032C28.3496 64.7782 28.1593 64.8993 28.142 64.9167C28.1247 64.934 27.8998 65.0032 27.8825 65.0724C27.8808 65.2549 27.91 65.4364 27.969 65.609L27.8998 65.5744ZM39.4051 43.4357C39.3372 43.2875 39.2435 43.1527 39.1283 43.0375C39.1283 43.0375 38.8515 43.0375 38.7131 43.0375C38.5747 43.0375 38.8342 43.2453 38.9207 43.2799C39.0927 43.3691 39.2811 43.4221 39.4743 43.4357H39.4051ZM27.2942 68.015C27.2942 67.7554 27.2943 67.5304 26.9828 67.4611C26.6714 67.3919 26.6887 67.4611 26.6714 67.4611C26.6541 67.4611 26.4811 67.9458 26.5503 68.1189C26.6195 68.292 26.8964 68.3958 27.1386 68.5862C27.277 68.3612 27.3289 68.1881 27.3635 68.015H27.2942ZM29.6645 61.974C29.7648 61.9013 29.837 61.796 29.8685 61.6761C29.9 61.5562 29.8891 61.429 29.8376 61.3163C29.8206 61.2902 29.7975 61.2687 29.7704 61.2537C29.7433 61.2386 29.7129 61.2304 29.6818 61.2297C29.6538 61.233 29.6269 61.2424 29.6029 61.2574C29.579 61.2724 29.5586 61.2925 29.5434 61.3163C29.5434 61.4894 29.4396 61.6625 29.3877 61.8009C29.3358 61.9394 29.3877 61.9567 29.5088 61.974C29.6299 61.9913 29.6992 62.0086 29.7338 61.974H29.6645ZM23.7475 75.9947C23.7418 76.0464 23.7418 76.0987 23.7475 76.1504H23.886C23.9329 76.0792 23.9735 76.0039 24.0071 75.9254L23.7475 75.9947ZM22.2596 77.8814C22.1385 78.3141 22.0174 78.7122 21.8444 79.3354C22.623 78.9892 22.7095 78.92 22.6749 78.6776C22.6839 78.5388 22.6586 78.3998 22.6013 78.2731C22.5439 78.1463 22.4563 78.0355 22.3461 77.9506L22.2596 77.8814ZM30.9967 60.5374L31.1005 60.6585H31.2043C31.218 60.6348 31.2252 60.608 31.2252 60.5806C31.2252 60.5533 31.218 60.5264 31.2043 60.5027C30.9967 60.3123 30.9967 60.4162 30.9967 60.5374ZM39.6473 44.0761C39.7511 44.0761 39.8896 43.9723 39.9069 43.903C39.9242 43.8338 39.803 43.4876 39.5435 43.453C39.284 43.4183 39.5435 43.7991 39.5435 43.9722C39.5435 44.1453 39.6473 44.0934 39.6473 44.0761ZM40.1663 66.0071C40.2306 65.9287 40.2831 65.8412 40.3221 65.7475C40.3221 65.6609 40.3221 65.5571 40.201 65.4705C40.1708 65.5253 40.1361 65.5774 40.0972 65.6263C40.0802 65.7533 40.086 65.8822 40.1145 66.0071H40.1663ZM27.2078 45.3224L27.3635 45.2358C27.5019 45.0454 27.6057 44.8031 27.3635 44.6127C27.1213 44.4223 27.0867 44.6127 26.931 44.6127C26.7753 44.6127 26.931 45.0454 27.0175 45.2531C27.0561 45.2889 27.1041 45.3129 27.1559 45.3224H27.2078ZM23.2112 52.4712C23.2112 52.4712 23.3323 52.2981 23.4015 52.2115C23.4707 52.125 23.2457 51.9865 23.1592 51.9692C23.102 51.9792 23.0483 52.0035 23.0029 52.0398C22.9576 52.0761 22.9221 52.1233 22.8998 52.1769C22.7787 52.3327 22.9862 52.5404 23.1592 52.4712H23.2112ZM15.2007 72.0654C15.2007 72.152 15.0104 72.2385 15.0104 72.3078C15.025 72.3656 15.0529 72.4193 15.092 72.4644C15.131 72.5095 15.1802 72.5448 15.2354 72.5674C15.4084 72.5674 15.5814 72.3597 15.4776 72.2212C15.3924 72.1286 15.2745 72.0727 15.1489 72.0654H15.2007ZM18.661 64.7955C18.661 64.7955 18.661 64.7955 18.7648 64.6916L18.5572 64.5531C18.5522 64.5876 18.5522 64.6226 18.5572 64.657C18.5745 64.7435 18.609 64.7955 18.6437 64.7955H18.661ZM32.277 33.05C32.3929 33.0139 32.4902 32.9341 32.5484 32.8275C32.6065 32.7209 32.6208 32.5958 32.5884 32.4788C32.5836 32.4012 32.5602 32.3259 32.5203 32.2593C32.4803 32.1927 32.425 32.1366 32.3588 32.0959C32.2927 32.0552 32.2177 32.031 32.1402 32.0253C32.0628 32.0196 31.9851 32.0327 31.9137 32.0633C31.8711 32.2437 31.881 32.4325 31.9423 32.6074C32.0037 32.7822 32.1138 32.9358 32.2597 33.05H32.277ZM21.0139 57.9929V57.7852C21.0139 57.7852 21.0139 57.7852 21.0139 57.8717C21.0139 57.9583 20.9966 57.9583 20.9966 57.9929H21.0139ZM15.5641 68.3785C15.6553 68.4891 15.7599 68.588 15.8755 68.6728C15.8755 68.6728 16.1004 68.5343 16.0831 68.4824C16.0268 68.3559 15.9509 68.239 15.8582 68.1362L15.5641 68.3785ZM21.1697 56.6254C21.1697 56.6254 20.9448 56.7812 20.9621 56.8505C20.997 57.1303 21.0489 57.4078 21.1177 57.6813C21.2684 57.4461 21.3959 57.1969 21.4984 56.937C21.4984 56.937 21.2908 56.7639 21.1523 56.6773L21.1697 56.6254ZM27.2942 48.8362C27.2942 48.8362 27.3981 48.8362 27.45 48.8362C27.4939 48.8274 27.5352 48.8087 27.5708 48.7815C27.6064 48.7543 27.6353 48.7193 27.6553 48.6792C27.6753 48.6392 27.6859 48.5951 27.6863 48.5503C27.6867 48.5055 27.6769 48.4612 27.6576 48.4208C27.6576 48.4208 27.5538 48.4208 27.45 48.2823L27.2942 48.8362ZM38.4882 37.9659L38.4017 37.6197C38.4017 37.6197 38.4017 37.7235 38.4017 37.7755C38.3917 37.8184 38.3927 37.8632 38.4048 37.9056C38.4169 37.948 38.4397 37.9866 38.4708 38.0178L38.4882 37.9659ZM25.1835 52.35C25.1835 52.35 24.9932 52.5404 25.0105 52.6097C25.025 52.6675 25.0529 52.7212 25.092 52.7663C25.1311 52.8114 25.1802 52.8467 25.2354 52.8693C25.4084 52.8693 25.5814 52.6443 25.4603 52.4885C25.3392 52.3327 25.27 52.4538 25.1662 52.4019L25.1835 52.35ZM22.4499 57.7159C22.4499 57.7159 22.6056 57.7159 22.6229 57.7159C22.6402 57.7159 22.9863 57.2486 23.142 57.0062C23.2977 56.7639 23.142 56.8851 23.142 56.8678C23.1175 56.8568 23.0909 56.8511 23.0641 56.8511C23.0373 56.8511 23.0108 56.8568 22.9863 56.8678C22.7959 57.0928 22.6229 57.3178 22.4499 57.5601C22.2769 57.8025 22.3461 57.7159 22.4326 57.7679L22.4499 57.7159ZM30.0797 42.726C30.0797 42.6221 30.2354 42.5182 30.2181 42.4317C30.1962 42.3448 30.1552 42.2639 30.0982 42.1948C30.0412 42.1256 29.9696 42.07 29.8885 42.032C29.8074 41.9939 29.7188 41.9743 29.6292 41.9746C29.5396 41.9748 29.4513 41.995 29.3704 42.0336C29.3264 42.0648 29.2907 42.1064 29.2666 42.1547C29.2425 42.203 29.2305 42.2565 29.232 42.3105C29.2489 42.3997 29.2851 42.4842 29.3381 42.5579C29.391 42.6317 29.4594 42.693 29.5385 42.7375C29.6176 42.782 29.7056 42.8087 29.7961 42.8157C29.8866 42.8226 29.9775 42.8097 30.0625 42.7779L30.0797 42.726ZM21.4638 59.2392C21.3925 59.2784 21.3307 59.3328 21.2829 59.3987C21.235 59.4645 21.2023 59.54 21.187 59.6199C21.187 59.8623 21.3945 59.9142 21.5676 59.8796C21.7406 59.845 22.2423 59.6719 22.5884 59.568C22.1385 59.0487 22.0001 58.9968 21.4464 59.2911L21.4638 59.2392ZM23.488 59.2392L22.6229 59.5161C23.1592 59.8104 23.1593 59.7931 23.4707 59.343L23.488 59.2392ZM20.3046 60.797L20.1488 61.0047L20.5987 61.247C20.5987 61.247 20.5987 61.1086 20.5987 61.0913L20.3046 60.797ZM46.0141 69.7287C46.1179 69.4863 46.2218 69.2786 46.291 69.0882L46.1006 68.3266C45.8723 68.5134 45.6689 68.7286 45.4951 68.967C45.4951 68.967 45.72 69.4344 45.9968 69.8325L46.0141 69.7287ZM42.7615 64.0339C42.7872 63.986 42.8008 63.9324 42.8008 63.8781C42.8008 63.8237 42.7872 63.7702 42.7615 63.7223C42.7334 63.6803 42.6944 63.6469 42.6486 63.6255C42.6029 63.6042 42.5522 63.5957 42.502 63.6011C42.4485 63.615 42.3988 63.641 42.3568 63.677C42.3149 63.713 42.2817 63.7581 42.2598 63.8088C42.2441 63.9758 42.2441 64.1439 42.2598 64.3108C42.4268 64.2701 42.5891 64.2121 42.7442 64.1377L42.7615 64.0339ZM37.9691 72.6886C38.1031 72.7884 38.2707 72.8319 38.4362 72.8097C38.713 72.8097 38.886 72.4462 38.7303 72.3078C38.606 72.2365 38.472 72.184 38.3324 72.152C37.9172 72.4289 37.7961 72.7405 37.9172 72.8617L37.9691 72.6886ZM39.3186 70.7499C39.4095 70.6652 39.4856 70.5657 39.5435 70.4557C39.5435 70.4557 39.5435 70.3345 39.5435 70.2826C39.5435 70.2306 39.284 70.2826 39.2321 70.2826C39.1802 70.2826 39.2321 70.5076 39.2321 70.6287L39.3186 70.7499ZM41.9484 64.6397C42.0522 64.6397 42.1733 64.6397 42.2252 64.6397C42.2771 64.6397 42.2252 64.4493 42.329 64.3454C42.2288 64.3738 42.135 64.4208 42.0522 64.4839C42.0522 64.4839 41.9657 64.7262 41.9311 64.8128L41.9484 64.6397ZM40.6853 68.6035C40.648 68.631 40.6187 68.6679 40.6004 68.7106C40.5822 68.7532 40.5756 68.7999 40.5815 68.8459C40.5927 68.9006 40.6176 68.9515 40.654 68.9939C40.6903 69.0363 40.7368 69.0688 40.7891 69.0882C40.9496 69.1135 41.1131 69.1135 41.2736 69.0882C41.1977 68.9395 41.1048 68.8001 40.9968 68.6728C40.9378 68.658 40.8758 68.6598 40.8178 68.6782C40.7597 68.6965 40.7079 68.7306 40.6681 68.7766L40.6853 68.6035ZM41.6715 69.4171C41.6715 69.3305 41.6715 69.1921 41.6715 69.1401C41.5786 69.0924 41.4797 69.0575 41.3774 69.0363C41.4151 69.1359 41.4676 69.2293 41.5332 69.3132C41.5332 69.3132 41.585 69.5556 41.6542 69.5902L41.6715 69.4171ZM36.4466 81.3087C36.4591 81.2815 36.4654 81.252 36.4654 81.2221C36.4654 81.1923 36.4591 81.1627 36.4466 81.1356C36.3255 81.0317 36.239 81.1356 36.2736 81.2567C36.3082 81.3779 36.2735 81.3433 36.3774 81.3779C36.4812 81.4125 36.4293 81.5164 36.4293 81.4818L36.4466 81.3087ZM45.7892 75.008C45.9721 74.9987 46.1549 75.0282 46.3255 75.0946C46.3985 75.1402 46.461 75.2008 46.5087 75.2724C46.5565 75.3441 46.5884 75.4251 46.6024 75.51C46.6024 75.8043 46.6024 76.1678 46.2564 76.2889L45.1837 75.7523C44.9069 76.0293 44.5609 76.1331 44.6647 76.5832C45.0749 76.6745 45.4792 76.7901 45.8757 76.9294C45.9535 76.9711 46.0205 77.0304 46.0716 77.1025C46.1226 77.1746 46.1563 77.2575 46.1699 77.3448C46.1699 77.3448 45.9103 77.6564 45.8065 77.6391C45.2529 77.6391 44.7165 77.414 44.1629 77.3448C44.079 77.3551 43.999 77.3857 43.9296 77.4339C43.8603 77.4822 43.8038 77.5467 43.765 77.6218C43.765 77.7602 43.765 78.0718 43.9034 78.1064C44.2701 78.2334 44.6461 78.3317 45.0279 78.4007L45.8757 80.3047C46.1561 80.2709 46.426 80.1778 46.6677 80.0316C46.9093 79.8854 47.117 79.6893 47.2771 79.4566C47.6058 79.4566 47.5366 80.0278 47.9345 79.8893C47.9345 79.5085 47.8999 79.145 47.8307 78.7988L48.6093 78.2795V77.9333C48.3718 77.8521 48.1406 77.7538 47.9173 77.6391C47.8413 77.5909 47.7759 77.5277 47.7253 77.4532C47.6747 77.3788 47.6399 77.2947 47.6231 77.2063C47.6231 76.9986 47.7269 76.8948 47.9345 76.8948C48.0709 76.8948 48.204 76.8525 48.3152 76.7736L47.9173 75.1984C47.9071 75.3121 47.8777 75.4233 47.8307 75.5273C47.8307 75.6312 47.6751 75.6658 47.5886 75.735C47.4753 75.6054 47.382 75.4595 47.3117 75.3023C47.3122 75.2529 47.3232 75.2041 47.3441 75.1594C47.365 75.1146 47.3953 75.0748 47.4328 75.0426C47.5823 75.025 47.7333 75.025 47.8827 75.0426L47.4502 73.3117L46.2564 72.9655C46.1035 72.9346 45.945 72.9493 45.8004 73.0078C45.6558 73.0662 45.5316 73.1659 45.4432 73.2944C45.3253 73.4399 45.2318 73.6036 45.1664 73.7791C44.7166 74.7657 44.9241 75.0946 45.7719 75.1811L45.7892 75.008ZM40.7026 46.6552L40.547 46.0321C40.547 46.0321 40.2529 46.0321 40.2356 46.1359C40.1145 46.5167 40.0453 46.9148 39.9069 47.538C40.2487 47.4117 40.5279 47.1571 40.6853 46.8283L40.7026 46.6552ZM41.9311 66.9245C41.5331 67.9458 41.5504 67.9977 42.4501 68.3958C42.4563 68.154 42.4118 67.9134 42.3195 67.6898C42.2271 67.4662 42.0889 67.2645 41.9138 67.0976L41.9311 66.9245ZM37.2771 74.3503C37.4847 74.2637 37.4674 73.9522 37.2771 73.7964C37.1362 73.7276 36.9835 73.6865 36.8272 73.6752C36.7692 73.784 36.7549 73.9107 36.7871 74.0297C36.8192 74.1487 36.8953 74.2509 37.0002 74.3157C37.0249 74.3677 37.0611 74.4134 37.1061 74.4494C37.151 74.4853 37.2036 74.5106 37.2597 74.5234L37.2771 74.3503ZM43.7823 62.8568C44.0162 62.9058 44.2577 62.9058 44.4916 62.8568C44.585 62.828 44.6688 62.7741 44.7339 62.701L44.5262 61.8702C44.4337 61.7996 44.3274 61.7492 44.2141 61.7224C44.1008 61.6955 43.9832 61.6928 43.8688 61.7144C43.7311 61.7785 43.6151 61.8815 43.5352 62.0106C43.4553 62.1398 43.4149 62.2895 43.4189 62.4414C43.4173 62.5618 43.4486 62.6803 43.5097 62.7841C43.5707 62.8879 43.659 62.9729 43.765 63.0299L43.7823 62.8568ZM40.3221 66.7341C40.201 66.3879 40.1317 66.1283 40.0452 65.8686C39.9241 66.5956 39.9414 66.613 40.3912 66.9072L40.3221 66.7341ZM24.9933 54.7387L24.9067 54.9464L24.9933 54.8599C24.9933 54.8599 25.0624 54.9637 25.0624 54.9118L24.9933 54.7387Z" fill="#555AB1"/>
</svg>
