<svg width="165" height="105" viewBox="0 0 165 105" fill="none" xmlns="http://www.w3.org/2000/svg">
<path d="M141.896 79.1422C129.226 92.45 112.466 101.13 94.2895 103.797C76.1135 106.464 57.5682 102.965 41.6112 93.8586C25.6543 84.7519 13.2048 70.5617 6.2482 53.551C-0.70842 36.5404 -1.77152 17.6891 3.22854 0.00354004L161.481 0.00354004C165.376 13.7597 165.618 28.2942 162.184 42.1726C158.749 56.0509 151.757 68.7934 141.896 79.1422V79.1422Z" fill="#B3D5F8"/>
<path d="M47.9519 44.7484V44.6272C47.9692 44.5926 48.0385 44.5407 48.0385 44.5407C48.0171 44.6128 47.988 44.6824 47.9519 44.7484Z" fill="#5E63BF"/>
<path d="M42.3291 46.9986H42.4502C42.4848 46.9986 42.5367 47.0852 42.5367 47.0852L42.3291 46.9986Z" fill="#5E63BF"/>
<path d="M46.3256 45.4754C46.2319 45.3385 46.1891 45.1732 46.2046 45.008C46.2046 44.8695 46.3949 44.7657 46.4122 44.8522H47.8654C48.0557 45.1811 48.246 45.4927 48.0557 45.8908C47.7602 46.0118 47.4341 46.0368 47.1237 45.9623C46.8132 45.8877 46.534 45.7174 46.3256 45.4754Z" fill="#5E63BF"/>
<path d="M47.9347 43.2771V43.2309C47.9022 43.3049 47.838 43.3501 47.7962 43.2944C47.7826 43.2707 47.7753 43.2438 47.7753 43.2165C47.7753 43.1892 47.7826 43.1623 47.7962 43.1386C47.8135 43.1386 47.9347 43.0867 47.9347 43.1386V43.2309C47.9425 43.213 47.9485 43.1935 47.9519 43.1732L47.9347 43.2771Z" fill="#5E63BF"/>
<path d="M42.035 54.9436C41.908 55.0406 41.7598 55.1059 41.6025 55.134L41.6198 55.0302C41.5852 54.8744 41.4814 54.7013 41.516 54.7013C41.5431 54.6445 41.5819 54.594 41.6297 54.553C41.6776 54.5121 41.7334 54.4817 41.7937 54.4638C41.8541 54.4458 41.9176 54.4407 41.98 54.4489C42.0424 54.457 42.1024 54.4781 42.1561 54.5109C42.035 54.6321 42.1388 54.8398 42.035 54.9436Z" fill="#5E63BF"/>
<path d="M47.3464 66.039H47.1906C47.2143 66.0253 47.2412 66.0181 47.2686 66.0181C47.2959 66.0181 47.3227 66.0253 47.3464 66.039Z" fill="#5E63BF"/>
<path d="M41.9658 62.6463C41.7236 62.4732 41.3084 62.3174 41.4295 61.9713L41.4468 61.8674C41.6025 61.4001 41.7063 61.7982 42.1908 61.9366C42.6752 62.0751 42.779 61.6078 43.0385 61.3827C43.3326 62.1444 42.8309 62.4905 42.3637 62.854C42.2237 62.7999 42.0903 62.7302 41.9658 62.6463Z" fill="#5E63BF"/>
<path d="M52.0695 53.3165L51.938 53.2896C51.2493 53.9818 50.6916 54.7269 49.5608 54.3551L50.6336 53.0223L51.938 53.2896C51.9868 53.2405 52.0364 53.1916 52.0868 53.1435L52.0695 53.3165Z" fill="#5E63BF"/>
<path d="M43.0385 61.3654V61.2789L43.0441 61.2231C43.0426 61.2128 43.0408 61.2025 43.0385 61.1923C43.0385 61.1923 43.0459 61.1662 43.0522 61.1417L43.0558 61.1058C43.0651 61.0872 43.0594 61.1134 43.0522 61.1417L43.0441 61.2231C43.0508 61.2704 43.0489 61.3186 43.0385 61.3654Z" fill="#5E63BF"/>
<path d="M41.8101 60.6211C41.8274 60.4826 41.9485 60.4826 41.9485 60.4826L42.1734 60.6904C42.1561 60.7942 41.9658 60.9673 41.9658 60.9673H41.8101C41.7925 60.8526 41.7925 60.7359 41.8101 60.6211Z" fill="#5E63BF"/>
<path d="M41.6717 50.7548C41.6766 50.6029 41.7314 50.457 41.8274 50.3393C41.8274 50.2874 42.1388 50.3739 42.1388 50.3739C42.2808 50.479 42.388 50.6242 42.4466 50.7908C42.5052 50.9574 42.5125 51.1378 42.4675 51.3087C42.3786 51.3287 42.2865 51.33 42.197 51.3124C42.1075 51.2949 42.0226 51.259 41.9478 51.2069C41.8729 51.1548 41.8098 51.0877 41.7623 51.0099C41.7147 50.932 41.6838 50.8451 41.6717 50.7548Z" fill="#5E63BF"/>
<path d="M40.2703 56.2245C40.1665 56.1207 39.9589 56.0341 39.9589 55.9303H39.8897C39.8724 55.8957 40.132 55.7052 40.132 55.7052C40.2675 55.7572 40.3955 55.827 40.5125 55.913L40.2703 56.2245Z" fill="#5E63BF"/>
<path d="M51.2391 41.6846C51.1984 41.647 51.1686 41.5992 51.1526 41.5461C51.1699 41.3904 51.3775 41.4942 51.3775 41.5288C51.3775 41.5634 51.5159 41.6846 51.3775 41.6846H51.2391Z" fill="#5E63BF"/>
<path d="M40.782 51.808C40.7609 51.9586 40.7041 52.102 40.6163 52.2261V52.2434C40.5471 52.2607 40.6163 52.278 40.4952 52.2607C40.3741 52.2434 40.3741 52.1568 40.3741 52.1568C40.3477 51.9152 40.3477 51.6714 40.3741 51.4298C40.3914 51.3433 40.5298 51.274 40.6336 51.2567C40.7375 51.2394 40.7374 51.3606 40.7374 51.3606C40.7878 51.504 40.8031 51.6575 40.782 51.808Z" fill="#5E63BF"/>
<path d="M41.0835 71.6299C41.119 71.8527 41.1709 72.0726 41.2391 72.2877V72.305C41.6198 73.0666 41.8275 73.7936 41.0143 74.3994C40.8932 74.5033 40.8932 74.6418 40.8932 74.936V75.8707H39.9589C39.9777 75.5021 40.0357 75.1366 40.132 74.7802C40.2358 74.5033 40.5126 74.2783 40.651 74.0013C40.686 73.8358 40.686 73.6648 40.651 73.4993C40.478 73.6032 40.426 73.3609 40.1665 73.6032C39.907 73.8455 39.5956 73.8455 39.3014 73.8455C39.1803 73.5513 39.0592 73.1705 39.4226 73.032C40.028 72.7331 40.5154 72.2393 40.8066 71.6299H41.0835Z" fill="#5E63BF"/>
<path d="M38.8344 74.6245C38.721 74.5991 38.6218 74.5309 38.5575 74.434C38.5567 74.3819 38.567 74.3302 38.5879 74.2824C38.6088 74.2346 38.6398 74.1919 38.6786 74.1571C38.875 74.043 39.0772 73.939 39.2842 73.8455C39.2488 74.0683 39.1967 74.2882 39.1285 74.5033C39.1112 74.6245 38.9382 74.6245 38.8344 74.6245Z" fill="#5E63BF"/>
<path d="M42.0523 46.8428L42.2599 46.9294H42.0523V46.8428Z" fill="#5E63BF"/>
<path d="M51.7581 38.7593V38.9151L51.7927 38.967C51.7581 38.9843 51.5505 38.8978 51.5505 38.8978C51.5401 38.8522 51.5401 38.8049 51.5505 38.7593C51.5678 38.6382 51.7581 38.7247 51.7581 38.7593Z" fill="#5E63BF"/>
<path d="M51.1699 50.6509L51.2157 50.684C51.2888 50.5625 51.3719 50.4472 51.464 50.3393C51.4986 50.322 51.7062 50.5124 51.7062 50.5124C51.6415 50.6396 51.5663 50.7612 51.4813 50.8759L51.2157 50.684C51.2119 50.6902 51.2082 50.6965 51.2044 50.7028L51.1699 50.6509Z" fill="#5E63BF"/>
<path d="M50.8065 36.8899H50.7027L50.7374 36.9418C50.7028 36.9072 50.6509 36.9072 50.6163 36.8034C50.5817 36.6995 50.6681 36.5783 50.8065 36.6995C50.8217 36.7289 50.8297 36.7616 50.8297 36.7947C50.8297 36.8278 50.8217 36.8605 50.8065 36.8899Z" fill="#5E63BF"/>
<path d="M40.2531 59.7383C40.3832 59.7905 40.5054 59.8604 40.6163 59.9461L40.3914 60.2576C40.2876 60.1538 40.0973 59.998 40.08 59.9634C40.0627 59.9287 40.2531 59.7383 40.2531 59.7383Z" fill="#5E63BF"/>
<path d="M42.9186 46.0017C42.9389 45.9639 42.9682 45.9318 43.0039 45.9081L43.0385 45.96C43.125 45.9254 43.3326 45.8735 43.3326 45.9947V46.3408C43.2816 46.3667 43.2254 46.3802 43.1683 46.3802C43.1112 46.3802 43.0548 46.3667 43.0039 46.3408C42.9682 46.3172 42.9389 46.285 42.9186 46.2473C42.8984 46.2095 42.8878 46.1673 42.8878 46.1245C42.8878 46.0816 42.8984 46.0395 42.9186 46.0017Z" fill="#5E63BF"/>
<path d="M49.1629 71.7511C49.8031 71.6299 49.8031 71.6645 49.8031 72.1319L49.8377 72.1838C49.8204 72.4435 49.6474 72.7377 49.4743 72.7204C49.3013 72.7031 49.1457 72.4435 48.9727 72.2877H48.6266C48.4363 72.3223 48.2287 72.2877 48.2287 72.0453C48.2239 71.9902 48.2324 71.9347 48.2534 71.8835C48.2745 71.8323 48.3076 71.7869 48.3499 71.7511C48.4017 71.695 48.4646 71.6502 48.5345 71.6196C48.6045 71.589 48.68 71.5731 48.7564 71.5731C48.8328 71.5731 48.9083 71.589 48.9783 71.6196C49.0482 71.6502 49.1111 71.695 49.1629 71.7511Z" fill="#5E63BF"/>
<path d="M43.0498 59.2164C43.0193 59.1827 42.9976 59.142 42.9865 59.0979L43.0212 59.1498C43.0039 59.0979 43.0384 59.0287 42.9692 58.8556L43.4191 59.0979V59.2537C43.3825 59.2806 43.3398 59.2981 43.2949 59.3046C43.2499 59.3112 43.204 59.3065 43.1613 59.2912C43.1186 59.2758 43.0803 59.2501 43.0498 59.2164Z" fill="#5E63BF"/>
<path d="M47.2599 83.9196C47.2264 84.1428 47.1743 84.3628 47.1041 84.5774L47.1388 84.6293C47.1215 84.6985 47.0177 84.8197 46.8101 84.6985C46.7563 84.6857 46.7056 84.6622 46.6611 84.6295C46.6165 84.5968 46.5789 84.5555 46.5505 84.5081C46.5159 84.4562 46.6543 84.2485 46.6543 84.2485C46.8504 84.1286 47.0526 84.0188 47.2599 83.9196Z" fill="#5E63BF"/>
<path d="M47.3464 82.0848C47.3983 81.9463 47.6232 81.8771 47.7616 81.7732L47.7269 81.8252C47.8135 81.981 48.0211 82.1367 48.0211 82.0848C47.9581 82.7125 47.7247 83.3111 47.3464 83.8158C47.1427 83.2568 47.1427 82.6438 47.3464 82.0848Z" fill="#5E63BF"/>
<path d="M47.3291 94.963C47.3279 94.9661 47.3267 94.9692 47.3256 94.9723C47.5588 94.6573 47.827 94.3696 48.1249 94.1149C48.4364 94.5822 48.3671 94.8592 48.1249 95.0842C47.9745 95.1663 47.83 95.2589 47.6924 95.3611C47.6059 95.4477 47.6924 95.8112 47.4155 95.5862C47.3502 95.4978 47.3082 95.3945 47.2931 95.2856C47.2784 95.18 47.2896 95.0725 47.3256 94.9723C47.3152 94.9865 47.3048 95.0007 47.2944 95.0149L47.3291 94.963Z" fill="#5E63BF"/>
<path d="M48.3844 80.7693C48.4017 80.6481 48.5228 80.6481 48.5228 80.6481L48.4882 80.7001C48.5574 80.7866 48.7304 80.7693 48.7304 80.8732C48.7304 80.977 48.5401 81.0636 48.5401 81.1501H48.3844C48.3666 81.0238 48.3666 80.8956 48.3844 80.7693Z" fill="#5E63BF"/>
<path d="M47.4502 85.2697H47.9347L47.9 85.3217C47.8654 85.4602 47.9347 85.5813 47.9347 85.5813L47.4502 85.4255V85.2697Z" fill="#5E63BF"/>
<path d="M38.3499 79.6269H37.9174C37.8828 79.6269 37.6752 79.4711 37.9001 79.298C38.125 79.1249 38.3846 78.9691 38.6268 78.8133C38.5607 79.0927 38.4679 79.3652 38.3499 79.6269Z" fill="#5E63BF"/>
<path d="M46.8792 90.6703C47.4675 90.6357 47.9173 90.4972 48.2979 90.9126L47.9519 91.9512C47.1906 91.8646 47.0003 91.3627 46.8792 90.6703Z" fill="#5E63BF"/>
<path d="M47.4502 89.5452H47.1041L47.0177 89.5106C46.9858 89.3278 46.9742 89.142 46.983 88.9567C47.1387 89.0605 47.4502 88.974 47.4502 89.0605C47.4502 89.1471 47.6059 89.5452 47.4502 89.5452Z" fill="#5E63BF"/>
<path d="M48.0557 93.0071H47.9173L47.8307 92.9724C47.8017 92.9299 47.7852 92.88 47.7829 92.8286C47.7806 92.7771 47.7928 92.726 47.818 92.681C47.8431 92.636 47.8803 92.599 47.9254 92.574C47.9704 92.5491 48.0215 92.5372 48.073 92.5397H48.3152L48.0557 93.0071Z" fill="#5E63BF"/>
<path d="M47.9173 96.8151C47.8826 96.7023 47.8826 96.5817 47.9173 96.4689L47.9 96.3651C47.9519 96.3132 48.2806 96.3651 48.2806 96.417V96.5901C48.2174 96.6979 48.1481 96.8019 48.073 96.9017L47.9173 96.8151Z" fill="#5E63BF"/>
</svg>
