<svg width="166" height="31" viewBox="0 0 166 31" fill="none" xmlns="http://www.w3.org/2000/svg">
<path d="M37.253 24H40.703L42.083 20.366H49.765L51.168 24H54.595L48.132 7.9H43.739L37.253 24ZM43.164 17.56L45.924 10.361L48.707 17.56H43.164ZM55.4544 21.309C56.2134 23.172 57.8924 24.23 60.3994 24.23C63.0214 24.23 64.9994 22.758 64.9994 20.711C64.9994 18.779 63.8954 17.721 61.1124 17.284C59.2724 17.008 58.6974 16.732 58.6974 16.088C58.6974 15.536 59.3414 15.145 60.2384 15.145C61.1354 15.145 61.8024 15.559 62.0784 16.387L64.3094 15.168C63.6424 13.719 62.4464 12.868 60.1694 12.868C57.9614 12.868 56.0064 14.179 56.0064 16.065C56.0064 17.905 57.3634 18.963 59.7324 19.331C61.6874 19.607 62.2624 19.998 62.2624 20.757C62.2624 21.378 61.6184 21.815 60.4914 21.815C59.1804 21.815 58.2604 21.24 57.7544 20.09L55.4544 21.309ZM68.1479 20.32C68.1479 22.712 69.5969 24.23 72.2419 24.23C74.5419 24.23 76.0139 22.896 76.3129 20.619L73.5989 20.113C73.5069 21.125 73.0699 21.631 72.3109 21.631C71.5749 21.631 71.0689 21.148 71.0689 20.32V15.513H75.1629V13.098H71.0689V9.51H68.1479V13.098H65.8939V15.513H68.1479V20.32ZM78.2038 13.098V24H81.1478V16.985C81.1478 15.881 81.7458 15.26 82.6658 15.26C83.4938 15.26 84.0458 15.812 84.0458 16.617C84.0458 16.916 84.0228 17.192 83.9538 17.445H86.7368C86.8518 17.008 86.8978 16.571 86.8978 16.088C86.8978 14.225 85.7248 12.868 83.7698 12.868C82.5048 12.868 81.6078 13.489 81.1478 14.501V13.098H78.2038ZM88.2966 18.549C88.2966 21.792 90.7116 24.23 94.0006 24.23C97.2896 24.23 99.7046 21.792 99.7046 18.549C99.7046 15.283 97.3126 12.868 94.0006 12.868C90.6886 12.868 88.2966 15.283 88.2966 18.549ZM96.8296 18.549C96.8296 20.366 95.6336 21.585 94.0006 21.585C92.3676 21.585 91.1716 20.366 91.1716 18.549C91.1716 16.732 92.3676 15.513 94.0006 15.513C95.6336 15.513 96.8296 16.732 96.8296 18.549ZM107.144 21.631C105.603 21.631 104.154 20.435 104.154 18.48C104.154 16.525 105.603 15.444 106.983 15.444C108.363 15.444 109.398 16.295 109.605 17.675L112.204 16.801C111.721 14.317 109.674 12.868 106.914 12.868C103.878 12.868 101.279 15.191 101.279 18.48C101.279 21.93 103.648 24.23 107.213 24.23C110.065 24.23 112.112 22.758 112.779 19.883L110.065 18.94C109.858 20.504 108.915 21.631 107.144 21.631ZM114.149 18.549C114.149 21.792 116.564 24.23 119.853 24.23C123.142 24.23 125.557 21.792 125.557 18.549C125.557 15.283 123.165 12.868 119.853 12.868C116.541 12.868 114.149 15.283 114.149 18.549ZM122.682 18.549C122.682 20.366 121.486 21.585 119.853 21.585C118.22 21.585 117.024 20.366 117.024 18.549C117.024 16.732 118.22 15.513 119.853 15.513C121.486 15.513 122.682 16.732 122.682 18.549ZM127.753 13.098V24H130.697V13.098H127.753ZM127.661 11.465H130.812V8.36H127.661V11.465ZM136.447 24V17.974C136.447 16.249 137.39 15.26 138.701 15.26C139.966 15.26 140.748 16.18 140.748 17.675V24H143.692V16.87C143.692 14.363 142.128 12.868 139.759 12.868C138.379 12.868 137.16 13.42 136.447 14.524V13.098H133.503V24H136.447Z" fill="#555AB1"/>
<path d="M14.5693 22.0446L8.38153 25.2977L9.56329 18.4075C9.67457 17.7587 9.45946 17.0967 8.9881 16.6373L3.98206 11.7576L10.9002 10.7523C11.5516 10.6577 12.1148 10.2485 12.4061 9.65824L15.5 3.38933L18.5939 9.65825C18.8852 10.2485 19.4484 10.6577 20.0998 10.7523L27.0179 11.7576L22.0119 16.6373C21.5405 17.0967 21.3254 17.7587 21.4367 18.4075L22.6185 25.2977L16.4307 22.0446L15.7656 23.3097L16.4307 22.0446C15.848 21.7383 15.152 21.7383 14.5693 22.0446L15.2673 23.3723L14.5693 22.0446Z" stroke="#555AB1" stroke-width="3"/>
</svg>
