<svg width="29" height="28" viewBox="0 0 29 28" fill="none" xmlns="http://www.w3.org/2000/svg">
<path d="M13.5693 22.0446L7.38153 25.2977L8.56329 18.4075C8.67457 17.7587 8.45946 17.0967 7.9881 16.6373L2.98206 11.7576L9.90023 10.7523C10.5516 10.6577 11.1148 10.2485 11.4061 9.65824L14.5 3.38933L17.5939 9.65825C17.8852 10.2485 18.4484 10.6577 19.0998 10.7523L26.0179 11.7576L21.0119 16.6373C20.5405 17.0967 20.3254 17.7587 20.4367 18.4075L21.6185 25.2977L15.4307 22.0446L14.7656 23.3097L15.4307 22.0446C14.848 21.7383 14.152 21.7383 13.5693 22.0446L14.2673 23.3723L13.5693 22.0446Z" stroke="white" stroke-width="3"/>
</svg>
