<svg width="192" height="37" viewBox="0 0 192 37" fill="none" xmlns="http://www.w3.org/2000/svg">
<rect width="192" height="37" rx="3" fill="white"/>
<path d="M21.64 19.64C21.896 21.56 23.24 23.16 25.72 23.16C26.92 23.16 27.88 22.872 28.616 22.312C29.352 21.736 29.72 20.92 29.72 19.88C29.72 18.456 28.936 17.576 27.8 17.32C28.936 17 29.56 16.12 29.56 14.84C29.56 13.848 29.208 13.064 28.52 12.504C27.832 11.928 26.936 11.64 25.8 11.64C23.704 11.64 22.392 12.776 21.96 14.52L23.56 15.24C23.8 13.976 24.584 13.32 25.72 13.32C27 13.32 27.8 13.944 27.8 14.968C27.8 16.008 27.208 16.52 26.04 16.52H25.4V18.2H26.12C27.272 18.2 27.96 18.792 27.96 19.88C27.96 20.952 27.128 21.48 25.8 21.48C24.264 21.48 23.4 20.456 23.32 19L21.64 19.64ZM31.1731 20.84C31.1731 22.296 32.4211 23.16 33.6691 23.16C35.0131 23.16 35.8771 22.568 36.2131 21.72V23H37.8131V18.28C37.8131 16.36 36.6131 15.256 34.4531 15.256C32.5971 15.256 31.4291 16.232 31.0931 17.72L32.6131 18.12C32.7891 17.208 33.4451 16.616 34.4531 16.616C35.4611 16.616 36.2131 17.192 36.2131 18.2V18.76L35.4131 18.568C34.9811 18.456 34.5331 18.408 34.0691 18.408C32.3891 18.408 31.1731 19.192 31.1731 20.84ZM36.2131 20.12C36.2131 21.128 35.4451 21.72 34.3411 21.72C33.3811 21.72 32.9331 21.272 32.9331 20.68C32.9331 19.992 33.4931 19.672 34.3411 19.672C34.6451 19.672 35.0611 19.736 35.6051 19.88L36.2131 20.04V20.12ZM39.8678 15.416V26.168H41.5478V21.944C42.0118 22.76 42.9398 23.16 43.9478 23.16C46.1078 23.16 47.5478 21.576 47.5478 19.256C47.5478 16.936 46.1718 15.256 44.1078 15.256C43.0677 15.256 41.9958 15.864 41.4838 16.76V15.416H39.8678ZM43.6758 21.672C42.5238 21.672 41.4838 20.728 41.4838 19.256C41.4838 17.784 42.5558 16.776 43.6758 16.776C44.8758 16.776 45.8678 17.8 45.8678 19.256C45.8678 20.712 44.8918 21.672 43.6758 21.672ZM54.701 20.12C54.461 21.16 53.741 21.72 52.653 21.72C52.045 21.72 51.517 21.528 51.053 21.16C50.605 20.776 50.381 20.216 50.381 19.48H55.741C55.789 19.192 55.821 18.904 55.821 18.6C55.821 16.536 54.381 15.256 52.397 15.256C50.173 15.256 48.701 16.984 48.701 19.16C48.701 21.608 50.301 23.16 52.637 23.16C54.429 23.16 55.613 22.264 56.141 20.68L54.701 20.12ZM50.381 18.36C50.525 17.336 51.341 16.696 52.381 16.696C53.405 16.696 54.157 17.272 54.157 18.216L54.141 18.36H50.381ZM57.649 23H59.329V17.016H62.961V15.416H57.649V23ZM64.274 23H66.914L70.082 17.016V23H71.762V15.416H69.122L65.954 21.4V15.416H64.274V23ZM77.3573 21.72C76.1413 21.72 74.9573 20.712 74.9573 19.16C74.9573 17.56 76.0933 16.696 77.1973 16.696C78.3013 16.696 79.1013 17.384 79.2773 18.52L80.7973 18.04C80.4773 16.312 79.0693 15.256 77.1973 15.256C75.1013 15.256 73.3573 16.872 73.3573 19.16C73.3573 21.56 74.9733 23.16 77.4373 23.16C79.3413 23.16 80.8133 22.056 81.1973 20.12L79.6773 19.56C79.5013 20.824 78.7653 21.72 77.3573 21.72ZM84.0771 23H85.7571V16.936H88.1571V15.416H81.6771V16.936H84.0771V23ZM89.399 15.416V26.168H91.079V21.944C91.543 22.76 92.471 23.16 93.479 23.16C95.639 23.16 97.079 21.576 97.079 19.256C97.079 16.936 95.703 15.256 93.639 15.256C92.599 15.256 91.527 15.864 91.015 16.76V15.416H89.399ZM93.207 21.672C92.055 21.672 91.015 20.728 91.015 19.256C91.015 17.784 92.087 16.776 93.207 16.776C94.407 16.776 95.399 17.8 95.399 19.256C95.399 20.712 94.423 21.672 93.207 21.672ZM98.6803 23H101.32L104.488 17.016V23H106.168V15.416H103.528L100.36 21.4V15.416H98.6803V23ZM108.212 15.416V26.168H109.892V21.944C110.356 22.76 111.284 23.16 112.292 23.16C114.452 23.16 115.892 21.576 115.892 19.256C115.892 16.936 114.516 15.256 112.452 15.256C111.411 15.256 110.34 15.864 109.828 16.76V15.416H108.212ZM112.02 21.672C110.868 21.672 109.828 20.728 109.828 19.256C109.828 17.784 110.9 16.776 112.02 16.776C113.22 16.776 114.212 17.8 114.212 19.256C114.212 20.712 113.236 21.672 112.02 21.672ZM117.045 19.208C117.045 21.448 118.661 23.16 120.949 23.16C123.237 23.16 124.853 21.448 124.853 19.208C124.853 16.968 123.237 15.256 120.949 15.256C118.661 15.256 117.045 16.968 117.045 19.208ZM123.173 19.208C123.173 20.632 122.229 21.64 120.949 21.64C119.669 21.64 118.725 20.632 118.725 19.208C118.725 17.784 119.669 16.776 120.949 16.776C122.229 16.776 123.173 17.784 123.173 19.208ZM126.446 23H130.846C132.366 23 133.326 22.152 133.326 20.92C133.326 19.912 132.718 19.336 131.806 19.16C132.574 18.92 133.086 18.168 133.086 17.4C133.086 16.2 132.126 15.416 130.606 15.416H126.446V23ZM128.126 18.44V16.936H130.526C131.086 16.936 131.406 17.224 131.406 17.688C131.406 18.152 131.086 18.44 130.526 18.44H128.126ZM128.126 21.48V19.88H130.686C131.31 19.88 131.646 20.184 131.646 20.68C131.646 21.144 131.31 21.48 130.686 21.48H128.126ZM134.751 20.84C134.751 22.296 135.999 23.16 137.247 23.16C138.591 23.16 139.455 22.568 139.791 21.72V23H141.391V18.28C141.391 16.36 140.191 15.256 138.031 15.256C136.175 15.256 135.007 16.232 134.671 17.72L136.191 18.12C136.367 17.208 137.023 16.616 138.031 16.616C139.039 16.616 139.791 17.192 139.791 18.2V18.76L138.991 18.568C138.559 18.456 138.111 18.408 137.647 18.408C135.967 18.408 134.751 19.192 134.751 20.84ZM139.791 20.12C139.791 21.128 139.023 21.72 137.919 21.72C136.959 21.72 136.511 21.272 136.511 20.68C136.511 19.992 137.071 19.672 137.919 19.672C138.223 19.672 138.639 19.736 139.183 19.88L139.791 20.04V20.12ZM145.046 23H146.726V16.936H149.126V15.416H142.646V16.936H145.046V23ZM150.368 23H154.208C155.84 23 156.768 21.768 156.768 20.44C156.768 19.08 155.872 18.04 154.208 18.04H152.048V15.416H150.368V23ZM152.048 21.48V19.56H154.128C154.768 19.56 155.168 19.944 155.168 20.52C155.168 21.096 154.768 21.48 154.128 21.48H152.048ZM162.045 21.72C160.829 21.72 159.645 20.712 159.645 19.16C159.645 17.56 160.781 16.696 161.885 16.696C162.989 16.696 163.789 17.384 163.965 18.52L165.485 18.04C165.165 16.312 163.757 15.256 161.885 15.256C159.789 15.256 158.045 16.872 158.045 19.16C158.045 21.56 159.661 23.16 162.125 23.16C164.029 23.16 165.501 22.056 165.885 20.12L164.365 19.56C164.189 20.824 163.453 21.72 162.045 21.72ZM166.776 22.84V23H168.616L171.016 20.04H171.656V23H173.336V15.416H169.336C167.784 15.416 166.856 16.392 166.856 17.72C166.856 19 167.848 20.04 169.096 20.04L166.776 22.84ZM171.656 18.6H169.496C168.872 18.6 168.536 18.264 168.536 17.768C168.536 17.272 168.872 16.936 169.496 16.936H171.656V18.6Z" fill="#1F2144"/>
</svg>
