<svg width="89" height="79" viewBox="0 0 89 79" fill="none" xmlns="http://www.w3.org/2000/svg">
<path d="M0.706864 54.2918L19.3555 78.1553L88.3898 24.1548L69.7412 0.291284L0.706864 54.2918Z" fill="white"/>
<path d="M46.9828 33.4764C46.9828 33.6322 46.9828 33.6841 47.1385 33.5975C47.2942 33.511 47.1385 33.5975 47.225 33.4591C47.1854 33.448 47.1435 33.448 47.1039 33.4591C47.1039 33.4591 47.052 33.4418 47.052 33.4764H46.9828ZM47.2423 44.9698C47.0983 44.9102 46.9365 44.9102 46.7925 44.9698C46.533 45.1083 46.4637 45.4026 46.6541 45.5064C46.779 45.5379 46.9098 45.5379 47.0347 45.5064C47.4153 45.3506 47.5018 45.0737 47.3115 44.9698H47.2423ZM48.7302 52.1013C48.7302 52.1013 48.5918 52.309 48.6264 52.3956C48.661 52.4821 48.7821 52.5168 48.9378 52.6206C48.9378 52.4129 48.9378 52.2571 48.9378 52.1013H48.7302ZM50.3738 32.507L48.6437 32.8879C48.6437 32.8879 48.5226 33.0783 48.4707 33.1821L49.4396 33.7706C50.616 33.009 50.616 33.009 50.443 32.507H50.3738ZM46.5676 53.2784C46.5676 53.2784 46.6714 53.2784 46.706 53.2784C46.7406 53.2784 46.706 53.1918 46.8098 53.1572H46.6022C46.611 53.1871 46.6225 53.216 46.6367 53.2437L46.5676 53.2784ZM47.6229 47.6009L47.3288 47.4797V47.9297L47.744 47.8432C47.7121 47.7585 47.6715 47.6773 47.6229 47.6009ZM46.3772 25.0986C46.5416 25.1685 46.726 25.1754 46.8952 25.1179C47.0643 25.0604 47.2063 24.9427 47.2942 24.787C47.3064 24.7347 47.3048 24.6801 47.2896 24.6285C47.2745 24.577 47.2463 24.5302 47.2077 24.4928C47.0006 24.3899 46.7788 24.3198 46.5503 24.2851C46.308 24.2851 46.1005 24.7697 46.2562 24.9948C46.4119 25.2198 46.3253 24.9601 46.3772 24.9774V25.0986ZM47.8997 30.101C47.8997 29.9453 47.8997 29.9106 47.7267 29.9972C47.5537 30.0837 47.7267 30.0837 47.7267 30.1357C47.7267 30.1876 47.7267 30.1357 47.8305 30.1357C47.9343 30.1357 47.8824 30.0318 47.8997 29.9799V30.101ZM49.1627 40.4867C49.1453 40.5898 49.1453 40.6951 49.1627 40.7983C49.2665 40.7983 49.3876 40.8848 49.4568 40.7983C49.498 40.7616 49.5303 40.7161 49.5513 40.6651C49.5723 40.6141 49.5814 40.559 49.5779 40.504C49.5606 40.3482 49.2665 40.2963 49.1627 40.4521V40.4867ZM47.744 48.726C47.744 48.726 47.6229 48.8818 47.5364 49.0376H48.0554C48.0554 49.0376 48.0554 48.8991 48.0554 48.8818C47.9711 48.7977 47.8619 48.7431 47.744 48.726ZM46.3772 55.5459C46.2809 55.5202 46.1795 55.5202 46.0831 55.5459C46.1453 55.6231 46.2217 55.6877 46.3081 55.7363C46.3867 55.7627 46.4717 55.7627 46.5503 55.7363C46.5503 55.7363 46.4119 55.5632 46.3427 55.5459H46.3772ZM46.5329 37.4229C46.5103 37.5547 46.5103 37.6893 46.5329 37.821C46.5746 37.867 46.6268 37.902 46.6851 37.9232C46.7433 37.9443 46.8058 37.9509 46.8672 37.9424C46.9286 37.9338 46.987 37.9104 47.0373 37.8742C47.0876 37.838 47.1283 37.79 47.1558 37.7345C47.1938 37.6687 47.2137 37.5941 47.2137 37.5181C47.2137 37.4422 47.1938 37.3675 47.1558 37.3018C46.8444 37.0767 46.6195 37.2152 46.4984 37.4229H46.5329ZM56.5157 40.2617C56.1696 40.8502 56.1869 41.006 56.654 41.3868C56.7981 41.4464 56.9599 41.4464 57.1039 41.3868C57.3115 41.3868 57.2769 41.0925 57.1039 40.954C56.9309 40.8156 56.7233 40.6771 56.4983 40.3482L56.5157 40.2617ZM56.5157 46.3892C56.4329 46.4993 56.3577 46.615 56.2907 46.7354L56.6195 46.8912C56.6817 46.7687 56.7338 46.6414 56.7752 46.5104C56.7752 46.5104 56.5156 46.4584 56.481 46.4758L56.5157 46.3892ZM57.6748 39.6905C57.5721 39.669 57.4661 39.669 57.3634 39.6905C57.3634 39.6905 57.3634 39.8809 57.3634 39.9847C57.3634 40.0886 57.5191 40.1924 57.6056 40.1924C57.7493 40.1559 57.8886 40.1036 58.0208 40.0367C57.9523 39.906 57.8773 39.7789 57.7959 39.6558C57.7607 39.6578 57.727 39.6704 57.6991 39.692C57.6713 39.7137 57.6507 39.7433 57.6402 39.777L57.6748 39.6905ZM55.9447 39.5693L56.4983 40.2271C56.3945 39.7597 56.3946 39.7597 55.9274 39.6558L55.9447 39.5693ZM57.8824 25.2371C57.3466 25.2853 56.8504 25.5397 56.4983 25.9468C56.7376 26.0657 57.0011 26.1276 57.2683 26.1276C57.5354 26.1276 57.7989 26.0657 58.0382 25.9468C58.1044 25.8949 58.1587 25.8295 58.1975 25.7548C58.2363 25.6802 58.2586 25.5981 58.263 25.514C58.2457 25.4794 57.9862 25.3063 57.8651 25.3236L57.8824 25.2371ZM55.2527 33.1302C55.2342 33.1864 55.2342 33.2471 55.2527 33.3033C55.2655 33.3291 55.2852 33.3509 55.3096 33.3662C55.3341 33.3814 55.3623 33.3896 55.3911 33.3898H55.8755C55.9049 33.34 55.9397 33.2935 55.9793 33.2514C55.9964 33.2257 56.0056 33.1956 56.0056 33.1648C56.0056 33.134 55.9964 33.1039 55.9793 33.0783C55.8609 33.0026 55.7182 32.9748 55.58 33.0005C55.4419 33.0262 55.3186 33.1035 55.2354 33.2167L55.2527 33.1302ZM55.6852 35.5362C55.7146 35.578 55.7573 35.6085 55.8063 35.6227C55.8063 35.6227 55.8063 35.6227 55.9101 35.6227C56.0139 35.6227 55.9101 35.5016 55.9101 35.4843C55.9101 35.467 55.616 35.4843 55.6679 35.6227L55.6852 35.5362ZM52.7267 47.3758C52.7267 47.5143 52.7267 47.5663 52.8824 47.4797C53.0381 47.3932 52.8824 47.4797 52.8824 47.3585C52.8824 47.2374 52.8824 47.3585 52.7786 47.3585C52.6748 47.3585 52.7094 47.4105 52.7094 47.4624L52.7267 47.3758ZM52.571 44.139V44.2948H52.7267C52.7353 44.2142 52.7353 44.133 52.7267 44.0524L52.571 44.139ZM52.571 38.9462C52.571 38.9462 52.4672 38.9462 52.4153 38.9462C52.3634 38.9462 52.4153 39.1885 52.571 39.2058C52.7267 39.2231 52.7786 39.2058 52.8824 39.2058C52.9862 39.2058 52.8824 39.05 52.8824 39.0327C52.8065 38.9559 52.719 38.8916 52.6229 38.8423L52.571 38.9462ZM49.6644 42.408C49.6644 42.5119 49.5261 42.6331 49.5434 42.7023C49.5726 42.7495 49.6133 42.7886 49.6617 42.8159C49.7101 42.8431 49.7646 42.8576 49.8202 42.8581C49.8622 42.8538 49.9022 42.8377 49.9356 42.8118C49.969 42.7858 49.9943 42.7509 50.0088 42.7111C50.0232 42.6714 50.0262 42.6283 50.0173 42.587C50.0084 42.5456 49.9881 42.5076 49.9586 42.4773C49.8663 42.4343 49.7662 42.4108 49.6644 42.408ZM53.1246 51.6686V51.4436C53.0905 51.4764 53.0661 51.518 53.0539 51.5637C53.0417 51.6095 53.0422 51.6577 53.0555 51.7032L53.1246 51.6686ZM53.315 50.5781C53.232 50.6015 53.1552 50.6429 53.09 50.6993C53.071 50.9354 53.071 51.1728 53.09 51.4089C53.2543 51.2619 53.4102 51.1059 53.5572 50.9416C53.5785 50.8986 53.5896 50.8512 53.5896 50.8031C53.5896 50.7551 53.5785 50.7077 53.5572 50.6646C53.512 50.6342 53.4608 50.6138 53.4071 50.6049C53.3534 50.5959 53.2983 50.5986 53.2457 50.6127L53.315 50.5781ZM47.398 35.1035H47.5537C47.6041 34.9934 47.639 34.8769 47.6575 34.7573C47.6386 34.7004 47.6092 34.6476 47.571 34.6015C47.4845 34.6015 47.3288 34.6015 47.3115 34.7573C47.2942 34.9131 47.2942 35.0342 47.3288 35.1381L47.398 35.1035ZM36.7925 29.9106H37.0174H36.8963C36.8963 29.9106 36.7233 29.9453 36.6887 29.9626L36.7925 29.9106ZM37.2942 29.9106H37.0693H37.1904C37.1904 29.9106 37.1558 29.9972 37.1904 29.9799L37.2942 29.9106ZM38.1939 29.1144C38.1074 29.1144 38.0208 29.374 38.0035 29.5298C37.9862 29.6856 38.1247 29.7548 38.1939 29.7548L39.5606 29.5125C39.3802 29.3114 39.1416 29.1716 38.8779 29.1126C38.6143 29.0537 38.3389 29.0785 38.0901 29.1836L38.1939 29.1144ZM37.1039 52.3783H37.2596C37.2596 52.3783 37.2596 52.2571 37.2596 52.2225C37.2596 52.1879 37.2596 52.2225 37.1212 52.2225L37.1039 52.3783ZM37.2077 32.8705V32.9744C37.2077 32.9744 37.3288 32.9744 37.3461 32.9744C37.3634 32.9744 37.3461 32.7494 37.225 32.8186C37.1039 32.8879 37.1212 32.8879 37.1039 32.9398L37.2077 32.8705ZM35.9794 31.3819L36.4291 31.1915C36.4291 31.1915 36.4291 31.0704 36.4291 31.0531C36.4291 31.0357 36.2561 30.88 36.1696 30.8973C36.0831 30.9146 35.789 31.2088 35.8756 31.4512L35.9794 31.3819ZM38.7129 37.3537C38.7083 37.2903 38.7083 37.2267 38.7129 37.1633H38.5572C38.5572 37.1633 38.5572 37.2671 38.5572 37.3018C38.5572 37.3364 38.5745 37.3883 38.6091 37.4229L38.7129 37.3537ZM37.3634 34.6188C37.3634 34.7227 37.225 34.8438 37.2423 34.9131C37.2717 34.9615 37.3121 35.0024 37.3602 35.0325C37.4083 35.0625 37.4627 35.0809 37.5191 35.0862C37.5597 35.0792 37.5978 35.0621 37.6299 35.0364C37.6621 35.0106 37.6871 34.9771 37.7027 34.939C37.7183 34.9009 37.7239 34.8594 37.719 34.8186C37.7141 34.7777 37.6989 34.7387 37.6748 34.7053C37.6748 34.7053 37.5191 34.6361 37.3634 34.6188ZM35.9447 27.695C35.9538 27.6435 35.9538 27.5908 35.9447 27.5392C35.8905 27.4614 35.8212 27.3953 35.741 27.3448C35.6607 27.2942 35.5712 27.2603 35.4776 27.245L34.8721 27.7123C34.9751 27.8132 35.1035 27.8842 35.2437 27.9177C35.3838 27.9512 35.5304 27.9461 35.6679 27.9027C35.8236 27.92 35.9101 27.7989 35.9966 27.7296L35.9447 27.695ZM35.6333 36.1593C35.6333 36.1593 35.789 36.1593 35.8928 36.2805C35.9966 36.4017 36.0139 36.0555 35.9966 35.9689C35.9372 35.6918 35.8562 35.4198 35.7544 35.1554C35.3046 35.6227 35.5295 35.8824 35.6333 36.1593ZM37.6057 31.6416H37.398V31.7974C37.398 31.7974 37.5018 31.7974 37.5364 31.7974C37.5946 31.7621 37.6377 31.7066 37.6576 31.6416H37.6057ZM35.7717 32.2301C35.799 32.1592 35.8402 32.0945 35.8928 32.0397C35.8879 31.8521 35.8589 31.6659 35.8063 31.4858C35.6987 31.5969 35.6109 31.7257 35.5468 31.8666C35.6333 32.0224 35.7371 32.1089 35.8236 32.2301H35.7717ZM39.4049 47.6009H39.5606C39.5606 47.6009 39.5606 47.4278 39.5606 47.3585H39.4049C39.4208 47.4385 39.4208 47.5209 39.4049 47.6009ZM41.8963 35.1035C41.9363 35.1114 41.9774 35.1114 42.0174 35.1035C42.0174 35.1035 42.0174 35.1035 42.1212 35.1035C42.225 35.1035 42.1212 34.9823 42.1212 34.965C42.1212 34.9477 41.8444 34.9823 41.8963 35.1554V35.1035ZM42.2596 23.7831C42.2596 23.7831 42.1731 23.7831 42.1385 23.7831C42.1039 23.7831 42.0174 23.7831 42.0174 23.8696C42.0174 23.9562 42.0174 24.0774 42.1731 23.9908C42.3288 23.9043 42.225 23.887 42.2596 23.835V23.7831ZM42.7094 50.0242H42.8479C42.8479 50.0242 42.8479 49.9203 42.8479 49.8857C42.8479 49.8511 42.7613 49.8857 42.7094 49.8857V50.0242ZM41.9828 31.4858H41.7925V31.6416C41.7925 31.6416 41.8963 31.6416 41.9309 31.6416C41.9655 31.6416 41.9482 31.5723 41.9828 31.5377V31.4858ZM45.5295 36.6786C45.4865 36.6573 45.4391 36.6462 45.3911 36.6462C45.3431 36.6462 45.2957 36.6573 45.2527 36.6786C45.2527 36.6786 45.097 36.8863 45.1316 36.9556C45.1887 37.1065 45.2706 37.2469 45.3738 37.371C45.4799 37.2522 45.5674 37.118 45.6333 36.9729C45.6333 36.9729 45.5987 36.7652 45.5295 36.7132V36.6786ZM43.0208 28.8894C42.8668 28.9272 42.7316 29.0194 42.6402 29.149C42.6065 29.3263 42.6065 29.5083 42.6402 29.6856C42.8478 29.5644 43.0035 29.5298 43.0901 29.426C43.1766 29.3221 43.1938 28.9067 43.0208 28.924V28.8894ZM38.5053 40.002C38.4398 40.0573 38.3871 40.1262 38.351 40.2039C38.3148 40.2817 38.2961 40.3663 38.2961 40.4521C38.2961 40.5378 38.3148 40.6225 38.351 40.7002C38.3871 40.778 38.4398 40.8469 38.5053 40.9021C38.5513 40.9237 38.6015 40.9349 38.6523 40.9349C38.7032 40.9349 38.7534 40.9237 38.7994 40.9021C38.8653 40.8452 38.9182 40.7748 38.9544 40.6957C38.9906 40.6165 39.0094 40.5305 39.0094 40.4434C39.0094 40.3564 38.9906 40.2703 38.9544 40.1912C38.9182 40.112 38.8653 40.0416 38.7994 39.9847C38.7129 40.0366 38.5745 39.9847 38.5053 40.0367V40.002ZM43.2112 57.4672H43.3669C43.3669 57.4672 43.3669 57.3634 43.3669 57.3115H43.2285L43.2112 57.4672ZM40.8236 24.3543C40.7198 24.1293 40.3392 24.2158 40.1662 24.5101C39.9932 24.8044 40.1662 24.7697 40.1662 24.7697C40.1662 24.7697 40.5814 24.7697 40.7717 24.7697C40.962 24.7697 40.9447 24.4409 40.8236 24.3543ZM40.3911 46.1296H40.8063L40.9101 45.7661H40.4084C40.4776 45.8699 40.4603 45.9738 40.4603 46.1296H40.3911ZM42.1212 41.6464L41.9828 41.5599C41.7579 41.5599 41.5157 41.5599 41.4118 41.7503C41.308 41.9407 41.4984 41.9926 41.5676 42.1311L42.0866 41.8195C42.0866 41.8195 42.1385 41.7157 42.1558 41.6464H42.1212ZM40.5295 28.3701C40.5295 28.3701 40.5295 28.3701 40.4257 28.3701C40.3803 28.3584 40.3327 28.3584 40.2873 28.3701C40.2873 28.5259 40.2873 28.5778 40.4603 28.4913C40.6333 28.4047 40.5468 28.422 40.5641 28.3701H40.5295ZM42.0693 22.7791C41.9484 22.8779 41.8433 22.9947 41.7579 23.1253C41.7924 23.1614 41.8215 23.2022 41.8444 23.2465C41.9801 23.1679 42.1026 23.0687 42.2077 22.9522C42.3461 22.8138 42.2596 22.7099 42.1039 22.7791H42.0693ZM41.8444 57.675C41.8444 57.675 41.9482 57.675 42.0001 57.675C42.0428 57.6424 42.0782 57.6011 42.1039 57.5538H41.8963L41.8444 57.675ZM41.9828 46.1296C41.9828 46.1296 41.9828 46.1296 41.9828 46.2334C41.9828 46.3373 42.1039 46.2334 42.1212 46.2334C42.1385 46.2334 42.1212 46.0257 42.0001 46.0776C42.0037 46.0956 42.0095 46.113 42.0174 46.1296H41.9828ZM61.9828 10.0394C61.9529 10.1415 61.9123 10.2401 61.8617 10.3337C61.9655 10.3337 62.1212 10.3337 62.1731 10.3337C62.2257 10.2184 62.2607 10.0959 62.2769 9.97017L61.9828 10.0394ZM70.2354 23.6446C69.6195 23.4834 68.9657 23.5574 68.4015 23.8523L67.4153 25.1332C67.7959 25.3063 68.0554 24.9255 68.4015 24.9082C68.4437 24.912 68.4846 24.9248 68.5214 24.9459C68.5582 24.967 68.5901 24.9957 68.6147 25.0303C68.6394 25.0648 68.6563 25.1043 68.6642 25.1459C68.6722 25.1876 68.6711 25.2305 68.661 25.2717C68.661 25.4794 68.4707 25.6871 68.4188 25.9122C68.3669 26.1372 68.5225 26.1026 68.5917 26.1718C68.6609 26.241 68.7129 26.1718 68.7648 26.1718C68.8807 26.1488 68.9882 26.095 69.0762 26.016C69.5606 25.3583 70.0278 24.7005 70.4776 24.0081C70.5814 23.9562 70.4084 23.6792 70.2354 23.6446ZM68.142 33.5975C68.142 33.7533 68.1419 33.9091 68.0554 34.0822C68.1301 34.0916 68.2057 34.0916 68.2803 34.0822C68.3161 34.0566 68.3452 34.0228 68.3652 33.9836C68.3853 33.9445 68.3958 33.9012 68.3958 33.8572C68.3958 33.8132 68.3853 33.7698 68.3652 33.7307C68.3452 33.6916 68.3161 33.6578 68.2803 33.6322C68.2594 33.6167 68.236 33.605 68.2111 33.5975H68.142ZM67.917 37.6653C67.917 37.6653 67.8132 37.821 67.744 37.9249C67.6748 38.0288 67.8478 38.0114 67.8997 38.0114H68.2458C68.2458 38.0114 68.2458 37.873 68.2458 37.8557C68.2458 37.8384 68.0901 37.6306 67.9862 37.6653H67.917ZM55.4603 26.0333C55.2527 26.3103 55.4603 26.5526 55.616 26.7603L56.3945 26.0333L56.1177 25.3929C55.9061 25.5915 55.7095 25.8056 55.5295 26.0333H55.4603ZM70.8582 29.0798H71.0658C71.0658 29.0798 71.0658 29.0798 70.962 29.0798H70.8582ZM71.1177 29.0798C71.2215 29.0798 71.3253 29.0798 71.4118 29.0798C71.4983 29.0798 71.5503 28.9586 71.6022 28.8894C71.6541 28.8201 71.4291 28.8894 71.3599 28.8894C71.2921 28.9428 71.2336 29.0072 71.1869 29.0798H71.1177ZM67.225 31.0357C67.225 31.4512 67.744 31.8839 67.225 32.2647C67.4499 32.4724 67.6921 32.6801 67.9689 32.4551C68.2009 32.2938 68.3764 32.0637 68.4707 31.7974C68.4707 31.6416 68.3149 31.3819 68.1765 31.2262C68.0381 31.0704 67.6575 30.7934 67.2942 31.0357H67.225ZM65.2008 32.2474C65.2008 32.2474 65.2008 32.2474 65.1143 32.3859C65.0278 32.5244 65.2007 32.3859 65.2353 32.3859C65.2699 32.3859 65.3565 32.3859 65.3565 32.3859C65.3565 32.3859 65.4084 32.1609 65.27 32.2474H65.2008ZM66.1869 32.2474C66.1657 32.2874 66.1546 32.332 66.1546 32.3772C66.1546 32.4225 66.1657 32.4671 66.1869 32.507C66.5502 32.6628 66.827 32.5071 67.0866 32.2474C66.7751 32.0224 66.4638 32.0224 66.2561 32.282L66.1869 32.2474ZM65.6506 20.1308C65.3911 20.0096 65.0278 19.9231 64.8375 20.1308C64.7296 20.3714 64.6651 20.6293 64.6471 20.8924L65.7371 21.6021C65.8236 21.3252 65.9274 21.0655 66.0139 20.7886C66.0268 20.6725 66.0058 20.5553 65.9537 20.4509C65.9015 20.3465 65.8203 20.2594 65.7198 20.2L65.6506 20.1308ZM69.4568 31.0704C69.435 31.0608 69.4114 31.0559 69.3876 31.0559C69.3638 31.0559 69.3402 31.0608 69.3184 31.0704C69.3184 31.0704 69.3184 31.0704 69.3184 31.1742C69.3184 31.2781 69.3184 31.2954 69.3184 31.3127C69.3184 31.33 69.6125 31.2781 69.526 31.1396L69.4568 31.0704ZM65.7717 22.4157C66.1869 22.4157 66.6022 22.3118 67.0001 22.2252C67.0697 22.185 67.1273 22.1269 67.1668 22.0569C67.2064 21.9869 67.2265 21.9075 67.225 21.8271C67.2041 21.7422 67.1635 21.6634 67.1064 21.5972C67.0492 21.531 66.9772 21.4793 66.8963 21.4463C66.7579 21.4463 66.5675 21.4463 66.3945 21.4463L65.7371 21.5502C65.7025 22.0175 65.5641 22.2945 65.8409 22.5368L65.7717 22.4157ZM66.2561 30.2914L65.8236 30.1703C65.8236 30.2914 65.8236 30.3607 65.8236 30.4126H66.308C66.308 30.4126 66.2735 30.2914 66.2561 30.2914ZM67.0347 39.8636C67.0347 39.8636 67.1385 39.8636 67.1904 39.8636C67.2029 39.8182 67.2029 39.7704 67.1904 39.7251H66.9482L67.0347 39.8636ZM70.4949 32.9398C70.4855 32.9855 70.4855 33.0326 70.4949 33.0783H70.6506C70.6506 33.0783 70.6506 32.9398 70.6506 32.9225L70.4949 32.9398ZM69.0762 38.9462C69.1018 38.9819 69.1356 39.011 69.1747 39.0311C69.2138 39.0512 69.2571 39.0617 69.3011 39.0617C69.3451 39.0617 69.3884 39.0512 69.4275 39.0311C69.4666 39.011 69.5004 38.9819 69.526 38.9462C69.526 38.9462 69.526 38.8423 69.526 38.7904L69.0243 38.7038C69.0762 38.7558 69.0416 38.825 69.0762 38.9462ZM70.5641 22.9003V23.0042V22.7791C70.5624 22.7964 70.5624 22.8138 70.5641 22.8311V22.9003ZM70.9447 29.6164C70.6333 29.6164 70.1142 29.6164 69.5779 29.6164C69.4294 29.6163 69.2868 29.6741 69.1802 29.7775C69.0736 29.8809 69.0115 30.0218 69.007 30.1703L70.5122 30.6549C70.5987 31.0184 70.6679 31.3473 70.8063 31.8666C71.0812 31.7995 71.3526 31.7186 71.6194 31.6243C71.8616 31.5377 72.0001 31.1742 71.8098 31.0704C71.308 30.88 71.6886 30.1703 71.0312 29.651L70.9447 29.6164ZM34.2493 58.7828C34.2493 58.7828 34.2493 58.8693 34.2493 58.9212C34.2493 58.9732 34.2493 58.9212 34.3531 58.9212C34.3984 58.933 34.446 58.933 34.4914 58.9212C34.4568 58.7481 34.3877 58.6962 34.2493 58.7828ZM71.0658 27.6258C71.1151 27.6467 71.168 27.6575 71.2215 27.6575C71.275 27.6575 71.328 27.6467 71.3772 27.6258C71.3963 27.5821 71.4061 27.535 71.4061 27.4873C71.4061 27.4397 71.3963 27.3925 71.3772 27.3488C71.3237 27.2457 71.2536 27.1521 71.1696 27.0719C71.0856 27.1502 71.0102 27.2372 70.9447 27.3315C70.9411 27.3815 70.9503 27.4317 70.9715 27.4771C70.9927 27.5225 71.0252 27.5618 71.0658 27.5912V27.6258ZM64.3011 30.828C64.3475 30.9737 64.4114 31.1132 64.4914 31.2435C65.045 30.9665 65.1834 30.6376 65.0277 30.1703C64.2146 30.0664 64.1454 30.1357 64.3011 30.7934V30.828ZM70.2354 36.4882L69.9412 36.869C69.9412 36.869 69.9413 36.869 70.0451 36.869L70.3218 36.7132C70.3604 36.6739 70.3899 36.6266 70.4084 36.5748C70.4084 36.5748 70.4084 36.4536 70.4084 36.419C70.4084 36.3844 70.2354 36.4536 70.2354 36.4882ZM66.7752 25.0986C66.7752 25.0986 66.7751 25.0986 66.654 25.0986H66.879C66.8454 25.0867 66.8087 25.0867 66.7752 25.0986ZM69.4049 35.4843C69.2003 35.5176 68.9981 35.5639 68.7994 35.6227C68.7436 35.6365 68.6911 35.6617 68.6455 35.6967C68.5999 35.7318 68.5622 35.7759 68.5345 35.8264C68.5069 35.8768 68.49 35.9325 68.4849 35.9898C68.4799 36.0471 68.4868 36.1048 68.5053 36.1593C68.5105 36.3042 68.5647 36.443 68.659 36.553C68.7532 36.663 68.882 36.7378 69.0243 36.7652C69.1693 36.7772 69.3138 36.7366 69.4314 36.6508C69.549 36.565 69.6317 36.4397 69.6645 36.2978C69.712 36.2242 69.7443 36.1419 69.7596 36.0556C69.775 35.9693 69.7729 35.8809 69.7536 35.7954C69.7342 35.7099 69.698 35.6292 69.647 35.5579C69.5961 35.4867 69.5314 35.4263 69.4568 35.3804L69.4049 35.4843ZM71.3427 35.5708C71.3324 35.738 71.3324 35.9056 71.3427 36.0728H71.4984C71.5379 36.05 71.5707 36.0172 71.5936 35.9777C71.6164 35.9382 71.6284 35.8934 71.6284 35.8478C71.6284 35.8021 71.6164 35.7573 71.5936 35.7178C71.5707 35.6783 71.5379 35.6455 71.4984 35.6227C71.4984 35.6227 71.5157 35.4843 71.3946 35.4843L71.3427 35.5708ZM66.1523 27.8162C66.5301 27.974 66.9368 28.0506 67.3461 28.0412C67.9862 27.92 68.3149 28.3528 68.7648 28.5951C68.9724 28.2835 68.7648 27.7643 69.353 27.6777C69.4114 27.6723 69.4675 27.6529 69.5168 27.6211C69.566 27.5892 69.6068 27.546 69.6357 27.495C69.6646 27.444 69.6807 27.3867 69.6827 27.3281C69.6847 27.2695 69.6725 27.2113 69.6471 27.1584C69.6218 27.0892 69.5816 27.0265 69.5293 26.9746C69.4771 26.9226 69.414 26.8829 69.3447 26.8581C69.2753 26.8333 69.2014 26.8241 69.1281 26.8312C69.0548 26.8382 68.9839 26.8613 68.9205 26.8988C68.7198 27.0216 68.4928 27.0951 68.2582 27.1131C68.0236 27.1312 67.7881 27.0933 67.571 27.0026C67.0066 26.8343 66.4053 26.8343 65.8409 27.0026C65.789 27.2104 65.6852 27.5739 66.1696 27.7123L66.1523 27.8162ZM60.2008 15.1111H60.7198C61.5502 15.1111 61.7751 14.8168 61.5156 14.0379C61.4428 13.874 61.4018 13.6978 61.3946 13.5186C61.408 13.4402 61.4381 13.3656 61.4828 13.2999C61.5276 13.2342 61.586 13.1789 61.6541 13.1378C61.9136 13.0339 62.2077 12.8435 62.4672 13.1378C62.4672 13.5359 62.4672 13.9167 62.4672 14.2802C62.8132 14.4187 63.0381 14.6783 63.4014 14.4187C63.4014 14.0379 63.263 13.6398 63.2457 13.2243C63.2577 13.1408 63.287 13.0608 63.3317 12.9892C63.3764 12.9177 63.4355 12.8563 63.5052 12.8089C63.5834 12.8089 63.6604 12.8277 63.7297 12.8639C63.799 12.9001 63.8585 12.9525 63.9032 13.0166C64.0416 13.5359 64.1281 14.0725 64.2665 14.5745C64.3046 14.645 64.359 14.7054 64.4253 14.7506C64.4915 14.7958 64.5676 14.8244 64.6471 14.8341C64.8028 14.8341 65.0277 14.6264 65.0277 14.5225C65.0073 14.1484 64.9494 13.7773 64.8548 13.4147L66.2388 11.9608C66.1 11.7262 65.9149 11.5223 65.6948 11.3616C65.4747 11.2009 65.2242 11.0867 64.9586 11.026C64.8375 10.7491 65.3565 10.5933 65.0796 10.2817L64.18 10.7837L63.1073 10.1086C63.1317 10.4833 63.1317 10.8591 63.1073 11.2338C63.0759 11.3999 62.9833 11.5481 62.8478 11.6492C62.6748 11.7877 62.5191 11.6492 62.4499 11.4934C62.4185 11.4076 62.3691 11.3296 62.3051 11.2645C62.241 11.1994 62.1638 11.1488 62.0786 11.116C61.9934 11.0832 61.9022 11.069 61.811 11.0744C61.7199 11.0798 61.631 11.1046 61.5503 11.1472C61.1004 11.303 60.7025 11.5626 60.789 12.1685C60.5091 12.2012 60.2414 12.302 60.0092 12.4618C59.777 12.6217 59.5874 12.836 59.4568 13.0859C59.4568 13.5013 59.5606 13.9686 59.6298 14.436C59.6669 14.5757 59.7411 14.7026 59.8448 14.8032C59.9484 14.9038 60.0774 14.9744 60.2181 15.0072L60.2008 15.1111ZM61.2388 12.1512C61.3426 12.1512 61.4291 12.255 61.5156 12.3069C61.4438 12.4527 61.3504 12.5869 61.2388 12.7051C61.1974 12.7312 61.1494 12.7451 61.1004 12.7451C61.0514 12.7451 61.0035 12.7312 60.962 12.7051C60.8716 12.5658 60.8016 12.4142 60.7544 12.255C60.914 12.1685 61.0821 12.0989 61.2561 12.0473L61.2388 12.1512ZM64.7163 28.8201C64.7163 28.8201 64.4741 28.699 64.4568 28.7336C64.3699 28.8409 64.3051 28.9645 64.2665 29.0971L64.6125 29.2183C64.6689 29.0552 64.7095 28.8871 64.7337 28.7163L64.7163 28.8201ZM59.8547 16.9632H59.4049C59.3933 17.0203 59.3933 17.0792 59.4049 17.1363H59.8547V16.9632ZM62.1385 18.5556L61.8617 18.3306C61.5157 18.0191 61.2734 18.0191 61.1177 18.3306C61.0458 18.5898 61.0109 18.8579 61.0139 19.1269L62.1039 18.6768C62.1039 18.6768 62.0693 18.6249 62.0866 18.5556H62.1385ZM61.5156 17.2574C61.7578 17.1017 61.6886 16.8766 61.5156 16.6516C61.4339 16.4303 61.3234 16.2208 61.1869 16.0285C61.1869 15.9246 60.8928 15.9246 60.7371 15.9246C60.5814 15.9246 60.616 16.0977 60.6333 16.2016C60.6506 16.3054 60.7544 16.8939 60.8409 17.3613C61.0533 17.3677 61.2649 17.3324 61.4637 17.2574H61.5156ZM60.7025 22.6926H60.4603C60.4572 22.7387 60.4572 22.785 60.4603 22.8311H60.616L60.7025 22.6926ZM62.4326 21.7752C62.4932 21.6253 62.4932 21.4577 62.4326 21.3078C62.2769 21.0828 61.9309 21.0482 61.879 21.3078C61.8529 21.4393 61.8529 21.5745 61.879 21.706C62.0347 21.9137 62.3634 21.9483 62.4153 21.7752H62.4326ZM60.4776 26.2757C60.4776 26.2757 60.2873 26.2757 60.1835 26.2757C60.0797 26.2757 60.0451 26.5007 60.0624 26.5872C60.0946 26.6316 60.136 26.6685 60.1837 26.6954C60.2315 26.7223 60.2845 26.7385 60.3392 26.743C60.3698 26.751 60.4018 26.7528 60.4332 26.7484C60.4645 26.744 60.4948 26.7335 60.5221 26.7174C60.5494 26.7013 60.5733 26.68 60.5923 26.6547C60.6114 26.6294 60.6254 26.6006 60.6333 26.5699C60.6413 26.5392 60.6431 26.5073 60.6387 26.4759C60.6343 26.4445 60.6238 26.4143 60.6077 26.3869C60.5916 26.3596 60.5703 26.3357 60.545 26.3166C60.5197 26.2975 60.491 26.2836 60.4603 26.2757H60.4776ZM60.3911 28.7336C60.2354 28.7336 60.1834 28.7336 60.27 28.9067C60.3565 29.0798 60.27 28.9067 60.4084 28.9067C60.5468 28.9067 60.4084 28.9067 60.4084 28.8028C60.4022 28.7774 60.3904 28.7538 60.3738 28.7336H60.3911ZM64.0243 17.5863C64.0243 17.6902 63.8859 17.8806 63.9205 17.9152C63.9551 17.9498 64.2319 18.1402 64.353 18.1056C64.8029 18.0191 65.2527 17.8633 66.0831 17.6036L65.0451 17.1882C64.9509 17.1451 64.8492 17.1212 64.7457 17.118C64.6422 17.1147 64.5391 17.1321 64.4425 17.1692C64.3458 17.2063 64.2575 17.2622 64.1828 17.3339C64.108 17.4055 64.0482 17.4913 64.007 17.5863H64.0243ZM65.9966 18.2441V18.3999C65.9966 18.3999 66.1004 18.3999 66.135 18.3999C66.1696 18.3999 66.135 18.3999 66.2388 18.2787L65.9966 18.2441ZM59.1973 10.3337C59.2391 10.2683 59.2739 10.1986 59.3011 10.126C59.2158 10.0002 59.1106 9.88909 58.9897 9.79708C58.9219 9.76505 58.8618 9.7187 58.8136 9.66123C58.7654 9.60375 58.7302 9.5365 58.7105 9.46412C58.6908 9.39174 58.687 9.31594 58.6993 9.24194C58.7117 9.16794 58.7399 9.0975 58.7821 9.03546C58.828 8.95646 58.88 8.88122 58.9378 8.81044L57.4153 10.0048C57.6056 10.3337 57.3115 10.8183 57.7094 11.1645L59.1973 10.3337ZM62.8478 20.0096C62.9894 20.0544 63.1339 20.0891 63.2804 20.1135V19.8712H62.7786C62.7786 19.8712 62.8132 20.0096 62.8305 20.0096H62.8478ZM63.6783 32.3859H63.834C63.8419 32.3053 63.8419 32.2241 63.834 32.1436H63.6956L63.6783 32.3859ZM62.0866 29.2356C62.0866 29.0279 61.879 28.9586 61.706 29.1144C61.6116 29.2418 61.525 29.3748 61.4465 29.5125C61.5685 29.5628 61.6964 29.5977 61.8271 29.6164C62.0347 29.5991 62.0866 29.4087 62.0693 29.2356H62.0866ZM63.6956 22.0002C63.6704 22.1434 63.6704 22.2898 63.6956 22.433C63.8144 22.4482 63.9345 22.4171 64.0311 22.3463C64.1277 22.2754 64.1934 22.1701 64.2146 22.0522C64.219 21.9986 64.2121 21.9446 64.1942 21.8939C64.1763 21.8432 64.1479 21.7968 64.1108 21.7579C63.9897 21.6367 63.7129 21.7406 63.6783 22.0002H63.6956ZM60.2354 21.4636C60.2383 21.4117 60.2383 21.3597 60.2354 21.3078C60.1254 21.2575 60.0089 21.2225 59.8893 21.204C59.8378 21.1956 59.7852 21.1956 59.7336 21.204C59.7336 21.2905 59.7336 21.4463 59.8893 21.4636C60.045 21.4809 60.0623 21.4983 60.1662 21.4636H60.2354ZM63.834 28.0585C63.4879 27.9027 63.3669 27.7816 63.2285 27.7989C63.0509 27.8084 62.8785 27.8619 62.7267 27.9547C62.7267 27.9547 62.7267 28.1278 62.7267 28.2143C62.7267 28.3009 62.8305 28.3182 62.8651 28.3009L63.834 28.0585ZM62.9689 30.2914V30.1703V30.0664V30.2914ZM64.2838 24.9601C63.8513 25.2717 63.5745 25.1505 63.2804 24.787C63.1775 24.6456 63.0406 24.5325 62.8824 24.4582C62.7234 24.4493 62.5657 24.4918 62.4326 24.5793C62.4326 24.5793 62.4326 24.8044 62.4326 24.8909C62.6285 25.1692 62.8873 25.3973 63.1879 25.5567C63.4885 25.7161 63.8225 25.8023 64.1627 25.8083C64.4741 25.8083 64.699 25.5313 64.8201 24.9774C64.699 25.0986 64.4049 24.9255 64.2665 25.0986L64.2838 24.9601ZM64.9239 24.6659C64.9156 24.7638 64.9156 24.8622 64.9239 24.9601C65.0019 24.8937 65.0716 24.8182 65.1315 24.7351C65.1315 24.7351 65.1315 24.562 65.1315 24.4755C65.1315 24.3889 64.9413 24.6486 64.9067 24.7351L64.9239 24.6659ZM60.2181 19.0749C60.1833 19.036 60.1406 19.0051 60.0929 18.9842C60.0451 18.9633 59.9934 18.9529 59.9412 18.9538C59.6585 19.0491 59.4234 19.2498 59.2848 19.5142C59.1462 19.7786 59.1149 20.0862 59.1973 20.3731C59.6817 19.9231 59.9759 19.6635 60.2354 19.3865C60.4949 19.1096 60.2527 19.2307 60.2008 19.1442L60.2181 19.0749ZM62.9689 30.5165V30.2914V30.378C62.9539 30.4461 62.9481 30.516 62.9516 30.5857L62.9689 30.5165ZM58.6956 29.4606V29.6164L59.1973 29.7029C59.1973 29.5818 59.1973 29.5125 59.1973 29.4779C59.1939 29.4438 59.1838 29.4107 59.1676 29.3805C59.1514 29.3503 59.1295 29.3236 59.103 29.3019C59.0494 29.2581 58.9806 29.2373 58.9118 29.2442C58.843 29.2511 58.7797 29.2851 58.7359 29.3386C58.6921 29.3922 58.6714 29.461 58.6783 29.5298L58.6956 29.4606ZM58.5226 43.4466C58.5226 43.4466 58.5226 43.4466 58.4361 43.5851C58.3495 43.7236 58.5226 43.5851 58.5572 43.5851C58.5918 43.5851 58.6783 43.5851 58.6783 43.5851C58.6783 43.5851 58.6437 43.4293 58.5053 43.5158L58.5226 43.4466ZM59.7509 33.2687C59.7433 33.1707 59.7433 33.0723 59.7509 32.9744L59.1281 33.1648C59.1159 33.1859 59.1096 33.2097 59.1096 33.234C59.1096 33.2584 59.1159 33.2822 59.1281 33.3033C59.1281 33.3033 59.3011 33.4764 59.3703 33.4591C59.4951 33.4308 59.6168 33.3902 59.7336 33.3379L59.7509 33.2687ZM58.6264 41.3868C58.5758 41.528 58.5353 41.6726 58.5053 41.8195H58.7475V41.3349C58.7475 41.3349 58.6264 41.4387 58.6091 41.456L58.6264 41.3868ZM62.398 41.9926H62.5364C62.5364 41.9926 62.5364 41.8888 62.5364 41.8541C62.5364 41.8195 62.4499 41.8541 62.398 41.8541C62.3861 41.9227 62.3803 41.9922 62.3807 42.0619L62.398 41.9926ZM61.7579 33.3379C61.7579 33.3379 61.879 33.5802 61.9482 33.5802C62.1646 33.5924 62.3801 33.5444 62.571 33.4418C62.6921 33.3033 62.6921 33.0263 62.7613 32.7494L62.1385 32.8532C61.879 33.009 61.6887 33.1475 61.7406 33.4418L61.7579 33.3379ZM61.2042 37.2152C61.2907 37.1114 61.2042 36.9036 61.2907 36.6959C60.7198 36.869 60.2181 37.094 59.7855 36.5401C59.721 36.4878 59.6453 36.4512 59.5642 36.4332C59.4831 36.4152 59.399 36.4162 59.3184 36.4363C59.007 36.7479 59.4568 36.7306 59.5606 36.8863L60.9447 39.0846C61.2907 38.6865 61.3599 38.4096 61.0831 38.1672C60.8063 37.9249 60.5814 37.9249 60.6852 37.6479C60.789 37.371 61.0658 37.3537 61.2042 37.2152ZM71.2388 27.0719L72.7959 25.9295C72.7959 25.9295 72.7959 25.8083 72.7959 25.7564C72.7959 25.7044 72.7094 25.6352 72.6748 25.6525C72.508 25.6357 72.3399 25.6357 72.1731 25.6525L71.4984 25.8256H71.3599C71.324 25.7308 71.324 25.6261 71.3599 25.5313C71.654 25.0121 72.2942 25.0121 72.6921 24.6659C73.0901 24.3197 72.8997 24.2678 72.6921 24.0254C72.4367 24.153 72.1703 24.2572 71.8962 24.337C71.5538 24.4143 71.2072 24.4721 70.8582 24.5101C70.7025 25.0294 70.5641 25.4794 70.443 25.8429L71.2388 27.0719ZM31.3426 34.1861C31.3426 34.1861 31.2216 34.1861 31.1178 34.1861C31.1093 34.3475 31.1093 34.5093 31.1178 34.6707H31.2735C31.3423 34.6799 31.4119 34.6614 31.4671 34.6192C31.5222 34.577 31.5584 34.5146 31.5676 34.4457C31.5767 34.3768 31.5582 34.3072 31.516 34.252C31.4739 34.1968 31.4115 34.1606 31.3426 34.1514V34.1861ZM31.3426 38.9635C31.3426 38.9635 31.4465 38.9635 31.4811 38.9635C31.5157 38.9635 31.4811 38.9635 31.5849 38.8423H31.3945L31.3426 38.9635ZM30.8063 65.5334C30.7588 65.6165 30.7184 65.7033 30.6852 65.7931C30.6852 65.7931 30.8063 65.7931 30.8236 65.7931C30.8711 65.71 30.9116 65.6232 30.9448 65.5334C30.9448 65.5334 30.7717 65.4815 30.7544 65.4988L30.8063 65.5334ZM31.9482 35.1035C31.9482 34.9477 31.9482 34.8957 31.7925 34.9823C31.6368 35.0688 31.7925 35.0688 31.706 35.1208C31.6195 35.1727 31.7925 35.1208 31.8271 35.1208C31.8617 35.1208 31.8963 35.1035 31.8963 35.0688L31.9482 35.1035ZM27.5191 61.9331C27.5191 61.9331 27.5191 62.0542 27.5191 62.0889L27.8998 62.3658V62.2273C27.799 62.1092 27.6891 61.9992 27.571 61.8985C27.571 61.8985 27.5018 61.8812 27.4672 61.8985L27.5191 61.9331ZM33.6091 29.0452C33.6172 28.9646 33.6172 28.8834 33.6091 28.8028L33.315 29.0452C33.3967 29.0425 33.4779 29.0309 33.5572 29.0105L33.6091 29.0452ZM33.315 35.2419C33.315 35.2419 33.315 35.2419 33.2284 35.3458C33.1419 35.4496 33.2285 35.467 33.3323 35.4843C33.4361 35.5016 33.5399 35.4843 33.4534 35.3112C33.4343 35.278 33.4064 35.2508 33.3729 35.2324C33.3393 35.2141 33.3013 35.2054 33.2631 35.2073L33.315 35.2419ZM31.8444 59.1982C31.8444 59.1982 31.7233 59.3713 31.6714 59.4578C31.6195 59.5444 31.7579 59.4578 31.8098 59.4578C31.9249 59.4675 32.0407 59.4675 32.1558 59.4578C32.1558 59.4578 32.1558 59.302 32.1558 59.2847C32.0555 59.1979 31.9248 59.1543 31.7925 59.1636L31.8444 59.1982ZM28.7129 41.6984C28.6617 41.7422 28.6207 41.7967 28.5925 41.8579C28.5644 41.9192 28.5498 41.9858 28.5498 42.0532C28.5498 42.1206 28.5644 42.1872 28.5925 42.2485C28.6207 42.3097 28.6617 42.3642 28.7129 42.408C28.8891 42.3779 29.0522 42.2959 29.1817 42.1726C29.3111 42.0493 29.4009 41.8902 29.4396 41.7157C29.3992 41.6574 29.3456 41.6095 29.2832 41.5759C29.2209 41.5423 29.1515 41.5239 29.0806 41.5222C29.0098 41.5205 28.9396 41.5356 28.8757 41.5662C28.8118 41.5968 28.756 41.6421 28.7129 41.6984ZM25.2527 65.6373C25.141 65.7594 25.0424 65.8928 24.9586 66.0354L25.443 66.2258C25.4565 66.053 25.4565 65.8794 25.443 65.7065C25.443 65.7065 25.3565 65.6027 25.2527 65.6373ZM25.9794 59.1463C25.9794 59.1463 25.9794 59.3713 26.0832 59.4232C26.131 59.449 26.1845 59.4624 26.2389 59.4624C26.2932 59.4624 26.3467 59.449 26.3946 59.4232C26.4964 59.3706 26.5866 59.2979 26.6596 59.2095C26.7326 59.1211 26.7869 59.0188 26.8192 58.9087C26.8516 58.7987 26.8613 58.6833 26.8478 58.5694C26.8343 58.4555 26.7978 58.3456 26.7406 58.2462C26.533 58.5404 26.2735 58.8347 26.0313 59.1463H25.9794ZM26.7579 57.9865V58.1942C26.7847 58.1277 26.8021 58.0578 26.8098 57.9865H26.7579ZM28.9205 38.5653C28.9205 38.5653 28.7994 38.3749 28.7129 38.3403C28.2285 38.1672 28.0554 38.3403 27.6056 38.9288C27.9565 38.9636 28.3101 38.9636 28.661 38.9288C28.8167 38.9462 28.9205 38.7038 28.9724 38.5653H28.9205ZM15.443 42.9446V43.3428C16.2215 43.3428 16.2216 43.3428 16.8444 42.5984L16.3254 42.2523L15.443 42.9446ZM29.2838 35.3112H29.4223C29.4381 35.2312 29.4381 35.1488 29.4223 35.0688H29.2838V35.3112ZM27.6576 64.1833C27.5711 64.1833 27.45 64.1833 27.3288 64.1833C27.2077 64.1833 27.0866 64.7545 27.2423 64.8237C27.2906 64.8481 27.3439 64.8608 27.398 64.8608C27.4521 64.8608 27.5054 64.8481 27.5537 64.8237C27.917 64.5468 27.9517 64.2872 27.7441 64.1833H27.6576ZM57.6921 20.9097C57.7351 20.9311 57.7825 20.9422 57.8305 20.9422C57.8785 20.9422 57.9259 20.9311 57.9689 20.9097C58.0088 20.8757 58.0403 20.8332 58.0613 20.7852C58.0823 20.7372 58.0921 20.6851 58.0901 20.6328C58.1097 20.5906 58.1184 20.5441 58.1154 20.4976C58.1124 20.4511 58.0976 20.4062 58.0726 20.3669C58.0476 20.3276 58.0131 20.2953 57.9723 20.2729C57.9315 20.2505 57.8857 20.2387 57.8392 20.2387C57.7926 20.2387 57.7468 20.2505 57.706 20.2729C57.6652 20.2953 57.6307 20.3276 57.6057 20.3669C57.5807 20.4062 57.566 20.4511 57.563 20.4976C57.5599 20.5441 57.5686 20.5906 57.5883 20.6328C57.5951 20.6887 57.6162 20.742 57.6496 20.7875C57.6829 20.833 57.7273 20.8691 57.7786 20.8924L57.6921 20.9097ZM57.7959 24.3716C57.9297 24.2886 58.0283 24.1592 58.0727 24.0081C58.0727 23.8177 57.8824 23.7139 57.7267 23.8523C57.611 23.9774 57.5121 24.1171 57.4326 24.2678C57.6748 24.3197 57.8132 24.4235 57.8824 24.3716H57.7959ZM18.1074 52.7937H18.2458C18.2458 52.7937 18.2458 52.6725 18.2458 52.6379H18.1247L18.1074 52.7937ZM55.5814 26.8815C55.5814 26.8815 55.5814 26.8815 55.5814 26.9853V26.8296C55.5924 26.8617 55.6101 26.8912 55.6333 26.9161L55.5814 26.8815ZM33.9032 32.3166C33.9032 32.3166 33.9032 32.3166 34.007 32.4205C34.0145 32.3515 34.0145 32.2818 34.007 32.2128H33.8686C33.8686 32.2128 33.7994 32.282 33.9032 32.3166ZM56.3945 17.7248C56.7752 18.1922 56.7925 18.1921 58.1246 17.9498C58.2458 17.4998 58.3496 17.067 58.4534 16.6343C57.6056 16.5997 57.6056 16.5997 56.2734 17.7248H56.3945ZM17.398 60.2714C17.398 60.2714 17.398 60.4618 17.2942 60.5656C17.1904 60.6695 17.5191 60.7214 17.6056 60.7041C17.6921 60.6868 17.7613 60.531 17.7786 60.4445C17.7743 60.4024 17.759 60.3622 17.7343 60.3279C17.7097 60.2935 17.6764 60.2662 17.6379 60.2487C17.5995 60.2312 17.5571 60.2241 17.515 60.2281C17.4729 60.2321 17.4326 60.247 17.398 60.2714ZM7.19043 56.948C7.19043 56.948 7.19043 56.948 7.19043 57.0518C7.19043 57.1557 7.31157 57.0518 7.32887 57.0518C7.34617 57.0518 7.32885 56.8441 7.20775 56.896C7.20047 56.9128 7.19466 56.9302 7.19043 56.948ZM17.7267 49.453H17.8824V49.3318C17.8025 49.316 17.7202 49.316 17.6403 49.3318C17.66 49.378 17.6895 49.4193 17.7267 49.453ZM7.95168 50.0069C7.97077 50.0431 7.9994 50.0735 8.03447 50.0946C8.06953 50.1158 8.10968 50.127 8.15062 50.127C8.19157 50.127 8.23177 50.1158 8.26683 50.0946C8.3019 50.0735 8.33053 50.0431 8.34962 50.0069C8.34962 50.0069 8.34962 49.8165 8.34962 49.7126C8.34962 49.6088 8.12468 49.5915 8.05548 49.6261C7.99932 49.6698 7.95883 49.7305 7.94012 49.7992C7.9214 49.8678 7.92547 49.9407 7.95168 50.0069ZM12.5364 49.1068C12.5364 49.1068 12.5365 49.1068 12.3981 49.1068V49.3664H12.5364C12.5364 49.3664 12.5537 49.1414 12.5364 49.1068ZM8.86863 53.2611H9.31847V53.1572C9.1684 53.1035 9.01065 53.0743 8.85131 53.0706L8.86863 53.2611ZM12.4326 53.5034C12.4326 53.5034 12.4326 53.6072 12.4326 53.7284H12.9171C12.9171 53.7284 12.9171 53.6072 12.9171 53.5726C12.9065 53.52 12.8799 53.4719 12.8409 53.435C12.8019 53.3981 12.7524 53.3742 12.6993 53.3666C12.6462 53.3591 12.592 53.3681 12.5443 53.3926C12.4965 53.4171 12.4575 53.4558 12.4326 53.5034ZM20.2354 64.0448C20.2354 64.0448 20.2354 64.2525 20.2354 64.3564H20.3911C20.4412 64.2523 20.4762 64.1415 20.4949 64.0275C20.4949 64.0275 20.4949 63.9237 20.4949 63.8717C20.4949 63.8198 20.2527 63.9756 20.2354 64.0448ZM69.9931 -6.10352e-05L66.0139 3.11563C66.0769 3.15785 66.1234 3.22054 66.1454 3.29309C66.1675 3.36564 66.1638 3.4436 66.135 3.51375C66.0485 3.82532 66.0312 4.3273 65.9101 4.63887C65.7352 4.54207 65.5878 4.40228 65.4819 4.23268C65.3759 4.06308 65.3149 3.86927 65.3046 3.66954L64.3876 4.37922C64.3621 4.43653 64.3199 4.48479 64.2665 4.5177H64.1454L62.4153 5.86783C62.655 6.18417 62.7991 6.5626 62.8305 6.95833C62.4845 6.95833 62.1558 6.95833 61.8444 6.95833C61.5329 6.95833 61.2907 7.16605 61.1869 7.77188C61.2466 7.71064 61.3179 7.66197 61.3966 7.62874C61.4754 7.5955 61.5599 7.57838 61.6454 7.57838C61.7309 7.57838 61.8155 7.5955 61.8942 7.62874C61.9729 7.66197 62.0442 7.71064 62.1039 7.77188C62.2617 7.93908 62.4671 8.05386 62.6921 8.10075C62.9435 8.06889 63.1885 7.99884 63.4188 7.89304C63.4188 8.23923 63.4188 8.5508 63.4188 8.9143C63.6743 9.05068 63.9654 9.10553 64.2531 9.0715C64.5407 9.03746 64.811 8.91616 65.0277 8.72389C65.604 9.23451 65.9937 9.92279 66.135 10.6799C66.5503 10.9568 66.8616 10.6799 67.1904 10.6799C67.4782 10.6115 67.7614 10.5248 68.0382 10.4202C68.1247 10.6799 68.1938 10.9395 68.2803 11.1818C68.6364 10.7844 69.0577 10.4508 69.526 10.1952C69.526 10.299 69.526 10.3683 69.526 10.4029C69.4414 10.4882 69.3776 10.5919 69.3397 10.706C69.3018 10.8201 69.2908 10.9413 69.3075 11.0604C69.3243 11.1794 69.3683 11.2929 69.4363 11.3921C69.5042 11.4912 69.5941 11.5733 69.699 11.6319L70.3046 12.0819L69.7336 12.9474C69.8141 13.029 69.8893 13.1157 69.9585 13.207C70.0687 13.3327 70.1512 13.4802 70.2008 13.6398C70.1982 13.6992 70.1811 13.7572 70.1509 13.8085C70.1208 13.8598 70.0785 13.9029 70.0278 13.934C68.8859 14.4014 67.744 15.0591 66.481 14.211C66.481 14.211 66.2562 14.211 66.1523 14.211C66.1755 14.3106 66.2044 14.4089 66.2388 14.5052C66.2388 14.661 66.4464 14.8168 66.4291 14.9553C66.4118 15.0938 66.2388 15.6477 66.1869 15.9939C66.1369 16.1645 66.1417 16.3465 66.2007 16.5142C66.2596 16.682 66.3698 16.8269 66.5157 16.9286C66.706 17.067 66.6887 17.4478 66.7752 17.7248C66.852 17.7233 66.9277 17.7053 66.997 17.672C67.0663 17.6387 67.1277 17.5909 67.1769 17.5318C67.2261 17.4727 67.2621 17.4037 67.2823 17.3295C67.3026 17.2553 67.3066 17.1776 67.2942 17.1017C67.2262 16.7097 67.1338 16.3223 67.0174 15.9419C67.0888 15.8302 67.1991 15.749 67.3269 15.7138C67.4546 15.6787 67.5909 15.6921 67.7094 15.7515C67.8776 15.8099 68.0569 15.8294 68.2337 15.8084C68.4105 15.7874 68.5803 15.7265 68.7302 15.6304C69.1627 15.3361 69.5087 15.6304 70.0104 15.8034C69.6745 15.9552 69.3649 16.1598 69.0935 16.4093C68.6437 17.119 68.2803 17.8633 67.8997 18.6076C67.7275 18.9733 67.5774 19.349 67.4499 19.7327L66.4291 20.0096C66.5156 20.5116 66.8444 20.6155 67.225 20.6501C67.7959 20.0789 68.4188 20.4943 68.9551 20.5462H69.4568C69.7336 20.3558 69.6644 20.1308 69.6471 19.8885C69.6298 19.6461 69.8894 19.1269 69.2319 19.248C69.0935 18.8845 68.9378 18.521 68.7821 18.1402C69.3876 17.8806 69.3357 17.1363 69.9412 16.9805H70.2354C70.443 17.3094 70.6333 17.6729 70.8409 18.0191C70.7796 18.3098 70.8099 18.6124 70.9276 18.8852C71.0453 19.158 71.2448 19.3876 71.4984 19.5423C71.8098 19.7327 71.654 20.2347 71.308 20.4078C70.962 20.5809 70.097 20.5635 69.7683 21.204C69.7683 21.2905 69.4395 21.204 69.2838 21.204C68.8167 21.3598 68.4015 21.1001 67.9343 20.979C68.0626 21.2521 68.1668 21.5359 68.2458 21.8271C68.2777 21.9775 68.2634 22.1341 68.2047 22.2762C68.1461 22.4183 68.0458 22.5394 67.917 22.6234C67.6748 22.7791 67.3807 22.8484 67.1212 23.0042C66.8617 23.16 66.9136 23.2638 66.7233 23.5061C67.0278 23.5779 67.3453 23.5728 67.6473 23.4912C67.9494 23.4096 68.2264 23.2542 68.4534 23.0388C68.8642 22.5205 69.4368 22.1549 70.0797 22.0002L70.7025 22.5541C70.9888 21.4946 71.6224 20.562 72.5018 19.9058C72.5883 20.1135 72.7613 20.3385 72.744 20.5462C72.6543 20.9287 72.5387 21.3046 72.398 21.6713C72.6748 22.4157 73.3841 22.433 73.8513 22.7791C74.3184 23.1253 74.1281 23.2119 74.1627 23.5061C74.1973 23.8004 74.4741 23.9562 74.6817 24.2331C73.8859 24.787 74.2665 25.9641 73.488 26.5353C74.007 26.5353 74.18 26.1891 74.4568 25.9814L75.2181 25.3583C75.5995 25.4184 75.9591 25.5758 76.2621 25.8153C76.5651 26.0548 76.8014 26.3683 76.9482 26.7257C77.4018 26.656 77.8342 26.4862 78.2142 26.2288C78.5942 25.9713 78.9123 25.6326 79.1454 25.2371C79.2266 25.1515 79.327 25.0864 79.4383 25.0473C79.5496 25.0082 79.6686 24.9961 79.7855 25.0121C80.3045 25.4621 80.616 25.0986 80.9793 24.8217C80.9793 24.8217 81.1004 24.8217 81.1869 24.8217C81.5156 25.566 81.0831 26.1891 80.8755 26.8469C80.3218 26.8469 80.2527 26.2064 79.9239 25.9122C79.8508 25.8781 79.7711 25.8604 79.6904 25.8604C79.6097 25.8604 79.5299 25.8781 79.4568 25.9122C79.3785 25.9445 79.3084 25.994 79.2515 26.0568C79.1946 26.1197 79.1525 26.1945 79.1281 26.2757C79.0243 26.7257 79.353 27.1931 79.1281 27.6258L79.8547 28.1624C79.8547 28.5086 79.6125 28.6817 79.3703 28.8374C79.1281 28.9932 78.9897 28.7163 78.7994 28.647C78.6091 28.5778 78.2976 28.647 78.1073 28.647C77.6381 28.3993 77.1922 28.1096 76.7751 27.7816C76.4887 27.4982 76.2334 27.1848 76.0139 26.8469C75.4949 27.0373 75.4949 26.5007 75.1662 26.2757C75.0684 26.4024 74.9517 26.5133 74.8201 26.6045C74.4914 26.7603 74.18 26.8988 74.1973 27.3488C74.2146 27.7989 74.4568 27.8335 74.699 28.0066C74.7626 28.0445 74.8138 28.1 74.8463 28.1666C74.8788 28.2331 74.8912 28.3076 74.8821 28.3811C74.8729 28.4546 74.8425 28.5238 74.7946 28.5802C74.7467 28.6367 74.6835 28.6779 74.6125 28.699C74.1454 28.9067 73.6783 29.3394 73.1419 28.8374C73.1419 28.8374 72.7786 28.8375 72.6921 28.9759C72.6056 29.1144 72.571 29.3914 72.6921 29.4606C72.8493 29.5925 72.9631 29.7688 73.0186 29.9664C73.0742 30.164 73.0689 30.3738 73.0035 30.5684C72.8997 31.0011 73.0035 31.0184 73.6264 32.1262C74.4222 32.1262 74.2492 31.1915 74.7336 30.88C74.6767 30.6493 74.6908 30.4069 74.7742 30.1844C74.8576 29.962 75.0063 29.77 75.2007 29.6337C75.8409 29.3221 75.6333 28.8894 75.5814 28.4047C75.8904 28.2637 76.2416 28.246 76.5632 28.3554C76.8847 28.4648 77.1524 28.693 77.3115 28.9932C77.4325 29.1257 77.5004 29.2984 77.5018 29.4779C77.5018 29.7548 77.1731 29.7375 76.9308 29.651C76.753 29.6247 76.5723 29.6247 76.3945 29.651C76.0831 29.651 75.9793 29.8241 75.8928 30.4818C76.6886 30.9492 77.7613 30.3261 78.5052 30.9665C78.5052 31.1223 78.5052 31.1915 78.5052 31.2262C77.9343 31.7281 77.1039 31.7627 76.6368 32.5244C76.202 33.0891 75.696 33.5953 75.1315 34.0303L75.7544 34.4976L77.2769 33.3206C77.2769 33.3206 77.1731 33.3206 77.1731 33.2167C77.1731 33.1129 77.2768 32.8186 77.3461 32.6109H77.5018C77.5018 32.8013 77.5018 32.9917 77.5018 33.1648L82.3807 29.3567C82.2555 29.4394 82.1222 29.509 81.9828 29.5644C81.8372 29.6159 81.6785 29.6159 81.5329 29.5644C81.3426 29.5644 81.4291 29.1663 81.654 28.9759C81.7821 28.8514 81.9279 28.7464 82.0866 28.6644C82.6748 28.4393 83.3322 28.3355 83.6956 27.7296C83.8626 27.7851 84.0246 27.8546 84.18 27.9374L88.7994 24.337L69.9931 -6.10352e-05ZM64.0243 6.40443L64.2838 6.04093C64.3341 6.02238 64.3893 6.02238 64.4395 6.04093C64.5509 6.0462 64.6586 6.08214 64.7509 6.14479C64.7509 6.14479 64.7509 6.31788 64.7509 6.42174C64.7509 6.52559 64.5779 6.61214 64.4914 6.61214C64.3267 6.58246 64.1686 6.52386 64.0243 6.43905V6.40443ZM65.9101 8.13537C65.6109 8.30964 65.2986 8.46011 64.9758 8.58541C64.872 8.25654 64.7855 7.92766 64.6471 7.46031C65.0969 7.46031 65.443 7.4603 65.789 7.56416C65.8785 7.54809 65.9706 7.56825 66.0453 7.62018C66.1199 7.67212 66.1709 7.75159 66.1869 7.84111C66.203 7.93063 66.1828 8.02287 66.1309 8.09753C66.079 8.17219 65.9996 8.22316 65.9101 8.23922V8.13537ZM65.9101 5.81591C65.868 5.7795 65.8379 5.73124 65.8236 5.67743C65.8236 5.67743 65.8236 5.57358 65.8236 5.57358C65.8684 5.55774 65.9172 5.55774 65.962 5.57358C66.135 5.88515 66.0831 5.95438 65.9274 5.91976L65.9101 5.81591ZM67.1039 9.86631C66.9718 9.88414 66.838 9.88414 66.7059 9.86631L66.7752 9.52013C66.9062 9.56247 67.0291 9.62686 67.1385 9.71053C67.1385 9.71053 67.1385 9.97017 67.1212 9.97017L67.1039 9.86631ZM66.8444 5.6082C66.8065 5.53614 66.7867 5.45594 66.7867 5.37452C66.7867 5.2931 66.8065 5.2129 66.8444 5.14084C66.8817 5.09702 66.9281 5.06182 66.9804 5.03769C67.0327 5.01356 67.0896 5.00106 67.1471 5.00106C67.2047 5.00106 67.2616 5.01356 67.3139 5.03769C67.3661 5.06182 67.4126 5.09702 67.4499 5.14084C67.5537 5.14084 67.5883 5.38317 67.6402 5.48702C67.6921 5.59088 67 5.90245 66.8616 5.71205L66.8444 5.6082ZM74.1627 30.0145L73.6956 30.2914C73.7024 30.1877 73.7024 30.0836 73.6956 29.9799H74.1281C74.1517 30.0234 74.1692 30.07 74.18 30.1183L74.1627 30.0145ZM80.4776 29.5298H80.3218V29.3567H80.4776C80.4776 29.3567 80.5122 29.5644 80.4949 29.6337L80.4776 29.5298ZM80.9447 27.0719C80.9447 27.0719 80.8063 27.1931 80.7198 27.245C80.6333 27.2969 80.7198 27.0719 80.7198 27.0026C80.7797 26.9196 80.8494 26.8441 80.9274 26.7776C80.9542 26.9086 80.9659 27.0421 80.962 27.1757L80.9447 27.0719ZM80.9447 14.6264C80.8125 14.8464 80.662 15.0548 80.4949 15.2495C80.364 15.3477 80.2252 15.4346 80.0797 15.5092C80.1143 15.0938 80.4603 15.0072 80.9966 14.713L80.9447 14.6264ZM79.6644 20.6155C79.8375 20.6155 79.8893 20.6155 79.7855 20.7713C79.6817 20.927 79.699 20.7713 79.6471 20.7713C79.5952 20.7713 79.5606 20.7713 79.6471 20.6674C79.6746 20.6778 79.6986 20.6958 79.7163 20.7193L79.6644 20.6155ZM77.6575 13.9686C77.6575 13.9686 77.744 14.211 77.6575 14.2283C77.5338 14.2877 77.4067 14.3397 77.2769 14.3841C77.2769 14.2283 77.2769 14.1244 77.1731 14.0206C77.3535 14.0098 77.5344 14.0273 77.7094 14.0725L77.6575 13.9686ZM76.8616 18.573L79.5952 17.9844C79.0524 18.5944 78.4748 19.1723 77.8651 19.7154L76.9308 18.6595L76.9135 18.6768L76.8616 18.573ZM77.9516 24.4755C77.9591 24.5097 77.9591 24.5451 77.9516 24.5793V24.3716C77.9756 24.4 77.9928 24.4334 78.0018 24.4694C78.0108 24.5054 78.0113 24.543 78.0035 24.5793L77.9516 24.4755ZM76.654 10.6279V11.7357L75.7198 12.03C75.962 11.6146 75.9793 11.0607 76.7059 10.8183L76.654 10.6279ZM76.4464 19.6288C76.455 19.7036 76.455 19.7791 76.4464 19.8539H76.2907V19.6981L76.4464 19.6288ZM74.2319 19.1442C74.0724 19.1201 73.9159 19.0795 73.7648 19.023C73.893 18.9259 74.0324 18.8445 74.18 18.7807C74.2875 18.7775 74.3924 18.8145 74.4741 18.8845C74.6644 19.1788 74.5087 19.3519 74.2838 19.3346L74.2319 19.1442ZM74.1281 16.3747C73.9724 16.3747 73.7994 16.3747 73.3495 16.5478C73.531 16.342 73.734 16.1563 73.9551 15.9939C73.9998 15.968 74.0505 15.9544 74.1021 15.9544C74.1537 15.9544 74.2045 15.968 74.2492 15.9939C74.4741 16.4439 74.3357 16.4439 74.18 16.5651L74.1281 16.3747ZM73.2111 9.52013C73.2111 9.52013 73.4361 9.52013 73.4361 9.67591C73.4361 9.83169 73.436 9.88362 73.3495 9.98748L73.09 9.8317C73.1228 9.72506 73.1633 9.62093 73.2111 9.52013ZM72.7267 5.64281H72.6056H72.5018H72.7267ZM72.7267 12.3935V12.5147C72.7267 12.5147 72.6229 12.5147 72.571 12.5147V12.3762L72.7267 12.3935ZM72.2596 10.3683C72.2596 10.3683 72.2596 10.576 72.2596 10.6799C72.2596 10.7837 72.0173 10.6799 71.9481 10.6799C71.8789 10.6799 71.9482 10.2817 72.0347 10.2644C72.1256 10.2675 72.212 10.3046 72.2769 10.3683H72.2596ZM71.7924 5.55626H71.9136H71.6886H71.7924ZM71.2734 11.7877C71.4778 11.7117 71.6964 11.6821 71.9136 11.7011C71.9393 11.7975 71.9393 11.899 71.9136 11.9954C71.8552 12.09 71.7855 12.1772 71.706 12.255C71.706 12.5147 71.706 12.757 71.4465 12.7397C71.3415 12.7178 71.2437 12.6698 71.1621 12.6003C71.0805 12.5307 71.0176 12.4418 70.9793 12.3416C70.9818 12.2308 71.0115 12.1223 71.0658 12.0257C71.1201 11.9291 71.1973 11.8473 71.2907 11.7877H71.2734ZM71.4118 13.8475C71.418 13.8934 71.418 13.94 71.4118 13.986C71.2561 14.0725 71.1869 13.986 71.2388 13.8648C71.2833 13.8474 71.3327 13.8474 71.3772 13.8648C71.3772 13.8648 71.3945 13.8129 71.4291 13.8475H71.4118ZM70.9966 6.61214H71.1177C71.1177 6.61214 71.1177 6.61214 71.1177 6.75062H70.9793L70.9966 6.61214ZM67.9689 10.3164V10.0913C67.9689 10.0913 67.9689 10.0913 67.9689 10.1952V10.3164ZM68.263 8.03151C68.1957 7.95805 68.1377 7.87668 68.0901 7.78918C68.0901 7.78918 68.0901 7.6334 68.0901 7.54685C68.0901 7.4603 68.2631 7.65071 68.2977 7.73726C68.3211 7.83394 68.3211 7.93483 68.2977 8.03151H68.263ZM68.263 2.11169C68.263 2.11169 68.1073 2.11169 68.0208 2.11169C67.9343 2.11169 68.0208 1.73088 68.1073 1.71358C68.1938 1.69627 68.315 1.71358 68.4188 1.71358C68.5226 1.71358 68.3496 2.07707 68.2458 2.11169H68.263ZM69.6471 0.848101C69.6784 0.801307 69.7193 0.761685 69.767 0.731848C69.8147 0.70201 69.8682 0.682636 69.924 0.675006C70.0278 0.675006 70.2699 0.882718 70.3737 0.917337C70.4575 0.989506 70.5329 1.07078 70.5987 1.15967C70.1834 1.88666 68.8686 3.0637 69.1454 2.89061C68.9378 2.56173 68.6264 2.00783 68.436 1.66164C68.6855 1.63881 68.9254 1.55403 69.1339 1.41499C69.3423 1.27595 69.5128 1.08704 69.6298 0.86541L69.6471 0.848101ZM69.0935 6.73331C69.0935 6.73331 69.007 6.73331 68.9551 6.73331C68.9032 6.73331 68.9551 6.73331 68.9551 6.62945C68.9694 6.57565 68.9995 6.52739 69.0416 6.49097C69.1281 6.50828 69.18 6.57752 69.0762 6.73331H69.0935ZM69.8547 9.43358C69.6644 9.31241 69.4914 9.26048 69.4222 9.13932C69.3783 8.99841 69.3783 8.84748 69.4222 8.70658C69.4222 8.70658 69.526 8.60272 69.5433 8.62003C69.5606 8.63734 69.8374 8.75851 69.8893 8.87968C69.9172 9.09444 69.8995 9.31267 69.8374 9.52013L69.8547 9.43358ZM69.8547 5.7986C69.648 5.7374 69.4457 5.66222 69.2492 5.57358C69.2595 5.42623 69.2886 5.2808 69.3357 5.14084C69.5606 4.65618 69.8894 4.5177 70.2527 4.82927C70.4131 4.98374 70.5063 5.19514 70.5122 5.41779C70.4257 5.66012 70.0624 5.85052 69.7509 5.7986H69.8547ZM70.7198 10.6625H70.443C70.4237 10.3802 70.4237 10.0968 70.443 9.81438C70.5987 9.81438 70.7544 9.81438 70.789 9.81438C70.8366 9.88035 70.87 9.95546 70.8871 10.035C70.9041 10.1145 70.9046 10.1967 70.8883 10.2764C70.8721 10.3561 70.8395 10.4316 70.7926 10.498C70.7457 10.5645 70.6856 10.6205 70.616 10.6625H70.7198ZM70.8928 18.0883L71.3946 17.6209C71.308 18.1748 71.2907 18.1748 70.789 18.1748L70.8928 18.0883ZM71.4118 17.5863C71.3591 17.4844 71.3296 17.3721 71.3253 17.2574C71.4464 16.3227 71.6021 15.388 71.7405 14.4533C71.7405 14.4533 71.7406 14.3668 71.8617 14.3148L73.0554 14.938L73.5744 14.3668C73.9897 14.3668 74.1281 14.7476 74.3011 15.0072C74.4741 15.2669 74.3011 15.3361 74.1627 15.3534C73.1026 15.9474 72.1399 16.7004 71.308 17.5863H71.4118ZM72.6056 19.9404C72.4326 19.6981 72.225 19.473 72.4672 19.1615C72.554 19.0432 72.6808 18.9604 72.824 18.9286C72.9672 18.8968 73.117 18.918 73.2457 18.9884H73.4014L73.8858 19.1615L72.6056 19.9404ZM73.9032 22.0695L73.3149 21.429C73.8167 20.0616 73.8167 20.0616 75.2354 19.8192C74.7337 20.6155 74.7336 21.6367 73.7994 22.0695H73.9032ZM75.2181 22.3983C75.1542 22.3575 75.1017 22.3012 75.0654 22.2346C75.0291 22.168 75.0102 22.0934 75.0105 22.0175C75.0326 21.7821 75.1306 21.5602 75.2898 21.3854C75.4489 21.2105 75.6605 21.0922 75.8928 21.0482C75.8282 21.4565 75.7416 21.861 75.6333 22.2599C75.5715 22.3336 75.4885 22.3864 75.3956 22.4112C75.3027 22.436 75.2045 22.4315 75.1143 22.3983H75.2181ZM76.7232 24.3716C76.6289 24.5207 76.4895 24.6359 76.3253 24.7005C76.1177 24.7005 75.8236 24.8217 75.7371 24.562C75.6846 24.3752 75.6846 24.1776 75.7371 23.9908C75.8624 23.8835 76.022 23.8246 76.1869 23.8246C76.3519 23.8246 76.5114 23.8835 76.6368 23.9908C76.6813 24.1151 76.675 24.2519 76.6194 24.3716H76.7232ZM76.8963 21.2905C76.8963 21.2905 76.7405 21.2905 76.654 21.2905C76.5675 21.2905 76.7752 21.1174 76.8444 21.1001C76.9136 21.0828 77.0519 21.1001 77.1385 21.1001C77.0414 21.1923 76.9222 21.2579 76.7925 21.2905H76.8963ZM77.1731 21.1001C77.4326 20.702 77.6921 20.2866 77.9689 19.8885C78.0035 20.1586 78.0035 20.4319 77.9689 20.702C77.9515 20.7878 77.9147 20.8684 77.8612 20.9377C77.8077 21.0069 77.739 21.063 77.6604 21.1015C77.5818 21.1399 77.4954 21.1598 77.4079 21.1596C77.3204 21.1594 77.2342 21.139 77.1558 21.1001H77.1731ZM78.4014 25.7391C78.3063 25.8242 78.1831 25.8713 78.0554 25.8713C77.9277 25.8713 77.8046 25.8242 77.7094 25.7391C77.8305 25.4448 77.9343 25.1159 78.0554 24.8044C78.1796 24.9229 78.2953 25.0502 78.4014 25.1852C78.436 25.3063 78.5572 25.5487 78.2976 25.7391H78.4014ZM78.6783 23.1946C78.5536 23.122 78.4621 23.0036 78.4233 22.8646C78.3845 22.7256 78.4015 22.5769 78.4707 22.4503C78.5263 22.3448 78.6187 22.2636 78.7304 22.222C78.8421 22.1805 78.9652 22.1817 79.0762 22.2252C79.5087 22.3983 79.9239 22.6061 80.3737 22.7791C80.6098 22.7986 80.847 22.7986 81.0831 22.7791C80.7945 23.1524 80.3756 23.4026 79.9103 23.4796C79.445 23.5567 78.9678 23.4549 78.5745 23.1946H78.6783ZM80.2873 20.0269C80.2873 19.8712 80.2873 19.6981 80.4084 19.6981L81.9309 19.4557C81.3599 20.2174 80.7717 20.0962 80.1834 20.0269H80.2873ZM83.8513 26.6045C83.7648 26.6045 83.7129 26.4487 83.488 26.1545C84.1191 26.1359 84.7268 25.9109 85.2181 25.514C85.2422 25.5019 85.2688 25.4955 85.2959 25.4955C85.3229 25.4955 85.3496 25.5019 85.3738 25.514C85.3901 25.5706 85.3901 25.6306 85.3738 25.6871C85.3594 25.8711 85.2999 26.0487 85.2007 26.2043C85.1015 26.3599 84.9656 26.4887 84.805 26.5794C84.6443 26.67 84.4638 26.7197 84.2794 26.7241C84.0949 26.7285 83.9123 26.6874 83.7475 26.6045H83.8513ZM73.834 34.74C73.9897 35.0342 74.0935 35.3112 74.2146 35.5535L74.8893 35.0342V34.7746C74.863 34.598 74.8826 34.4177 74.9463 34.2509C75.0099 34.0842 75.1154 33.9366 75.2526 33.8226C74.3184 33.7533 74.1108 34.3072 73.6956 34.74H73.834ZM60.2873 9.15663C60.2873 9.36434 60.4776 9.32972 60.8236 9.15663C60.945 9.04965 61.086 8.96734 61.2388 8.9143C61.6367 8.7412 61.7059 8.67196 61.5675 8.34308C61.4973 8.18586 61.404 8.04001 61.2907 7.91035C60.9797 8.18105 60.6851 8.47006 60.4084 8.77582C60.2893 8.87383 60.2045 9.0072 60.1662 9.15663H60.2873ZM71.5503 12.2031H71.7752H71.6713C71.6713 12.2031 71.5329 12.2204 71.481 12.2377L71.5503 12.2031ZM79.1973 27.5392C79.0753 27.3742 78.9033 27.253 78.7069 27.1937C78.5105 27.1345 78.3001 27.1403 78.1073 27.2104C78.0157 27.2765 77.9536 27.3759 77.9343 27.4873C77.9363 27.545 77.9513 27.6014 77.9783 27.6524C78.0053 27.7033 78.0435 27.7475 78.09 27.7816C78.2642 27.8537 78.4558 27.8725 78.6406 27.8355C78.8254 27.7985 78.9951 27.7074 79.1281 27.5739L79.1973 27.5392ZM73.4361 33.0263C73.2902 33.0764 73.1612 33.166 73.0635 33.2852C72.9657 33.4045 72.903 33.5486 72.8824 33.7014L74.3184 33.511C73.6955 32.9917 73.5572 32.9398 73.3668 33.0609L73.4361 33.0263ZM70.7198 19.9058C70.7198 19.9058 70.7198 19.9058 70.5987 19.9058C70.4776 19.9058 70.4776 19.9058 70.4776 20.0096C70.4776 20.1135 70.4776 20.2 70.6333 20.1135C70.789 20.0269 70.6852 19.9923 70.7198 19.9058ZM75.0277 31.6762H74.9067H75.1315H75.0277ZM75.6679 32.1262C75.815 32.1676 75.9706 32.1676 76.1177 32.1262C76.1177 32.1262 76.1177 32.0051 76.1177 31.9878C76.1177 31.9705 75.9101 31.6935 75.789 31.6589C75.5654 31.6247 75.3379 31.6247 75.1143 31.6589C75.2797 31.8669 75.4651 32.0582 75.6679 32.2301V32.1262ZM67.3115 12.982C67.3115 13.0859 67.5537 13.1551 67.7094 13.1897C67.8651 13.2243 67.9516 13.0686 67.9516 13.0166C67.9516 12.6185 67.9516 12.2377 67.9516 11.8396C67.2769 12.1685 67.1558 12.3762 67.3115 12.982ZM23.5226 38.3923C23.6264 38.2365 23.5226 38.1672 23.4188 38.2192C23.3954 38.2305 23.3752 38.2476 23.3601 38.2687C23.345 38.2899 23.3355 38.3145 23.3323 38.3403C23.3323 38.3403 23.3323 38.3403 23.3323 38.4442C23.3323 38.548 23.5226 38.4269 23.5226 38.3923ZM22.623 61.6907C22.5872 61.7164 22.5581 61.7502 22.5381 61.7893C22.518 61.8284 22.5075 61.8718 22.5075 61.9158C22.5075 61.9597 22.518 62.0031 22.5381 62.0422C22.5581 62.0814 22.5872 62.1152 22.623 62.1408C22.623 62.1408 22.7267 62.1408 22.8478 62.1408C22.9689 62.1408 22.8478 61.8119 22.8478 61.6561C22.7945 61.6601 22.7421 61.6717 22.6921 61.6907H22.623ZM23.488 59.4232C23.488 59.5271 23.3496 59.6482 23.3842 59.7348C23.4188 59.8213 23.5572 59.8906 23.661 59.8906C23.7001 59.8813 23.7363 59.8625 23.7663 59.8358C23.7963 59.8091 23.8192 59.7753 23.8329 59.7375C23.8467 59.6998 23.8508 59.6592 23.8449 59.6194C23.8391 59.5797 23.8235 59.542 23.7994 59.5098C23.7994 59.5098 23.661 59.4578 23.5226 59.4232H23.488ZM20.5987 60.306H20.7372C20.7372 60.306 20.7372 60.2021 20.7372 60.1675C20.7372 60.1329 20.6506 60.1675 20.5987 60.1675V60.306ZM25.443 36.0728C25.242 36.0946 25.0444 36.1411 24.8548 36.2113L24.6645 36.5748C24.7618 36.5909 24.8612 36.5909 24.9586 36.5748L25.5987 36.3324V36.2113C25.5987 36.2113 25.5641 36.1247 25.5122 36.142L25.443 36.0728ZM24.6299 37.6133C24.6299 37.6133 24.7337 37.6133 24.7683 37.6133C24.8029 37.6133 24.7683 37.6133 24.8721 37.4922H24.6645C24.6645 37.4922 24.7164 37.6306 24.6991 37.6826L24.6299 37.6133ZM23.9032 51.8417C23.9432 51.8496 23.9844 51.8496 24.0243 51.8417C24.0243 51.8417 24.0243 51.8417 24.1281 51.8417C24.232 51.8417 24.1281 51.7205 24.1281 51.7032C24.1281 51.6859 23.9205 51.7378 23.9724 51.9109L23.9032 51.8417ZM50.3738 53.988L50.8236 53.6419C50.806 53.6292 50.7848 53.6224 50.7631 53.6224C50.7413 53.6224 50.7201 53.6292 50.7025 53.6419C50.5897 53.7621 50.5016 53.9032 50.443 54.0573L50.3738 53.988ZM25.4257 43.8793H25.3219C25.2765 43.8676 25.2289 43.8676 25.1835 43.8793C25.1835 44.0351 25.1835 44.0871 25.3565 44.0005C25.5295 43.914 25.4603 44.0005 25.4949 43.9486L25.4257 43.8793ZM46.0139 57.5884L46.2215 57.4326H46.1177L46.0139 57.5884ZM74.9412 30.8107H74.7163C74.7561 30.8203 74.7976 30.8203 74.8374 30.8107H74.9412ZM67.9343 11.9261C68.142 11.7184 68.315 11.5107 68.1939 11.1991C68.0891 11.2696 68.0081 11.3702 67.9618 11.4876C67.9155 11.6051 67.9059 11.7339 67.9343 11.8569V11.9261ZM58.1246 19.7154C58.1246 19.7154 57.9343 19.8192 57.917 19.9058C57.8914 20.0022 57.8914 20.1036 57.917 20.2C57.917 20.1135 58.0727 20.0616 58.1073 19.9577C58.1419 19.8539 58.1246 19.8019 58.1246 19.7154ZM54.1454 32.5417C54.1454 32.5417 54.1454 32.5417 54.1454 32.4205C54.1454 32.2993 54.0589 32.4205 54.0416 32.4205C54.0128 32.4207 53.9846 32.4289 53.9602 32.4442C53.9357 32.4595 53.916 32.4812 53.9032 32.507C53.9205 32.5936 53.9897 32.6282 54.1454 32.5417ZM55.5987 11.4069L55.1489 11.7703L55.3392 11.8742C55.5641 11.7184 55.6506 11.5799 55.5987 11.4069ZM43.7821 36.0382C43.9198 36.0571 44.0596 36.0571 44.1973 36.0382C44.4396 35.8131 44.4569 35.4497 44.1973 35.415C44.0344 35.3959 43.8697 35.4325 43.7302 35.5189C43.5918 35.6227 43.5918 35.9862 43.7821 36.0382ZM43.9897 22.1906C44.0292 22.1679 44.062 22.1351 44.0849 22.0956C44.1077 22.0561 44.1198 22.0112 44.1198 21.9656C44.1198 21.92 44.1077 21.8751 44.0849 21.8356C44.062 21.7961 44.0292 21.7634 43.9897 21.7406C43.9897 21.7406 43.8859 21.7406 43.7648 21.7406V22.2252L43.9897 22.1906ZM56.7925 14.5399C56.7925 14.5399 56.7925 14.5399 56.7925 14.4014H56.5502V14.5572C56.5502 14.5572 56.7751 14.5572 56.8097 14.5399H56.7925ZM55.2873 22.6061C55.3837 22.5649 55.4717 22.5062 55.5468 22.433C55.4446 22.4073 55.3376 22.4073 55.2354 22.433C55.2354 22.433 55.1143 22.5541 55.0451 22.6407C54.9759 22.7272 55.2527 22.6407 55.3046 22.6061H55.2873ZM43.9378 48.1894C43.6783 48.3452 43.6264 48.6394 43.8167 48.7433C43.9415 48.7755 44.0725 48.7755 44.1973 48.7433C44.5088 48.501 44.5779 48.2413 44.3876 48.1375C44.3129 48.116 44.2347 48.1095 44.1575 48.1184C44.0803 48.1273 44.0056 48.1514 43.9378 48.1894ZM43.6264 54.3689C43.6264 54.3689 43.8167 54.3689 43.9205 54.3689C44.0243 54.3689 44.0243 54.1438 43.9205 54.0746C43.8918 54.0281 43.8507 53.9904 43.8018 53.966C43.7529 53.9415 43.6981 53.9312 43.6437 53.9361C43.5961 53.9476 43.5535 53.9742 43.5224 54.0121C43.4913 54.05 43.4734 54.097 43.4714 54.1459C43.4695 54.1949 43.4835 54.2432 43.5115 54.2834C43.5395 54.3237 43.5798 54.3537 43.6264 54.3689ZM45.5295 27.8854C45.6331 27.8948 45.7373 27.8948 45.8409 27.8854C45.8409 27.7816 45.9447 27.6431 45.8409 27.5739C45.8097 27.5298 45.7681 27.4941 45.7198 27.47C45.6716 27.4458 45.618 27.434 45.5641 27.4354C45.5175 27.4496 45.4762 27.4776 45.4458 27.5156C45.4153 27.5536 45.397 27.6 45.3933 27.6486C45.3895 27.6972 45.4006 27.7458 45.4249 27.7881C45.4492 27.8303 45.4856 27.8642 45.5295 27.8854ZM44.8028 40.002C44.8028 40.002 44.8028 40.1059 44.8028 40.2271H45.3046C45.3134 40.1697 45.3134 40.1113 45.3046 40.054C45.284 40.0054 45.25 39.9637 45.2065 39.9338C45.1631 39.9039 45.1119 39.887 45.0592 39.8852C45.0065 39.8834 44.9544 39.8967 44.909 39.9235C44.8635 39.9503 44.8267 39.9896 44.8028 40.0367V40.002ZM44.5433 32.5417C44.5433 32.5417 44.5433 32.6801 44.5433 32.6974L44.924 32.9917C44.924 32.9917 45.0105 32.9917 44.924 32.8879C44.8365 32.7585 44.7382 32.6368 44.6299 32.5244C44.6299 32.5244 44.5952 32.5763 44.5433 32.5763V32.5417ZM43.8859 46.3892C43.7339 46.6433 43.6175 46.917 43.5399 47.2028C43.8832 47.1376 44.2192 47.039 44.5433 46.9085C44.6644 46.9085 44.7163 46.6489 44.8028 46.5104C44.8893 46.3719 44.5087 46.2854 44.3703 46.268C44.2879 46.2488 44.2025 46.2465 44.1192 46.2614C44.0359 46.2763 43.9565 46.308 43.8859 46.3546V46.3892ZM45.443 24.9601H45.27C45.2786 25.1216 45.2786 25.2834 45.27 25.4448H45.5295C45.5139 25.2698 45.485 25.0962 45.443 24.9255V24.9601ZM44.6818 29.5644C45.1489 29.9279 44.5088 30.1703 44.6818 30.5338L45.1143 30.2914L45.5641 29.9972C45.7174 29.9295 45.8579 29.8358 45.9793 29.7202C45.9793 29.5991 45.9793 29.4087 45.9793 29.1663C45.5814 29.1663 45.2354 29.1663 44.8894 29.1663C44.5434 29.1663 44.5088 29.3914 44.6818 29.5298V29.5644ZM43.9551 28.422H44.1108V28.2662H43.8686C43.9004 28.3045 43.9293 28.345 43.9551 28.3874V28.422ZM55.0451 30.153C55.0451 30.153 55.0451 29.9972 55.0451 29.9799C54.966 29.9036 54.8608 29.8603 54.7509 29.8587C54.7509 29.8587 54.6299 30.0318 54.578 30.1183C54.5261 30.2049 54.6817 30.2049 54.7163 30.2049C54.8283 30.1782 54.9381 30.1435 55.0451 30.101V30.153ZM53.8513 15.0072C53.8513 15.0072 54.0416 14.9034 54.0589 14.8341C54.0845 14.7318 54.0845 14.6248 54.0589 14.5225C53.9902 14.599 53.9266 14.68 53.8686 14.7649C53.8686 14.7649 53.8513 14.8687 53.8513 14.9553V15.0072ZM54.2665 18.3479C54.4711 18.6195 54.6906 18.8796 54.9239 19.1269C55.2527 18.5383 55.2527 18.3826 54.7856 18.0017C54.6415 17.9421 54.4797 17.9421 54.3357 18.0017C54.1281 17.9498 54.1627 18.1748 54.2665 18.296V18.3479ZM55.2873 16.0804C55.2873 16.0804 55.2873 16.2189 55.2873 16.2362C55.5816 16.3973 55.8957 16.5195 56.2215 16.5997C56.308 16.5997 56.4465 16.2535 56.6887 15.8554C56.1524 15.8554 55.8063 15.8554 55.4603 15.8554C55.4257 15.8034 55.3392 15.9419 55.2873 16.0285V16.0804ZM55.5987 22.4676C56.1523 22.4676 56.1524 22.4676 56.2562 21.9137L55.5987 22.4676ZM55.8063 23.9735C55.8063 23.9735 56.0485 23.9735 56.0831 23.9735C56.1571 23.8585 56.2043 23.7284 56.2215 23.5927L55.9274 23.7139L55.8063 23.9735ZM56.9482 19.473C56.4465 19.5769 56.1523 19.9231 55.8409 20.4943C56.8963 20.3904 56.9309 20.3558 56.9482 19.4211V19.473ZM54.353 23.7312C54.353 23.835 54.2146 23.9562 54.2319 24.0427C54.2492 24.1293 54.4049 24.1639 54.5606 24.2678C54.5718 24.0948 54.5718 23.9214 54.5606 23.7485C54.5606 23.7485 54.3703 23.6619 54.353 23.6792V23.7312ZM54.353 12.6704L54.2146 12.757H54.3184C54.3184 12.757 54.2665 12.6358 54.2838 12.6185L54.353 12.6704ZM53.5572 13.6917C53.6153 13.6837 53.6703 13.6603 53.7163 13.6239C53.7624 13.5875 53.7978 13.5394 53.819 13.4846C53.8402 13.4298 53.8464 13.3704 53.8368 13.3125C53.8273 13.2545 53.8024 13.2002 53.7648 13.1551L53.6783 13.0339L53.0036 13.5532C53.0382 13.7436 53.2804 13.709 53.488 13.6398L53.5572 13.6917ZM54.2319 19.7154C54.368 19.7958 54.5132 19.8597 54.6644 19.9058C54.8201 19.9058 55.0624 19.9058 55.1143 19.7846C55.1662 19.6635 55.1143 19.473 55.0105 19.3173C54.9067 19.1615 55.0105 19.3173 54.9239 19.1788C54.8374 19.0403 54.18 19.0922 54.1627 19.6288L54.2319 19.7154ZM54.1281 14.2802V14.5052C54.1377 14.4654 54.1377 14.4239 54.1281 14.3841V14.2802ZM51.9828 40.002H51.7579C51.777 40.0101 51.7976 40.0143 51.8184 40.0143C51.8392 40.0143 51.8598 40.0101 51.879 40.002H51.9828ZM52.8305 30.7415V31.0011C52.9619 31.0272 53.0971 31.0272 53.2285 31.0011L53.1419 30.6549C53.0148 30.6482 52.8873 30.654 52.7613 30.6723L52.8305 30.7415ZM53.2631 28.1105C53.3064 28.0481 53.3364 27.9775 53.3512 27.9031C53.3661 27.8286 53.3655 27.7519 53.3495 27.6777C53.3495 27.4527 53.0554 27.5046 52.917 27.6777C52.6457 27.8764 52.3858 28.0903 52.1385 28.3182C52.6575 28.5605 52.8132 28.5605 53.1938 28.0412L53.2631 28.1105ZM52.6921 20.979C52.666 21.0204 52.6521 21.0684 52.6521 21.1174C52.6521 21.1665 52.666 21.2145 52.6921 21.2559C52.7206 21.2986 52.7592 21.3336 52.8045 21.3577C52.8498 21.3819 52.9003 21.3945 52.9517 21.3944C53.1048 21.3308 53.2499 21.2494 53.3842 21.1521C53.2614 21.0382 53.1212 20.9448 52.9689 20.8751C52.9689 20.8751 52.6921 20.8405 52.6229 20.9097L52.6921 20.979ZM52.1385 46.1296C52.1385 46.1296 52.0174 46.3027 51.9655 46.3892C51.9136 46.4758 52.0693 46.4758 52.1212 46.4758H52.4499C52.4587 46.4184 52.4587 46.36 52.4499 46.3027C52.4171 46.2433 52.3725 46.1912 52.319 46.1496C52.2655 46.1079 52.2041 46.0776 52.1385 46.0603V46.1296ZM51.9136 28.197C51.9136 28.197 51.9136 28.197 51.8098 28.197H52.0347H51.9136ZM53.6437 21.1348C53.5473 21.1091 53.4459 21.1091 53.3495 21.1348C53.4141 21.2165 53.4971 21.2818 53.5918 21.3252C53.5918 21.3252 53.7475 21.3252 53.834 21.3252C53.9205 21.3252 53.7129 21.0828 53.6264 21.0655L53.6437 21.1348ZM54.4568 42.7715C54.4568 42.7715 54.6645 42.91 54.7337 42.8754C54.9706 42.7377 55.1961 42.5814 55.4084 42.408C55.1379 42.3822 54.8657 42.3822 54.5952 42.408C54.5952 42.408 54.4568 42.5465 54.4395 42.7023L54.4568 42.7715ZM55.4603 36.7479C55.4603 36.7479 55.6333 36.5401 55.5987 36.5055C55.5641 36.4709 55.3911 36.2286 55.27 36.2113C55.1489 36.194 55.0105 36.2113 54.8894 36.367C54.7683 36.5228 54.8893 36.5921 55.0277 36.644C55.1618 36.6867 55.3038 36.6985 55.443 36.6786L55.4603 36.7479ZM53.9551 48.8645C53.9551 49.0202 53.9551 49.0549 54.1108 48.9683C54.2665 48.8818 54.1108 48.8818 54.1973 48.8472C54.2838 48.8125 54.1108 48.7606 54.0762 48.8472C54.0416 48.9337 53.9378 48.726 53.9378 48.7779L53.9551 48.8645ZM53.9551 40.9887C53.9551 40.9887 53.9551 41.1271 53.9551 41.1445C53.9551 41.1618 54.4914 41.3002 54.7682 41.3522C55.0451 41.4041 54.7682 41.3522 54.872 41.2483C54.9758 41.1445 54.872 41.0925 54.872 41.0925C54.5995 41.0071 54.3223 40.9377 54.0416 40.8848C54.0416 40.8848 53.9724 40.8502 53.9551 40.9021V40.9887ZM51.9482 36.2632L52.1904 36.419C52.1904 36.3151 52.3288 36.194 52.2942 36.1074C52.2596 36.0209 52.1385 36.0035 52.052 35.9343L51.9482 36.2632ZM53.9551 16.1843C53.9551 16.1843 53.834 16.0631 53.8167 16.0804C53.6046 16.138 53.409 16.2448 53.2457 16.392C53.1246 16.5478 53.1419 16.8247 53.09 17.0151C53.2157 17.0833 53.3494 17.1356 53.488 17.1709C53.7475 17.1709 53.9724 17.1709 54.0243 16.842C54.0453 16.5918 54.0219 16.3398 53.9551 16.0977V16.1843ZM54.6644 35.6054C54.6644 35.6054 54.6644 35.4843 54.6644 35.4323H54.5261C54.3011 35.4323 54.0589 35.4323 53.9551 35.6054C53.8513 35.7785 54.0416 35.8651 54.1108 36.0036L54.6644 35.6054ZM45.8755 54.9055C45.8755 54.9055 45.7025 54.9055 45.5987 54.9055C45.4949 54.9055 45.5987 55.0093 45.5987 55.0093C45.5987 55.5113 45.5987 55.5459 46.187 55.6324C46.0139 55.3382 45.8928 55.1132 45.789 54.9055H45.8755ZM51.4811 17.2574C51.3946 17.2574 51.308 17.2574 51.2388 17.2574C51.1477 17.299 51.0655 17.3578 50.9966 17.4305C51.1004 17.4305 51.2042 17.4305 51.2907 17.4305C51.3772 17.4305 51.3253 17.3267 51.3945 17.2574H51.4811ZM50.3392 19.1961C49.9932 19.1961 49.8201 19.5077 49.6125 19.7154C49.5005 19.8648 49.4076 20.0276 49.3358 20.2C49.924 19.75 49.924 19.75 50.2527 19.1961H50.3392ZM50.962 17.4652L50.2873 17.0151C50.2473 16.9939 50.2027 16.9828 50.1575 16.9828C50.1123 16.9828 50.0677 16.9939 50.0278 17.0151C49.9845 17.1205 49.9845 17.2386 50.0278 17.344C50.097 17.6902 50.3046 17.7075 50.8755 17.4132L50.962 17.4652ZM52.1558 27.4354H52.2942C52.2942 27.4354 52.2942 27.3488 52.398 27.3142H52.1904C52.1904 27.3142 52.1212 27.3315 52.1039 27.3835L52.1558 27.4354ZM44.5433 20.8232C44.6598 20.7607 44.747 20.6548 44.7859 20.5284C44.8248 20.402 44.8122 20.2653 44.7509 20.1481L44.2146 20.5809C44.2101 20.6269 44.2101 20.6733 44.2146 20.7193C44.2838 20.702 44.4222 20.7886 44.4914 20.7713L44.5433 20.8232ZM52.6402 15.2669C52.6302 15.1864 52.6302 15.105 52.6402 15.0245L52.2769 15.3015C52.3832 15.2824 52.4874 15.2534 52.5883 15.2149L52.6402 15.2669ZM50.7198 37.4922C50.6456 37.6259 50.5986 37.7729 50.5814 37.9249H51.1178C51.1178 37.6999 51.1177 37.5441 51.0312 37.371C50.9447 37.1979 50.7198 37.371 50.6679 37.4402L50.7198 37.4922ZM55.5468 42.408H55.6506H55.443H55.5468ZM51.2042 16.0458C51.2042 15.9073 51.2042 15.8554 51.0485 15.9419C50.8928 16.0285 51.0485 15.9419 50.962 16.0804C50.8755 16.2189 51.0485 16.0804 51.0831 16.0804C51.1177 16.0804 51.2042 16.0977 51.2042 16.0458ZM51.4465 39.9155H51.6713H51.5503H51.4465ZM52.2769 45.1083C52.186 45.043 52.0774 45.0068 51.9655 45.0045C51.9655 45.0045 51.8444 45.1429 51.7406 45.316H52.2423C52.2423 45.316 52.2596 45.0564 52.2423 45.0564L52.2769 45.1083ZM51.5849 20.3731C51.5687 20.1405 51.4976 19.9151 51.3773 19.7154C51.3263 19.6562 51.2622 19.6097 51.1901 19.5797C51.118 19.5496 51.0399 19.5368 50.962 19.5423C50.8548 19.5865 50.7589 19.6541 50.6812 19.7401C50.6034 19.8262 50.5458 19.9285 50.5127 20.0396C50.4795 20.1508 50.4716 20.2679 50.4895 20.3825C50.5074 20.4971 50.5506 20.6063 50.616 20.702C50.7208 20.8005 50.853 20.8649 50.9951 20.8865C51.1372 20.9081 51.2825 20.886 51.4118 20.8232C51.4708 20.7551 51.5138 20.6747 51.5377 20.5878C51.5617 20.501 51.566 20.4099 51.5503 20.3212L51.5849 20.3731ZM51.7406 35.4496C51.7406 35.4496 51.7406 35.3631 51.7406 35.3112C51.7577 35.2607 51.7577 35.2059 51.7406 35.1554C51.7406 35.1554 51.6022 35.1554 51.5849 35.1554C51.5676 35.1554 51.3945 35.3977 51.2907 35.5189H51.3773L51.7406 35.4496Z" fill="#555AB1"/>
</svg>
