<svg width="83" height="87" viewBox="0 0 83 87" fill="none" xmlns="http://www.w3.org/2000/svg">
<path d="M54.5264 46.2663L55.0801 46.249L54.8378 46.8029L54.5264 46.2663Z" fill="#1F2144"/>
<path d="M1.32731 64.8244L23.7139 85.2188L82.7124 20.3943L60.3258 -6.26337e-05L1.32731 64.8244Z" fill="#1F2144"/>
<path d="M19.9308 66.9594C20.5593 66.9764 21.173 66.7677 21.6609 66.3709C21.9204 65.8516 22.1626 65.3842 22.3876 64.8995C21.9723 64.7957 21.7993 65.2284 21.4533 65.3149C21.4113 65.3231 21.3681 65.3214 21.3269 65.3101C21.2857 65.2987 21.2477 65.278 21.2159 65.2495C21.1841 65.221 21.1592 65.1855 21.1434 65.1458C21.1276 65.1061 21.1211 65.0633 21.1246 65.0207C21.1246 64.7784 21.2284 64.5534 21.2284 64.3284C21.1599 64.2418 21.0847 64.1608 21.0034 64.086C21.0034 64.086 20.8823 64.086 20.8304 64.086C20.7785 64.086 20.6055 64.2072 20.5709 64.3111C20.2076 65.0554 19.8789 65.817 19.5675 66.5786C19.5848 66.6998 19.7924 66.942 19.9308 66.9594ZM29.5156 62.3551C29.5156 62.2339 29.6194 62.0954 29.5156 62.0262C29.4781 61.9871 29.432 61.9572 29.3809 61.9392C29.3298 61.9212 29.2752 61.9154 29.2214 61.9224C29.1856 61.9439 29.156 61.9743 29.1354 62.0107C29.1148 62.0471 29.104 62.0882 29.104 62.1301C29.104 62.1719 29.1148 62.2129 29.1354 62.2493C29.156 62.2857 29.1856 62.3162 29.2214 62.3378C29.2906 62.3724 29.4118 62.3378 29.5156 62.3551ZM25.8478 58.5297C25.8574 58.6044 25.8574 58.68 25.8478 58.7547V58.6682C25.8478 58.6682 25.8651 58.6508 25.8478 58.5297ZM24.8962 65.0034C24.8962 65.0034 25.0692 64.8476 25.0692 64.7783C25.0949 64.6819 25.0949 64.5805 25.0692 64.4841C25.011 64.5667 24.959 64.6536 24.9135 64.7438C24.8914 64.8285 24.8855 64.9165 24.8962 65.0034V65.0034ZM22.4395 64.8995L22.9585 64.813L22.4395 64.8995ZM22.9758 64.813H23.1142H23.2007H22.9758ZM42.6816 61.3511C42.6816 61.3511 42.6817 61.6107 42.8201 61.6107C43.0545 61.654 43.295 61.654 43.5294 61.6107C43.7716 61.6107 43.8581 61.0395 43.6678 60.8491C43.4775 60.6587 43.6678 60.8491 43.5294 60.8491C43.3723 60.8262 43.212 60.8541 43.0719 60.9289C42.9318 61.0036 42.8193 61.1213 42.7509 61.2646L42.6816 61.3511ZM35.7612 63.7572C35.7934 63.6499 35.7934 63.5355 35.7612 63.4283C35.7612 63.4283 35.5709 63.3417 35.3979 63.2724C35.3979 63.4801 35.5017 63.6359 35.5536 63.7917L35.7612 63.7572ZM44.4117 60.7107H44.5848C44.5476 60.5507 44.5187 60.389 44.4983 60.226H44.2387C44.3097 60.3644 44.3907 60.4975 44.481 60.6241L44.4117 60.7107ZM31.9031 64.1726C31.9031 64.363 32.1453 64.4322 32.2837 64.2591C32.3697 64.1113 32.4393 63.9546 32.4914 63.7917C32.3183 63.7917 32.1453 63.7052 32.1107 63.7917C32.0344 63.886 31.9864 64.0001 31.9723 64.1206L31.9031 64.1726ZM31.6436 62.1647C31.5822 62.2245 31.5361 62.2981 31.509 62.3794C31.4819 62.4607 31.4746 62.5473 31.4879 62.632C31.5396 62.6949 31.6064 62.7437 31.682 62.774C31.7576 62.8042 31.8396 62.815 31.9204 62.8052C32.4465 62.6479 32.8923 62.2947 33.1661 61.8184C32.9172 61.7567 32.6577 61.7511 32.4063 61.802C32.155 61.8529 31.9181 61.959 31.7128 62.1127L31.6436 62.1647ZM33.9965 63.8957C33.9621 64.0261 33.9621 64.1633 33.9965 64.2937L34.256 64.1034C34.256 63.9995 34.256 63.8956 34.256 63.7917C34.256 63.6878 34.1003 63.8437 34.1003 63.8437L33.9965 63.8957ZM43.7024 58.1662C43.7434 58.1491 43.7784 58.1203 43.803 58.0833C43.8277 58.0463 43.8408 58.0029 43.8408 57.9585C43.8408 57.9141 43.8277 57.8706 43.803 57.8337C43.7784 57.7967 43.7434 57.7679 43.7024 57.7508C43.7024 57.7508 43.5121 57.7508 43.4083 57.7508C43.3045 57.7508 43.4083 58.0104 43.4083 58.0797C43.4587 58.1207 43.52 58.1459 43.5847 58.152C43.6494 58.1582 43.7144 58.145 43.7716 58.1143L43.7024 58.1662ZM43.2353 52.5925C43.3564 52.6964 43.4775 52.8176 43.5986 52.9041C43.7197 52.9906 43.7024 52.9041 43.7543 52.9041C43.8062 52.9041 43.7543 52.7656 43.7543 52.7483C43.6153 52.6687 43.4708 52.5993 43.3218 52.5406L43.2353 52.5925ZM37.4567 58.6508H37.2318H37.3529C37.3529 58.6508 37.4221 58.6508 37.4567 58.6508ZM21.9896 62.1127C21.3841 62.3551 20.9688 61.9916 20.4671 61.8531C20.3287 62.1993 20.5882 62.6839 20.0692 62.8744C20.0117 62.8928 19.9594 62.9246 19.9166 62.9673C19.8738 63.01 19.8418 63.0623 19.8232 63.1198C19.8046 63.1773 19.7999 63.2383 19.8096 63.298C19.8193 63.3577 19.843 63.4143 19.8789 63.4629C19.9197 63.5253 19.9735 63.5781 20.0366 63.6178C20.0997 63.6575 20.1705 63.6832 20.2444 63.693C20.3183 63.7029 20.3934 63.6966 20.4647 63.6749C20.5359 63.6531 20.6017 63.6162 20.6574 63.5668C20.8351 63.4047 21.0477 63.286 21.2788 63.2199C21.51 63.1539 21.7532 63.1422 21.9896 63.1859C22.5844 63.2535 23.1858 63.1451 23.7197 62.8744C23.7197 62.5109 23.7197 62.13 23.1661 62.0954C22.7773 62.0157 22.3759 62.0216 21.9896 62.1127V62.1127ZM37.3529 59.724V59.6202C37.3529 59.6202 37.2491 59.5336 37.2145 59.6202C37.2051 59.6717 37.2051 59.7244 37.2145 59.7759L37.3529 59.724ZM18.3218 63.1859C18.2739 63.1602 18.2204 63.1467 18.1661 63.1467C18.1117 63.1467 18.0583 63.1602 18.0104 63.1859C18.0104 63.1859 18.0104 63.3937 18.0104 63.4629C18.0792 63.5608 18.1676 63.6432 18.2699 63.7052C18.3504 63.6157 18.4095 63.5092 18.4429 63.3936C18.4429 63.3936 18.4256 63.1859 18.3564 63.1686L18.3218 63.1859ZM33.8927 60.728V60.6241C33.8927 60.6241 33.8927 60.7626 33.8927 60.8491C33.906 60.8042 33.9118 60.7575 33.9101 60.7107L33.8927 60.728ZM18.5294 65.3323C18.3391 65.9035 17.6989 66.0247 17.3702 66.4574C17.0415 66.8902 17.2318 66.9074 17.5779 67.0805C17.8017 66.9012 18.0388 66.7393 18.2872 66.5959C18.5986 66.4574 18.9446 66.3536 19.2907 66.2324C19.2907 65.6785 19.4118 65.2111 19.4464 64.813L18.3391 63.7572L17.0242 65.2111C17.0242 65.2111 17.0242 65.3323 17.0242 65.3842C17.0242 65.4362 17.128 65.4881 17.1626 65.4708C17.33 65.4314 17.4925 65.3733 17.647 65.2977C17.8546 65.1939 18.0622 65.0726 18.2872 64.9861C18.5121 64.8995 18.4429 64.9861 18.4429 64.9861C18.5015 65.0919 18.5313 65.2113 18.5294 65.3323ZM36.1592 59.0836C36.1251 59.1568 36.1075 59.2365 36.1075 59.3173C36.1075 59.398 36.1251 59.4777 36.1592 59.5509C36.2803 59.7413 36.4879 59.6548 36.5917 59.5509C36.8254 59.2918 37.0448 59.0202 37.2491 58.7374C36.5398 58.495 36.3841 58.5297 36.1073 59.0836H36.1592ZM30.3806 58.7201C30.3897 58.6686 30.3897 58.6159 30.3806 58.5643H29.8616C29.8616 58.6855 29.8616 58.7547 29.8616 58.7893C29.8968 58.8247 29.9409 58.8499 29.9893 58.8623C30.0377 58.8747 30.0885 58.8737 30.1364 58.8595C30.1843 58.8453 30.2274 58.8184 30.2613 58.7817C30.2951 58.745 30.3185 58.6997 30.3287 58.6508L30.3806 58.7201ZM25.9342 58.8932C25.9342 58.8932 25.9342 58.8932 25.9342 58.9971V58.772C25.9342 58.772 25.865 58.8932 25.865 58.9278L25.9342 58.8932ZM46.3495 55.2409C46.1764 55.3967 46.0035 55.4659 45.9516 55.5871C45.8997 55.7083 45.9515 56.1756 46.1418 56.1064C46.2919 56.0377 46.4097 55.9136 46.4706 55.7601C46.436 55.6736 46.3495 55.5178 46.2111 55.2755L46.3495 55.2409ZM41.1591 56.1237C41.1591 56.1237 41.1591 56.0198 41.1591 55.9679H41.0381C40.9969 55.9877 40.9612 56.0174 40.9343 56.0544C41.0208 56.2448 41.0207 56.2794 41.1765 56.1583L41.1591 56.1237ZM51.09 51.052C51.1059 51.0013 51.1059 50.9469 51.09 50.8962L50.9862 50.8097C50.9862 50.8097 50.8824 50.8097 50.865 50.9135C50.8477 51.0174 50.9515 51.1732 51.1072 51.0866L51.09 51.052ZM16.7647 59.7067C17.4222 59.8971 17.1799 60.6933 17.9412 61.0742C18.2526 60.9876 18.7889 60.8838 19.2907 60.7107C19.4411 60.6812 19.574 60.5942 19.6613 60.4681C19.7485 60.342 19.7832 60.1868 19.7578 60.0356L18.1661 59.8625C17.9931 59.5163 17.8547 59.2048 17.6298 58.7201C17.3613 58.8345 17.1011 58.9675 16.8512 59.1182C16.6436 59.2913 16.5744 59.6894 16.7993 59.7413L16.7647 59.7067ZM19.1522 59.274C19.2027 59.2911 19.2575 59.2911 19.308 59.274C19.3109 59.2336 19.3109 59.1932 19.308 59.1528C19.308 59.1528 19.2215 59.0317 19.1868 59.0317C19.1522 59.0317 19.0657 59.1874 19.1695 59.3086L19.1522 59.274ZM13.5467 59.8279L13.6505 59.7413H13.4256L13.5467 59.8279ZM23.0449 59.4817V59.222H22.5605V59.3779L23.0449 59.4817ZM43.3737 55.5698C43.2526 55.6909 43.0623 55.7948 43.0104 55.9333C42.9585 56.0717 43.0104 56.2448 43.1142 56.4872C43.5121 56.4872 43.8581 56.3487 44.1868 56.2448C44.5155 56.141 44.481 55.9506 44.2734 55.8467C43.737 55.5698 44.2733 55.2063 44.1349 54.8774L43.737 55.189L43.3737 55.5698ZM33.8235 57.3872V57.543C33.8235 57.543 34.0657 57.6469 34.1349 57.543C34.2041 57.4392 34.2214 57.3526 34.256 57.2488C34.2906 57.1449 34.1522 57.2488 34.1003 57.2488C34.0059 57.2935 33.9184 57.3518 33.8408 57.4219L33.8235 57.3872ZM12.3529 59.5682C12.3358 59.6188 12.3358 59.6735 12.3529 59.724C12.4913 59.8279 12.6298 59.9837 12.7509 59.9837C12.9781 59.9526 13.1996 59.8885 13.4083 59.7933C13.2265 59.6552 13.0291 59.5389 12.8201 59.4471C12.699 59.4471 12.5259 59.5509 12.3702 59.6028L12.3529 59.5682ZM24.7059 60.7626C24.7666 60.637 24.8074 60.5026 24.827 60.3645H24.4464C24.4378 60.5028 24.4378 60.6416 24.4464 60.7799C24.4464 60.7799 24.7058 60.8318 24.7231 60.7972L24.7059 60.7626ZM45.0865 56.9199C45.0925 56.9717 45.0925 57.0239 45.0865 57.0757H45.3287L45.2422 56.9372L45.0865 56.9199ZM28.8062 59.9145C28.9619 59.9145 28.9965 59.9144 28.8927 59.724C28.7889 59.5336 28.7889 59.724 28.737 59.724C28.7302 59.7641 28.7302 59.8051 28.737 59.8452C28.7589 59.8549 28.7823 59.8608 28.8062 59.8625V59.9145ZM33.6505 62.3896C33.8476 62.1492 34.0269 61.8947 34.1868 61.6281C34.3425 61.2992 34.1003 61.1088 33.8754 60.9184L33.2526 61.8184L33.6505 62.3896ZM26.7301 61.1607C26.756 61.0702 26.756 60.9743 26.7301 60.8838C26.7301 60.8838 26.6263 60.7972 26.5744 60.8838L25.5882 61.3338C25.8041 61.4192 26.0315 61.4718 26.263 61.4896C26.4257 61.3921 26.567 61.2626 26.6782 61.1088L26.7301 61.1607ZM48.6851 56.2448H48.8062C48.8062 56.2448 48.9273 56.1583 48.9273 56.1237C48.9273 56.0891 48.9273 55.9332 48.737 56.0371C48.5467 56.141 48.6505 56.141 48.6332 56.1929L48.6851 56.2448ZM27.1799 59.274C26.955 59.274 26.955 59.5163 27.0069 59.7067C27.0588 59.8971 27.2664 59.9317 27.4048 59.7067C27.4757 59.5621 27.5336 59.4115 27.5779 59.2567C27.4453 59.2376 27.3103 59.2434 27.1799 59.274V59.274ZM17.4741 61.9743C17.5603 61.9839 17.6473 61.9839 17.7336 61.9743C17.8112 61.9011 17.8807 61.8198 17.9412 61.7319C17.8374 61.7319 17.7163 61.7319 17.6298 61.7319C17.5433 61.7319 17.526 61.8877 17.4741 61.9743ZM18.2007 61.6973H17.9758H18.0969C18.0969 61.6973 18.1661 61.68 18.2007 61.6627V61.6973ZM26.6955 64.3456C26.8295 64.4628 26.9897 64.5459 27.1626 64.588C27.3193 64.5762 27.4666 64.5087 27.5779 64.3976C27.5779 64.3976 27.5779 64.1726 27.4741 64.086C27.2134 63.8429 26.8983 63.6657 26.5552 63.5693C26.212 63.4729 25.8508 63.4602 25.5017 63.5321C25.173 63.5321 25 63.9129 25 64.5014C25.2422 64.5014 25.5536 64.5014 25.6747 64.3803C26.0381 63.9302 26.3322 64.0168 26.6955 64.3111V64.3456ZM19.3252 52.2291L19.0138 52.3675C19.0138 52.3675 19.0138 52.506 19.0138 52.5233C19.0138 52.5406 19.256 52.6271 19.3426 52.5233C19.4291 52.4194 19.4291 52.3329 19.4637 52.2463C19.4266 52.2011 19.3791 52.1654 19.3252 52.1425V52.2291ZM13.7543 52.8868C13.7013 52.7549 13.6377 52.6276 13.564 52.506L13.2526 52.7137C13.3204 52.8318 13.4082 52.9372 13.5121 53.0253C13.5121 53.0253 13.7543 52.8176 13.7543 52.8002V52.8868ZM26.6782 51.1559C26.6782 51.3463 26.3495 51.5021 26.2456 51.6925C26.2133 51.8757 26.2133 52.0631 26.2456 52.2463C26.782 51.9521 27.2318 51.6232 27.7681 52.0733C27.8432 52.1113 27.9262 52.1311 28.0104 52.1311C28.0945 52.1311 28.1775 52.1113 28.2526 52.0733C28.4948 51.6925 28.0623 51.7963 27.9239 51.6751L26.0899 49.7538C25.8304 50.2384 25.8304 50.5154 26.0899 50.7231C26.3495 50.9309 26.7301 50.7577 26.6782 51.052V51.1559ZM16.7993 51.1559C16.7993 51.1559 16.7993 51.1559 16.7128 51.2597C16.7314 51.3065 16.7611 51.3481 16.7993 51.3809C16.9723 51.3809 17.0242 51.3809 16.9377 51.2251C16.9313 51.1907 16.9147 51.1591 16.89 51.1344C16.8652 51.1097 16.8336 51.093 16.7993 51.0866V51.1559ZM10.9689 56.4698C10.9432 56.4341 10.9094 56.405 10.8703 56.3849C10.8312 56.3648 10.7879 56.3544 10.7439 56.3544C10.7 56.3544 10.6566 56.3648 10.6175 56.3849C10.5784 56.405 10.5446 56.4341 10.519 56.4698C10.519 56.4698 10.519 56.5737 10.519 56.6949L11.0034 56.5564C11.0034 56.5564 11.0035 56.4179 10.9689 56.4006V56.4698ZM18.9619 54.8774C19.0673 54.8221 19.1464 54.7273 19.1821 54.6138C19.2178 54.5003 19.207 54.3772 19.1522 54.2716C19.1106 54.13 19.0238 54.006 18.9051 53.9184C18.7864 53.8309 18.6423 53.7847 18.4948 53.7869C18.348 53.8075 18.2132 53.8798 18.1149 53.9909C18.0166 54.1019 17.9612 54.2444 17.9585 54.3927C17.9281 54.5459 17.9532 54.7049 18.0293 54.8413C18.1054 54.9776 18.2274 55.0825 18.3737 55.137L18.9619 54.8774ZM18.1142 51.7963C18.1142 51.6752 18.1142 51.6059 18.1142 51.5713C18.0867 51.5354 18.0514 51.5063 18.0109 51.4863C17.9704 51.4663 17.9258 51.4559 17.8806 51.4559C17.8354 51.4559 17.7909 51.4663 17.7504 51.4863C17.7099 51.5063 17.6745 51.5354 17.647 51.5713C17.6375 51.6111 17.6375 51.6526 17.647 51.6925C17.7994 51.7323 17.9577 51.744 18.1142 51.7271V51.7963ZM55.6055 43.834C55.5962 43.8797 55.5962 43.9267 55.6055 43.9724H55.8131V43.8166C55.7842 43.7937 55.7507 43.7773 55.7149 43.7683C55.6791 43.7594 55.6418 43.7581 55.6055 43.7647V43.834ZM58.1488 43.7301C58.1488 43.7301 58.3045 43.9032 58.391 43.9205C58.91 43.9205 59.0657 43.9205 59.3945 43.0897C58.9965 43.0897 58.6505 43.2108 58.3391 43.3147C58.0277 43.4186 58.1661 43.5051 58.1488 43.6609V43.7301ZM12.0242 53.3196H11.8166C11.8358 53.3277 11.8563 53.3318 11.8771 53.3318C11.8979 53.3318 11.9185 53.3277 11.9377 53.3196C11.9635 53.3119 11.9861 53.2958 12.0018 53.2738C12.0174 53.2519 12.0253 53.2253 12.0242 53.1984V53.3196ZM11.3148 53.1984C11.211 53.1984 11.1246 53.3715 11.0208 53.4753C11.1175 53.4976 11.2181 53.4976 11.3148 53.4753C11.4711 53.4358 11.6222 53.3776 11.7647 53.3022C11.609 53.1811 11.4706 53.0599 11.3148 53.0772V53.1984ZM12.2664 55.3967H12.1626C12.1626 55.6044 12.1626 55.639 12.3529 55.5352C12.5432 55.4313 12.3529 55.4313 12.3529 55.3793L12.2664 55.3967ZM13.7889 60.8838H13.9965H13.8754C13.8767 60.8595 13.8707 60.8353 13.8581 60.8145L13.7889 60.8838ZM14.1868 56.6603C13.9755 56.3293 13.7444 56.0114 13.4948 55.7082C13.3045 55.5178 13.0623 55.5698 12.8028 55.8813C12.9239 56.1583 13.0623 56.4872 13.1834 56.816C13.243 56.9871 13.2584 57.1704 13.2282 57.3489C13.1979 57.5275 13.123 57.6955 13.0104 57.8373C13.8754 57.7508 13.9619 57.093 14.256 56.591L14.1868 56.6603ZM25 77.0335C25 76.9296 24.7059 76.895 24.5502 76.895C24.3945 76.895 24.3425 77.0508 24.3598 77.12C24.3598 77.5181 24.5328 77.899 24.6193 78.2798C25.2768 77.7951 25.346 77.5528 25.0692 76.9643L25 77.0335ZM24.6193 78.3143C24.4463 78.5567 24.308 78.799 24.481 79.0933C24.7232 78.7817 24.8616 78.5394 24.6886 78.2451L24.6193 78.3143ZM20.9862 78.6432H20.7612H20.8823C20.8823 78.6432 21.0207 78.5913 21.0553 78.574L20.9862 78.6432ZM40.8305 52.5579H40.9515L41.0553 52.4714C41.0553 52.281 41.0554 52.2463 40.8824 52.3502C40.7094 52.454 40.9169 52.4368 40.8996 52.4887L40.8305 52.5579ZM23.1661 86.1382L23.6505 85.6017C23.5463 85.5041 23.474 85.3774 23.4429 85.2381C23.4429 84.9958 23.7024 84.7362 24.0311 84.7189H24.3772L27.9758 80.6339C27.4183 80.242 26.981 79.7025 26.7128 79.076C26.2457 78.8856 26.0035 79.2318 25.6747 79.353C25.4005 79.4801 25.1347 79.6246 24.8789 79.7857C24.7405 79.5434 24.6194 79.301 24.481 79.076C24.204 79.5393 23.8534 79.9545 23.4429 80.305C23.4429 80.305 23.4429 80.1492 23.4429 80.1146C23.5068 80.0116 23.5469 79.8956 23.5602 79.7751C23.5735 79.6547 23.5598 79.5327 23.52 79.4183C23.4802 79.3038 23.4153 79.1996 23.3302 79.1135C23.245 79.0273 23.1416 78.9613 23.0277 78.9202L22.3183 78.5914L22.7163 77.6047L22.4221 77.397C22.2944 77.2917 22.1886 77.1623 22.1107 77.0161C22.1009 76.957 22.1053 76.8964 22.1233 76.8393C22.1413 76.7821 22.1726 76.73 22.2145 76.6873C23.2699 75.9949 24.2734 75.0949 25.6747 75.6834C25.7612 75.6834 25.8824 75.5968 26.0035 75.5622C26.1246 75.5276 26.0034 75.3717 25.865 75.2852C25.7266 75.1986 25.5882 75.0083 25.5709 74.8698C25.5536 74.7313 25.5709 74.1428 25.5709 73.7793C25.5885 73.5984 25.5475 73.4167 25.4541 73.2609C25.3607 73.1051 25.2196 72.9834 25.0519 72.9138C24.8443 72.81 24.7751 72.4292 24.6367 72.1695C24.5604 72.1864 24.4887 72.2197 24.4266 72.2672C24.3646 72.3147 24.3136 72.3753 24.2774 72.4445C24.2411 72.5138 24.2204 72.5901 24.2168 72.6682C24.2131 72.7463 24.2265 72.8241 24.256 72.8965C24.3957 73.2777 24.5634 73.648 24.7578 74.0043C24.7108 74.1288 24.6193 74.2313 24.501 74.2921C24.3827 74.3529 24.2461 74.3675 24.1177 74.3332C23.9364 74.3073 23.7516 74.3236 23.5776 74.3806C23.4036 74.4377 23.245 74.5339 23.1142 74.6621C22.7508 75.0429 22.3529 74.8871 21.8166 74.6621C22.128 74.3505 22.474 74.1601 22.5952 73.8831C22.8893 73.0869 23.1142 72.2734 23.3391 71.4425C23.4391 71.0437 23.5142 70.639 23.564 70.2309L24.5329 69.7461C24.4661 69.5637 24.3321 69.4138 24.1585 69.3269C23.9848 69.2401 23.7845 69.2229 23.5986 69.2789C23.1488 69.9712 22.4394 69.6769 21.8685 69.7461H21.3668C21.1246 69.9712 21.2284 70.1962 21.3668 70.4386C21.5052 70.6809 21.2803 71.2348 21.9031 70.9925L22.5952 72.0137C22.0415 72.3945 22.2318 73.1216 21.6782 73.3985H21.4533L20.6401 72.4811C20.6474 72.1791 20.557 71.8829 20.3824 71.6365C20.2078 71.3901 19.9584 71.2068 19.6713 71.1137C19.3253 70.9752 19.3772 70.4385 19.6713 70.1962C19.9654 69.9539 20.8478 69.7982 21.0381 69.0885C21.0381 69.0019 21.3495 69.0884 21.5052 68.9327C21.955 68.6903 22.4048 68.9327 22.9066 68.9327C22.7202 68.6833 22.5579 68.4166 22.4221 68.1364C22.3569 67.9963 22.3368 67.8395 22.3647 67.6875C22.3926 67.5355 22.4671 67.396 22.5778 67.2882C22.8028 67.0805 23.0796 66.942 23.3045 66.7343C23.4246 66.5561 23.5233 66.3645 23.5986 66.1632C23.2838 66.1536 22.9717 66.223 22.6907 66.3651C22.4096 66.5072 22.1686 66.7175 21.9896 66.9767C21.6781 67.5748 21.18 68.0549 20.5709 68.3441L19.827 67.9114C19.7664 69.0718 19.3011 70.1744 18.5121 71.0271C18.3737 70.8367 18.1661 70.6463 18.1488 70.4386C18.1553 70.0385 18.19 69.6394 18.2526 69.2442C17.8374 68.5518 17.1107 68.6904 16.5225 68.4307C15.9342 68.1711 16.1592 68.0672 16.0554 67.773C15.9516 67.4787 15.6747 67.3921 15.4152 67.1671C16.09 66.4401 15.4152 65.4362 16.1245 64.6053C15.6055 64.7092 15.5017 65.1073 15.2768 65.3669C15.0519 65.6266 14.8097 65.9208 14.6367 66.1459C14.2355 66.1747 13.8339 66.097 13.4724 65.9207C13.1108 65.7444 12.8023 65.4758 12.5778 65.1419C11.6955 65.6265 10.8477 66.0766 10.6747 67.0805C10.6104 67.1801 10.5237 67.2632 10.4215 67.3233C10.3194 67.3834 10.2047 67.4188 10.0865 67.4267C9.48095 67.0806 9.23876 67.4267 8.92734 67.8595C8.92734 67.8595 8.82351 67.8595 8.737 67.8595C8.23527 67.1844 8.5467 66.4747 8.6332 65.765C9.20414 65.765 9.37714 66.267 9.75776 66.5093C9.83388 66.5437 9.91647 66.5616 10 66.5616C10.0835 66.5616 10.1661 66.5437 10.2422 66.5093C10.3166 66.4629 10.379 66.3995 10.4241 66.3243C10.4692 66.2491 10.4958 66.1641 10.5017 66.0766C10.5017 65.6265 10.1038 65.2111 10.2941 64.7091L9.46367 64.3284C9.46367 63.9822 9.60205 63.7745 9.80966 63.5668C10.0173 63.3591 10.2076 63.5668 10.4152 63.5668C10.6228 63.5668 10.9169 63.4629 11.1246 63.5668C11.6433 63.7162 12.1472 63.9131 12.6297 64.1552C12.9734 64.3807 13.2924 64.6418 13.5813 64.9342C14.0485 64.6399 14.1868 65.1765 14.5329 65.3323C14.6052 65.1874 14.7051 65.0581 14.827 64.9515C15.1211 64.7092 15.3979 64.5188 15.2941 64.0687C15.1903 63.6187 14.9308 63.6359 14.654 63.4975C14.5825 63.4696 14.5212 63.4209 14.4779 63.3576C14.4346 63.2943 14.4115 63.2193 14.4115 63.1426C14.4115 63.0659 14.4346 62.991 14.4779 62.9277C14.5212 62.8644 14.5825 62.8157 14.654 62.7878C15.0865 62.5109 15.4498 61.9743 16.1073 62.3724C16.1073 62.3724 16.4533 62.2512 16.5052 62.1301C16.5447 62.0523 16.5653 61.9663 16.5653 61.879C16.5653 61.7918 16.5447 61.7058 16.5052 61.6281C16.3233 61.5318 16.1748 61.3827 16.0791 61.2005C15.9834 61.0182 15.9449 60.8113 15.9688 60.6068C15.9688 60.1568 15.9689 60.1567 15.0346 59.1701C14.2388 59.3432 14.6021 60.226 14.1696 60.6241C14.2771 60.8434 14.3148 61.0904 14.2777 61.3318C14.2406 61.5732 14.1303 61.7975 13.9619 61.9743C13.391 62.4243 13.6851 62.8051 13.8408 63.2724C13.5568 63.4951 13.1971 63.598 12.8384 63.5592C12.4797 63.5204 12.1503 63.343 11.9204 63.0647C11.7721 62.9544 11.6678 62.7949 11.6263 62.6147C11.6263 62.3204 11.9031 62.2858 12.1626 62.3204C12.3463 62.3463 12.5326 62.3463 12.7163 62.3204C13.0277 62.3204 13.0968 62.0608 13.0449 61.403C12.1626 61.0915 11.2111 61.9223 10.3287 61.403C10.3287 61.2473 10.3287 61.1607 10.3287 61.1261C10.7959 60.5203 11.6263 60.2952 11.9204 59.3951C12.2363 58.7392 12.6377 58.1281 13.1142 57.5777L11.9031 57.0064L10.2941 58.0969L9.87888 56.9199C9.01383 56.9199 8.82354 57.543 8.44292 57.9758C8.34368 57.9081 8.2319 57.861 8.11419 57.8373C7.97578 57.8373 7.73353 57.9239 7.69893 58.0277C7.66433 58.1316 7.69893 58.3739 7.69893 58.547C7.70032 58.7239 7.65241 58.8978 7.56055 59.049C7.23183 59.4817 6.67819 59.5336 5.83044 59.222L6.83388 58.7201V57.8546L4.44633 60.5549C4.48346 60.6974 4.51238 60.8418 4.53286 60.9876C4.36875 61.0334 4.19523 61.0334 4.03112 60.9876L0 65.5573L16.0207 79.7164L16.6609 79.3702C16.6609 79.6645 16.6609 79.9415 16.5744 80.2011L23.1661 86.1382ZM20.5709 80.6684C20.5709 80.6684 20.5709 80.4607 20.5709 80.3568C20.5709 80.253 20.7958 80.3568 20.8823 80.3568C20.918 80.3805 20.9473 80.4127 20.9675 80.4504C20.9878 80.4882 20.9984 80.5304 20.9984 80.5732C20.9984 80.6161 20.9878 80.6583 20.9675 80.6961C20.9473 80.7338 20.918 80.7659 20.8823 80.7896C20.83 80.7787 20.7809 80.756 20.7389 80.7229C20.6969 80.6899 20.6631 80.6475 20.6401 80.5992L20.5709 80.6684ZM24.7231 83.6457C24.7417 83.696 24.7417 83.7512 24.7231 83.8015C24.5674 83.8015 24.4982 83.8015 24.5674 83.663C24.6367 83.5245 24.654 83.663 24.6886 83.5592L24.7231 83.6457ZM22.5952 84.1649C22.5952 84.1649 22.474 84.1649 22.4567 84.1649C22.4394 84.1649 22.4567 84.0611 22.4567 84.0092L22.5952 83.9226V84.1649ZM25.2422 82.434C25.2422 82.434 25.2422 82.6071 25.2422 82.6937C25.2422 82.7802 25.0346 82.6071 25 82.5379C24.9654 82.4686 25 82.3302 25 82.2263C25 82.1224 25.2595 82.2436 25.3114 82.3301L25.2422 82.434ZM24.9481 81.5512C24.9556 81.5912 24.9556 81.6323 24.9481 81.6724C24.9481 81.6724 24.9481 81.5339 24.9481 81.4473V81.5512ZM23.6851 81.3435C23.7575 81.4822 23.7933 81.6371 23.7889 81.7936C23.7889 81.7936 23.7889 81.8974 23.7024 81.8974C23.6159 81.8974 23.3564 81.8974 23.2872 81.707C23.218 81.5166 23.2872 81.3954 23.2007 81.1531C23.4775 81.1531 23.7197 81.1531 23.7197 81.2396L23.6851 81.3435ZM19.5502 81.6378C19.5502 81.5513 19.5502 81.4128 19.5502 81.3089L19.8616 81.4128V81.7417C19.7924 81.6032 19.654 81.6031 19.6194 81.5339L19.5502 81.6378ZM26.2284 80.0799V80.4435C26.0908 80.4215 25.9569 80.3807 25.8304 80.3223V80.0626C25.9784 80.0013 26.1375 79.9719 26.2976 79.9761L26.2284 80.0799ZM24.8443 80.0799C24.8365 80.0341 24.8365 79.9873 24.8443 79.9414C24.8347 80.0161 24.8347 80.0918 24.8443 80.1665C24.8443 80.1665 24.9135 79.9587 24.9135 79.9241L24.8443 80.0799ZM22.474 80.1838C22.5199 80.4587 22.5488 80.7361 22.5605 81.0146C22.4048 81.0146 22.2664 81.0146 22.2145 81.0146C22.1483 80.9561 22.0952 80.8842 22.0588 80.8036C22.0225 80.7231 22.0037 80.6357 22.0037 80.5473C22.0037 80.4589 22.0225 80.3715 22.0588 80.2909C22.0952 80.2103 22.1483 80.1384 22.2145 80.0799C22.314 80.0228 22.431 80.0043 22.5433 80.028L22.474 80.1838ZM14.6712 61.5935C14.6712 61.5935 14.6712 61.4549 14.6712 61.4376L15.0692 61.2646C15.0692 61.4031 15.0692 61.4896 15.0692 61.5761L14.6712 61.5935ZM8.28716 58.7028C8.27852 58.5356 8.27852 58.368 8.28716 58.2008C8.41062 58.315 8.52089 58.4428 8.61588 58.5816C8.64884 58.6769 8.64884 58.7806 8.61588 58.8759C8.58128 58.8932 8.37368 58.772 8.35638 58.547L8.28716 58.7028ZM9.60206 59.049H9.87888V59.222H9.74049C9.74049 59.222 9.67128 58.9797 9.67128 58.8932L9.60206 59.049ZM7.28372 61.6973C7.28372 61.6973 7.09339 61.7839 7.04148 61.6973C6.98958 61.6108 6.6782 61.455 6.48789 61.3338C6.6955 61.3338 6.90309 61.3338 7.1107 61.3338C7.31831 61.3338 7.30104 61.455 7.35294 61.5415L7.28372 61.6973ZM9.72318 60.4337C9.72318 60.4337 9.72318 60.5549 9.72318 60.5722C9.72318 60.5895 9.49827 60.5722 9.56747 60.4337C9.63668 60.2952 9.56749 60.4337 9.68859 60.3472C9.8097 60.2606 9.87888 60.2433 9.87888 60.2779L9.72318 60.4337ZM10.8132 59.2567C10.8295 59.1993 10.8665 59.15 10.917 59.1182C10.917 59.1182 11.0034 59.1182 11.0553 59.1182H11.1765C11.1765 59.3605 11.1765 59.5682 11.1765 59.7759H11.0381L10.8132 59.2567ZM8.61588 60.001C8.61588 60.001 8.61588 60.001 8.61588 60.0875C8.62206 60.1277 8.62206 60.1685 8.61588 60.2087C8.61249 60.0839 8.63611 59.96 8.6851 59.8452L8.61588 60.001ZM8.11419 60.6933L8.65052 60.2606C8.65052 61.1434 8.49477 61.2646 7.47401 61.1261C7.56051 60.5376 7.99307 60.6934 8.14878 60.5376L8.11419 60.6933ZM6.38409 61.403H6.15917C6.18702 61.3924 6.2178 61.3924 6.24565 61.403C6.24789 61.3716 6.2579 61.3413 6.27474 61.3147C6.29159 61.2881 6.31474 61.2661 6.34217 61.2506C6.36959 61.2352 6.40046 61.2268 6.43192 61.2262C6.46339 61.2256 6.49448 61.2329 6.52247 61.2473L6.38409 61.403ZM5.12109 61.6281C5.12109 61.6281 5.12109 61.6281 5.12109 61.7319C5.11705 61.7722 5.11705 61.8128 5.12109 61.8531V61.6281ZM5.55362 63.359C5.36331 63.2378 5.10381 63.0648 5.08651 62.8917C5.08161 62.5492 5.11057 62.2071 5.17299 61.8704C5.50171 62.1127 5.88234 62.3031 5.93424 62.7532C5.94566 62.9213 5.9097 63.0892 5.83044 63.2379C5.83044 63.2379 5.72661 63.2552 5.692 63.2206L5.55362 63.359ZM8.39102 63.1859H8.54672V63.2898C8.51456 63.3526 8.4669 63.4063 8.40828 63.4456C8.40828 63.4456 8.5294 63.134 8.5294 63.0474L8.39102 63.1859ZM2.40482 65.5054C2.40675 65.3515 2.43607 65.1991 2.49135 65.0554C2.49135 65.0554 2.68164 65.0553 2.78544 64.9169L2.95846 65.4534L2.40482 65.5054ZM4.56745 66.1112C4.56745 66.0247 4.65395 65.9035 4.72315 65.8689C4.82528 65.8425 4.93248 65.8425 5.03461 65.8689C4.97953 65.9607 4.90929 66.0427 4.82695 66.1112C4.77705 66.069 4.73078 66.0226 4.68857 65.9727L4.56745 66.1112ZM5.05187 65.8343C5.29505 65.4985 5.50375 65.1389 5.67474 64.7611C5.81315 64.4149 6.02075 64.3803 6.31487 64.2937C6.60899 64.2072 6.7647 63.9303 7.02422 63.7745C7.16998 63.7244 7.32825 63.7244 7.47401 63.7745C7.68162 63.7745 7.66432 64.1726 7.47401 64.3976C7.38213 64.549 7.26515 64.6836 7.12802 64.7957C6.57439 65.1419 5.95152 65.367 5.692 66.0593L5.05187 65.8343ZM8.4256 65.7305C8.4256 65.7305 8.54668 65.592 8.61588 65.5054C8.63173 65.5854 8.63173 65.6677 8.61588 65.7477C8.5875 65.8479 8.54057 65.9419 8.4775 66.0247C8.4611 65.9477 8.46032 65.8682 8.47518 65.7909C8.49004 65.7136 8.52021 65.64 8.56398 65.5746L8.4256 65.7305ZM4.44633 68.2576C4.43671 68.2236 4.43671 68.1877 4.44633 68.1537C4.42102 67.9711 4.43962 67.7852 4.5005 67.6112C4.56138 67.4372 4.66282 67.2802 4.79643 67.1533C4.93005 67.0264 5.09196 66.9333 5.26877 66.8815C5.44558 66.8297 5.63219 66.8207 5.81312 66.8555C5.91693 66.8555 6.00347 66.994 6.28029 67.2364C5.6455 67.39 5.07596 67.7415 4.65398 68.2402C4.65398 68.2402 4.68857 68.1537 4.58477 68.1191L4.44633 68.2576ZM11.5052 67.2536C11.3322 67.0805 11.1591 66.8728 11.3667 66.6305C11.4647 66.5441 11.5908 66.4964 11.7214 66.4964C11.852 66.4964 11.9781 66.5441 12.0761 66.6305L11.9204 67.6518C11.8018 67.4819 11.6977 67.3024 11.609 67.1152L11.5052 67.2536ZM11.9031 67.721C11.9061 67.6864 11.9061 67.6517 11.9031 67.6171V67.8248C11.9031 67.8248 12.0415 67.6171 12.0415 67.5825L11.9031 67.721ZM13.4775 68.0845C13.3737 68.0845 13.3045 67.7729 13.3218 67.6518C13.3863 67.4875 13.5014 67.348 13.6505 67.2536C13.8581 67.1151 14.1349 67.0113 14.2906 67.2536C14.3588 67.4359 14.3883 67.6305 14.3772 67.8248C14.2755 67.9163 14.1495 67.9764 14.0144 67.9979C13.8794 68.0194 13.741 68.0014 13.6159 67.946L13.4775 68.0845ZM18.6678 71.9791C18.6098 72.1197 18.5012 72.2333 18.3633 72.2975C18.2255 72.3616 18.0687 72.3716 17.9239 72.3253H17.7508H17.2318L18.3737 71.356C18.7024 71.3041 18.9447 71.4944 18.7716 71.8406L18.6678 71.9791ZM16.8512 72.5504C16.7502 72.5847 16.6408 72.5847 16.5398 72.5504C16.3668 72.5504 16.5398 72.256 16.7128 72.2387C16.8799 72.2301 17.0474 72.2301 17.2145 72.2387C17.1382 72.3349 17.0511 72.422 16.955 72.4984L16.8512 72.5504ZM17.3702 69.8847C17.128 71.356 17.128 71.356 15.7612 71.8926C16.0034 71.0098 15.7612 70.0578 16.6436 69.3827L17.3702 69.8847ZM14.3944 72.1695C14.3987 72.1177 14.3987 72.0655 14.3944 72.0137C14.3944 72.0137 14.4983 71.9098 14.5502 71.9098V72.083L14.3944 72.1695ZM15.2595 69.3134C15.3339 69.3413 15.4 69.3879 15.4515 69.4484C15.5029 69.509 15.5381 69.5817 15.5536 69.6596C15.5727 69.8986 15.5161 70.1376 15.3919 70.3426C15.2677 70.5477 15.0822 70.7084 14.8616 70.8021C14.8616 70.3521 14.8616 69.9366 14.8616 69.5384C14.8896 69.4288 14.9552 69.3324 15.0468 69.266C15.1385 69.1996 15.2504 69.1674 15.3633 69.175L15.2595 69.3134ZM11.4533 70.2655C10.9689 70.2655 10.519 70.0577 10.0519 69.9885C9.81036 69.963 9.56678 69.963 9.32523 69.9885C9.54801 69.595 9.90463 69.2948 10.3301 69.1423C10.7557 68.9898 11.2218 68.9952 11.6436 69.1577C11.7834 69.2015 11.9001 69.299 11.9682 69.4288C12.0363 69.5586 12.0503 69.71 12.0069 69.85C11.9694 69.926 11.9132 69.9913 11.8436 70.0397C11.774 70.0882 11.6933 70.1182 11.609 70.127L11.4533 70.2655ZM14.0658 70.7155C14.0658 70.802 13.9792 70.9232 13.91 70.9578C13.8408 70.9925 13.7024 70.9578 13.5986 70.9578C13.6537 70.8659 13.7239 70.784 13.8062 70.7155C13.9188 70.6495 14.0416 70.6028 14.1696 70.5771L14.0658 70.7155ZM10.8651 71.7888C10.8651 71.7888 10.9516 71.7888 10.9862 71.6849H11.0727C11.0727 71.6849 11.0727 71.8233 11.0727 71.8406C11.0727 71.8579 10.8996 71.8233 10.9689 71.6503L10.8651 71.7888ZM12.872 71.5809C12.8701 71.4923 12.8882 71.4044 12.925 71.3238C12.9618 71.2432 13.0163 71.1719 13.0845 71.1154C13.1527 71.0588 13.2329 71.0183 13.3189 70.997C13.4049 70.9758 13.4946 70.9742 13.5813 70.9925C13.4083 71.4598 13.218 71.9099 13.0277 72.3772C12.9539 72.0714 12.9363 71.7547 12.9758 71.4425L12.872 71.5809ZM10.692 72.7234C10.692 72.8792 10.692 73.0523 10.692 73.0696L9.22143 73.6236C9.58475 72.6196 10.1903 72.6195 10.7958 72.5849L10.692 72.7234ZM13.0277 72.4119L14.1868 73.2773V73.3985L11.5571 74.5409C12.2145 73.5196 12.699 72.9138 13.1315 72.2734L13.0277 72.4119ZM20.4671 72.7408L20.0519 73.3119C20.0346 72.6714 20.0519 72.6715 20.5709 72.6022L20.4671 72.7408ZM17.3183 75.3025C17.128 75.164 17.3183 75.0429 17.3183 74.9563C17.3183 74.8698 17.6125 74.8178 18.0623 74.6101C17.9194 74.8576 17.7512 75.0897 17.5605 75.3025C17.5014 75.2715 17.4531 75.2232 17.4221 75.164L17.3183 75.3025ZM17.6643 76.4969C17.6643 76.3411 17.6643 76.168 17.7508 76.1161C18.6543 75.3202 19.4252 74.3852 20.0346 73.3465C20.1135 73.4345 20.1673 73.5421 20.1903 73.6581C20.1903 74.6101 20.3114 75.5795 20.346 76.5315C20.3312 76.5952 20.3016 76.6545 20.2595 76.7046L18.9273 76.3238C18.7716 76.5835 18.6505 76.7911 18.5467 76.9988C18.218 76.895 18.0104 76.5834 17.7681 76.3584L17.6643 76.4969ZM14.2041 77.8989C14.3162 77.8101 14.4381 77.7346 14.5674 77.6739C14.6129 77.7865 14.6649 77.8963 14.7231 78.0028C14.6057 78.0716 14.4767 78.1186 14.3425 78.1413C14.3425 78.1413 14.3252 77.7951 14.3425 77.6912L14.2041 77.8989ZM20.6401 77.1027C20.6401 77.1027 20.6401 76.9816 20.6401 76.9469C20.6401 76.9123 20.8477 76.9469 20.8304 76.9469C20.8131 76.9469 20.8305 77.0508 20.7093 77.0681C20.5882 77.0854 20.8131 76.9816 20.7785 76.9643L20.6401 77.1027ZM19.6194 78.8336C19.6118 78.782 19.6118 78.7295 19.6194 78.6779C19.6194 78.6779 19.7232 78.6779 19.7751 78.6779C19.8078 78.7215 19.8367 78.7679 19.8616 78.8164L19.6194 78.8336ZM20.5017 79.0586C20.5396 78.9483 20.592 78.8436 20.6574 78.7471C20.5363 78.5221 20.5363 78.2624 20.8132 78.2105C20.9233 78.2158 21.0307 78.2467 21.1268 78.3008C21.2229 78.3549 21.3051 78.4306 21.3668 78.522C21.3875 78.6283 21.3843 78.7378 21.3574 78.8426C21.3305 78.9474 21.2804 79.0449 21.211 79.1279C21.0726 79.2664 20.7958 79.2837 20.5709 79.353C20.346 79.4222 20.6228 79.0068 20.6401 78.9202L20.5017 79.0586ZM50.0692 49.4422C50.0692 49.4422 50.2595 49.4422 50.3806 49.4422C50.5017 49.4422 50.4671 49.1826 50.3806 49.1133C50.3397 49.0739 50.2906 49.0441 50.2367 49.0261C50.1828 49.0081 50.1256 49.0024 50.0692 49.0095C50.0517 49.067 50.0562 49.1289 50.0817 49.1833C50.1073 49.2377 50.1522 49.2806 50.2076 49.3038L50.0692 49.4422ZM55.7959 47.9017C55.7959 48.0575 55.7958 48.0921 55.9861 47.9017C56.1765 47.7113 55.9861 47.8151 55.9861 47.7632C55.9861 47.7113 55.8996 47.7632 55.865 47.7632C55.8304 47.7632 55.9342 47.7113 55.9342 47.7632L55.7959 47.9017ZM40.2249 51.4501C40.2249 51.4501 40.4498 51.3116 40.4671 51.2424C40.4844 51.1732 40.3633 51.052 40.3114 50.9481H40.1557C40.13 51.0679 40.13 51.1919 40.1557 51.3117C40.1557 51.3117 40.3979 51.2597 40.4325 51.3117L40.2249 51.4501ZM35.8823 51.8828C35.9042 51.9012 35.9317 51.9112 35.9602 51.9112C35.9887 51.9112 36.0162 51.9012 36.038 51.8828C36.1246 51.7444 36.1764 51.5886 36.2456 51.4501H36.1418L35.8997 51.6578V51.7617C35.8997 51.7617 36.0553 51.7271 36.0899 51.7271L35.8823 51.8828ZM31.7993 51.3463C31.9043 51.4621 32.0438 51.5411 32.1972 51.5713C32.3183 51.5713 32.4394 51.4155 32.5605 51.3289C32.6816 51.2424 32.4394 51.1039 32.3529 51.0866C32.2003 51.0429 32.0384 51.0429 31.8858 51.0866C31.8858 51.0866 31.9723 51.1732 32.0069 51.2078L31.7993 51.3463ZM45.6402 49.8403C45.6183 49.8308 45.5948 49.8259 45.5709 49.8259C45.5471 49.8259 45.5235 49.8308 45.5017 49.8403C45.5017 49.8403 45.5017 49.8403 45.4152 49.8403C45.3287 49.8403 45.4152 49.9615 45.5017 49.9788C45.5882 49.9961 46.0207 49.8576 45.9342 49.7018L45.6402 49.8403ZM16.9723 54.2716C16.9941 54.2899 17.0217 54.2999 17.0501 54.2999C17.0786 54.2999 17.1062 54.2899 17.128 54.2716L17.3356 53.8388C17.3356 53.8388 17.2491 53.8388 17.2318 53.8388C17.1412 53.9027 17.0545 53.9721 16.9723 54.0465C16.965 54.0982 16.965 54.1506 16.9723 54.2023C16.9723 54.2023 17.2318 54.1158 17.2664 54.1331L16.9723 54.2716ZM37.7336 54.2716L39.3426 53.5273C39.3426 53.5273 39.3425 53.3368 39.4464 53.2157L38.3564 52.8176C37.6643 53.6138 37.6644 53.6138 37.9412 54.0811L37.7336 54.2716ZM34.2734 48.3864C34.2734 48.3864 34.2733 48.3864 34.4117 48.2825C34.5502 48.1787 34.2733 48.0575 34.2041 48.0575C34.1349 48.0575 33.9966 48.144 33.9101 48.1959C33.9024 48.2534 33.9024 48.3116 33.9101 48.369C34.1061 48.3842 34.3028 48.3484 34.481 48.2652L34.2734 48.3864ZM15.9169 55.1024C15.8776 55.1274 15.8453 55.162 15.8229 55.2028C15.8005 55.2436 15.7887 55.2895 15.7887 55.3361C15.7887 55.3827 15.8005 55.4286 15.8229 55.4694C15.8453 55.5102 15.8776 55.5448 15.9169 55.5698C15.9969 55.5852 16.0792 55.5852 16.1592 55.5698L16.0035 55.0851C16.0035 55.0851 16.1591 54.8774 16.1245 54.912L15.9169 55.1024ZM43.5294 49.9961C43.6922 49.9885 43.8463 49.9207 43.962 49.8057C44.1523 49.6153 44.083 49.2345 43.8754 49.2345C43.7356 49.2567 43.6009 49.3036 43.4775 49.373C43.2872 49.6153 43.3391 49.9961 43.5294 49.9961ZM14.3598 54.2716V54.3754C14.5203 54.4013 14.6838 54.4013 14.8443 54.3754C14.8544 54.2892 14.8544 54.202 14.8443 54.1158L14.3598 54.2716ZM11.9377 54.7389C11.9377 54.7389 11.9377 54.5312 11.9377 54.4273C11.774 54.3037 11.5805 54.2258 11.3768 54.2015C11.1732 54.1771 10.9667 54.2073 10.7785 54.2889C10.7785 54.2889 10.6574 54.5312 10.7785 54.5831C10.9338 54.7239 11.1299 54.8116 11.3383 54.8333C11.5468 54.8551 11.7567 54.8099 11.9377 54.7043V54.7389ZM42.0415 48.0401C42.0415 48.0401 42.0415 48.0402 42.0415 47.9363V48.1613C42.0415 48.1613 42.0415 48.0402 42.0415 48.0055V48.0401ZM40.3114 48.1959C40.3114 48.3171 40.3114 48.5767 40.3114 48.6287C40.3114 48.6806 40.744 48.6287 40.8305 48.4036C40.8562 48.2664 40.8562 48.1255 40.8305 47.9882C40.7852 47.9588 40.7339 47.9399 40.6804 47.9328C40.6269 47.9257 40.5725 47.9307 40.5212 47.9472C40.4698 47.9638 40.4227 47.9916 40.3835 48.0286C40.3442 48.0657 40.3137 48.111 40.2941 48.1613L40.3114 48.1959ZM48.9619 47.0189C48.971 46.9674 48.971 46.9147 48.9619 46.8631C48.9619 46.8631 48.8754 46.8631 48.8235 46.8631C48.7716 46.8631 48.8235 47.0016 48.8235 47.0708L48.9619 47.0189ZM42.0415 48.9056C42.0845 48.927 42.1319 48.9381 42.1799 48.9381C42.228 48.9381 42.2753 48.927 42.3183 48.9056C42.3183 48.9056 42.4394 48.6806 42.3183 48.6114C42.2332 48.4703 42.1283 48.342 42.0069 48.2306C41.9185 48.375 41.8542 48.5328 41.8166 48.6979C41.8166 48.6979 41.9204 48.8364 41.9896 48.871L42.0415 48.9056ZM35.4671 50.6366C35.4671 50.7404 35.3806 50.8789 35.4671 50.9481C35.5536 51.0174 35.6402 50.9482 35.744 51.0866V50.7404L35.4671 50.6366ZM33.391 52.0733C33.6332 52.0733 33.8754 52.0733 33.9273 51.779C33.9792 51.4847 33.7889 51.5366 33.7024 51.4328C33.5387 51.562 33.3827 51.7007 33.2353 51.8482C33.2353 51.8482 33.2353 51.9521 33.2353 52.0214L33.391 52.0733ZM36.8512 48.7498L36.2975 48.8364C36.2975 49.0614 36.436 49.2172 36.4879 49.373C36.5398 49.5288 36.7474 49.2865 36.782 49.1999C36.8119 49.0456 36.8119 48.8869 36.782 48.7325L36.8512 48.7498ZM32.0242 51.9867L31.9377 52.0733C31.9377 52.0733 31.9377 52.1771 32.0415 52.1944C32.1453 52.2117 32.2664 52.1944 32.1626 52.056C32.0588 51.9175 32.0069 51.9694 31.955 51.9694L32.0242 51.9867ZM52.1626 48.5248C52.4913 47.9882 52.1626 47.7632 52.1626 47.5036C52.1626 47.2439 51.9723 47.5036 51.8858 47.5036C51.7993 47.5036 51.7993 47.7459 51.8858 47.8498C51.9468 48.0487 52.0161 48.2451 52.0934 48.4383L52.1626 48.5248ZM54.4636 47.9363C54.5139 47.9548 54.5691 47.9548 54.6193 47.9363C54.6193 47.9363 54.6193 47.9363 54.6193 47.8151C54.6193 47.694 54.5329 47.7113 54.4983 47.694C54.4637 47.6767 54.2734 47.7113 54.3945 47.8498L54.4636 47.9363ZM37.526 38.3642L37.7681 38.5546H38.0796L37.9239 38.1219L37.526 38.3642ZM33.5294 40.6317C33.4163 40.6616 33.3062 40.7022 33.2007 40.7529C33.2007 40.7529 33.2007 40.9087 33.2007 40.926C33.3079 40.9582 33.4222 40.9582 33.5294 40.926C33.5294 40.926 33.6159 40.7356 33.6505 40.6317C33.6851 40.5279 33.4948 40.5279 33.4602 40.5452L33.5294 40.6317ZM24.9827 42.1896H24.8443C24.8386 42.2702 24.8386 42.3512 24.8443 42.4319L24.9654 42.3281L24.9827 42.1896ZM29.308 41.0644L28.9446 40.9606C28.9279 41.0986 28.9279 41.238 28.9446 41.376C28.9446 41.376 29.1869 41.4799 29.2042 41.376C29.2364 41.2459 29.2481 41.1116 29.2387 40.9779L29.308 41.0644ZM44.8789 38.7104C44.8717 38.8372 44.8717 38.9644 44.8789 39.0912H45.3806C45.3806 38.9354 45.3806 38.7623 45.2941 38.6065L44.8789 38.7104ZM41.4187 39.2297C41.5925 39.2173 41.7543 39.1363 41.8685 39.0046C41.9643 38.7191 42.0225 38.4224 42.0415 38.1219C41.7128 38.2547 41.3995 38.423 41.1072 38.6238C41.0034 38.7104 40.9862 38.9181 40.9343 39.0739C41.0301 39.1055 41.1285 39.1287 41.2284 39.1431L41.4187 39.2297ZM46.0727 36.9794V36.8063H45.9169C45.9169 36.8929 45.9169 36.9794 45.9169 37.0486L46.0727 36.9794ZM31.8512 36.4255C31.8119 36.2075 31.7541 35.9932 31.6782 35.7851C31.5471 35.969 31.4259 36.1596 31.3149 36.3563C31.2936 36.3993 31.2824 36.4467 31.2824 36.4948C31.2824 36.5428 31.2936 36.5902 31.3149 36.6332C31.3628 36.659 31.4163 36.6725 31.4706 36.6725C31.5249 36.6725 31.5784 36.659 31.6263 36.6332C31.6263 36.6332 31.6782 36.4082 31.6609 36.339L31.8512 36.4255ZM43.7197 38.9873C43.7197 38.9873 43.7197 38.9873 43.7197 38.8488L43.6332 38.7623C43.6332 38.7623 43.5294 38.7623 43.5121 38.8662C43.4948 38.97 43.3737 39.0046 43.5294 38.9008L43.7197 38.9873ZM27.5951 39.1085C27.5889 39.1544 27.5889 39.201 27.5951 39.247H27.8027C27.7943 39.1954 27.7943 39.1428 27.8027 39.0912C27.8027 39.0912 27.4394 39.0046 27.4048 39.0219L27.5951 39.1085ZM66.9723 30.5057C66.9783 30.5574 66.9783 30.6097 66.9723 30.6615H67.2146C67.1921 30.6116 67.163 30.565 67.128 30.523L66.9723 30.5057ZM31.436 35.4389C31.4277 35.5137 31.4277 35.5891 31.436 35.6639V35.5774C31.4481 35.5323 31.454 35.4856 31.4533 35.4389H31.436ZM37.0242 37.291C37.1314 37.3232 37.2457 37.3232 37.3529 37.291C37.3529 37.291 37.4394 37.1006 37.5086 36.9275L37.0069 37.0833C37.0069 37.0833 37.0242 37.2737 37.0415 37.291H37.0242ZM32.6297 39.6105C32.6297 39.4547 32.6297 39.4201 32.4567 39.5239C32.2837 39.6278 32.4567 39.6278 32.4567 39.6797H32.5778L32.6471 39.6105H32.6297ZM41.955 35.0407C41.955 35.0407 41.955 35.162 41.955 35.1966C41.955 35.2312 42.0588 35.1966 42.1107 35.1966C42.1169 35.1101 42.1169 35.0233 42.1107 34.9369L41.955 35.0407ZM72.3875 29.6575C72.3875 29.6575 72.3875 29.7787 72.3875 29.8133H72.5433V29.5537L72.3875 29.6575ZM31.1419 38.5546C31.1419 38.3815 31.1418 38.3469 30.9515 38.468C30.7612 38.5892 30.9515 38.5719 30.9515 38.6238C30.9515 38.6757 31.0554 38.6238 31.09 38.6238C31.1246 38.6238 31.1591 38.5892 31.1591 38.5546H31.1419ZM41.2457 36.5121C41.1203 36.4849 40.9905 36.4849 40.8651 36.5121C40.5882 36.8063 40.5709 37.0833 40.8651 37.1525C40.9388 37.1734 41.0165 37.1764 41.0917 37.1614C41.1669 37.1463 41.2375 37.1136 41.2976 37.066C41.4879 36.8929 41.4706 36.5986 41.263 36.5121H41.2457ZM23.2526 41.0471C23.2526 41.0471 23.2526 41.1337 23.1661 41.1856H23.391V41.0298C23.391 41.0298 23.3045 41.0125 23.2699 41.0471H23.2526ZM19.7059 50.0827V50.1865C19.7856 50.2044 19.8683 50.2044 19.9481 50.1865L19.8616 50.0481L19.7059 50.0827ZM27.6989 44.5783H27.5779C27.5779 44.5783 27.4567 44.5783 27.4567 44.6994C27.4567 44.8206 27.4567 44.8898 27.647 44.6994C27.8373 44.509 27.6989 44.6302 27.7162 44.5783H27.6989ZM17.9585 46.3092C17.9254 46.285 17.8962 46.2558 17.872 46.2227C17.872 46.2227 17.7509 46.2227 17.7336 46.3265C17.7163 46.4304 17.7336 46.5515 17.8893 46.465C17.9208 46.4373 17.9451 46.4023 17.9602 46.3631C17.9752 46.3239 17.9806 46.2817 17.9758 46.24L17.9585 46.3092ZM29.5675 48.2133C29.5675 48.2133 29.5674 48.0228 29.4809 47.919C29.3944 47.8151 29.2734 47.7632 29.1868 47.7805C29.0474 47.8319 28.9185 47.9081 28.8062 48.0055L29.1003 48.3344C29.1271 48.3481 29.1568 48.3552 29.1868 48.3552C29.2169 48.3552 29.2465 48.3481 29.2733 48.3344C29.393 48.3016 29.501 48.2356 29.5848 48.144L29.5675 48.2133ZM34.9481 47.0362H35.173H35.0519C35.0519 47.0362 35 46.9497 34.9654 46.967L34.9481 47.0362ZM14.0484 50.8789C14.0484 50.8789 14.0484 51.0001 14.0484 51.0347C14.0484 51.0693 14.1522 51.0347 14.2041 51.0347V50.7923L14.0484 50.8789ZM18.1488 49.9615C18.2002 49.81 18.2002 49.6457 18.1488 49.4941C18.1488 49.3037 17.7163 49.373 17.526 49.6499C17.5093 49.7879 17.5093 49.9274 17.526 50.0654C17.6644 50.1865 18.045 50.1346 18.1661 49.8923L18.1488 49.9615ZM37.9931 38.7623V38.8662C38.0001 38.7913 38.0001 38.716 37.9931 38.6411C37.9931 38.6411 37.9931 38.6584 38.0104 38.6931L37.9931 38.7623ZM33.5121 42.83H33.3564C33.3468 42.9105 33.3468 42.9919 33.3564 43.0723L33.4775 42.9858L33.5121 42.83ZM33.6505 41.8261V41.9818C33.7575 42.0151 33.8722 42.0151 33.9792 41.9818C33.9792 41.9818 34.0657 41.8261 34.1522 41.6357L33.6505 41.8261ZM20.2595 44.9591C20.1627 44.9368 20.0621 44.9368 19.9654 44.9591C20.0516 45.0211 20.1444 45.0733 20.2422 45.1149C20.2422 45.1149 20.3979 45.1149 20.4844 45.1149C20.5709 45.1149 20.2595 44.9591 20.2595 44.9591ZM19.6713 44.9591C19.5915 44.9412 19.5088 44.9412 19.429 44.9591C19.429 44.9591 19.5675 45.1322 19.6367 45.1322C19.733 45.1579 19.8344 45.1579 19.9308 45.1322C19.834 45.0105 19.7237 44.9002 19.6021 44.8033L19.6713 44.9591ZM60.5882 37.6718C60.5882 37.6718 60.692 37.6718 60.7093 37.6718H60.8305C60.8305 37.4641 60.8304 37.4468 60.6401 37.5506C60.4498 37.6545 60.5363 37.5333 60.519 37.5852L60.5882 37.6718ZM22.7682 44.5956H22.6124C22.6028 44.6761 22.6028 44.7574 22.6124 44.8379H22.7335L22.7682 44.5956ZM38.6159 41.0125C38.7737 41.0387 38.9354 41.0014 39.0657 40.9087C39.2906 40.7183 39.2906 40.4067 39.0657 40.3375C38.9346 40.3094 38.799 40.3094 38.6678 40.3375C38.3564 40.6491 38.3391 40.926 38.5467 40.9952L38.6159 41.0125ZM59.3771 21.4355C59.337 21.395 59.2879 21.3645 59.2338 21.3464C59.1797 21.3284 59.1221 21.3233 59.0657 21.3317C59.0299 21.3532 59.0002 21.3837 58.9797 21.4201C58.9591 21.4565 58.9483 21.4976 58.9483 21.5394C58.9483 21.5812 58.9591 21.6223 58.9797 21.6587C59.0002 21.6951 59.0299 21.7256 59.0657 21.7471C59.0657 21.7471 59.2733 21.7471 59.3771 21.7471C59.4809 21.7471 59.4118 21.4875 59.3599 21.4182L59.3771 21.4355ZM51.1246 23.3396L50.7958 23.478V23.6338C50.9021 23.6722 51.0183 23.6722 51.1246 23.6338C51.1246 23.6338 51.2111 23.4435 51.2457 23.3396C51.2007 23.3267 51.154 23.3208 51.1072 23.3223L51.1246 23.3396ZM61.9031 20.3624C61.8941 20.4139 61.8941 20.4666 61.9031 20.5182C61.9031 20.5182 61.9896 20.5182 62.0415 20.5182V20.2758L61.9031 20.3624ZM65.3633 19.67C65.3633 19.5835 65.3633 19.4623 65.3633 19.3411C65.3633 19.22 65.1211 19.2373 65.0346 19.3411C64.9572 19.4265 64.9141 19.5374 64.9135 19.6527C64.9135 19.7219 65.2422 19.7912 65.2422 19.6527L65.3633 19.67ZM41.436 27.39C41.43 27.3382 41.43 27.286 41.436 27.2342C41.436 27.2342 41.3149 27.2342 41.2803 27.2342C41.2478 27.284 41.2189 27.3361 41.1938 27.39H41.436ZM56.7993 22.2837C56.753 22.2632 56.7029 22.2526 56.6522 22.2526C56.6016 22.2526 56.5515 22.2632 56.5052 22.2837C56.4139 22.3588 56.3385 22.4515 56.2837 22.5562C56.2288 22.661 56.1956 22.7756 56.1859 22.8935C56.1762 23.0114 56.1903 23.13 56.2273 23.2423C56.2643 23.3546 56.3235 23.4583 56.4014 23.5473C56.5917 23.2011 56.7993 22.8549 56.9723 22.4914C56.9377 22.4741 56.8166 22.301 56.7301 22.301L56.7993 22.2837ZM56.3668 23.7723V23.8589C56.3584 23.7899 56.3584 23.7201 56.3668 23.6512C56.3373 23.681 56.3138 23.7163 56.2975 23.755L56.3668 23.7723ZM66.1592 27.4939V27.2515H66.038C66.038 27.2515 66.038 27.3727 66.038 27.4073C66.038 27.4419 66.0553 27.4939 66.0899 27.4939H66.1592ZM48.8927 24.4301C48.8927 24.4301 48.8062 24.4301 48.7716 24.4301H48.6505C48.6505 24.6378 48.6505 24.6724 48.8408 24.5512C49.0311 24.4301 48.8062 24.4647 48.8235 24.4128L48.8927 24.4301ZM59.7059 18.8737H59.481C59.481 19.0468 59.5675 19.2026 59.6194 19.3584C59.6713 19.5142 59.7578 19.3584 59.7751 19.3584C59.8291 19.3285 59.8716 19.2814 59.8958 19.2245C59.92 19.1677 59.9245 19.1044 59.9086 19.0447C59.8927 18.985 59.8573 18.9323 59.808 18.8951C59.7587 18.8578 59.6984 18.8381 59.6367 18.8391L59.7059 18.8737ZM47.5086 13.0924L47.4048 13.0059C47.4048 13.0059 47.301 13.0058 47.2837 13.0924C47.2664 13.1789 47.2837 13.3347 47.4394 13.2309C47.4516 13.2067 47.458 13.18 47.458 13.153C47.458 13.1259 47.4516 13.0993 47.4394 13.0751L47.5086 13.0924ZM56.3841 15.9312C56.4675 15.7522 56.5369 15.567 56.5917 15.3772L56.0727 15.2734C56.0524 15.4517 56.0524 15.6317 56.0727 15.81C56.0727 15.81 56.2803 15.9485 56.3149 15.9138L56.3841 15.9312ZM9.74049 55.189C9.72511 55.0162 9.72511 54.8424 9.74049 54.6697L7.57786 57.1276C8.37793 56.8987 9.12071 56.5035 9.75776 55.9679C9.73096 55.7092 9.72521 55.4486 9.74049 55.189V55.189ZM50.9689 16.8486C50.9689 16.8486 50.8478 16.8486 50.8305 16.8486C50.8226 16.9349 50.8226 17.0218 50.8305 17.1082H50.9689C50.9749 17.0275 50.9749 16.9465 50.9689 16.8658V16.8486ZM54.4291 17.0909C54.3742 17.0886 54.3195 17.0983 54.2688 17.1192C54.218 17.1401 54.1723 17.1718 54.1349 17.212C53.91 17.489 53.9273 17.766 54.1349 17.8179C54.3425 17.8698 54.3426 17.8179 54.4464 17.8179C54.5502 17.8179 54.6194 17.1082 54.4464 17.1082L54.4291 17.0909ZM54.8443 19.9123C54.7059 19.8258 54.5502 19.7738 54.4117 19.7046C54.2733 19.6354 54.4117 19.8257 54.4117 19.8431L54.7924 20.12C54.7924 20.12 54.8789 20.12 54.9135 20.12C54.9481 20.12 54.8616 19.9469 54.8616 19.9296L54.8443 19.9123ZM61.5398 16.1389H61.3841C61.3785 16.2138 61.3785 16.289 61.3841 16.3639C61.3951 16.4613 61.4376 16.5525 61.5052 16.6235C61.5917 16.6235 61.7301 16.5024 61.7301 16.4158C61.7301 16.3293 61.609 16.26 61.5571 16.1562L61.5398 16.1389ZM36.782 27.7535C36.782 27.8573 36.782 28.0477 36.8685 28.1343C36.955 28.2208 37.1453 28.2901 37.2837 28.3593C37.316 28.2111 37.316 28.0575 37.2837 27.9093C37.2642 27.8654 37.2352 27.8263 37.199 27.7948C37.1627 27.7633 37.12 27.7402 37.0738 27.727C37.0276 27.7138 36.9791 27.7108 36.9317 27.7184C36.8843 27.726 36.8391 27.7439 36.7993 27.7708L36.782 27.7535ZM39.9308 27.7535C39.9308 27.7535 39.9308 27.8746 39.9308 27.9093C39.9308 27.9439 40.0173 27.9093 40.0692 27.9093V27.6496L39.9308 27.7535ZM60.2595 29.2767C60.2595 29.2767 60.2595 29.2767 60.173 29.3806C60.0865 29.4844 60.173 29.4844 60.2768 29.5018C60.3806 29.5191 60.5017 29.5018 60.4152 29.346C60.3854 29.29 60.3362 29.2469 60.2768 29.2248L60.2595 29.2767ZM71.1592 25.5033C71.1829 25.539 71.215 25.5683 71.2527 25.5885C71.2904 25.6088 71.3326 25.6194 71.3755 25.6194C71.4183 25.6194 71.4604 25.6088 71.4982 25.5885C71.5359 25.5683 71.568 25.539 71.5917 25.5033C71.6071 25.4291 71.6071 25.3525 71.5917 25.2782L71.1246 25.434C71.1402 25.4529 71.1576 25.4703 71.1765 25.486L71.1592 25.5033ZM47.1453 31.7C47.1453 31.7 47.2491 31.7 47.301 31.7V31.4404L47.1626 31.5269C47.1626 31.5269 47.1453 31.6481 47.1626 31.6828L47.1453 31.7ZM35.6402 33.881C35.6402 33.881 35.4498 33.7945 35.2768 33.7253C35.2768 33.9157 35.3806 34.0715 35.4325 34.2273H35.5882C35.6401 34.0715 35.692 33.933 35.6574 33.8637L35.6402 33.881ZM37.3703 32.6174C37.3703 32.6174 37.3703 32.704 37.3703 32.7559H37.5779C37.5731 32.7215 37.5731 32.6865 37.5779 32.6521C37.5779 32.6521 37.4221 32.5828 37.3875 32.6867L37.3703 32.6174ZM28.5813 34.66C28.4775 34.66 28.3045 34.7984 28.2007 34.885C28.2138 34.9943 28.2698 35.0939 28.3564 35.1619C28.6232 35.2379 28.8949 35.2957 29.1695 35.335C29.2201 35.2598 29.2608 35.1784 29.2906 35.0927C29.0681 34.9306 28.8371 34.7803 28.5986 34.6427L28.5813 34.66ZM33.564 32.5828L33.4429 32.4617C33.3215 32.5731 33.2166 32.7013 33.1315 32.8425C33.1315 32.9982 33.1315 33.1021 33.3045 32.9982C33.4178 32.8686 33.5111 32.7227 33.5813 32.5655L33.564 32.5828ZM40.2941 31.302C40.3351 31.2849 40.3701 31.256 40.3947 31.219C40.4194 31.1821 40.4325 31.1386 40.4325 31.0942C40.4325 31.0498 40.4194 31.0064 40.3947 30.9694C40.3701 30.9325 40.3351 30.9036 40.2941 30.8865C40.2941 30.8865 40.0865 30.8865 40 30.8865C39.9135 30.8865 40 31.1288 40 31.1808C40.0393 31.2225 40.0883 31.2539 40.1426 31.272C40.197 31.2901 40.255 31.2945 40.3114 31.2846L40.2941 31.302ZM30.9343 32.3751C30.9313 32.427 30.9313 32.479 30.9343 32.5309H31.1765L31.09 32.3924L30.9343 32.3751ZM33.5813 31.2673C33.5967 31.2115 33.6002 31.1531 33.5916 31.0959C33.5831 31.0386 33.5626 30.9838 33.5317 30.9349C33.5007 30.886 33.46 30.8442 33.4119 30.812C33.3638 30.7798 33.3096 30.758 33.2526 30.748C33.0633 30.7198 32.8709 30.7198 32.6816 30.748C32.6816 31.025 32.6816 31.2846 32.8547 31.4404C33.0277 31.5962 33.5467 31.4924 33.5986 31.25L33.5813 31.2673ZM74.7751 25.0878C74.7751 25.0878 74.7751 25.209 74.7751 25.2609L75.2768 25.1744V24.932L74.7751 25.0878ZM76.1246 20.9163L76.038 20.8124C76.038 20.8124 75.9343 20.8124 75.917 20.9163C75.8997 21.0201 75.917 21.1413 76.0727 21.0547C76.1153 21.0139 76.1401 20.958 76.1418 20.899L76.1246 20.9163ZM32.0934 32.0636C32.0934 31.977 32.0934 31.8558 32.0934 31.7693C32.0934 31.6827 31.8339 31.7693 31.782 31.7693C31.7563 31.8172 31.7428 31.8707 31.7428 31.9251C31.7428 31.9794 31.7563 32.033 31.782 32.0808C31.7301 32.2366 32.0588 32.2193 32.1107 32.0462L32.0934 32.0636ZM37.2837 30.3326C37.3875 30.3326 37.4913 30.3326 37.5951 30.3326C37.5126 30.265 37.4189 30.2122 37.3183 30.1768C37.2326 30.1604 37.1445 30.1604 37.0588 30.1768C37.2145 30.1249 37.2837 30.2287 37.3529 30.246L37.2837 30.3326ZM38.2699 30.8865C38.2699 30.8865 38.2699 30.7826 38.2699 30.7134C38.2699 30.2633 38.1661 30.2288 37.5779 30.2634C37.6718 30.4751 37.794 30.6731 37.9412 30.8519C37.9412 30.8519 38.2353 30.8 38.3391 30.8L38.2699 30.8865ZM32.1107 71.2522H31.609V71.4944C31.7567 71.453 31.9013 71.401 32.0415 71.3387C32.0415 71.3387 32.1799 71.2175 32.1799 71.1655L32.1107 71.2522ZM27.3702 71.806C27.3702 71.7021 27.3702 71.4944 27.3702 71.4771C27.3702 71.4598 27.0242 71.3041 26.9204 71.356C26.4706 71.5464 26.0726 71.7888 25.2768 72.2215L26.3841 72.4292C26.5004 72.4597 26.6219 72.465 26.7405 72.4449C26.8591 72.4248 26.972 72.3798 27.0718 72.3127C27.1717 72.2455 27.2561 72.1579 27.3195 72.0556C27.3828 71.9534 27.4237 71.8388 27.4394 71.7195L27.3702 71.806ZM30.0346 72.2387C30.1608 72.4414 30.3119 72.6275 30.4844 72.7926C30.5882 72.7926 30.8131 72.7926 30.9689 72.7926C30.9884 72.746 30.9984 72.6961 30.9984 72.6456C30.9984 72.595 30.9884 72.545 30.9689 72.4984C30.865 72.1522 30.7093 71.8233 30.5363 71.3732C30.2422 71.4771 30.0346 71.4771 29.9308 71.5983C29.827 71.7194 29.9481 71.9618 30.1038 72.1522L30.0346 72.2387ZM35.5882 56.6603C35.7121 56.5993 35.8283 56.5238 35.9342 56.4352C35.9342 56.4352 35.8477 56.1756 35.8131 56.1929C35.6753 56.2226 35.5417 56.2692 35.4152 56.3314C35.5023 56.418 35.5832 56.5106 35.6574 56.6083L35.5882 56.6603ZM29.6886 65.99H29.9135C29.891 65.9402 29.8619 65.8936 29.827 65.8515H29.654C29.654 65.8515 29.7405 65.9382 29.7578 65.9382L29.6886 65.99ZM33.3391 70.1962V71.5637C33.9965 71.4599 33.9965 71.4599 35.0692 70.0578C34.6367 69.6251 34.6367 69.6251 33.4083 70.1443L33.3391 70.1962ZM11.3841 65.0034C11.4312 64.9676 11.4678 64.9199 11.49 64.8651C11.5123 64.8103 11.5193 64.7506 11.5105 64.6921C11.5016 64.6337 11.4772 64.5787 11.4397 64.5329C11.4022 64.4872 11.3531 64.4524 11.2976 64.4322C11.0948 64.3866 10.8828 64.4074 10.6927 64.4915C10.5027 64.5757 10.3447 64.7187 10.2422 64.8995C10.407 65.0483 10.6194 65.1335 10.8413 65.1399C11.0633 65.1462 11.2802 65.0733 11.4533 64.9342L11.3841 65.0034ZM19.7578 67.8941V67.7903C19.7578 67.7903 19.7578 67.946 19.7578 68.0152C19.8003 67.9606 19.8245 67.894 19.827 67.8248L19.7578 67.8941ZM25.1211 69.5212C25.4152 69.5212 25.7785 69.5212 25.9169 69.2962C25.9599 69.0325 25.9599 68.7636 25.9169 68.4999L24.6712 67.998C24.6712 68.2922 24.5847 68.5864 24.5674 68.8807C24.5671 68.9603 24.5835 69.0391 24.6153 69.112C24.6472 69.185 24.694 69.2503 24.7526 69.3041C24.8113 69.3579 24.8805 69.3989 24.9558 69.4243C25.0312 69.4498 25.1111 69.4592 25.1903 69.4519L25.1211 69.5212ZM36.4879 69.5212C36.561 69.5553 36.6408 69.5729 36.7215 69.5729C36.8022 69.5729 36.8818 69.5553 36.955 69.5212C37.1626 69.4174 37.0761 69.2097 36.955 69.0885C36.7018 68.8604 36.4361 68.6465 36.1592 68.4479C35.9862 69.0365 36.0208 69.2096 36.5571 69.4866L36.4879 69.5212ZM30.7612 69.123C30.7491 69.1754 30.7506 69.2301 30.7658 69.2816C30.7809 69.3332 30.8092 69.3798 30.8477 69.4173C30.8934 69.4401 30.9437 69.452 30.9948 69.452C31.0458 69.452 31.0962 69.4401 31.1419 69.4173C31.402 69.2646 31.5948 69.0192 31.6814 68.7302C31.7681 68.4412 31.7422 68.1302 31.609 67.8595C31.2803 68.4307 31.038 68.7596 30.8304 69.0365L30.7612 69.123ZM28.0796 69.2615V69.0885H27.6298V69.3481L28.0796 69.2615ZM23.3391 67.6344C23.2783 67.6905 23.2334 67.7617 23.2091 67.8408C23.1848 67.9198 23.1819 68.004 23.2007 68.0845C23.2385 68.1619 23.2944 68.2291 23.3637 68.2803C23.433 68.3315 23.5135 68.3653 23.5986 68.3787C23.7716 68.3605 23.9377 68.3012 24.083 68.2057L24.7231 67.9633C24.7231 67.6691 24.8616 67.3748 24.5329 67.2017C24.1517 67.3159 23.7764 67.4487 23.4083 67.5998L23.3391 67.6344ZM25.0692 71.3387C25.0692 71.3387 25.0692 71.4252 24.9827 71.4771H25.1903C25.1933 71.4252 25.1933 71.3733 25.1903 71.3214C25.1903 71.3214 25.2422 71.2694 25.2076 71.304L25.0692 71.3387ZM19.6886 56.6429H19.8616C19.8526 56.47 19.8526 56.2967 19.8616 56.1237C19.7405 56.1237 19.6713 56.1237 19.6194 56.1237C19.5838 56.1654 19.5606 56.2162 19.5524 56.2704C19.5442 56.3246 19.5513 56.38 19.5729 56.4304C19.5945 56.4808 19.6297 56.5242 19.6746 56.5556C19.7195 56.5871 19.7723 56.6053 19.827 56.6083L19.6886 56.6429ZM30.0692 70.352C30.0896 70.087 30.0896 69.8208 30.0692 69.5558L29.0657 70.2135C29.0657 70.2135 29.0657 70.3348 29.0657 70.3867L29.3771 70.5597C29.8789 70.7675 30.1211 70.7674 30.2076 70.3174L30.0692 70.352ZM46.6436 53.3888C46.6466 53.3369 46.6466 53.2849 46.6436 53.233C46.5988 53.2171 46.55 53.2171 46.5052 53.233C46.5052 53.233 46.5052 53.3196 46.4187 53.3715L46.6436 53.3888ZM36.1765 67.6344C36.0208 67.6344 35.7786 67.7383 35.744 67.8422C35.7094 67.946 35.8477 68.1537 35.9342 68.2922C36.0207 68.4307 36.0208 68.2922 36.0554 68.4134C36.263 68.1711 36.7993 68.2576 36.6955 67.721C36.5732 67.6675 36.4456 67.6268 36.3149 67.5998L36.1765 67.6344ZM24.6367 57.093V56.9199H24.481C24.481 57.0064 24.481 57.093 24.481 57.1623L24.6367 57.093ZM21.1765 57.7508C21.7647 57.9585 21.9896 57.9238 22.1453 57.543C22.1453 57.543 22.1453 57.3007 22.0069 57.3007C21.6782 57.1795 21.4533 57.4392 21.2457 57.7161L21.1765 57.7508ZM50.8996 52.2291C50.8996 52.2291 50.8997 52.3156 50.8131 52.3675H51.0381V52.1944L50.8996 52.2291ZM23.7889 59.4817C24.6194 59.3952 24.6713 59.3086 24.3945 58.6854C24.3103 58.5528 24.2178 58.4256 24.1177 58.3046C23.7197 58.6508 23.6159 58.9624 23.8581 59.3951L23.7889 59.4817ZM20.0173 58.5297C20.0173 58.7028 20.2422 58.9278 20.4152 59.049C20.4766 59.1134 20.5504 59.1647 20.6322 59.1997C20.714 59.2347 20.802 59.2528 20.891 59.2528C20.9799 59.2528 21.068 59.2347 21.1498 59.1997C21.2316 59.1647 21.3054 59.1134 21.3668 59.049C21.2284 58.6509 20.6747 58.3047 21.1591 57.8027C20.8996 57.6642 20.6055 57.4911 20.3633 57.8027C20.2204 57.9905 20.1254 58.2103 20.0865 58.4431L20.0173 58.5297ZM22.9411 57.3526C22.9411 57.5084 22.9412 57.543 23.1315 57.3526C23.3218 57.1622 23.1315 57.2661 23.1315 57.1969C23.1315 57.1276 23.0277 57.1969 23.0104 57.1969C22.9931 57.1969 23.0104 57.2142 23.0104 57.2661L22.9411 57.3526ZM28.4429 55.2063C28.4311 55.304 28.4311 55.4028 28.4429 55.5005C28.6332 55.3967 28.8408 55.3101 29.0311 55.189C29.0485 55.1444 29.0485 55.095 29.0311 55.0505C29.0311 55.0505 28.8235 54.912 28.7543 54.9293C28.6666 55.0091 28.5856 55.0959 28.5121 55.189L28.4429 55.2063ZM52.6644 52.2291C52.6644 52.0733 52.8546 51.9348 52.8373 51.779C52.82 51.6232 52.6644 51.5713 52.5606 51.4674C52.5381 51.5701 52.5381 51.6764 52.5606 51.779C52.5968 51.9037 52.6431 52.0252 52.699 52.1425L52.6644 52.2291ZM26.1592 56.089C26.3841 55.9679 26.5571 55.8121 26.436 55.5352C26.3149 55.2582 26.263 55.3101 26.2111 55.3274C25.9873 55.3494 25.7758 55.4401 25.6055 55.5871C25.5017 55.7429 25.6055 56.0198 25.6055 56.3141L26.1592 56.089ZM32.3356 54.6524C32.4524 54.6883 32.5775 54.6858 32.6927 54.6453C32.8079 54.6048 32.9072 54.5284 32.9758 54.4273C32.9894 54.4005 32.9966 54.3709 32.9966 54.3408C32.9966 54.3107 32.9894 54.281 32.9758 54.2542C32.9521 54.2406 32.9252 54.2334 32.8979 54.2334C32.8706 54.2334 32.8437 54.2406 32.8201 54.2542L32.3529 54.3927C32.3357 54.4503 32.3062 54.5035 32.2664 54.5485C32.2664 54.5485 32.3702 54.5658 32.3702 54.5658L32.3356 54.6524ZM17.6643 57.6469H17.5086C17.5056 57.6988 17.5056 57.7508 17.5086 57.8027H17.7508L17.6643 57.6469ZM15.3287 57.4738L13.9273 57.9585C14.6367 58.3912 14.7405 58.4258 14.9308 58.27C15.0792 58.1791 15.1986 58.0478 15.2752 57.8915C15.3518 57.7352 15.3824 57.5603 15.3633 57.3872L15.3287 57.4738ZM34.2041 54.912C34.2041 54.912 34.2041 54.9986 34.2041 55.0505C34.2041 55.1024 34.2907 55.0505 34.3253 55.0505C34.3596 55.056 34.3947 55.056 34.4291 55.0505C34.4464 54.7043 34.3771 54.6697 34.2387 54.7908L34.2041 54.912ZM52.2318 52.7137C52.3184 52.7137 52.4395 52.8522 52.5087 52.8349C52.5779 52.8176 52.7855 52.506 52.6644 52.281C52.526 52.3848 52.3702 52.4714 52.2491 52.5752C52.128 52.6791 52.2491 52.5752 52.2664 52.5925L52.2318 52.7137ZM34.8443 65.2977C34.9481 65.2977 35.0692 65.2977 35.1557 65.2977C35.2422 65.2977 35.2595 65.1419 35.2941 65.0554C35.2136 65.047 35.1324 65.047 35.0519 65.0554C34.9912 65.0913 34.9334 65.1319 34.8789 65.1765L34.8443 65.2977ZM44.3253 43.3839C44.3253 43.3839 44.4291 43.3839 44.481 43.3839C44.5329 43.3839 44.9654 43.3839 45.0173 43.0723C45.0692 42.7608 44.8616 42.8473 44.7924 42.7261L44.3253 43.1416C44.3253 43.1416 44.3598 43.2108 44.3598 43.2627L44.3253 43.3839ZM36.3495 44.1109C36.4583 44.1293 36.5694 44.1293 36.6782 44.1109C36.6782 43.9898 36.7647 43.8513 36.6782 43.782C36.6373 43.7426 36.5881 43.7127 36.5342 43.6948C36.4804 43.6768 36.4231 43.6712 36.3668 43.6782C36.3325 43.7238 36.3155 43.7801 36.3186 43.8371C36.3218 43.8941 36.345 43.9482 36.3841 43.9897L36.3495 44.1109ZM16.1418 48.5248C16.038 48.5248 15.8823 48.5248 15.8304 48.5248C15.8061 48.5731 15.7934 48.6265 15.7934 48.6806C15.7934 48.7347 15.8061 48.788 15.8304 48.8364C15.8475 48.8774 15.8763 48.9124 15.9133 48.9371C15.9502 48.9617 15.9936 48.9749 16.038 48.9749C16.0824 48.9749 16.1259 48.9617 16.1628 48.9371C16.1998 48.9124 16.2286 48.8774 16.2456 48.8364C16.2456 48.8364 16.1765 48.5075 16.1765 48.4036L16.1418 48.5248ZM23.9273 47.3132C23.9273 47.3132 24.0139 47.3132 24.0658 47.3132V47.1574C24.0658 47.1574 23.9792 47.1574 23.9273 47.1574C23.8754 47.1574 23.9274 47.1574 23.962 47.192L23.9273 47.3132ZM57.0588 40.6836C57.0991 40.7255 57.1475 40.7588 57.201 40.7816C57.2545 40.8043 57.3121 40.8161 57.3703 40.8161C57.4284 40.8161 57.4859 40.8043 57.5394 40.7816C57.5929 40.7588 57.6413 40.7255 57.6817 40.6836C57.7424 40.6404 57.7919 40.5833 57.826 40.5171C57.8602 40.4508 57.878 40.3774 57.878 40.3028C57.878 40.2283 57.8602 40.1548 57.826 40.0886C57.7919 40.0223 57.7424 39.9652 57.6817 39.922C57.5367 39.9689 57.4063 40.0525 57.3032 40.1647C57.2001 40.277 57.1279 40.414 57.0934 40.5625L57.0588 40.6836ZM30.7093 45.3918H30.917H30.7958H30.7093ZM19.2733 46.7939C19.265 46.9322 19.265 47.071 19.2733 47.2093C19.3652 47.2213 19.4583 47.2213 19.5502 47.2093C19.6153 47.0822 19.6674 46.9488 19.7059 46.8112L19.2733 46.7939ZM31.8512 44.8033C31.8512 44.8033 31.609 44.6994 31.5571 44.8033C31.3483 44.9863 31.1518 45.1829 30.9689 45.3918C31.2426 45.3839 31.515 45.3491 31.782 45.288C31.782 45.288 31.9031 44.8033 31.8858 44.8033H31.8512ZM41.5225 45.4091C41.5225 45.4091 41.5225 45.5476 41.5225 45.5649C41.5481 45.6006 41.5819 45.6298 41.621 45.6499C41.6601 45.6699 41.7035 45.6804 41.7474 45.6804C41.7914 45.6804 41.8347 45.6699 41.8738 45.6499C41.9129 45.6298 41.9467 45.6006 41.9723 45.5649C41.9723 45.5649 41.9723 45.461 41.9723 45.3399L41.5225 45.4091ZM56.5917 48.2652L56.8339 47.9882C56.7823 47.9801 56.7298 47.9801 56.6782 47.9882C56.6334 48.0168 56.6002 48.0602 56.5844 48.1109C56.5685 48.1616 56.5711 48.2162 56.5917 48.2652V48.2652ZM37.5605 45.513C37.4394 45.513 37.301 45.513 37.2491 45.513C37.2248 45.5613 37.2121 45.6147 37.2121 45.6688C37.2121 45.7229 37.2248 45.7762 37.2491 45.8245C37.2491 45.9976 37.6124 45.9803 37.6643 45.8245C37.7163 45.6688 37.5605 45.6861 37.5605 45.5822V45.513ZM31.7128 46.2746V46.4304H32.5778C32.5778 46.4304 32.5778 46.3438 32.5778 46.3092C32.5964 46.2589 32.5964 46.2037 32.5778 46.1534H31.7301C31.7301 46.1534 31.7474 46.2919 31.7128 46.3439V46.2746ZM48.0277 44.1109C48.1315 44.1109 48.2699 44.1109 48.3391 44.1109C48.3945 44.0449 48.4351 43.9677 48.4583 43.8847C48.4815 43.8017 48.4867 43.7147 48.4736 43.6295C48.4605 43.5443 48.4294 43.4629 48.3823 43.3907C48.3352 43.3185 48.2733 43.2571 48.2007 43.2108C48.1514 43.1899 48.0985 43.1791 48.045 43.1791C47.9915 43.1791 47.9385 43.1899 47.8893 43.2108C47.8242 43.279 47.7755 43.3611 47.7468 43.4509C47.718 43.5407 47.71 43.6358 47.7233 43.7291C47.7366 43.8224 47.771 43.9115 47.8237 43.9896C47.8764 44.0678 47.9461 44.1329 48.0277 44.1802V44.1109ZM29.9481 46.3265C29.8749 46.2925 29.7952 46.2748 29.7145 46.2748C29.6338 46.2748 29.5541 46.2925 29.4809 46.3265C29.2906 46.4304 29.3598 46.6381 29.4809 46.7593C29.602 46.8804 30.0173 47.192 30.2941 47.417C30.5363 46.8112 30.4844 46.6727 29.9481 46.3958V46.3265ZM31.0208 48.0575L30.3287 47.5036C30.4844 48.0575 30.4844 48.0575 31.0208 48.0575V48.0575ZM28.0104 46.3265H27.7508C27.7425 46.488 27.7425 46.6497 27.7508 46.8112H27.9066C27.9931 46.6554 27.9931 46.5343 28.0104 46.3439V46.3265ZM35.0692 72.0137L35.7266 71.8926L36.2456 71.304C35.9637 71.2243 35.6734 71.1778 35.3806 71.1655C35.2941 71.1828 35.2249 71.581 35.0692 72.031V72.0137ZM37.8547 66.2324C37.9073 66.2291 37.9583 66.2132 38.0034 66.1861C38.0486 66.159 38.0866 66.1214 38.1142 66.0766C38.1385 66.0345 38.1513 65.9868 38.1513 65.9382C38.1513 65.8895 38.1385 65.8418 38.1142 65.7997C38.0685 65.7768 38.0181 65.7649 37.9671 65.7649C37.916 65.7649 37.8657 65.7768 37.8201 65.7997C37.6909 65.9001 37.5695 66.01 37.4567 66.1285C37.584 66.1848 37.7177 66.2255 37.8547 66.2497V66.2324ZM28.1661 67.2017C28.1603 67.2834 28.1711 67.3653 28.1979 67.4427C28.2246 67.52 28.2668 67.5912 28.3218 67.6518C28.5121 67.8595 28.8581 67.8249 28.8927 67.6518C28.8859 67.5096 28.8568 67.3694 28.8062 67.2364C28.5294 67.0113 28.1834 67.0286 28.1661 67.3056V67.2017ZM30.4671 67.2017H30.8304C30.8877 67.1762 30.936 67.1339 30.9689 67.0805C30.9689 67.0805 30.8478 66.8728 30.7612 66.8555C30.6747 66.8382 30.5709 66.9421 30.4671 67.0113C30.5001 67.1067 30.5001 67.2102 30.4671 67.3056V67.2017ZM36.8512 65.9382C36.9377 65.9382 37.0069 66.0939 37.0761 66.1112C37.1801 66.1089 37.2816 66.079 37.3703 66.0247C37.2914 65.9653 37.2039 65.9186 37.1107 65.8862C37.0193 65.8975 36.9311 65.9269 36.8512 65.9727V65.9382ZM32.9758 67.0287C32.9274 67.0055 32.8729 66.9979 32.82 67.007C32.7671 67.0161 32.7184 67.0413 32.6804 67.0793C32.6425 67.1172 32.6172 67.1661 32.6081 67.219C32.5991 67.272 32.6066 67.3263 32.6297 67.3748C32.7189 67.5077 32.8235 67.6298 32.9411 67.7383C33.0255 67.598 33.0896 67.4465 33.1315 67.2882C33.1315 67.2882 33.045 67.2017 32.9758 67.1497V67.0287ZM32.8547 68.2749C32.8547 68.2749 33.0104 68.1364 33.0277 68.0499C33.045 67.9633 33.0276 67.8595 32.9411 67.7556C32.8847 67.8424 32.8383 67.9353 32.8028 68.0325C32.8028 68.0325 32.8374 68.3268 32.8547 68.3961V68.2749ZM20.3806 70.7675H20.4844C20.4844 70.5597 20.4844 70.5251 20.3114 70.6463C20.1384 70.7674 20.3114 70.7502 20.3114 70.8021C20.3114 70.854 20.346 70.7675 20.3806 70.7675ZM30.6401 74.8179C30.7462 74.9631 30.8227 75.1277 30.8651 75.3025C30.86 75.471 30.7921 75.6316 30.6747 75.7526C30.4325 75.8911 30.1903 76.1507 29.8616 75.8911C29.8616 75.493 29.7405 75.0948 29.6886 74.7313C29.3253 74.7313 29.0484 74.4543 28.737 74.7313C28.8754 75.1121 29.0311 75.493 29.1349 75.8911C29.1408 76.0635 29.0786 76.2313 28.9619 76.3584C28.9619 76.3584 28.5813 76.3584 28.5294 76.22C28.2699 75.7526 28.0969 75.2333 27.8374 74.7486C27.7846 74.6869 27.7177 74.639 27.6424 74.6088C27.5671 74.5787 27.4856 74.5673 27.4048 74.5756C27.2664 74.5756 27.0761 74.8525 27.0934 74.9563C27.1898 75.3241 27.3171 75.6832 27.4741 76.0295L26.4187 77.7604C26.5988 77.9701 26.8217 78.1389 27.0723 78.2553C27.323 78.3717 27.5956 78.4332 27.872 78.4355C28.045 78.6952 27.5605 78.9548 27.872 79.1971L28.6851 78.5047L29.5502 78.8509L29.7751 78.574C29.7085 78.3409 29.6565 78.1038 29.6194 77.8643C29.6254 77.6857 29.6925 77.5146 29.8097 77.3797C29.9481 77.2239 30.1211 77.3797 30.2422 77.3797C30.3073 77.4937 30.4119 77.58 30.5363 77.622L31.5917 76.4277C31.4943 76.4829 31.3894 76.5237 31.2803 76.5489C31.1938 76.5489 31.0727 76.5489 30.9689 76.5489C31.0202 76.3857 31.0899 76.2289 31.1765 76.0815C31.2179 76.0553 31.2659 76.0414 31.3149 76.0414C31.3639 76.0414 31.4118 76.0553 31.4533 76.0815C31.5539 76.1855 31.6411 76.3019 31.7128 76.4277L32.8373 75.1468C32.7162 74.7833 32.5952 74.3851 32.4395 73.987C32.381 73.8474 32.2823 73.7283 32.156 73.6451C32.0296 73.5619 31.8814 73.5183 31.7301 73.5197C31.546 73.5025 31.3606 73.5025 31.1765 73.5197C30.3806 73.7274 30.2249 74.0909 30.6401 74.8179ZM50.6401 54.9986L51.0553 54.5312C51.0553 54.4273 50.8824 54.2889 50.8131 54.3235C50.4325 54.4447 50.0692 54.6005 49.4983 54.8255C49.6634 54.9382 49.8518 55.0123 50.0495 55.0423C50.2471 55.0722 50.449 55.0573 50.6401 54.9986ZM35.0692 67.219C34.0138 67.4787 33.9792 67.5132 34.1522 68.4479C34.3696 68.3304 34.5593 68.1676 34.7085 67.9705C34.8577 67.7735 34.963 67.5467 35.0173 67.3056L35.0692 67.219ZM26.4187 67.5825C26.609 67.7036 26.8512 67.5825 26.8512 67.2536C26.8243 67.1039 26.7778 66.9584 26.7128 66.8209C26.6514 66.8252 26.5915 66.8418 26.5365 66.8694C26.4814 66.8971 26.4324 66.9353 26.3922 66.982C26.352 67.0286 26.3215 67.0827 26.3022 67.1412C26.283 67.1997 26.2756 67.2615 26.2803 67.3229C26.2836 67.3755 26.2994 67.4265 26.3265 67.4716C26.3536 67.5168 26.3911 67.5548 26.436 67.5825H26.4187ZM39.2906 66.4574C39.3564 66.6855 39.4683 66.8976 39.6194 67.0805C39.7034 67.1095 39.7948 67.1095 39.8789 67.0805L40.4325 66.4574C40.4466 66.3442 40.4318 66.2292 40.3894 66.1233C40.3471 66.0173 40.2785 65.9238 40.1903 65.8515C40.0711 65.7681 39.9292 65.7235 39.7837 65.7235C39.6383 65.7235 39.4963 65.7681 39.3771 65.8515C39.316 65.9386 39.2764 66.0388 39.2613 66.1441C39.2463 66.2493 39.2564 66.3568 39.2906 66.4574V66.4574ZM34.2906 65.8862L34.827 65.1939C34.308 65.3496 34.2906 65.3669 34.3079 65.8862H34.2906ZM35.4498 46.8804H35.2422H35.3633C35.3633 46.8804 35.4325 46.9151 35.4671 46.8804H35.4498Z" fill="#555AB1"/>
</svg>
