<svg width="78" height="78" viewBox="0 0 78 78" fill="none" xmlns="http://www.w3.org/2000/svg">
<path d="M77.8892 38.9636C77.8892 46.6698 75.6052 54.203 71.3259 60.6105C67.0466 67.018 60.9642 72.0121 53.8481 74.9611C46.7319 77.9102 38.9014 78.6818 31.3469 77.1784C23.7924 75.675 16.8531 71.9641 11.4066 66.515C5.96015 61.0658 2.251 54.1231 0.748315 46.565C-0.754371 39.0068 0.0169085 31.1725 2.96453 24.0529C5.91216 16.9332 10.9037 10.8479 17.3081 6.56658C23.7126 2.28521 31.2421 0 38.9446 0C49.2734 0 59.1791 4.10511 66.4826 11.4122C73.7862 18.7193 77.8892 28.6298 77.8892 38.9636V38.9636Z" fill="#4AD295"/>
</svg>
