<svg width="351" height="216" viewBox="0 0 351 216" fill="none" xmlns="http://www.w3.org/2000/svg">
<path d="M345.453 -19.0001H318.516C325.28 5.46923 326.302 31.1714 321.502 56.101C316.702 81.0306 306.209 104.513 290.842 124.717C275.475 144.921 255.651 161.299 232.914 172.573C210.178 183.848 185.146 189.714 159.77 189.714C134.394 189.714 109.362 183.848 86.6255 172.573C63.8893 161.299 44.0645 144.921 28.6978 124.717C13.3311 104.513 2.83825 81.0306 -1.96209 56.101C-6.76243 31.1714 -5.74041 5.46923 1.02423 -19.0001L-25.8962 -19.0001C-32.5088 9.02398 -32.6983 38.1817 -26.4505 66.2894C-20.2027 94.3971 -7.67961 120.726 10.181 143.305C28.0415 165.884 50.7767 184.127 76.6837 196.669C102.591 209.211 130.998 215.725 159.779 215.725C188.559 215.725 216.966 209.211 242.874 196.669C268.781 184.127 291.516 165.884 309.376 143.305C327.237 120.726 339.76 94.3971 346.008 66.2894C352.255 38.1817 352.066 9.02398 345.453 -19.0001Z" fill="#B3D5F8"/>
</svg>
