<svg width="130" height="130" viewBox="0 0 130 130" fill="none" xmlns="http://www.w3.org/2000/svg">
<path d="M64.654 129.336C51.8693 129.339 39.3708 125.55 28.739 118.446C18.1073 111.342 9.82006 101.244 4.92522 89.4273C0.0303698 77.6111 -1.25219 64.608 1.23988 52.0625C3.73194 39.517 9.88669 27.9926 18.9256 18.9469C27.9645 9.90117 39.4816 3.74045 52.0203 1.24382C64.5591 -1.25282 77.5562 0.0267959 89.368 4.92086C101.18 9.81492 111.276 18.1036 118.379 28.7385C125.482 39.3735 129.273 51.8771 129.273 64.668C129.255 81.8104 122.442 98.2457 110.328 110.369C98.2135 122.492 81.788 129.313 64.654 129.336ZM64.654 18.6595C55.5539 18.6561 46.6572 21.353 39.0893 26.409C31.5215 31.4651 25.6224 38.6532 22.1384 47.064C18.6543 55.4748 17.7418 64.7305 19.5163 73.6602C21.2908 82.59 25.6725 90.7926 32.1073 97.2304C38.542 103.668 46.7407 108.052 55.6661 109.827C64.5915 111.603 73.8427 110.69 82.2494 107.204C90.6561 103.718 97.8407 97.8166 102.894 90.245C107.948 82.6735 110.643 73.7725 110.64 64.668C110.626 52.47 105.777 40.7755 97.1559 32.1502C88.5348 23.525 76.846 18.6733 64.654 18.6595Z" fill="#1F2144"/>
</svg>
