<svg width="165" height="31" viewBox="0 0 165 31" fill="none" xmlns="http://www.w3.org/2000/svg">
<path d="M36.253 24H39.703L41.083 20.366H48.765L50.168 24H53.595L47.132 7.9H42.739L36.253 24ZM42.164 17.56L44.924 10.361L47.707 17.56H42.164ZM54.4544 21.309C55.2134 23.172 56.8924 24.23 59.3994 24.23C62.0214 24.23 63.9994 22.758 63.9994 20.711C63.9994 18.779 62.8954 17.721 60.1124 17.284C58.2724 17.008 57.6974 16.732 57.6974 16.088C57.6974 15.536 58.3414 15.145 59.2384 15.145C60.1354 15.145 60.8024 15.559 61.0784 16.387L63.3094 15.168C62.6424 13.719 61.4464 12.868 59.1694 12.868C56.9614 12.868 55.0064 14.179 55.0064 16.065C55.0064 17.905 56.3634 18.963 58.7324 19.331C60.6874 19.607 61.2624 19.998 61.2624 20.757C61.2624 21.378 60.6184 21.815 59.4914 21.815C58.1804 21.815 57.2604 21.24 56.7544 20.09L54.4544 21.309ZM67.1479 20.32C67.1479 22.712 68.5969 24.23 71.2419 24.23C73.5419 24.23 75.0139 22.896 75.3129 20.619L72.5989 20.113C72.5069 21.125 72.0699 21.631 71.3109 21.631C70.5749 21.631 70.0689 21.148 70.0689 20.32V15.513H74.1629V13.098H70.0689V9.51H67.1479V13.098H64.8939V15.513H67.1479V20.32ZM77.2038 13.098V24H80.1478V16.985C80.1478 15.881 80.7458 15.26 81.6658 15.26C82.4938 15.26 83.0458 15.812 83.0458 16.617C83.0458 16.916 83.0228 17.192 82.9538 17.445H85.7368C85.8518 17.008 85.8978 16.571 85.8978 16.088C85.8978 14.225 84.7248 12.868 82.7698 12.868C81.5048 12.868 80.6078 13.489 80.1478 14.501V13.098H77.2038ZM87.2966 18.549C87.2966 21.792 89.7116 24.23 93.0006 24.23C96.2896 24.23 98.7046 21.792 98.7046 18.549C98.7046 15.283 96.3126 12.868 93.0006 12.868C89.6886 12.868 87.2966 15.283 87.2966 18.549ZM95.8296 18.549C95.8296 20.366 94.6336 21.585 93.0006 21.585C91.3676 21.585 90.1716 20.366 90.1716 18.549C90.1716 16.732 91.3676 15.513 93.0006 15.513C94.6336 15.513 95.8296 16.732 95.8296 18.549Z" fill="white"/>
<path d="M106.144 21.631C104.603 21.631 103.154 20.435 103.154 18.48C103.154 16.525 104.603 15.444 105.983 15.444C107.363 15.444 108.398 16.295 108.605 17.675L111.204 16.801C110.721 14.317 108.674 12.868 105.914 12.868C102.878 12.868 100.279 15.191 100.279 18.48C100.279 21.93 102.648 24.23 106.213 24.23C109.065 24.23 111.112 22.758 111.779 19.883L109.065 18.94C108.858 20.504 107.915 21.631 106.144 21.631ZM113.149 18.549C113.149 21.792 115.564 24.23 118.853 24.23C122.142 24.23 124.557 21.792 124.557 18.549C124.557 15.283 122.165 12.868 118.853 12.868C115.541 12.868 113.149 15.283 113.149 18.549ZM121.682 18.549C121.682 20.366 120.486 21.585 118.853 21.585C117.22 21.585 116.024 20.366 116.024 18.549C116.024 16.732 117.22 15.513 118.853 15.513C120.486 15.513 121.682 16.732 121.682 18.549ZM126.753 13.098V24H129.697V13.098H126.753ZM126.661 11.465H129.812V8.36H126.661V11.465ZM135.447 24V17.974C135.447 16.249 136.39 15.26 137.701 15.26C138.966 15.26 139.748 16.18 139.748 17.675V24H142.692V16.87C142.692 14.363 141.128 12.868 138.759 12.868C137.379 12.868 136.16 13.42 135.447 14.524V13.098H132.503V24H135.447Z" fill="#4AD295"/>
<path d="M12.4061 9.65825L15.5 3.38933L18.5939 9.65825C18.8852 10.2485 19.4484 10.6577 20.0998 10.7523L27.0179 11.7576L22.0119 16.6373C21.5405 17.0967 21.3254 17.7587 21.4367 18.4075L22.6185 25.2977L16.4307 22.0446C15.848 21.7383 15.152 21.7383 14.5693 22.0446L8.38153 25.2977L9.56329 18.4075C9.67457 17.7587 9.45947 17.0967 8.9881 16.6373L3.98207 11.7576L10.9002 10.7523C11.5517 10.6577 12.1148 10.2485 12.4061 9.65825Z" stroke="#4AD295" stroke-width="3"/>
</svg>
